<?xml version="1.0" encoding="UTF-8" standalone="no"?>
<!DOCTYPE svg PUBLIC "-//W3C//DTD SVG 1.1//EN"
 "http://www.w3.org/Graphics/SVG/1.1/DTD/svg11.dtd">
<!-- Generated by graphviz version 2.40.1 (20161225.0304)
 -->
<!-- Title: accounts Pages: 1 -->
<svg width="790pt" height="892pt"
 viewBox="0.00 0.00 790.00 892.00" xmlns="http://www.w3.org/2000/svg" xmlns:xlink="http://www.w3.org/1999/xlink">
<g id="graph0" class="graph" transform="scale(1 1) rotate(0) translate(4 888)">
<title>accounts</title>
<polygon fill="#ffffff" stroke="transparent" points="-4,4 -4,-888 786,-888 786,4 -4,4"/>
<!-- accounts -->
<g id="node1" class="node">
<title>accounts</title>
<polygon fill="#efefef" stroke="transparent" points="282,-465.5 282,-500.5 539,-500.5 539,-465.5 282,-465.5"/>
<polygon fill="none" stroke="#000000" points="282,-465.5 282,-500.5 539,-500.5 539,-465.5 282,-465.5"/>
<text text-anchor="start" x="310.7025" y="-478.3" font-family="Arial Bold" font-size="18.00" fill="#000000">accounts</text>
<text text-anchor="start" x="382.7295" y="-478.3" font-family="Arial" font-size="14.00" fill="#000000">    </text>
<text text-anchor="start" x="416.9343" y="-478.3" font-family="Arial" font-size="14.00" fill="#666666">[BASE TABLE]</text>
<polygon fill="none" stroke="#000000" points="282,-435.5 282,-465.5 539,-465.5 539,-435.5 282,-435.5"/>
<text text-anchor="start" x="289" y="-446.9" font-family="Arial" font-size="14.00" fill="#000000">id </text>
<text text-anchor="start" x="303.7798" y="-446.9" font-family="Arial" font-size="14.00" fill="#666666">[bigint]</text>
<polygon fill="none" stroke="#000000" points="282,-405.5 282,-435.5 539,-435.5 539,-405.5 282,-405.5"/>
<text text-anchor="start" x="289" y="-416.9" font-family="Arial" font-size="14.00" fill="#000000">email </text>
<text text-anchor="start" x="326.3296" y="-416.9" font-family="Arial" font-size="14.00" fill="#666666">[varchar(255)]</text>
<polygon fill="none" stroke="#000000" points="282,-375.5 282,-405.5 539,-405.5 539,-375.5 282,-375.5"/>
<text text-anchor="start" x="289" y="-386.9" font-family="Arial" font-size="14.00" fill="#000000">password_digest </text>
<text text-anchor="start" x="397.9158" y="-386.9" font-family="Arial" font-size="14.00" fill="#666666">[varchar(255)]</text>
<polygon fill="none" stroke="#000000" points="282,-345.5 282,-375.5 539,-375.5 539,-345.5 282,-345.5"/>
<text text-anchor="start" x="289" y="-356.9" font-family="Arial" font-size="14.00" fill="#000000">accountable_type </text>
<text text-anchor="start" x="402.6044" y="-356.9" font-family="Arial" font-size="14.00" fill="#666666">[varchar(255)]</text>
<polygon fill="none" stroke="#000000" points="282,-315.5 282,-345.5 539,-345.5 539,-315.5 282,-315.5"/>
<text text-anchor="start" x="289" y="-326.9" font-family="Arial" font-size="14.00" fill="#000000">accountable_id </text>
<text text-anchor="start" x="387.0378" y="-326.9" font-family="Arial" font-size="14.00" fill="#666666">[bigint]</text>
<polygon fill="none" stroke="#000000" points="282,-285.5 282,-315.5 539,-315.5 539,-285.5 282,-285.5"/>
<text text-anchor="start" x="289" y="-296.9" font-family="Arial" font-size="14.00" fill="#000000">created_at </text>
<text text-anchor="start" x="359.028" y="-296.9" font-family="Arial" font-size="14.00" fill="#666666">[datetime(6)]</text>
<polygon fill="none" stroke="#000000" points="282,-255.5 282,-285.5 539,-285.5 539,-255.5 282,-255.5"/>
<text text-anchor="start" x="289" y="-266.9" font-family="Arial" font-size="14.00" fill="#000000">updated_at </text>
<text text-anchor="start" x="362.9326" y="-266.9" font-family="Arial" font-size="14.00" fill="#666666">[datetime(6)]</text>
<polygon fill="none" stroke="#000000" points="282,-225.5 282,-255.5 539,-255.5 539,-225.5 282,-225.5"/>
<text text-anchor="start" x="289" y="-236.9" font-family="Arial" font-size="14.00" fill="#000000">failed_attempts </text>
<text text-anchor="start" x="387.805" y="-236.9" font-family="Arial" font-size="14.00" fill="#666666">[int]</text>
<polygon fill="none" stroke="#000000" points="282,-195.5 282,-225.5 539,-225.5 539,-195.5 282,-195.5"/>
<text text-anchor="start" x="289" y="-206.9" font-family="Arial" font-size="14.00" fill="#000000">locked_at </text>
<text text-anchor="start" x="352.8008" y="-206.9" font-family="Arial" font-size="14.00" fill="#666666">[datetime(6)]</text>
<polygon fill="none" stroke="#000000" points="282,-165.5 282,-195.5 539,-195.5 539,-165.5 282,-165.5"/>
<text text-anchor="start" x="289" y="-176.9" font-family="Arial" font-size="14.00" fill="#000000">unlock_token </text>
<text text-anchor="start" x="375.366" y="-176.9" font-family="Arial" font-size="14.00" fill="#666666">[varchar(255)]</text>
<polygon fill="none" stroke="#000000" points="282,-135.5 282,-165.5 539,-165.5 539,-135.5 282,-135.5"/>
<text text-anchor="start" x="289" y="-146.9" font-family="Arial" font-size="14.00" fill="#000000">reset_password_sent_at </text>
<text text-anchor="start" x="445.3814" y="-146.9" font-family="Arial" font-size="14.00" fill="#666666">[datetime(6)]</text>
<polygon fill="none" stroke="#000000" points="282,-105.5 282,-135.5 539,-135.5 539,-105.5 282,-105.5"/>
<text text-anchor="start" x="289" y="-116.9" font-family="Arial" font-size="14.00" fill="#000000">password_changed_at </text>
<text text-anchor="start" x="433.7222" y="-116.9" font-family="Arial" font-size="14.00" fill="#666666">[datetime(6)]</text>
<polygon fill="none" stroke="#000000" points="282,-75.5 282,-105.5 539,-105.5 539,-75.5 282,-75.5"/>
<text text-anchor="start" x="289" y="-86.9" font-family="Arial" font-size="14.00" fill="#000000">reset_password_token </text>
<text text-anchor="start" x="433.7082" y="-86.9" font-family="Arial" font-size="14.00" fill="#666666">[varchar(255)]</text>
<polygon fill="none" stroke="#000000" points="282,-45.5 282,-75.5 539,-75.5 539,-45.5 282,-45.5"/>
<text text-anchor="start" x="288.7658" y="-56.9" font-family="Arial" font-size="14.00" fill="#000000">receive_welcome_mail_at </text>
<text text-anchor="start" x="453.6704" y="-56.9" font-family="Arial" font-size="14.00" fill="#666666">[datetime(6)]</text>
<polygon fill="none" stroke="#000000" stroke-width="3" points="280,-44.5 280,-502.5 540,-502.5 540,-44.5 280,-44.5"/>
</g>
<!-- bounce_mail_addresses -->
<g id="node2" class="node">
<title>bounce_mail_addresses</title>
<polygon fill="#efefef" stroke="transparent" points="43,-805.5 43,-840.5 379,-840.5 379,-805.5 43,-805.5"/>
<polygon fill="none" stroke="#000000" points="43,-805.5 43,-840.5 379,-840.5 379,-805.5 43,-805.5"/>
<text text-anchor="start" x="49.6893" y="-818.3" font-family="Arial Bold" font-size="18.00" fill="#000000">bounce_mail_addresses</text>
<text text-anchor="start" x="244.7427" y="-818.3" font-family="Arial" font-size="14.00" fill="#000000">    </text>
<text text-anchor="start" x="278.9475" y="-818.3" font-family="Arial" font-size="14.00" fill="#666666">[BASE TABLE]</text>
<polygon fill="none" stroke="#000000" points="43,-775.5 43,-805.5 379,-805.5 379,-775.5 43,-775.5"/>
<text text-anchor="start" x="50" y="-786.9" font-family="Arial" font-size="14.00" fill="#000000">id    </text>
<text text-anchor="start" x="95.094" y="-786.9" font-family="Arial" font-size="14.00" fill="#666666">[bigint]</text>
<polygon fill="none" stroke="#000000" points="43,-745.5 43,-775.5 379,-775.5 379,-745.5 43,-745.5"/>
<text text-anchor="start" x="50" y="-756.9" font-family="Arial" font-size="14.00" fill="#000000">created_at    </text>
<text text-anchor="start" x="150.3422" y="-756.9" font-family="Arial" font-size="14.00" fill="#666666">[datetime(6)]</text>
<polygon fill="none" stroke="#000000" points="43,-715.5 43,-745.5 379,-745.5 379,-715.5 43,-715.5"/>
<text text-anchor="start" x="50" y="-726.9" font-family="Arial" font-size="14.00" fill="#000000">updated_at    </text>
<text text-anchor="start" x="154.2468" y="-726.9" font-family="Arial" font-size="14.00" fill="#666666">[datetime(6)]</text>
<polygon fill="none" stroke="#000000" points="43,-685.5 43,-715.5 379,-715.5 379,-685.5 43,-685.5"/>
<text text-anchor="start" x="50" y="-696.9" font-family="Arial" font-size="14.00" fill="#000000">subject    </text>
<text text-anchor="start" x="128.5498" y="-696.9" font-family="Arial" font-size="14.00" fill="#666666">[varchar(255)]</text>
<polygon fill="none" stroke="#000000" points="43,-655.5 43,-685.5 379,-685.5 379,-655.5 43,-655.5"/>
<text text-anchor="start" x="50" y="-666.9" font-family="Arial" font-size="14.00" fill="#000000">bounce_type    </text>
<text text-anchor="start" x="164.3562" y="-666.9" font-family="Arial" font-size="14.00" fill="#666666">[varchar(255)]</text>
<polygon fill="none" stroke="#000000" points="43,-625.5 43,-655.5 379,-655.5 379,-625.5 43,-625.5"/>
<text text-anchor="start" x="50" y="-636.9" font-family="Arial" font-size="14.00" fill="#000000">account_id    </text>
<text text-anchor="start" x="151.8976" y="-636.9" font-family="Arial" font-size="14.00" fill="#666666">[bigint]</text>
</g>
<!-- bounce_mail_addresses&#45;&gt;accounts -->
<g id="edge1" class="edge">
<title>bounce_mail_addresses:account_id&#45;&gt;accounts:id</title>
<path fill="none" stroke="#000000" d="M388.7745,-637.7809C400.8605,-628.9352 391.1979,-600.538 379,-583 352.7434,-545.2487 308.2566,-584.7513 282,-547 257.5109,-511.79 239.1111,-450.5 282,-450.5"/>
<polygon fill="#000000" stroke="#000000" points="388.6342,-637.8199 377.7939,-636.1646 383.8171,-639.1599 379,-640.5 379,-640.5 379,-640.5 383.8171,-639.1599 380.2061,-644.8354 388.6342,-637.8199 388.6342,-637.8199"/>
<text text-anchor="start" x="386.377" y="-650.5" font-family="Arial" font-size="10.00" fill="#000000">FOREIGN KEY (account_id) REFERENCES accounts (id)</text>
</g>
<!-- login_histories -->
<g id="node3" class="node">
<title>login_histories</title>
<polygon fill="#efefef" stroke="transparent" points="483,-790.5 483,-825.5 739,-825.5 739,-790.5 483,-790.5"/>
<polygon fill="none" stroke="#000000" points="483,-790.5 483,-825.5 739,-825.5 739,-790.5 483,-790.5"/>
<text text-anchor="start" x="489.7087" y="-803.3" font-family="Arial Bold" font-size="18.00" fill="#000000">login_histories</text>
<text text-anchor="start" x="604.7233" y="-803.3" font-family="Arial" font-size="14.00" fill="#000000">    </text>
<text text-anchor="start" x="638.9281" y="-803.3" font-family="Arial" font-size="14.00" fill="#666666">[BASE TABLE]</text>
<polygon fill="none" stroke="#000000" points="483,-760.5 483,-790.5 739,-790.5 739,-760.5 483,-760.5"/>
<text text-anchor="start" x="490" y="-771.9" font-family="Arial" font-size="14.00" fill="#000000">id    </text>
<text text-anchor="start" x="535.094" y="-771.9" font-family="Arial" font-size="14.00" fill="#666666">[bigint]</text>
<polygon fill="none" stroke="#000000" points="483,-730.5 483,-760.5 739,-760.5 739,-730.5 483,-730.5"/>
<text text-anchor="start" x="490" y="-741.9" font-family="Arial" font-size="14.00" fill="#000000">account_id    </text>
<text text-anchor="start" x="591.8976" y="-741.9" font-family="Arial" font-size="14.00" fill="#666666">[bigint]</text>
<polygon fill="none" stroke="#000000" points="483,-700.5 483,-730.5 739,-730.5 739,-700.5 483,-700.5"/>
<text text-anchor="start" x="490" y="-711.9" font-family="Arial" font-size="14.00" fill="#000000">login_at    </text>
<text text-anchor="start" x="573.2216" y="-711.9" font-family="Arial" font-size="14.00" fill="#666666">[datetime(6)]</text>
<polygon fill="none" stroke="#000000" points="483,-670.5 483,-700.5 739,-700.5 739,-670.5 483,-670.5"/>
<text text-anchor="start" x="490" y="-681.9" font-family="Arial" font-size="14.00" fill="#000000">created_at    </text>
<text text-anchor="start" x="590.3422" y="-681.9" font-family="Arial" font-size="14.00" fill="#666666">[datetime(6)]</text>
<polygon fill="none" stroke="#000000" points="483,-640.5 483,-670.5 739,-670.5 739,-640.5 483,-640.5"/>
<text text-anchor="start" x="490" y="-651.9" font-family="Arial" font-size="14.00" fill="#000000">updated_at    </text>
<text text-anchor="start" x="594.2468" y="-651.9" font-family="Arial" font-size="14.00" fill="#666666">[datetime(6)]</text>
</g>
<!-- login_histories&#45;&gt;accounts -->
<g id="edge2" class="edge">
<title>login_histories:account_id&#45;&gt;accounts:id</title>
<path fill="none" stroke="#000000" d="M472.8463,-744.6784C421.8291,-735.6722 458.0065,-654.5669 483,-598 496.605,-567.2082 525.395,-577.7918 539,-547 556.3334,-507.7698 581.8889,-450.5 539,-450.5"/>
<polygon fill="#000000" stroke="#000000" points="473.0326,-744.6934 482.637,-749.9853 478.0163,-745.0967 483,-745.5 483,-745.5 483,-745.5 478.0163,-745.0967 483.363,-741.0147 473.0326,-744.6934 473.0326,-744.6934"/>
<text text-anchor="start" x="490.377" y="-755.5" font-family="Arial" font-size="10.00" fill="#000000">FOREIGN KEY (account_id) REFERENCES accounts (id)</text>
</g>
</g>
</svg>
