<?xml version="1.0" encoding="UTF-8" standalone="no"?>
<!DOCTYPE svg PUBLIC "-//W3C//DTD SVG 1.1//EN"
 "http://www.w3.org/Graphics/SVG/1.1/DTD/svg11.dtd">
<!-- Generated by graphviz version 2.40.1 (20161225.0304)
 -->
<!-- Title: action_phases Pages: 1 -->
<svg width="617pt" height="742pt"
 viewBox="0.00 0.00 616.50 742.00" xmlns="http://www.w3.org/2000/svg" xmlns:xlink="http://www.w3.org/1999/xlink">
<g id="graph0" class="graph" transform="scale(1 1) rotate(0) translate(4 738)">
<title>action_phases</title>
<polygon fill="#ffffff" stroke="transparent" points="-4,4 -4,-738 612.5,-738 612.5,4 -4,4"/>
<!-- action_phases -->
<g id="node1" class="node">
<title>action_phases</title>
<polygon fill="#efefef" stroke="transparent" points="306,-195.5 306,-230.5 563,-230.5 563,-195.5 306,-195.5"/>
<polygon fill="none" stroke="#000000" points="306,-195.5 306,-230.5 563,-230.5 563,-195.5 306,-195.5"/>
<text text-anchor="start" x="312.693" y="-208.3" font-family="Arial Bold" font-size="18.00" fill="#000000">action_phases</text>
<text text-anchor="start" x="428.739" y="-208.3" font-family="Arial" font-size="14.00" fill="#000000">    </text>
<text text-anchor="start" x="462.9438" y="-208.3" font-family="Arial" font-size="14.00" fill="#666666">[BASE TABLE]</text>
<polygon fill="none" stroke="#000000" points="306,-165.5 306,-195.5 563,-195.5 563,-165.5 306,-165.5"/>
<text text-anchor="start" x="313" y="-176.9" font-family="Arial" font-size="14.00" fill="#000000">id </text>
<text text-anchor="start" x="327.7798" y="-176.9" font-family="Arial" font-size="14.00" fill="#666666">[bigint]</text>
<polygon fill="none" stroke="#000000" points="306,-135.5 306,-165.5 563,-165.5 563,-135.5 306,-135.5"/>
<text text-anchor="start" x="313" y="-146.9" font-family="Arial" font-size="14.00" fill="#000000">month_from </text>
<text text-anchor="start" x="391.5666" y="-146.9" font-family="Arial" font-size="14.00" fill="#666666">[int]</text>
<polygon fill="none" stroke="#000000" points="306,-105.5 306,-135.5 563,-135.5 563,-105.5 306,-105.5"/>
<text text-anchor="start" x="313" y="-116.9" font-family="Arial" font-size="14.00" fill="#000000">month_to </text>
<text text-anchor="start" x="375.2454" y="-116.9" font-family="Arial" font-size="14.00" fill="#666666">[int]</text>
<polygon fill="none" stroke="#000000" points="306,-75.5 306,-105.5 563,-105.5 563,-75.5 306,-75.5"/>
<text text-anchor="start" x="313" y="-86.9" font-family="Arial" font-size="14.00" fill="#000000">created_at </text>
<text text-anchor="start" x="383.028" y="-86.9" font-family="Arial" font-size="14.00" fill="#666666">[datetime(6)]</text>
<polygon fill="none" stroke="#000000" points="306,-45.5 306,-75.5 563,-75.5 563,-45.5 306,-45.5"/>
<text text-anchor="start" x="313" y="-56.9" font-family="Arial" font-size="14.00" fill="#000000">updated_at </text>
<text text-anchor="start" x="386.9326" y="-56.9" font-family="Arial" font-size="14.00" fill="#666666">[datetime(6)]</text>
<polygon fill="none" stroke="#000000" stroke-width="3" points="304,-44.5 304,-232.5 564,-232.5 564,-44.5 304,-44.5"/>
</g>
<!-- actions -->
<g id="node2" class="node">
<title>actions</title>
<polygon fill="#efefef" stroke="transparent" points="320,-655.5 320,-690.5 549,-690.5 549,-655.5 320,-655.5"/>
<polygon fill="none" stroke="#000000" points="320,-655.5 320,-690.5 549,-690.5 549,-655.5 320,-655.5"/>
<text text-anchor="start" x="342.2085" y="-668.3" font-family="Arial Bold" font-size="18.00" fill="#000000">actions</text>
<text text-anchor="start" x="399.2235" y="-668.3" font-family="Arial" font-size="14.00" fill="#000000">    </text>
<text text-anchor="start" x="433.4283" y="-668.3" font-family="Arial" font-size="14.00" fill="#666666">[BASE TABLE]</text>
<polygon fill="none" stroke="#000000" points="320,-625.5 320,-655.5 549,-655.5 549,-625.5 320,-625.5"/>
<text text-anchor="start" x="327" y="-636.9" font-family="Arial" font-size="14.00" fill="#000000">id    </text>
<text text-anchor="start" x="372.094" y="-636.9" font-family="Arial" font-size="14.00" fill="#666666">[bigint]</text>
<polygon fill="none" stroke="#000000" points="320,-595.5 320,-625.5 549,-625.5 549,-595.5 320,-595.5"/>
<text text-anchor="start" x="327" y="-606.9" font-family="Arial" font-size="14.00" fill="#000000">action_phase_id    </text>
<text text-anchor="start" x="463.1346" y="-606.9" font-family="Arial" font-size="14.00" fill="#666666">[bigint]</text>
<polygon fill="none" stroke="#000000" points="320,-565.5 320,-595.5 549,-595.5 549,-565.5 320,-565.5"/>
<text text-anchor="start" x="327" y="-576.9" font-family="Arial" font-size="14.00" fill="#000000">title    </text>
<text text-anchor="start" x="382.9818" y="-576.9" font-family="Arial" font-size="14.00" fill="#666666">[varchar(255)]</text>
<polygon fill="none" stroke="#000000" points="320,-535.5 320,-565.5 549,-565.5 549,-535.5 320,-535.5"/>
<text text-anchor="start" x="327" y="-546.9" font-family="Arial" font-size="14.00" fill="#000000">sort_order    </text>
<text text-anchor="start" x="424.9902" y="-546.9" font-family="Arial" font-size="14.00" fill="#666666">[int]</text>
<polygon fill="none" stroke="#000000" points="320,-505.5 320,-535.5 549,-535.5 549,-505.5 320,-505.5"/>
<text text-anchor="start" x="327" y="-516.9" font-family="Arial" font-size="14.00" fill="#000000">valid_date_from    </text>
<text text-anchor="start" x="460.7812" y="-516.9" font-family="Arial" font-size="14.00" fill="#666666">[datetime(6)]</text>
<polygon fill="none" stroke="#000000" points="320,-475.5 320,-505.5 549,-505.5 549,-475.5 320,-475.5"/>
<text text-anchor="start" x="327" y="-486.9" font-family="Arial" font-size="14.00" fill="#000000">valid_date_to    </text>
<text text-anchor="start" x="444.46" y="-486.9" font-family="Arial" font-size="14.00" fill="#666666">[datetime(6)]</text>
<polygon fill="none" stroke="#000000" points="320,-445.5 320,-475.5 549,-475.5 549,-445.5 320,-445.5"/>
<text text-anchor="start" x="327" y="-456.9" font-family="Arial" font-size="14.00" fill="#000000">recommended_month    </text>
<text text-anchor="start" x="497.3464" y="-456.9" font-family="Arial" font-size="14.00" fill="#666666">[int]</text>
<polygon fill="none" stroke="#000000" points="320,-415.5 320,-445.5 549,-445.5 549,-415.5 320,-415.5"/>
<text text-anchor="start" x="327" y="-426.9" font-family="Arial" font-size="14.00" fill="#000000">created_at    </text>
<text text-anchor="start" x="427.3422" y="-426.9" font-family="Arial" font-size="14.00" fill="#666666">[datetime(6)]</text>
<polygon fill="none" stroke="#000000" points="320,-385.5 320,-415.5 549,-415.5 549,-385.5 320,-385.5"/>
<text text-anchor="start" x="327" y="-396.9" font-family="Arial" font-size="14.00" fill="#000000">updated_at    </text>
<text text-anchor="start" x="431.2468" y="-396.9" font-family="Arial" font-size="14.00" fill="#666666">[datetime(6)]</text>
<polygon fill="none" stroke="#000000" points="320,-355.5 320,-385.5 549,-385.5 549,-355.5 320,-355.5"/>
<text text-anchor="start" x="326.7735" y="-366.9" font-family="Arial" font-size="14.00" fill="#000000">line_break_title    </text>
<text text-anchor="start" x="455.1073" y="-366.9" font-family="Arial" font-size="14.00" fill="#666666">[varchar(255)]</text>
</g>
<!-- actions&#45;&gt;action_phases -->
<g id="edge1" class="edge">
<title>actions:action_phase_id&#45;&gt;action_phases:id</title>
<path fill="none" stroke="#000000" d="M311.1856,-605.3713C270.649,-556.8566 261.278,-180.5 306,-180.5"/>
<polygon fill="#000000" stroke="#000000" points="311.3566,-605.4708 317.7369,-614.3895 315.6783,-607.9854 320,-610.5 320,-610.5 320,-610.5 315.6783,-607.9854 322.2631,-606.6105 311.3566,-605.4708 311.3566,-605.4708"/>
<text text-anchor="start" x="6.922" y="-620.5" font-family="Arial" font-size="10.00" fill="#000000">FOREIGN KEY (action_phase_id) REFERENCES action_phases (id)</text>
</g>
</g>
</svg>
