<?xml version="1.0" encoding="UTF-8" standalone="no"?>
<!DOCTYPE svg PUBLIC "-//W3C//DTD SVG 1.1//EN"
 "http://www.w3.org/Graphics/SVG/1.1/DTD/svg11.dtd">
<!-- Generated by graphviz version 2.40.1 (20161225.0304)
 -->
<!-- Title: actions Pages: 1 -->
<svg width="2104pt" height="1109pt"
 viewBox="0.00 0.00 2104.00 1109.00" xmlns="http://www.w3.org/2000/svg" xmlns:xlink="http://www.w3.org/1999/xlink">
<g id="graph0" class="graph" transform="scale(1 1) rotate(0) translate(4 1105)">
<title>actions</title>
<polygon fill="#ffffff" stroke="transparent" points="-4,4 -4,-1105 2100,-1105 2100,4 -4,4"/>
<!-- actions -->
<g id="node1" class="node">
<title>actions</title>
<polygon fill="#efefef" stroke="transparent" points="885,-652.5 885,-687.5 1084,-687.5 1084,-652.5 885,-652.5"/>
<polygon fill="none" stroke="#000000" points="885,-652.5 885,-687.5 1084,-687.5 1084,-652.5 885,-652.5"/>
<text text-anchor="start" x="892.2085" y="-665.3" font-family="Arial Bold" font-size="18.00" fill="#000000">actions</text>
<text text-anchor="start" x="949.2235" y="-665.3" font-family="Arial" font-size="14.00" fill="#000000">    </text>
<text text-anchor="start" x="983.4283" y="-665.3" font-family="Arial" font-size="14.00" fill="#666666">[BASE TABLE]</text>
<polygon fill="none" stroke="#000000" points="885,-622.5 885,-652.5 1084,-652.5 1084,-622.5 885,-622.5"/>
<text text-anchor="start" x="892" y="-633.9" font-family="Arial" font-size="14.00" fill="#000000">id </text>
<text text-anchor="start" x="906.7798" y="-633.9" font-family="Arial" font-size="14.00" fill="#666666">[bigint]</text>
<polygon fill="none" stroke="#000000" points="885,-592.5 885,-622.5 1084,-622.5 1084,-592.5 885,-592.5"/>
<text text-anchor="start" x="892" y="-603.9" font-family="Arial" font-size="14.00" fill="#000000">action_phase_id </text>
<text text-anchor="start" x="997.8204" y="-603.9" font-family="Arial" font-size="14.00" fill="#666666">[bigint]</text>
<polygon fill="none" stroke="#000000" points="885,-562.5 885,-592.5 1084,-592.5 1084,-562.5 885,-562.5"/>
<text text-anchor="start" x="892" y="-573.9" font-family="Arial" font-size="14.00" fill="#000000">title </text>
<text text-anchor="start" x="917.6676" y="-573.9" font-family="Arial" font-size="14.00" fill="#666666">[varchar(255)]</text>
<polygon fill="none" stroke="#000000" points="885,-532.5 885,-562.5 1084,-562.5 1084,-532.5 885,-532.5"/>
<text text-anchor="start" x="892" y="-543.9" font-family="Arial" font-size="14.00" fill="#000000">sort_order </text>
<text text-anchor="start" x="959.676" y="-543.9" font-family="Arial" font-size="14.00" fill="#666666">[int]</text>
<polygon fill="none" stroke="#000000" points="885,-502.5 885,-532.5 1084,-532.5 1084,-502.5 885,-502.5"/>
<text text-anchor="start" x="892" y="-513.9" font-family="Arial" font-size="14.00" fill="#000000">valid_date_from </text>
<text text-anchor="start" x="995.467" y="-513.9" font-family="Arial" font-size="14.00" fill="#666666">[datetime(6)]</text>
<polygon fill="none" stroke="#000000" points="885,-472.5 885,-502.5 1084,-502.5 1084,-472.5 885,-472.5"/>
<text text-anchor="start" x="892" y="-483.9" font-family="Arial" font-size="14.00" fill="#000000">valid_date_to </text>
<text text-anchor="start" x="979.1458" y="-483.9" font-family="Arial" font-size="14.00" fill="#666666">[datetime(6)]</text>
<polygon fill="none" stroke="#000000" points="885,-442.5 885,-472.5 1084,-472.5 1084,-442.5 885,-442.5"/>
<text text-anchor="start" x="892" y="-453.9" font-family="Arial" font-size="14.00" fill="#000000">recommended_month </text>
<text text-anchor="start" x="1032.0322" y="-453.9" font-family="Arial" font-size="14.00" fill="#666666">[int]</text>
<polygon fill="none" stroke="#000000" points="885,-412.5 885,-442.5 1084,-442.5 1084,-412.5 885,-412.5"/>
<text text-anchor="start" x="892" y="-423.9" font-family="Arial" font-size="14.00" fill="#000000">created_at </text>
<text text-anchor="start" x="962.028" y="-423.9" font-family="Arial" font-size="14.00" fill="#666666">[datetime(6)]</text>
<polygon fill="none" stroke="#000000" points="885,-382.5 885,-412.5 1084,-412.5 1084,-382.5 885,-382.5"/>
<text text-anchor="start" x="892" y="-393.9" font-family="Arial" font-size="14.00" fill="#000000">updated_at </text>
<text text-anchor="start" x="965.9326" y="-393.9" font-family="Arial" font-size="14.00" fill="#666666">[datetime(6)]</text>
<polygon fill="none" stroke="#000000" points="885,-352.5 885,-382.5 1084,-382.5 1084,-352.5 885,-352.5"/>
<text text-anchor="start" x="891.9306" y="-363.9" font-family="Arial" font-size="14.00" fill="#000000">line_break_title </text>
<text text-anchor="start" x="989.9502" y="-363.9" font-family="Arial" font-size="14.00" fill="#666666">[varchar(255)]</text>
<polygon fill="none" stroke="#000000" stroke-width="3" points="883,-351.5 883,-689.5 1085,-689.5 1085,-351.5 883,-351.5"/>
</g>
<!-- action_phases -->
<g id="node7" class="node">
<title>action_phases</title>
<polygon fill="#efefef" stroke="transparent" points="856,-192.5 856,-227.5 1113,-227.5 1113,-192.5 856,-192.5"/>
<polygon fill="none" stroke="#000000" points="856,-192.5 856,-227.5 1113,-227.5 1113,-192.5 856,-192.5"/>
<text text-anchor="start" x="862.693" y="-205.3" font-family="Arial Bold" font-size="18.00" fill="#000000">action_phases</text>
<text text-anchor="start" x="978.739" y="-205.3" font-family="Arial" font-size="14.00" fill="#000000">    </text>
<text text-anchor="start" x="1012.9438" y="-205.3" font-family="Arial" font-size="14.00" fill="#666666">[BASE TABLE]</text>
<polygon fill="none" stroke="#000000" points="856,-162.5 856,-192.5 1113,-192.5 1113,-162.5 856,-162.5"/>
<text text-anchor="start" x="863" y="-173.9" font-family="Arial" font-size="14.00" fill="#000000">id    </text>
<text text-anchor="start" x="908.094" y="-173.9" font-family="Arial" font-size="14.00" fill="#666666">[bigint]</text>
<polygon fill="none" stroke="#000000" points="856,-132.5 856,-162.5 1113,-162.5 1113,-132.5 856,-132.5"/>
<text text-anchor="start" x="863" y="-143.9" font-family="Arial" font-size="14.00" fill="#000000">month_from    </text>
<text text-anchor="start" x="971.8808" y="-143.9" font-family="Arial" font-size="14.00" fill="#666666">[int]</text>
<polygon fill="none" stroke="#000000" points="856,-102.5 856,-132.5 1113,-132.5 1113,-102.5 856,-102.5"/>
<text text-anchor="start" x="863" y="-113.9" font-family="Arial" font-size="14.00" fill="#000000">month_to    </text>
<text text-anchor="start" x="955.5596" y="-113.9" font-family="Arial" font-size="14.00" fill="#666666">[int]</text>
<polygon fill="none" stroke="#000000" points="856,-72.5 856,-102.5 1113,-102.5 1113,-72.5 856,-72.5"/>
<text text-anchor="start" x="863" y="-83.9" font-family="Arial" font-size="14.00" fill="#000000">created_at    </text>
<text text-anchor="start" x="963.3422" y="-83.9" font-family="Arial" font-size="14.00" fill="#666666">[datetime(6)]</text>
<polygon fill="none" stroke="#000000" points="856,-42.5 856,-72.5 1113,-72.5 1113,-42.5 856,-42.5"/>
<text text-anchor="start" x="863" y="-53.9" font-family="Arial" font-size="14.00" fill="#000000">updated_at    </text>
<text text-anchor="start" x="967.2468" y="-53.9" font-family="Arial" font-size="14.00" fill="#666666">[datetime(6)]</text>
</g>
<!-- actions&#45;&gt;action_phases -->
<g id="edge6" class="edge">
<title>actions:action_phase_id&#45;&gt;action_phases:id</title>
<path fill="none" stroke="#000000" d="M874.7779,-607.084C692.4789,-592.1032 667.9153,-177.5 856,-177.5"/>
<polygon fill="#000000" stroke="#000000" points="875.0083,-607.0933 884.817,-611.9963 880.0041,-607.2967 885,-607.5 885,-607.5 885,-607.5 880.0041,-607.2967 885.183,-603.0037 875.0083,-607.0933 875.0083,-607.0933"/>
<text text-anchor="start" x="571.922" y="-617.5" font-family="Arial" font-size="10.00" fill="#000000">FOREIGN KEY (action_phase_id) REFERENCES action_phases (id)</text>
</g>
<!-- action_comments -->
<g id="node2" class="node">
<title>action_comments</title>
<polygon fill="#efefef" stroke="transparent" points="43,-1022.5 43,-1057.5 325,-1057.5 325,-1022.5 43,-1022.5"/>
<polygon fill="none" stroke="#000000" points="43,-1022.5 43,-1057.5 325,-1057.5 325,-1022.5 43,-1022.5"/>
<text text-anchor="start" x="49.7028" y="-1035.3" font-family="Arial Bold" font-size="18.00" fill="#000000">action_comments</text>
<text text-anchor="start" x="190.7292" y="-1035.3" font-family="Arial" font-size="14.00" fill="#000000">    </text>
<text text-anchor="start" x="224.934" y="-1035.3" font-family="Arial" font-size="14.00" fill="#666666">[BASE TABLE]</text>
<polygon fill="none" stroke="#000000" points="43,-992.5 43,-1022.5 325,-1022.5 325,-992.5 43,-992.5"/>
<text text-anchor="start" x="50" y="-1003.9" font-family="Arial" font-size="14.00" fill="#000000">id    </text>
<text text-anchor="start" x="95.094" y="-1003.9" font-family="Arial" font-size="14.00" fill="#666666">[bigint]</text>
<polygon fill="none" stroke="#000000" points="43,-962.5 43,-992.5 325,-992.5 325,-962.5 43,-962.5"/>
<text text-anchor="start" x="50" y="-973.9" font-family="Arial" font-size="14.00" fill="#000000">action_id    </text>
<text text-anchor="start" x="140.2216" y="-973.9" font-family="Arial" font-size="14.00" fill="#666666">[bigint]</text>
<polygon fill="none" stroke="#000000" points="43,-932.5 43,-962.5 325,-962.5 325,-932.5 43,-932.5"/>
<text text-anchor="start" x="50" y="-943.9" font-family="Arial" font-size="14.00" fill="#000000">personality_type_group_id    </text>
<text text-anchor="start" x="248.366" y="-943.9" font-family="Arial" font-size="14.00" fill="#666666">[bigint]</text>
<polygon fill="none" stroke="#000000" points="43,-902.5 43,-932.5 325,-932.5 325,-902.5 43,-902.5"/>
<text text-anchor="start" x="50" y="-913.9" font-family="Arial" font-size="14.00" fill="#000000">created_at    </text>
<text text-anchor="start" x="150.3422" y="-913.9" font-family="Arial" font-size="14.00" fill="#666666">[datetime(6)]</text>
<polygon fill="none" stroke="#000000" points="43,-872.5 43,-902.5 325,-902.5 325,-872.5 43,-872.5"/>
<text text-anchor="start" x="50" y="-883.9" font-family="Arial" font-size="14.00" fill="#000000">updated_at    </text>
<text text-anchor="start" x="154.2468" y="-883.9" font-family="Arial" font-size="14.00" fill="#666666">[datetime(6)]</text>
<polygon fill="none" stroke="#000000" points="43,-842.5 43,-872.5 325,-872.5 325,-842.5 43,-842.5"/>
<text text-anchor="start" x="50" y="-853.9" font-family="Arial" font-size="14.00" fill="#000000">episode    </text>
<text text-anchor="start" x="133.2244" y="-853.9" font-family="Arial" font-size="14.00" fill="#666666">[json]</text>
<polygon fill="none" stroke="#000000" points="43,-812.5 43,-842.5 325,-842.5 325,-812.5 43,-812.5"/>
<text text-anchor="start" x="50" y="-823.9" font-family="Arial" font-size="14.00" fill="#000000">advice    </text>
<text text-anchor="start" x="124.6592" y="-823.9" font-family="Arial" font-size="14.00" fill="#666666">[json]</text>
</g>
<!-- action_comments&#45;&gt;actions -->
<g id="edge1" class="edge">
<title>action_comments:action_id&#45;&gt;actions:id</title>
<path fill="none" stroke="#000000" d="M335.2256,-976.872C411.7518,-966.6768 312.7093,-834.9106 377,-770 459.0983,-687.11 768.3343,-637.5 885,-637.5"/>
<polygon fill="#000000" stroke="#000000" points="334.9812,-976.8869 324.7241,-973.0085 329.9906,-977.1935 325,-977.5 325,-977.5 325,-977.5 329.9906,-977.1935 325.2759,-981.9915 334.9812,-976.8869 334.9812,-976.8869"/>
<text text-anchor="start" x="331.717" y="-987.5" font-family="Arial" font-size="10.00" fill="#000000">FOREIGN KEY (action_id) REFERENCES actions (id)</text>
</g>
<!-- action_videos -->
<g id="node3" class="node">
<title>action_videos</title>
<polygon fill="#efefef" stroke="transparent" points="430,-992.5 430,-1027.5 681,-1027.5 681,-992.5 430,-992.5"/>
<polygon fill="none" stroke="#000000" points="430,-992.5 430,-1027.5 681,-1027.5 681,-992.5 430,-992.5"/>
<text text-anchor="start" x="436.699" y="-1005.3" font-family="Arial Bold" font-size="18.00" fill="#000000">action_videos</text>
<text text-anchor="start" x="546.733" y="-1005.3" font-family="Arial" font-size="14.00" fill="#000000">    </text>
<text text-anchor="start" x="580.9378" y="-1005.3" font-family="Arial" font-size="14.00" fill="#666666">[BASE TABLE]</text>
<polygon fill="none" stroke="#000000" points="430,-962.5 430,-992.5 681,-992.5 681,-962.5 430,-962.5"/>
<text text-anchor="start" x="437" y="-973.9" font-family="Arial" font-size="14.00" fill="#000000">id    </text>
<text text-anchor="start" x="482.094" y="-973.9" font-family="Arial" font-size="14.00" fill="#666666">[bigint]</text>
<polygon fill="none" stroke="#000000" points="430,-932.5 430,-962.5 681,-962.5 681,-932.5 430,-932.5"/>
<text text-anchor="start" x="437" y="-943.9" font-family="Arial" font-size="14.00" fill="#000000">action_id    </text>
<text text-anchor="start" x="527.2216" y="-943.9" font-family="Arial" font-size="14.00" fill="#666666">[bigint]</text>
<polygon fill="none" stroke="#000000" points="430,-902.5 430,-932.5 681,-932.5 681,-902.5 430,-902.5"/>
<text text-anchor="start" x="437" y="-913.9" font-family="Arial" font-size="14.00" fill="#000000">learning_video_id    </text>
<text text-anchor="start" x="580.9004" y="-913.9" font-family="Arial" font-size="14.00" fill="#666666">[bigint]</text>
<polygon fill="none" stroke="#000000" points="430,-872.5 430,-902.5 681,-902.5 681,-872.5 430,-872.5"/>
<text text-anchor="start" x="437" y="-883.9" font-family="Arial" font-size="14.00" fill="#000000">created_at    </text>
<text text-anchor="start" x="537.3422" y="-883.9" font-family="Arial" font-size="14.00" fill="#666666">[datetime(6)]</text>
<polygon fill="none" stroke="#000000" points="430,-842.5 430,-872.5 681,-872.5 681,-842.5 430,-842.5"/>
<text text-anchor="start" x="437" y="-853.9" font-family="Arial" font-size="14.00" fill="#000000">updated_at    </text>
<text text-anchor="start" x="541.2468" y="-853.9" font-family="Arial" font-size="14.00" fill="#666666">[datetime(6)]</text>
</g>
<!-- action_videos&#45;&gt;actions -->
<g id="edge2" class="edge">
<title>action_videos:action_id&#45;&gt;actions:id</title>
<path fill="none" stroke="#000000" d="M691.1342,-946.8576C756.5596,-937.8465 689.7999,-836.0657 732,-770 780.4239,-694.1908 795.045,-637.5 885,-637.5"/>
<polygon fill="#000000" stroke="#000000" points="690.98,-946.8673 680.7153,-943.009 685.99,-947.1836 681,-947.5 681,-947.5 681,-947.5 685.99,-947.1836 681.2847,-951.991 690.98,-946.8673 690.98,-946.8673"/>
<text text-anchor="start" x="687.717" y="-957.5" font-family="Arial" font-size="10.00" fill="#000000">FOREIGN KEY (action_id) REFERENCES actions (id)</text>
</g>
<!-- enquete_achieve_action_results -->
<g id="node4" class="node">
<title>enquete_achieve_action_results</title>
<polygon fill="#efefef" stroke="transparent" points="785,-992.5 785,-1027.5 1184,-1027.5 1184,-992.5 785,-992.5"/>
<polygon fill="none" stroke="#000000" points="785,-992.5 785,-1027.5 1184,-1027.5 1184,-992.5 785,-992.5"/>
<text text-anchor="start" x="791.6695" y="-1005.3" font-family="Arial Bold" font-size="18.00" fill="#000000">enquete_achieve_action_results</text>
<text text-anchor="start" x="1049.7625" y="-1005.3" font-family="Arial" font-size="14.00" fill="#000000">    </text>
<text text-anchor="start" x="1083.9673" y="-1005.3" font-family="Arial" font-size="14.00" fill="#666666">[BASE TABLE]</text>
<polygon fill="none" stroke="#000000" points="785,-962.5 785,-992.5 1184,-992.5 1184,-962.5 785,-962.5"/>
<text text-anchor="start" x="792" y="-973.9" font-family="Arial" font-size="14.00" fill="#000000">id    </text>
<text text-anchor="start" x="837.094" y="-973.9" font-family="Arial" font-size="14.00" fill="#666666">[bigint]</text>
<polygon fill="none" stroke="#000000" points="785,-932.5 785,-962.5 1184,-962.5 1184,-932.5 785,-932.5"/>
<text text-anchor="start" x="792" y="-943.9" font-family="Arial" font-size="14.00" fill="#000000">enquete_delivery_detail_id    </text>
<text text-anchor="start" x="992.7012" y="-943.9" font-family="Arial" font-size="14.00" fill="#666666">[bigint]</text>
<polygon fill="none" stroke="#000000" points="785,-902.5 785,-932.5 1184,-932.5 1184,-902.5 785,-902.5"/>
<text text-anchor="start" x="792" y="-913.9" font-family="Arial" font-size="14.00" fill="#000000">action_id    </text>
<text text-anchor="start" x="882.2216" y="-913.9" font-family="Arial" font-size="14.00" fill="#666666">[bigint]</text>
<polygon fill="none" stroke="#000000" points="785,-872.5 785,-902.5 1184,-902.5 1184,-872.5 785,-872.5"/>
<text text-anchor="start" x="792" y="-883.9" font-family="Arial" font-size="14.00" fill="#000000">created_at    </text>
<text text-anchor="start" x="892.3422" y="-883.9" font-family="Arial" font-size="14.00" fill="#666666">[datetime(6)]</text>
<polygon fill="none" stroke="#000000" points="785,-842.5 785,-872.5 1184,-872.5 1184,-842.5 785,-842.5"/>
<text text-anchor="start" x="792" y="-853.9" font-family="Arial" font-size="14.00" fill="#000000">updated_at    </text>
<text text-anchor="start" x="896.2468" y="-853.9" font-family="Arial" font-size="14.00" fill="#666666">[datetime(6)]</text>
</g>
<!-- enquete_achieve_action_results&#45;&gt;actions -->
<g id="edge3" class="edge">
<title>enquete_achieve_action_results:action_id&#45;&gt;actions:id</title>
<path fill="none" stroke="#000000" d="M775.335,-914.9069C730.1479,-886.6795 822.6709,-637.5 885,-637.5"/>
<polygon fill="#000000" stroke="#000000" points="775.3416,-914.9086 783.8339,-921.8463 780.1708,-916.2043 785,-917.5 785,-917.5 785,-917.5 780.1708,-916.2043 786.1661,-913.1537 775.3416,-914.9086 775.3416,-914.9086"/>
<text text-anchor="start" x="791.717" y="-927.5" font-family="Arial" font-size="10.00" fill="#000000">FOREIGN KEY (action_id) REFERENCES actions (id)</text>
</g>
<!-- enquete_goal_action_results -->
<g id="node5" class="node">
<title>enquete_goal_action_results</title>
<polygon fill="#efefef" stroke="transparent" points="1288,-992.5 1288,-1027.5 1659,-1027.5 1659,-992.5 1288,-992.5"/>
<polygon fill="none" stroke="#000000" points="1288,-992.5 1288,-1027.5 1659,-1027.5 1659,-992.5 1288,-992.5"/>
<text text-anchor="start" x="1294.6726" y="-1005.3" font-family="Arial Bold" font-size="18.00" fill="#000000">enquete_goal_action_results</text>
<text text-anchor="start" x="1524.7594" y="-1005.3" font-family="Arial" font-size="14.00" fill="#000000">    </text>
<text text-anchor="start" x="1558.9642" y="-1005.3" font-family="Arial" font-size="14.00" fill="#666666">[BASE TABLE]</text>
<polygon fill="none" stroke="#000000" points="1288,-962.5 1288,-992.5 1659,-992.5 1659,-962.5 1288,-962.5"/>
<text text-anchor="start" x="1295" y="-973.9" font-family="Arial" font-size="14.00" fill="#000000">id    </text>
<text text-anchor="start" x="1340.094" y="-973.9" font-family="Arial" font-size="14.00" fill="#666666">[bigint]</text>
<polygon fill="none" stroke="#000000" points="1288,-932.5 1288,-962.5 1659,-962.5 1659,-932.5 1288,-932.5"/>
<text text-anchor="start" x="1295" y="-943.9" font-family="Arial" font-size="14.00" fill="#000000">enquete_delivery_detail_id    </text>
<text text-anchor="start" x="1495.7012" y="-943.9" font-family="Arial" font-size="14.00" fill="#666666">[bigint]</text>
<polygon fill="none" stroke="#000000" points="1288,-902.5 1288,-932.5 1659,-932.5 1659,-902.5 1288,-902.5"/>
<text text-anchor="start" x="1295" y="-913.9" font-family="Arial" font-size="14.00" fill="#000000">action_id    </text>
<text text-anchor="start" x="1385.2216" y="-913.9" font-family="Arial" font-size="14.00" fill="#666666">[bigint]</text>
<polygon fill="none" stroke="#000000" points="1288,-872.5 1288,-902.5 1659,-902.5 1659,-872.5 1288,-872.5"/>
<text text-anchor="start" x="1295" y="-883.9" font-family="Arial" font-size="14.00" fill="#000000">created_at    </text>
<text text-anchor="start" x="1395.3422" y="-883.9" font-family="Arial" font-size="14.00" fill="#666666">[datetime(6)]</text>
<polygon fill="none" stroke="#000000" points="1288,-842.5 1288,-872.5 1659,-872.5 1659,-842.5 1288,-842.5"/>
<text text-anchor="start" x="1295" y="-853.9" font-family="Arial" font-size="14.00" fill="#000000">updated_at    </text>
<text text-anchor="start" x="1399.2468" y="-853.9" font-family="Arial" font-size="14.00" fill="#666666">[datetime(6)]</text>
</g>
<!-- enquete_goal_action_results&#45;&gt;actions -->
<g id="edge4" class="edge">
<title>enquete_goal_action_results:action_id&#45;&gt;actions:id</title>
<path fill="none" stroke="#000000" d="M1278.0225,-916.7672C1224.1884,-908.0993 1272.9819,-824.4779 1236,-770 1185.6647,-695.8514 1173.6195,-637.5 1084,-637.5"/>
<polygon fill="#000000" stroke="#000000" points="1278.0269,-916.7674 1287.6703,-921.9879 1283.0134,-917.1337 1288,-917.5 1288,-917.5 1288,-917.5 1283.0134,-917.1337 1288.3297,-913.0121 1278.0269,-916.7674 1278.0269,-916.7674"/>
<text text-anchor="start" x="1294.717" y="-927.5" font-family="Arial" font-size="10.00" fill="#000000">FOREIGN KEY (action_id) REFERENCES actions (id)</text>
</g>
<!-- episode_deliveries -->
<g id="node6" class="node">
<title>episode_deliveries</title>
<polygon fill="#efefef" stroke="transparent" points="1763,-1007.5 1763,-1042.5 2053,-1042.5 2053,-1007.5 1763,-1007.5"/>
<polygon fill="none" stroke="#000000" points="1763,-1007.5 1763,-1042.5 2053,-1042.5 2053,-1007.5 1763,-1007.5"/>
<text text-anchor="start" x="1769.7005" y="-1020.3" font-family="Arial Bold" font-size="18.00" fill="#000000">episode_deliveries</text>
<text text-anchor="start" x="1918.7315" y="-1020.3" font-family="Arial" font-size="14.00" fill="#000000">    </text>
<text text-anchor="start" x="1952.9363" y="-1020.3" font-family="Arial" font-size="14.00" fill="#666666">[BASE TABLE]</text>
<polygon fill="none" stroke="#000000" points="1763,-977.5 1763,-1007.5 2053,-1007.5 2053,-977.5 1763,-977.5"/>
<text text-anchor="start" x="1770" y="-988.9" font-family="Arial" font-size="14.00" fill="#000000">id    </text>
<text text-anchor="start" x="1815.094" y="-988.9" font-family="Arial" font-size="14.00" fill="#666666">[bigint]</text>
<polygon fill="none" stroke="#000000" points="1763,-947.5 1763,-977.5 2053,-977.5 2053,-947.5 1763,-947.5"/>
<text text-anchor="start" x="1770" y="-958.9" font-family="Arial" font-size="14.00" fill="#000000">freshman_id    </text>
<text text-anchor="start" x="1881.2188" y="-958.9" font-family="Arial" font-size="14.00" fill="#666666">[bigint]</text>
<polygon fill="none" stroke="#000000" points="1763,-917.5 1763,-947.5 2053,-947.5 2053,-917.5 1763,-917.5"/>
<text text-anchor="start" x="1770" y="-928.9" font-family="Arial" font-size="14.00" fill="#000000">action_id    </text>
<text text-anchor="start" x="1860.2216" y="-928.9" font-family="Arial" font-size="14.00" fill="#666666">[bigint]</text>
<polygon fill="none" stroke="#000000" points="1763,-887.5 1763,-917.5 2053,-917.5 2053,-887.5 1763,-887.5"/>
<text text-anchor="start" x="1770" y="-898.9" font-family="Arial" font-size="14.00" fill="#000000">send_date    </text>
<text text-anchor="start" x="1869.5736" y="-898.9" font-family="Arial" font-size="14.00" fill="#666666">[date]</text>
<polygon fill="none" stroke="#000000" points="1763,-857.5 1763,-887.5 2053,-887.5 2053,-857.5 1763,-857.5"/>
<text text-anchor="start" x="1770" y="-868.9" font-family="Arial" font-size="14.00" fill="#000000">created_at    </text>
<text text-anchor="start" x="1870.3422" y="-868.9" font-family="Arial" font-size="14.00" fill="#666666">[datetime(6)]</text>
<polygon fill="none" stroke="#000000" points="1763,-827.5 1763,-857.5 2053,-857.5 2053,-827.5 1763,-827.5"/>
<text text-anchor="start" x="1770" y="-838.9" font-family="Arial" font-size="14.00" fill="#000000">updated_at    </text>
<text text-anchor="start" x="1874.2468" y="-838.9" font-family="Arial" font-size="14.00" fill="#666666">[datetime(6)]</text>
</g>
<!-- episode_deliveries&#45;&gt;actions -->
<g id="edge5" class="edge">
<title>episode_deliveries:action_id&#45;&gt;actions:id</title>
<path fill="none" stroke="#000000" d="M1752.9734,-931.7214C1694.6672,-921.74 1764.5219,-818.3503 1711,-770 1605.3246,-674.5355 1226.4105,-637.5 1084,-637.5"/>
<polygon fill="#000000" stroke="#000000" points="1753.03,-931.7257 1762.6516,-936.9865 1758.015,-932.1128 1763,-932.5 1763,-932.5 1763,-932.5 1758.015,-932.1128 1763.3484,-928.0135 1753.03,-931.7257 1753.03,-931.7257"/>
<text text-anchor="start" x="1769.717" y="-942.5" font-family="Arial" font-size="10.00" fill="#000000">FOREIGN KEY (action_id) REFERENCES actions (id)</text>
</g>
</g>
</svg>
