<?xml version="1.0" encoding="UTF-8" standalone="no"?>
<!DOCTYPE svg PUBLIC "-//W3C//DTD SVG 1.1//EN"
 "http://www.w3.org/Graphics/SVG/1.1/DTD/svg11.dtd">
<!-- Generated by graphviz version 2.40.1 (20161225.0304)
 -->
<!-- Title: action_videos Pages: 1 -->
<svg width="844pt" height="742pt"
 viewBox="0.00 0.00 844.00 742.00" xmlns="http://www.w3.org/2000/svg" xmlns:xlink="http://www.w3.org/1999/xlink">
<g id="graph0" class="graph" transform="scale(1 1) rotate(0) translate(4 738)">
<title>action_videos</title>
<polygon fill="#ffffff" stroke="transparent" points="-4,4 -4,-738 840,-738 840,4 -4,4"/>
<!-- action_videos -->
<g id="node1" class="node">
<title>action_videos</title>
<polygon fill="#efefef" stroke="transparent" points="254,-652.5 254,-687.5 505,-687.5 505,-652.5 254,-652.5"/>
<polygon fill="none" stroke="#000000" points="254,-652.5 254,-687.5 505,-687.5 505,-652.5 254,-652.5"/>
<text text-anchor="start" x="260.699" y="-665.3" font-family="Arial Bold" font-size="18.00" fill="#000000">action_videos</text>
<text text-anchor="start" x="370.733" y="-665.3" font-family="Arial" font-size="14.00" fill="#000000">    </text>
<text text-anchor="start" x="404.9378" y="-665.3" font-family="Arial" font-size="14.00" fill="#666666">[BASE TABLE]</text>
<polygon fill="none" stroke="#000000" points="254,-622.5 254,-652.5 505,-652.5 505,-622.5 254,-622.5"/>
<text text-anchor="start" x="261" y="-633.9" font-family="Arial" font-size="14.00" fill="#000000">id </text>
<text text-anchor="start" x="275.7798" y="-633.9" font-family="Arial" font-size="14.00" fill="#666666">[bigint]</text>
<polygon fill="none" stroke="#000000" points="254,-592.5 254,-622.5 505,-622.5 505,-592.5 254,-592.5"/>
<text text-anchor="start" x="261" y="-603.9" font-family="Arial" font-size="14.00" fill="#000000">action_id </text>
<text text-anchor="start" x="320.9074" y="-603.9" font-family="Arial" font-size="14.00" fill="#666666">[bigint]</text>
<polygon fill="none" stroke="#000000" points="254,-562.5 254,-592.5 505,-592.5 505,-562.5 254,-562.5"/>
<text text-anchor="start" x="261" y="-573.9" font-family="Arial" font-size="14.00" fill="#000000">learning_video_id </text>
<text text-anchor="start" x="374.5862" y="-573.9" font-family="Arial" font-size="14.00" fill="#666666">[bigint]</text>
<polygon fill="none" stroke="#000000" points="254,-532.5 254,-562.5 505,-562.5 505,-532.5 254,-532.5"/>
<text text-anchor="start" x="261" y="-543.9" font-family="Arial" font-size="14.00" fill="#000000">created_at </text>
<text text-anchor="start" x="331.028" y="-543.9" font-family="Arial" font-size="14.00" fill="#666666">[datetime(6)]</text>
<polygon fill="none" stroke="#000000" points="254,-502.5 254,-532.5 505,-532.5 505,-502.5 254,-502.5"/>
<text text-anchor="start" x="261" y="-513.9" font-family="Arial" font-size="14.00" fill="#000000">updated_at </text>
<text text-anchor="start" x="334.9326" y="-513.9" font-family="Arial" font-size="14.00" fill="#666666">[datetime(6)]</text>
<polygon fill="none" stroke="#000000" stroke-width="3" points="252,-501.5 252,-689.5 506,-689.5 506,-501.5 252,-501.5"/>
</g>
<!-- actions -->
<g id="node2" class="node">
<title>actions</title>
<polygon fill="#efefef" stroke="transparent" points="89,-342.5 89,-377.5 318,-377.5 318,-342.5 89,-342.5"/>
<polygon fill="none" stroke="#000000" points="89,-342.5 89,-377.5 318,-377.5 318,-342.5 89,-342.5"/>
<text text-anchor="start" x="111.2085" y="-355.3" font-family="Arial Bold" font-size="18.00" fill="#000000">actions</text>
<text text-anchor="start" x="168.2235" y="-355.3" font-family="Arial" font-size="14.00" fill="#000000">    </text>
<text text-anchor="start" x="202.4283" y="-355.3" font-family="Arial" font-size="14.00" fill="#666666">[BASE TABLE]</text>
<polygon fill="none" stroke="#000000" points="89,-312.5 89,-342.5 318,-342.5 318,-312.5 89,-312.5"/>
<text text-anchor="start" x="96" y="-323.9" font-family="Arial" font-size="14.00" fill="#000000">id    </text>
<text text-anchor="start" x="141.094" y="-323.9" font-family="Arial" font-size="14.00" fill="#666666">[bigint]</text>
<polygon fill="none" stroke="#000000" points="89,-282.5 89,-312.5 318,-312.5 318,-282.5 89,-282.5"/>
<text text-anchor="start" x="96" y="-293.9" font-family="Arial" font-size="14.00" fill="#000000">action_phase_id    </text>
<text text-anchor="start" x="232.1346" y="-293.9" font-family="Arial" font-size="14.00" fill="#666666">[bigint]</text>
<polygon fill="none" stroke="#000000" points="89,-252.5 89,-282.5 318,-282.5 318,-252.5 89,-252.5"/>
<text text-anchor="start" x="96" y="-263.9" font-family="Arial" font-size="14.00" fill="#000000">title    </text>
<text text-anchor="start" x="151.9818" y="-263.9" font-family="Arial" font-size="14.00" fill="#666666">[varchar(255)]</text>
<polygon fill="none" stroke="#000000" points="89,-222.5 89,-252.5 318,-252.5 318,-222.5 89,-222.5"/>
<text text-anchor="start" x="96" y="-233.9" font-family="Arial" font-size="14.00" fill="#000000">sort_order    </text>
<text text-anchor="start" x="193.9902" y="-233.9" font-family="Arial" font-size="14.00" fill="#666666">[int]</text>
<polygon fill="none" stroke="#000000" points="89,-192.5 89,-222.5 318,-222.5 318,-192.5 89,-192.5"/>
<text text-anchor="start" x="96" y="-203.9" font-family="Arial" font-size="14.00" fill="#000000">valid_date_from    </text>
<text text-anchor="start" x="229.7812" y="-203.9" font-family="Arial" font-size="14.00" fill="#666666">[datetime(6)]</text>
<polygon fill="none" stroke="#000000" points="89,-162.5 89,-192.5 318,-192.5 318,-162.5 89,-162.5"/>
<text text-anchor="start" x="96" y="-173.9" font-family="Arial" font-size="14.00" fill="#000000">valid_date_to    </text>
<text text-anchor="start" x="213.46" y="-173.9" font-family="Arial" font-size="14.00" fill="#666666">[datetime(6)]</text>
<polygon fill="none" stroke="#000000" points="89,-132.5 89,-162.5 318,-162.5 318,-132.5 89,-132.5"/>
<text text-anchor="start" x="96" y="-143.9" font-family="Arial" font-size="14.00" fill="#000000">recommended_month    </text>
<text text-anchor="start" x="266.3464" y="-143.9" font-family="Arial" font-size="14.00" fill="#666666">[int]</text>
<polygon fill="none" stroke="#000000" points="89,-102.5 89,-132.5 318,-132.5 318,-102.5 89,-102.5"/>
<text text-anchor="start" x="96" y="-113.9" font-family="Arial" font-size="14.00" fill="#000000">created_at    </text>
<text text-anchor="start" x="196.3422" y="-113.9" font-family="Arial" font-size="14.00" fill="#666666">[datetime(6)]</text>
<polygon fill="none" stroke="#000000" points="89,-72.5 89,-102.5 318,-102.5 318,-72.5 89,-72.5"/>
<text text-anchor="start" x="96" y="-83.9" font-family="Arial" font-size="14.00" fill="#000000">updated_at    </text>
<text text-anchor="start" x="200.2468" y="-83.9" font-family="Arial" font-size="14.00" fill="#666666">[datetime(6)]</text>
<polygon fill="none" stroke="#000000" points="89,-42.5 89,-72.5 318,-72.5 318,-42.5 89,-42.5"/>
<text text-anchor="start" x="95.7735" y="-53.9" font-family="Arial" font-size="14.00" fill="#000000">line_break_title    </text>
<text text-anchor="start" x="224.1073" y="-53.9" font-family="Arial" font-size="14.00" fill="#666666">[varchar(255)]</text>
</g>
<!-- action_videos&#45;&gt;actions -->
<g id="edge1" class="edge">
<title>action_videos:action_id&#45;&gt;actions:id</title>
<path fill="none" stroke="#000000" d="M243.9071,-606.6886C190.7356,-597.459 222.0781,-511.5815 254,-457 270.476,-428.8286 301.524,-449.1714 318,-421 338.9792,-385.1289 359.5556,-327.5 318,-327.5"/>
<polygon fill="#000000" stroke="#000000" points="244.0322,-606.6986 253.6394,-611.9855 249.0161,-607.0993 254,-607.5 254,-607.5 254,-607.5 249.0161,-607.0993 254.3606,-603.0145 244.0322,-606.6986 244.0322,-606.6986"/>
<text text-anchor="start" x="6.717" y="-617.5" font-family="Arial" font-size="10.00" fill="#000000">FOREIGN KEY (action_id) REFERENCES actions (id)</text>
</g>
<!-- learning_videos -->
<g id="node3" class="node">
<title>learning_videos</title>
<polygon fill="#efefef" stroke="transparent" points="422,-312.5 422,-347.5 689,-347.5 689,-312.5 422,-312.5"/>
<polygon fill="none" stroke="#000000" points="422,-312.5 422,-347.5 689,-347.5 689,-312.5 422,-312.5"/>
<text text-anchor="start" x="428.7007" y="-325.3" font-family="Arial Bold" font-size="18.00" fill="#000000">learning_videos</text>
<text text-anchor="start" x="554.7313" y="-325.3" font-family="Arial" font-size="14.00" fill="#000000">    </text>
<text text-anchor="start" x="588.9361" y="-325.3" font-family="Arial" font-size="14.00" fill="#666666">[BASE TABLE]</text>
<polygon fill="none" stroke="#000000" points="422,-282.5 422,-312.5 689,-312.5 689,-282.5 422,-282.5"/>
<text text-anchor="start" x="429" y="-293.9" font-family="Arial" font-size="14.00" fill="#000000">id    </text>
<text text-anchor="start" x="474.094" y="-293.9" font-family="Arial" font-size="14.00" fill="#666666">[bigint]</text>
<polygon fill="none" stroke="#000000" points="422,-252.5 422,-282.5 689,-282.5 689,-252.5 422,-252.5"/>
<text text-anchor="start" x="429" y="-263.9" font-family="Arial" font-size="14.00" fill="#000000">title    </text>
<text text-anchor="start" x="484.9818" y="-263.9" font-family="Arial" font-size="14.00" fill="#666666">[varchar(255)]</text>
<polygon fill="none" stroke="#000000" points="422,-222.5 422,-252.5 689,-252.5 689,-222.5 422,-222.5"/>
<text text-anchor="start" x="429" y="-233.9" font-family="Arial" font-size="14.00" fill="#000000">file_name    </text>
<text text-anchor="start" x="523.8822" y="-233.9" font-family="Arial" font-size="14.00" fill="#666666">[varchar(255)]</text>
<polygon fill="none" stroke="#000000" points="422,-192.5 422,-222.5 689,-222.5 689,-192.5 422,-192.5"/>
<text text-anchor="start" x="429" y="-203.9" font-family="Arial" font-size="14.00" fill="#000000">file_path    </text>
<text text-anchor="start" x="516.1122" y="-203.9" font-family="Arial" font-size="14.00" fill="#666666">[varchar(255)]</text>
<polygon fill="none" stroke="#000000" points="422,-162.5 422,-192.5 689,-192.5 689,-162.5 422,-162.5"/>
<text text-anchor="start" x="429" y="-173.9" font-family="Arial" font-size="14.00" fill="#000000">thumbnail_path    </text>
<text text-anchor="start" x="558.9032" y="-173.9" font-family="Arial" font-size="14.00" fill="#666666">[varchar(255)]</text>
<polygon fill="none" stroke="#000000" points="422,-132.5 422,-162.5 689,-162.5 689,-132.5 422,-132.5"/>
<text text-anchor="start" x="429" y="-143.9" font-family="Arial" font-size="14.00" fill="#000000">duration    </text>
<text text-anchor="start" x="513.7756" y="-143.9" font-family="Arial" font-size="14.00" fill="#666666">[int]</text>
<polygon fill="none" stroke="#000000" points="422,-102.5 422,-132.5 689,-132.5 689,-102.5 422,-102.5"/>
<text text-anchor="start" x="429" y="-113.9" font-family="Arial" font-size="14.00" fill="#000000">created_at    </text>
<text text-anchor="start" x="529.3422" y="-113.9" font-family="Arial" font-size="14.00" fill="#666666">[datetime(6)]</text>
<polygon fill="none" stroke="#000000" points="422,-72.5 422,-102.5 689,-102.5 689,-72.5 422,-72.5"/>
<text text-anchor="start" x="429" y="-83.9" font-family="Arial" font-size="14.00" fill="#000000">updated_at    </text>
<text text-anchor="start" x="533.2468" y="-83.9" font-family="Arial" font-size="14.00" fill="#666666">[datetime(6)]</text>
</g>
<!-- action_videos&#45;&gt;learning_videos -->
<g id="edge2" class="edge">
<title>action_videos:learning_video_id&#45;&gt;learning_videos:id</title>
<path fill="none" stroke="#000000" d="M515.085,-576.4617C554.3314,-567.4566 526.6345,-501.844 505,-457 484.5213,-414.5517 442.4787,-433.4483 422,-391 403.9435,-353.5724 380.4444,-297.5 422,-297.5"/>
<polygon fill="#000000" stroke="#000000" points="514.9474,-576.4758 504.5391,-573.0237 509.9737,-576.9879 505,-577.5 505,-577.5 505,-577.5 509.9737,-576.9879 505.4609,-581.9763 514.9474,-576.4758 514.9474,-576.4758"/>
<text text-anchor="start" x="512.375" y="-587.5" font-family="Arial" font-size="10.00" fill="#000000">FOREIGN KEY (learning_video_id) REFERENCES learning_videos (id)</text>
</g>
</g>
</svg>
