<?xml version="1.0" encoding="UTF-8" standalone="no"?>
<!DOCTYPE svg PUBLIC "-//W3C//DTD SVG 1.1//EN"
 "http://www.w3.org/Graphics/SVG/1.1/DTD/svg11.dtd">
<!-- Generated by graphviz version 2.40.1 (20161225.0304)
 -->
<!-- Title: action_comments Pages: 1 -->
<svg width="953pt" height="802pt"
 viewBox="0.00 0.00 953.00 802.00" xmlns="http://www.w3.org/2000/svg" xmlns:xlink="http://www.w3.org/1999/xlink">
<g id="graph0" class="graph" transform="scale(1 1) rotate(0) translate(4 798)">
<title>action_comments</title>
<polygon fill="#ffffff" stroke="transparent" points="-4,4 -4,-798 949,-798 949,4 -4,4"/>
<!-- action_comments -->
<g id="node1" class="node">
<title>action_comments</title>
<polygon fill="#efefef" stroke="transparent" points="254,-712.5 254,-747.5 536,-747.5 536,-712.5 254,-712.5"/>
<polygon fill="none" stroke="#000000" points="254,-712.5 254,-747.5 536,-747.5 536,-712.5 254,-712.5"/>
<text text-anchor="start" x="260.7028" y="-725.3" font-family="Arial Bold" font-size="18.00" fill="#000000">action_comments</text>
<text text-anchor="start" x="401.7292" y="-725.3" font-family="Arial" font-size="14.00" fill="#000000">    </text>
<text text-anchor="start" x="435.934" y="-725.3" font-family="Arial" font-size="14.00" fill="#666666">[BASE TABLE]</text>
<polygon fill="none" stroke="#000000" points="254,-682.5 254,-712.5 536,-712.5 536,-682.5 254,-682.5"/>
<text text-anchor="start" x="261" y="-693.9" font-family="Arial" font-size="14.00" fill="#000000">id </text>
<text text-anchor="start" x="275.7798" y="-693.9" font-family="Arial" font-size="14.00" fill="#666666">[bigint]</text>
<polygon fill="none" stroke="#000000" points="254,-652.5 254,-682.5 536,-682.5 536,-652.5 254,-652.5"/>
<text text-anchor="start" x="261" y="-663.9" font-family="Arial" font-size="14.00" fill="#000000">action_id </text>
<text text-anchor="start" x="320.9074" y="-663.9" font-family="Arial" font-size="14.00" fill="#666666">[bigint]</text>
<polygon fill="none" stroke="#000000" points="254,-622.5 254,-652.5 536,-652.5 536,-622.5 254,-622.5"/>
<text text-anchor="start" x="261" y="-633.9" font-family="Arial" font-size="14.00" fill="#000000">personality_type_group_id </text>
<text text-anchor="start" x="429.0518" y="-633.9" font-family="Arial" font-size="14.00" fill="#666666">[bigint]</text>
<polygon fill="none" stroke="#000000" points="254,-592.5 254,-622.5 536,-622.5 536,-592.5 254,-592.5"/>
<text text-anchor="start" x="261" y="-603.9" font-family="Arial" font-size="14.00" fill="#000000">created_at </text>
<text text-anchor="start" x="331.028" y="-603.9" font-family="Arial" font-size="14.00" fill="#666666">[datetime(6)]</text>
<polygon fill="none" stroke="#000000" points="254,-562.5 254,-592.5 536,-592.5 536,-562.5 254,-562.5"/>
<text text-anchor="start" x="261" y="-573.9" font-family="Arial" font-size="14.00" fill="#000000">updated_at </text>
<text text-anchor="start" x="334.9326" y="-573.9" font-family="Arial" font-size="14.00" fill="#666666">[datetime(6)]</text>
<polygon fill="none" stroke="#000000" points="254,-532.5 254,-562.5 536,-562.5 536,-532.5 254,-532.5"/>
<text text-anchor="start" x="261" y="-543.9" font-family="Arial" font-size="14.00" fill="#000000">episode </text>
<text text-anchor="start" x="313.9102" y="-543.9" font-family="Arial" font-size="14.00" fill="#666666">[json]</text>
<polygon fill="none" stroke="#000000" points="254,-502.5 254,-532.5 536,-532.5 536,-502.5 254,-502.5"/>
<text text-anchor="start" x="261" y="-513.9" font-family="Arial" font-size="14.00" fill="#000000">advice </text>
<text text-anchor="start" x="305.345" y="-513.9" font-family="Arial" font-size="14.00" fill="#666666">[json]</text>
<polygon fill="none" stroke="#000000" stroke-width="3" points="252.5,-501.5 252.5,-749.5 537.5,-749.5 537.5,-501.5 252.5,-501.5"/>
</g>
<!-- actions -->
<g id="node2" class="node">
<title>actions</title>
<polygon fill="#efefef" stroke="transparent" points="87,-342.5 87,-377.5 316,-377.5 316,-342.5 87,-342.5"/>
<polygon fill="none" stroke="#000000" points="87,-342.5 87,-377.5 316,-377.5 316,-342.5 87,-342.5"/>
<text text-anchor="start" x="109.2085" y="-355.3" font-family="Arial Bold" font-size="18.00" fill="#000000">actions</text>
<text text-anchor="start" x="166.2235" y="-355.3" font-family="Arial" font-size="14.00" fill="#000000">    </text>
<text text-anchor="start" x="200.4283" y="-355.3" font-family="Arial" font-size="14.00" fill="#666666">[BASE TABLE]</text>
<polygon fill="none" stroke="#000000" points="87,-312.5 87,-342.5 316,-342.5 316,-312.5 87,-312.5"/>
<text text-anchor="start" x="94" y="-323.9" font-family="Arial" font-size="14.00" fill="#000000">id    </text>
<text text-anchor="start" x="139.094" y="-323.9" font-family="Arial" font-size="14.00" fill="#666666">[bigint]</text>
<polygon fill="none" stroke="#000000" points="87,-282.5 87,-312.5 316,-312.5 316,-282.5 87,-282.5"/>
<text text-anchor="start" x="94" y="-293.9" font-family="Arial" font-size="14.00" fill="#000000">action_phase_id    </text>
<text text-anchor="start" x="230.1346" y="-293.9" font-family="Arial" font-size="14.00" fill="#666666">[bigint]</text>
<polygon fill="none" stroke="#000000" points="87,-252.5 87,-282.5 316,-282.5 316,-252.5 87,-252.5"/>
<text text-anchor="start" x="94" y="-263.9" font-family="Arial" font-size="14.00" fill="#000000">title    </text>
<text text-anchor="start" x="149.9818" y="-263.9" font-family="Arial" font-size="14.00" fill="#666666">[varchar(255)]</text>
<polygon fill="none" stroke="#000000" points="87,-222.5 87,-252.5 316,-252.5 316,-222.5 87,-222.5"/>
<text text-anchor="start" x="94" y="-233.9" font-family="Arial" font-size="14.00" fill="#000000">sort_order    </text>
<text text-anchor="start" x="191.9902" y="-233.9" font-family="Arial" font-size="14.00" fill="#666666">[int]</text>
<polygon fill="none" stroke="#000000" points="87,-192.5 87,-222.5 316,-222.5 316,-192.5 87,-192.5"/>
<text text-anchor="start" x="94" y="-203.9" font-family="Arial" font-size="14.00" fill="#000000">valid_date_from    </text>
<text text-anchor="start" x="227.7812" y="-203.9" font-family="Arial" font-size="14.00" fill="#666666">[datetime(6)]</text>
<polygon fill="none" stroke="#000000" points="87,-162.5 87,-192.5 316,-192.5 316,-162.5 87,-162.5"/>
<text text-anchor="start" x="94" y="-173.9" font-family="Arial" font-size="14.00" fill="#000000">valid_date_to    </text>
<text text-anchor="start" x="211.46" y="-173.9" font-family="Arial" font-size="14.00" fill="#666666">[datetime(6)]</text>
<polygon fill="none" stroke="#000000" points="87,-132.5 87,-162.5 316,-162.5 316,-132.5 87,-132.5"/>
<text text-anchor="start" x="94" y="-143.9" font-family="Arial" font-size="14.00" fill="#000000">recommended_month    </text>
<text text-anchor="start" x="264.3464" y="-143.9" font-family="Arial" font-size="14.00" fill="#666666">[int]</text>
<polygon fill="none" stroke="#000000" points="87,-102.5 87,-132.5 316,-132.5 316,-102.5 87,-102.5"/>
<text text-anchor="start" x="94" y="-113.9" font-family="Arial" font-size="14.00" fill="#000000">created_at    </text>
<text text-anchor="start" x="194.3422" y="-113.9" font-family="Arial" font-size="14.00" fill="#666666">[datetime(6)]</text>
<polygon fill="none" stroke="#000000" points="87,-72.5 87,-102.5 316,-102.5 316,-72.5 87,-72.5"/>
<text text-anchor="start" x="94" y="-83.9" font-family="Arial" font-size="14.00" fill="#000000">updated_at    </text>
<text text-anchor="start" x="198.2468" y="-83.9" font-family="Arial" font-size="14.00" fill="#666666">[datetime(6)]</text>
<polygon fill="none" stroke="#000000" points="87,-42.5 87,-72.5 316,-72.5 316,-42.5 87,-42.5"/>
<text text-anchor="start" x="93.7735" y="-53.9" font-family="Arial" font-size="14.00" fill="#000000">line_break_title    </text>
<text text-anchor="start" x="222.1073" y="-53.9" font-family="Arial" font-size="14.00" fill="#666666">[varchar(255)]</text>
</g>
<!-- action_comments&#45;&gt;actions -->
<g id="edge1" class="edge">
<title>action_comments:action_id&#45;&gt;actions:id</title>
<path fill="none" stroke="#000000" d="M243.6709,-666.9182C164.1065,-657.4628 209.1456,-534.912 254,-457 269.8979,-429.3854 300.1021,-448.6146 316,-421 336.7334,-384.9862 357.5556,-327.5 316,-327.5"/>
<polygon fill="#000000" stroke="#000000" points="244.0158,-666.9375 253.7469,-671.9929 249.0079,-667.2187 254,-667.5 254,-667.5 254,-667.5 249.0079,-667.2187 254.2531,-663.0071 244.0158,-666.9375 244.0158,-666.9375"/>
<text text-anchor="start" x="6.717" y="-677.5" font-family="Arial" font-size="10.00" fill="#000000">FOREIGN KEY (action_id) REFERENCES actions (id)</text>
</g>
<!-- personality_type_groups -->
<g id="node3" class="node">
<title>personality_type_groups</title>
<polygon fill="#efefef" stroke="transparent" points="420,-282.5 420,-317.5 757,-317.5 757,-282.5 420,-282.5"/>
<polygon fill="none" stroke="#000000" points="420,-282.5 420,-317.5 757,-317.5 757,-282.5 420,-282.5"/>
<text text-anchor="start" x="426.6871" y="-295.3" font-family="Arial Bold" font-size="18.00" fill="#000000">personality_type_groups</text>
<text text-anchor="start" x="622.7449" y="-295.3" font-family="Arial" font-size="14.00" fill="#000000">    </text>
<text text-anchor="start" x="656.9497" y="-295.3" font-family="Arial" font-size="14.00" fill="#666666">[BASE TABLE]</text>
<polygon fill="none" stroke="#000000" points="420,-252.5 420,-282.5 757,-282.5 757,-252.5 420,-252.5"/>
<text text-anchor="start" x="427" y="-263.9" font-family="Arial" font-size="14.00" fill="#000000">id    </text>
<text text-anchor="start" x="472.094" y="-263.9" font-family="Arial" font-size="14.00" fill="#666666">[bigint]</text>
<polygon fill="none" stroke="#000000" points="420,-222.5 420,-252.5 757,-252.5 757,-222.5 420,-222.5"/>
<text text-anchor="start" x="427" y="-233.9" font-family="Arial" font-size="14.00" fill="#000000">label    </text>
<text text-anchor="start" x="490.7658" y="-233.9" font-family="Arial" font-size="14.00" fill="#666666">[varchar(255)]</text>
<polygon fill="none" stroke="#000000" points="420,-192.5 420,-222.5 757,-222.5 757,-192.5 420,-192.5"/>
<text text-anchor="start" x="427" y="-203.9" font-family="Arial" font-size="14.00" fill="#000000">value    </text>
<text text-anchor="start" x="494.6592" y="-203.9" font-family="Arial" font-size="14.00" fill="#666666">[varchar(255)]</text>
<polygon fill="none" stroke="#000000" points="420,-162.5 420,-192.5 757,-192.5 757,-162.5 420,-162.5"/>
<text text-anchor="start" x="427" y="-173.9" font-family="Arial" font-size="14.00" fill="#000000">created_at    </text>
<text text-anchor="start" x="527.3422" y="-173.9" font-family="Arial" font-size="14.00" fill="#666666">[datetime(6)]</text>
<polygon fill="none" stroke="#000000" points="420,-132.5 420,-162.5 757,-162.5 757,-132.5 420,-132.5"/>
<text text-anchor="start" x="427" y="-143.9" font-family="Arial" font-size="14.00" fill="#000000">updated_at    </text>
<text text-anchor="start" x="531.2468" y="-143.9" font-family="Arial" font-size="14.00" fill="#666666">[datetime(6)]</text>
<polygon fill="none" stroke="#000000" points="420,-102.5 420,-132.5 757,-132.5 757,-102.5 420,-102.5"/>
<text text-anchor="start" x="427" y="-113.9" font-family="Arial" font-size="14.00" fill="#000000">comment    </text>
<text text-anchor="start" x="518.7644" y="-113.9" font-family="Arial" font-size="14.00" fill="#666666">[json]</text>
</g>
<!-- action_comments&#45;&gt;personality_type_groups -->
<g id="edge2" class="edge">
<title>action_comments:personality_type_group_id&#45;&gt;personality_type_groups:id</title>
<path fill="none" stroke="#000000" d="M546.0592,-636.8597C612.107,-627.8763 568.6161,-526.3295 536,-457 507.5121,-396.4454 448.4879,-421.5546 420,-361 402.31,-323.3978 378.4444,-267.5 420,-267.5"/>
<polygon fill="#000000" stroke="#000000" points="545.9798,-636.8647 535.7141,-633.0091 540.9899,-637.1823 536,-637.5 536,-637.5 536,-637.5 540.9899,-637.1823 536.2859,-641.9909 545.9798,-636.8647 545.9798,-636.8647"/>
<text text-anchor="start" x="543.471" y="-647.5" font-family="Arial" font-size="10.00" fill="#000000">FOREIGN KEY (personality_type_group_id) REFERENCES personality_type_groups (id)</text>
</g>
</g>
</svg>
