<?xml version="1.0" encoding="UTF-8" standalone="no"?>
<!DOCTYPE svg PUBLIC "-//W3C//DTD SVG 1.1//EN"
 "http://www.w3.org/Graphics/SVG/1.1/DTD/svg11.dtd">
<!-- Generated by graphviz version 2.40.1 (20161225.0304)
 -->
<!-- Title: bounce_mail_addresses Pages: 1 -->
<svg width="493pt" height="892pt"
 viewBox="0.00 0.00 493.00 892.00" xmlns="http://www.w3.org/2000/svg" xmlns:xlink="http://www.w3.org/1999/xlink">
<g id="graph0" class="graph" transform="scale(1 1) rotate(0) translate(4 888)">
<title>bounce_mail_addresses</title>
<polygon fill="#ffffff" stroke="transparent" points="-4,4 -4,-888 489,-888 489,4 -4,4"/>
<!-- bounce_mail_addresses -->
<g id="node1" class="node">
<title>bounce_mail_addresses</title>
<polygon fill="#efefef" stroke="transparent" points="103,-802.5 103,-837.5 439,-837.5 439,-802.5 103,-802.5"/>
<polygon fill="none" stroke="#000000" points="103,-802.5 103,-837.5 439,-837.5 439,-802.5 103,-802.5"/>
<text text-anchor="start" x="109.6893" y="-815.3" font-family="Arial Bold" font-size="18.00" fill="#000000">bounce_mail_addresses</text>
<text text-anchor="start" x="304.7427" y="-815.3" font-family="Arial" font-size="14.00" fill="#000000">    </text>
<text text-anchor="start" x="338.9475" y="-815.3" font-family="Arial" font-size="14.00" fill="#666666">[BASE TABLE]</text>
<polygon fill="none" stroke="#000000" points="103,-772.5 103,-802.5 439,-802.5 439,-772.5 103,-772.5"/>
<text text-anchor="start" x="110" y="-783.9" font-family="Arial" font-size="14.00" fill="#000000">id </text>
<text text-anchor="start" x="124.7798" y="-783.9" font-family="Arial" font-size="14.00" fill="#666666">[bigint]</text>
<polygon fill="none" stroke="#000000" points="103,-742.5 103,-772.5 439,-772.5 439,-742.5 103,-742.5"/>
<text text-anchor="start" x="110" y="-753.9" font-family="Arial" font-size="14.00" fill="#000000">created_at </text>
<text text-anchor="start" x="180.028" y="-753.9" font-family="Arial" font-size="14.00" fill="#666666">[datetime(6)]</text>
<polygon fill="none" stroke="#000000" points="103,-712.5 103,-742.5 439,-742.5 439,-712.5 103,-712.5"/>
<text text-anchor="start" x="110" y="-723.9" font-family="Arial" font-size="14.00" fill="#000000">updated_at </text>
<text text-anchor="start" x="183.9326" y="-723.9" font-family="Arial" font-size="14.00" fill="#666666">[datetime(6)]</text>
<polygon fill="none" stroke="#000000" points="103,-682.5 103,-712.5 439,-712.5 439,-682.5 103,-682.5"/>
<text text-anchor="start" x="110" y="-693.9" font-family="Arial" font-size="14.00" fill="#000000">subject </text>
<text text-anchor="start" x="158.2356" y="-693.9" font-family="Arial" font-size="14.00" fill="#666666">[varchar(255)]</text>
<polygon fill="none" stroke="#000000" points="103,-652.5 103,-682.5 439,-682.5 439,-652.5 103,-652.5"/>
<text text-anchor="start" x="110" y="-663.9" font-family="Arial" font-size="14.00" fill="#000000">bounce_type </text>
<text text-anchor="start" x="194.042" y="-663.9" font-family="Arial" font-size="14.00" fill="#666666">[varchar(255)]</text>
<polygon fill="none" stroke="#000000" points="103,-622.5 103,-652.5 439,-652.5 439,-622.5 103,-622.5"/>
<text text-anchor="start" x="110" y="-633.9" font-family="Arial" font-size="14.00" fill="#000000">account_id </text>
<text text-anchor="start" x="181.5834" y="-633.9" font-family="Arial" font-size="14.00" fill="#666666">[bigint]</text>
<polygon fill="none" stroke="#000000" stroke-width="3" points="101.5,-621.5 101.5,-839.5 440.5,-839.5 440.5,-621.5 101.5,-621.5"/>
</g>
<!-- accounts -->
<g id="node2" class="node">
<title>accounts</title>
<polygon fill="#efefef" stroke="transparent" points="127,-462.5 127,-497.5 414,-497.5 414,-462.5 127,-462.5"/>
<polygon fill="none" stroke="#000000" points="127,-462.5 127,-497.5 414,-497.5 414,-462.5 127,-462.5"/>
<text text-anchor="start" x="170.7025" y="-475.3" font-family="Arial Bold" font-size="18.00" fill="#000000">accounts</text>
<text text-anchor="start" x="242.7295" y="-475.3" font-family="Arial" font-size="14.00" fill="#000000">    </text>
<text text-anchor="start" x="276.9343" y="-475.3" font-family="Arial" font-size="14.00" fill="#666666">[BASE TABLE]</text>
<polygon fill="none" stroke="#000000" points="127,-432.5 127,-462.5 414,-462.5 414,-432.5 127,-432.5"/>
<text text-anchor="start" x="134" y="-443.9" font-family="Arial" font-size="14.00" fill="#000000">id    </text>
<text text-anchor="start" x="179.094" y="-443.9" font-family="Arial" font-size="14.00" fill="#666666">[bigint]</text>
<polygon fill="none" stroke="#000000" points="127,-402.5 127,-432.5 414,-432.5 414,-402.5 127,-402.5"/>
<text text-anchor="start" x="134" y="-413.9" font-family="Arial" font-size="14.00" fill="#000000">email    </text>
<text text-anchor="start" x="201.6438" y="-413.9" font-family="Arial" font-size="14.00" fill="#666666">[varchar(255)]</text>
<polygon fill="none" stroke="#000000" points="127,-372.5 127,-402.5 414,-402.5 414,-372.5 127,-372.5"/>
<text text-anchor="start" x="134" y="-383.9" font-family="Arial" font-size="14.00" fill="#000000">password_digest    </text>
<text text-anchor="start" x="273.23" y="-383.9" font-family="Arial" font-size="14.00" fill="#666666">[varchar(255)]</text>
<polygon fill="none" stroke="#000000" points="127,-342.5 127,-372.5 414,-372.5 414,-342.5 127,-342.5"/>
<text text-anchor="start" x="134" y="-353.9" font-family="Arial" font-size="14.00" fill="#000000">accountable_type    </text>
<text text-anchor="start" x="277.9186" y="-353.9" font-family="Arial" font-size="14.00" fill="#666666">[varchar(255)]</text>
<polygon fill="none" stroke="#000000" points="127,-312.5 127,-342.5 414,-342.5 414,-312.5 127,-312.5"/>
<text text-anchor="start" x="134" y="-323.9" font-family="Arial" font-size="14.00" fill="#000000">accountable_id    </text>
<text text-anchor="start" x="262.352" y="-323.9" font-family="Arial" font-size="14.00" fill="#666666">[bigint]</text>
<polygon fill="none" stroke="#000000" points="127,-282.5 127,-312.5 414,-312.5 414,-282.5 127,-282.5"/>
<text text-anchor="start" x="134" y="-293.9" font-family="Arial" font-size="14.00" fill="#000000">created_at    </text>
<text text-anchor="start" x="234.3422" y="-293.9" font-family="Arial" font-size="14.00" fill="#666666">[datetime(6)]</text>
<polygon fill="none" stroke="#000000" points="127,-252.5 127,-282.5 414,-282.5 414,-252.5 127,-252.5"/>
<text text-anchor="start" x="134" y="-263.9" font-family="Arial" font-size="14.00" fill="#000000">updated_at    </text>
<text text-anchor="start" x="238.2468" y="-263.9" font-family="Arial" font-size="14.00" fill="#666666">[datetime(6)]</text>
<polygon fill="none" stroke="#000000" points="127,-222.5 127,-252.5 414,-252.5 414,-222.5 127,-222.5"/>
<text text-anchor="start" x="134" y="-233.9" font-family="Arial" font-size="14.00" fill="#000000">failed_attempts    </text>
<text text-anchor="start" x="263.1192" y="-233.9" font-family="Arial" font-size="14.00" fill="#666666">[int]</text>
<polygon fill="none" stroke="#000000" points="127,-192.5 127,-222.5 414,-222.5 414,-192.5 127,-192.5"/>
<text text-anchor="start" x="134" y="-203.9" font-family="Arial" font-size="14.00" fill="#000000">locked_at    </text>
<text text-anchor="start" x="228.115" y="-203.9" font-family="Arial" font-size="14.00" fill="#666666">[datetime(6)]</text>
<polygon fill="none" stroke="#000000" points="127,-162.5 127,-192.5 414,-192.5 414,-162.5 127,-162.5"/>
<text text-anchor="start" x="134" y="-173.9" font-family="Arial" font-size="14.00" fill="#000000">unlock_token    </text>
<text text-anchor="start" x="250.6802" y="-173.9" font-family="Arial" font-size="14.00" fill="#666666">[varchar(255)]</text>
<polygon fill="none" stroke="#000000" points="127,-132.5 127,-162.5 414,-162.5 414,-132.5 127,-132.5"/>
<text text-anchor="start" x="134" y="-143.9" font-family="Arial" font-size="14.00" fill="#000000">reset_password_sent_at    </text>
<text text-anchor="start" x="320.6956" y="-143.9" font-family="Arial" font-size="14.00" fill="#666666">[datetime(6)]</text>
<polygon fill="none" stroke="#000000" points="127,-102.5 127,-132.5 414,-132.5 414,-102.5 127,-102.5"/>
<text text-anchor="start" x="134" y="-113.9" font-family="Arial" font-size="14.00" fill="#000000">password_changed_at    </text>
<text text-anchor="start" x="309.0364" y="-113.9" font-family="Arial" font-size="14.00" fill="#666666">[datetime(6)]</text>
<polygon fill="none" stroke="#000000" points="127,-72.5 127,-102.5 414,-102.5 414,-72.5 127,-72.5"/>
<text text-anchor="start" x="134" y="-83.9" font-family="Arial" font-size="14.00" fill="#000000">reset_password_token    </text>
<text text-anchor="start" x="309.0224" y="-83.9" font-family="Arial" font-size="14.00" fill="#666666">[varchar(255)]</text>
<polygon fill="none" stroke="#000000" points="127,-42.5 127,-72.5 414,-72.5 414,-42.5 127,-42.5"/>
<text text-anchor="start" x="133.6087" y="-53.9" font-family="Arial" font-size="14.00" fill="#000000">receive_welcome_mail_at    </text>
<text text-anchor="start" x="328.8275" y="-53.9" font-family="Arial" font-size="14.00" fill="#666666">[datetime(6)]</text>
</g>
<!-- bounce_mail_addresses&#45;&gt;accounts -->
<g id="edge1" class="edge">
<title>bounce_mail_addresses:account_id&#45;&gt;accounts:id</title>
<path fill="none" stroke="#000000" d="M271.7989,-612.314C281.6115,-554.6184 379.1132,-601.0381 414,-541 434.8782,-505.07 455.5556,-447.5 414,-447.5"/>
<polygon fill="#000000" stroke="#000000" points="271.782,-612.5306 266.5138,-622.1481 271.391,-617.5153 271,-622.5 271,-622.5 271,-622.5 271.391,-617.5153 275.4862,-622.8519 271.782,-612.5306 271.782,-612.5306"/>
<text text-anchor="start" x="7.377" y="-632.5" font-family="Arial" font-size="10.00" fill="#000000">FOREIGN KEY (account_id) REFERENCES accounts (id)</text>
</g>
</g>
</svg>
