<?xml version="1.0" encoding="UTF-8" standalone="no"?>
<!DOCTYPE svg PUBLIC "-//W3C//DTD SVG 1.1//EN"
 "http://www.w3.org/Graphics/SVG/1.1/DTD/svg11.dtd">
<!-- Generated by graphviz version 2.40.1 (20161225.0304)
 -->
<!-- Title: customers Pages: 1 -->
<svg width="1051pt" height="712pt"
 viewBox="0.00 0.00 1051.00 712.00" xmlns="http://www.w3.org/2000/svg" xmlns:xlink="http://www.w3.org/1999/xlink">
<g id="graph0" class="graph" transform="scale(1 1) rotate(0) translate(4 708)">
<title>customers</title>
<polygon fill="#ffffff" stroke="transparent" points="-4,4 -4,-708 1047,-708 1047,4 -4,4"/>
<!-- customers -->
<g id="node1" class="node">
<title>customers</title>
<polygon fill="#efefef" stroke="transparent" points="432.5,-225.5 432.5,-260.5 691.5,-260.5 691.5,-225.5 432.5,-225.5"/>
<polygon fill="none" stroke="#000000" points="432.5,-225.5 432.5,-260.5 691.5,-260.5 691.5,-225.5 432.5,-225.5"/>
<text text-anchor="start" x="456.7134" y="-238.3" font-family="Arial Bold" font-size="18.00" fill="#000000">customers</text>
<text text-anchor="start" x="539.7186" y="-238.3" font-family="Arial" font-size="14.00" fill="#000000">    </text>
<text text-anchor="start" x="573.9234" y="-238.3" font-family="Arial" font-size="14.00" fill="#666666">[BASE TABLE]</text>
<polygon fill="none" stroke="#000000" points="432.5,-195.5 432.5,-225.5 691.5,-225.5 691.5,-195.5 432.5,-195.5"/>
<text text-anchor="start" x="439.5" y="-206.9" font-family="Arial" font-size="14.00" fill="#000000">id </text>
<text text-anchor="start" x="454.2798" y="-206.9" font-family="Arial" font-size="14.00" fill="#666666">[bigint]</text>
<polygon fill="none" stroke="#000000" points="432.5,-165.5 432.5,-195.5 691.5,-195.5 691.5,-165.5 432.5,-165.5"/>
<text text-anchor="start" x="439.5" y="-176.9" font-family="Arial" font-size="14.00" fill="#000000">name </text>
<text text-anchor="start" x="478.399" y="-176.9" font-family="Arial" font-size="14.00" fill="#666666">[varchar(255)]</text>
<polygon fill="none" stroke="#000000" points="432.5,-135.5 432.5,-165.5 691.5,-165.5 691.5,-135.5 432.5,-135.5"/>
<text text-anchor="start" x="439.5" y="-146.9" font-family="Arial" font-size="14.00" fill="#000000">enterprise_system_id </text>
<text text-anchor="start" x="576.4102" y="-146.9" font-family="Arial" font-size="14.00" fill="#666666">[varchar(255)]</text>
<polygon fill="none" stroke="#000000" points="432.5,-105.5 432.5,-135.5 691.5,-135.5 691.5,-105.5 432.5,-105.5"/>
<text text-anchor="start" x="439.5" y="-116.9" font-family="Arial" font-size="14.00" fill="#000000">created_at </text>
<text text-anchor="start" x="509.528" y="-116.9" font-family="Arial" font-size="14.00" fill="#666666">[datetime(6)]</text>
<polygon fill="none" stroke="#000000" points="432.5,-75.5 432.5,-105.5 691.5,-105.5 691.5,-75.5 432.5,-75.5"/>
<text text-anchor="start" x="439.5" y="-86.9" font-family="Arial" font-size="14.00" fill="#000000">updated_at </text>
<text text-anchor="start" x="513.4326" y="-86.9" font-family="Arial" font-size="14.00" fill="#666666">[datetime(6)]</text>
<polygon fill="none" stroke="#000000" points="432.5,-45.5 432.5,-75.5 691.5,-75.5 691.5,-45.5 432.5,-45.5"/>
<text text-anchor="start" x="439.4888" y="-56.9" font-family="Arial" font-size="14.00" fill="#000000">reserve_welcome_mail_at </text>
<text text-anchor="start" x="605.9474" y="-56.9" font-family="Arial" font-size="14.00" fill="#666666">[datetime(6)]</text>
<polygon fill="none" stroke="#000000" stroke-width="3" points="430.5,-44.5 430.5,-262.5 692.5,-262.5 692.5,-44.5 430.5,-44.5"/>
</g>
<!-- file_upload_requests -->
<g id="node2" class="node">
<title>file_upload_requests</title>
<polygon fill="#efefef" stroke="transparent" points="43.5,-610.5 43.5,-645.5 350.5,-645.5 350.5,-610.5 43.5,-610.5"/>
<polygon fill="none" stroke="#000000" points="43.5,-610.5 43.5,-645.5 350.5,-645.5 350.5,-610.5 43.5,-610.5"/>
<text text-anchor="start" x="50.1892" y="-623.3" font-family="Arial Bold" font-size="18.00" fill="#000000">file_upload_requests</text>
<text text-anchor="start" x="216.2428" y="-623.3" font-family="Arial" font-size="14.00" fill="#000000">    </text>
<text text-anchor="start" x="250.4476" y="-623.3" font-family="Arial" font-size="14.00" fill="#666666">[BASE TABLE]</text>
<polygon fill="none" stroke="#000000" points="43.5,-580.5 43.5,-610.5 350.5,-610.5 350.5,-580.5 43.5,-580.5"/>
<text text-anchor="start" x="50.5" y="-591.9" font-family="Arial" font-size="14.00" fill="#000000">id    </text>
<text text-anchor="start" x="95.594" y="-591.9" font-family="Arial" font-size="14.00" fill="#666666">[bigint]</text>
<polygon fill="none" stroke="#000000" points="43.5,-550.5 43.5,-580.5 350.5,-580.5 350.5,-550.5 43.5,-550.5"/>
<text text-anchor="start" x="50.5" y="-561.9" font-family="Arial" font-size="14.00" fill="#000000">customer_id    </text>
<text text-anchor="start" x="160.9362" y="-561.9" font-family="Arial" font-size="14.00" fill="#666666">[bigint]</text>
<polygon fill="none" stroke="#000000" points="43.5,-520.5 43.5,-550.5 350.5,-550.5 350.5,-520.5 43.5,-520.5"/>
<text text-anchor="start" x="50.5" y="-531.9" font-family="Arial" font-size="14.00" fill="#000000">file_type    </text>
<text text-anchor="start" x="136.8296" y="-531.9" font-family="Arial" font-size="14.00" fill="#666666">[varchar(255)]</text>
<polygon fill="none" stroke="#000000" points="43.5,-490.5 43.5,-520.5 350.5,-520.5 350.5,-490.5 43.5,-490.5"/>
<text text-anchor="start" x="50.5" y="-501.9" font-family="Arial" font-size="14.00" fill="#000000">logs    </text>
<text text-anchor="start" x="110.3766" y="-501.9" font-family="Arial" font-size="14.00" fill="#666666">[json]</text>
<polygon fill="none" stroke="#000000" points="43.5,-460.5 43.5,-490.5 350.5,-490.5 350.5,-460.5 43.5,-460.5"/>
<text text-anchor="start" x="50.5" y="-471.9" font-family="Arial" font-size="14.00" fill="#000000">finished_at    </text>
<text text-anchor="start" x="152.3948" y="-471.9" font-family="Arial" font-size="14.00" fill="#666666">[timestamp]</text>
<polygon fill="none" stroke="#000000" points="43.5,-430.5 43.5,-460.5 350.5,-460.5 350.5,-430.5 43.5,-430.5"/>
<text text-anchor="start" x="50.5" y="-441.9" font-family="Arial" font-size="14.00" fill="#000000">created_at    </text>
<text text-anchor="start" x="150.8422" y="-441.9" font-family="Arial" font-size="14.00" fill="#666666">[datetime(6)]</text>
<polygon fill="none" stroke="#000000" points="43.5,-400.5 43.5,-430.5 350.5,-430.5 350.5,-400.5 43.5,-400.5"/>
<text text-anchor="start" x="50.5" y="-411.9" font-family="Arial" font-size="14.00" fill="#000000">updated_at    </text>
<text text-anchor="start" x="154.7468" y="-411.9" font-family="Arial" font-size="14.00" fill="#666666">[datetime(6)]</text>
</g>
<!-- file_upload_requests&#45;&gt;customers -->
<g id="edge1" class="edge">
<title>file_upload_requests:customer_id&#45;&gt;customers:id</title>
<path fill="none" stroke="#000000" d="M360.4665,-563.4152C424.6094,-534.3218 355.1711,-210.5 432.5,-210.5"/>
<polygon fill="#000000" stroke="#000000" points="360.2882,-563.4525 349.5786,-561.0953 355.3941,-564.4762 350.5,-565.5 350.5,-565.5 350.5,-565.5 355.3941,-564.4762 351.4214,-569.9047 360.2882,-563.4525 360.2882,-563.4525"/>
<text text-anchor="start" x="357.778" y="-575.5" font-family="Arial" font-size="10.00" fill="#000000">FOREIGN KEY (customer_id) REFERENCES customers (id)</text>
</g>
<!-- freshmen -->
<g id="node3" class="node">
<title>freshmen</title>
<polygon fill="#efefef" stroke="transparent" points="454.5,-625.5 454.5,-660.5 670.5,-660.5 670.5,-625.5 454.5,-625.5"/>
<polygon fill="none" stroke="#000000" points="454.5,-625.5 454.5,-660.5 670.5,-660.5 670.5,-625.5 454.5,-625.5"/>
<text text-anchor="start" x="461.2103" y="-638.3" font-family="Arial Bold" font-size="18.00" fill="#000000">freshmen</text>
<text text-anchor="start" x="536.2217" y="-638.3" font-family="Arial" font-size="14.00" fill="#000000">    </text>
<text text-anchor="start" x="570.4265" y="-638.3" font-family="Arial" font-size="14.00" fill="#666666">[BASE TABLE]</text>
<polygon fill="none" stroke="#000000" points="454.5,-595.5 454.5,-625.5 670.5,-625.5 670.5,-595.5 454.5,-595.5"/>
<text text-anchor="start" x="461.5" y="-606.9" font-family="Arial" font-size="14.00" fill="#000000">id    </text>
<text text-anchor="start" x="506.594" y="-606.9" font-family="Arial" font-size="14.00" fill="#666666">[bigint]</text>
<polygon fill="none" stroke="#000000" points="454.5,-565.5 454.5,-595.5 670.5,-595.5 670.5,-565.5 454.5,-565.5"/>
<text text-anchor="start" x="461.5" y="-576.9" font-family="Arial" font-size="14.00" fill="#000000">customer_id    </text>
<text text-anchor="start" x="571.9362" y="-576.9" font-family="Arial" font-size="14.00" fill="#666666">[bigint]</text>
<polygon fill="none" stroke="#000000" points="454.5,-535.5 454.5,-565.5 670.5,-565.5 670.5,-535.5 454.5,-535.5"/>
<text text-anchor="start" x="461.5" y="-546.9" font-family="Arial" font-size="14.00" fill="#000000">name_kanji    </text>
<text text-anchor="start" x="567.2742" y="-546.9" font-family="Arial" font-size="14.00" fill="#666666">[varchar(255)]</text>
<polygon fill="none" stroke="#000000" points="454.5,-505.5 454.5,-535.5 670.5,-535.5 670.5,-505.5 454.5,-505.5"/>
<text text-anchor="start" x="461.5" y="-516.9" font-family="Arial" font-size="14.00" fill="#000000">name_kana    </text>
<text text-anchor="start" x="568.8436" y="-516.9" font-family="Arial" font-size="14.00" fill="#666666">[varchar(255)]</text>
<polygon fill="none" stroke="#000000" points="454.5,-475.5 454.5,-505.5 670.5,-505.5 670.5,-475.5 454.5,-475.5"/>
<text text-anchor="start" x="461.5" y="-486.9" font-family="Arial" font-size="14.00" fill="#000000">entrance_year    </text>
<text text-anchor="start" x="585.1774" y="-486.9" font-family="Arial" font-size="14.00" fill="#666666">[int]</text>
<polygon fill="none" stroke="#000000" points="454.5,-445.5 454.5,-475.5 670.5,-475.5 670.5,-445.5 454.5,-445.5"/>
<text text-anchor="start" x="461.5" y="-456.9" font-family="Arial" font-size="14.00" fill="#000000">disabled_flg    </text>
<text text-anchor="start" x="570.3934" y="-456.9" font-family="Arial" font-size="14.00" fill="#666666">[tinyint(1)]</text>
<polygon fill="none" stroke="#000000" points="454.5,-415.5 454.5,-445.5 670.5,-445.5 670.5,-415.5 454.5,-415.5"/>
<text text-anchor="start" x="461.5" y="-426.9" font-family="Arial" font-size="14.00" fill="#000000">created_at    </text>
<text text-anchor="start" x="561.8422" y="-426.9" font-family="Arial" font-size="14.00" fill="#666666">[datetime(6)]</text>
<polygon fill="none" stroke="#000000" points="454.5,-385.5 454.5,-415.5 670.5,-415.5 670.5,-385.5 454.5,-385.5"/>
<text text-anchor="start" x="461.5" y="-396.9" font-family="Arial" font-size="14.00" fill="#000000">updated_at    </text>
<text text-anchor="start" x="565.7468" y="-396.9" font-family="Arial" font-size="14.00" fill="#666666">[datetime(6)]</text>
</g>
<!-- freshmen&#45;&gt;customers -->
<g id="edge2" class="edge">
<title>freshmen:customer_id&#45;&gt;customers:id</title>
<path fill="none" stroke="#000000" d="M444.6563,-577.845C404.3093,-554.2371 422.4485,-380.2878 454.5,-343 523.9494,-262.2047 622.0506,-387.7953 691.5,-307 719.4572,-274.4754 734.3889,-210.5 691.5,-210.5"/>
<polygon fill="#000000" stroke="#000000" points="444.845,-577.8958 453.3281,-584.8447 449.6725,-579.1979 454.5,-580.5 454.5,-580.5 454.5,-580.5 449.6725,-579.1979 455.6719,-576.1553 444.845,-577.8958 444.845,-577.8958"/>
<text text-anchor="start" x="461.778" y="-590.5" font-family="Arial" font-size="10.00" fill="#000000">FOREIGN KEY (customer_id) REFERENCES customers (id)</text>
</g>
<!-- hr_admins -->
<g id="node4" class="node">
<title>hr_admins</title>
<polygon fill="#efefef" stroke="transparent" points="775.5,-580.5 775.5,-615.5 1000.5,-615.5 1000.5,-580.5 775.5,-580.5"/>
<polygon fill="none" stroke="#000000" points="775.5,-580.5 775.5,-615.5 1000.5,-615.5 1000.5,-580.5 775.5,-580.5"/>
<text text-anchor="start" x="782.2112" y="-593.3" font-family="Arial Bold" font-size="18.00" fill="#000000">hr_admins</text>
<text text-anchor="start" x="866.2208" y="-593.3" font-family="Arial" font-size="14.00" fill="#000000">    </text>
<text text-anchor="start" x="900.4256" y="-593.3" font-family="Arial" font-size="14.00" fill="#666666">[BASE TABLE]</text>
<polygon fill="none" stroke="#000000" points="775.5,-550.5 775.5,-580.5 1000.5,-580.5 1000.5,-550.5 775.5,-550.5"/>
<text text-anchor="start" x="782.5" y="-561.9" font-family="Arial" font-size="14.00" fill="#000000">id    </text>
<text text-anchor="start" x="827.594" y="-561.9" font-family="Arial" font-size="14.00" fill="#666666">[bigint]</text>
<polygon fill="none" stroke="#000000" points="775.5,-520.5 775.5,-550.5 1000.5,-550.5 1000.5,-520.5 775.5,-520.5"/>
<text text-anchor="start" x="782.5" y="-531.9" font-family="Arial" font-size="14.00" fill="#000000">customer_id    </text>
<text text-anchor="start" x="892.9362" y="-531.9" font-family="Arial" font-size="14.00" fill="#666666">[bigint]</text>
<polygon fill="none" stroke="#000000" points="775.5,-490.5 775.5,-520.5 1000.5,-520.5 1000.5,-490.5 775.5,-490.5"/>
<text text-anchor="start" x="782.5" y="-501.9" font-family="Arial" font-size="14.00" fill="#000000">name_kanji    </text>
<text text-anchor="start" x="888.2742" y="-501.9" font-family="Arial" font-size="14.00" fill="#666666">[varchar(255)]</text>
<polygon fill="none" stroke="#000000" points="775.5,-460.5 775.5,-490.5 1000.5,-490.5 1000.5,-460.5 775.5,-460.5"/>
<text text-anchor="start" x="782.5" y="-471.9" font-family="Arial" font-size="14.00" fill="#000000">created_at    </text>
<text text-anchor="start" x="882.8422" y="-471.9" font-family="Arial" font-size="14.00" fill="#666666">[datetime(6)]</text>
<polygon fill="none" stroke="#000000" points="775.5,-430.5 775.5,-460.5 1000.5,-460.5 1000.5,-430.5 775.5,-430.5"/>
<text text-anchor="start" x="782.5" y="-441.9" font-family="Arial" font-size="14.00" fill="#000000">updated_at    </text>
<text text-anchor="start" x="886.7468" y="-441.9" font-family="Arial" font-size="14.00" fill="#666666">[datetime(6)]</text>
</g>
<!-- hr_admins&#45;&gt;customers -->
<g id="edge3" class="edge">
<title>hr_admins:customer_id&#45;&gt;customers:id</title>
<path fill="none" stroke="#000000" d="M765.5402,-533.2511C706.9375,-504.5366 762.4532,-210.5 691.5,-210.5"/>
<polygon fill="#000000" stroke="#000000" points="765.7456,-533.2974 774.5088,-539.8895 770.6228,-534.3987 775.5,-535.5 775.5,-535.5 775.5,-535.5 770.6228,-534.3987 776.4912,-531.1105 765.7456,-533.2974 765.7456,-533.2974"/>
<text text-anchor="start" x="499.778" y="-545.5" font-family="Arial" font-size="10.00" fill="#000000">FOREIGN KEY (customer_id) REFERENCES customers (id)</text>
</g>
</g>
</svg>
