<?xml version="1.0" encoding="UTF-8" standalone="no"?>
<!DOCTYPE svg PUBLIC "-//W3C//DTD SVG 1.1//EN"
 "http://www.w3.org/Graphics/SVG/1.1/DTD/svg11.dtd">
<!-- Generated by graphviz version 2.40.1 (20161225.0304)
 -->
<!-- Title: enquete_choice_results Pages: 1 -->
<svg width="1176pt" height="652pt"
 viewBox="0.00 0.00 1176.00 652.00" xmlns="http://www.w3.org/2000/svg" xmlns:xlink="http://www.w3.org/1999/xlink">
<g id="graph0" class="graph" transform="scale(1 1) rotate(0) translate(4 648)">
<title>enquete_choice_results</title>
<polygon fill="#ffffff" stroke="transparent" points="-4,4 -4,-648 1172,-648 1172,4 -4,4"/>
<!-- enquete_choice_results -->
<g id="node1" class="node">
<title>enquete_choice_results</title>
<polygon fill="#efefef" stroke="transparent" points="425,-562.5 425,-597.5 756,-597.5 756,-562.5 425,-562.5"/>
<polygon fill="none" stroke="#000000" points="425,-562.5 425,-597.5 756,-597.5 756,-562.5 425,-562.5"/>
<text text-anchor="start" x="431.6832" y="-575.3" font-family="Arial Bold" font-size="18.00" fill="#000000">enquete_choice_results</text>
<text text-anchor="start" x="621.7488" y="-575.3" font-family="Arial" font-size="14.00" fill="#000000">    </text>
<text text-anchor="start" x="655.9536" y="-575.3" font-family="Arial" font-size="14.00" fill="#666666">[BASE TABLE]</text>
<polygon fill="none" stroke="#000000" points="425,-532.5 425,-562.5 756,-562.5 756,-532.5 425,-532.5"/>
<text text-anchor="start" x="432" y="-543.9" font-family="Arial" font-size="14.00" fill="#000000">id </text>
<text text-anchor="start" x="446.7798" y="-543.9" font-family="Arial" font-size="14.00" fill="#666666">[bigint]</text>
<polygon fill="none" stroke="#000000" points="425,-502.5 425,-532.5 756,-532.5 756,-502.5 425,-502.5"/>
<text text-anchor="start" x="432" y="-513.9" font-family="Arial" font-size="14.00" fill="#000000">enquete_choice_delivery_id </text>
<text text-anchor="start" x="609.3898" y="-513.9" font-family="Arial" font-size="14.00" fill="#666666">[bigint]</text>
<polygon fill="none" stroke="#000000" points="425,-472.5 425,-502.5 756,-502.5 756,-472.5 425,-472.5"/>
<text text-anchor="start" x="432" y="-483.9" font-family="Arial" font-size="14.00" fill="#000000">enquete_delivery_detail_id </text>
<text text-anchor="start" x="602.387" y="-483.9" font-family="Arial" font-size="14.00" fill="#666666">[bigint]</text>
<polygon fill="none" stroke="#000000" points="425,-442.5 425,-472.5 756,-472.5 756,-442.5 425,-442.5"/>
<text text-anchor="start" x="432" y="-453.9" font-family="Arial" font-size="14.00" fill="#000000">created_at </text>
<text text-anchor="start" x="502.028" y="-453.9" font-family="Arial" font-size="14.00" fill="#666666">[datetime(6)]</text>
<polygon fill="none" stroke="#000000" points="425,-412.5 425,-442.5 756,-442.5 756,-412.5 425,-412.5"/>
<text text-anchor="start" x="432" y="-423.9" font-family="Arial" font-size="14.00" fill="#000000">updated_at </text>
<text text-anchor="start" x="505.9326" y="-423.9" font-family="Arial" font-size="14.00" fill="#666666">[datetime(6)]</text>
<polygon fill="none" stroke="#000000" stroke-width="3" points="423,-411.5 423,-599.5 757,-599.5 757,-411.5 423,-411.5"/>
</g>
<!-- enquete_choice_deliveries -->
<g id="node2" class="node">
<title>enquete_choice_deliveries</title>
<polygon fill="#efefef" stroke="transparent" points="189,-252.5 189,-287.5 543,-287.5 543,-252.5 189,-252.5"/>
<polygon fill="none" stroke="#000000" points="189,-252.5 189,-287.5 543,-287.5 543,-252.5 189,-252.5"/>
<text text-anchor="start" x="195.6839" y="-265.3" font-family="Arial Bold" font-size="18.00" fill="#000000">enquete_choice_deliveries</text>
<text text-anchor="start" x="408.7481" y="-265.3" font-family="Arial" font-size="14.00" fill="#000000">    </text>
<text text-anchor="start" x="442.9529" y="-265.3" font-family="Arial" font-size="14.00" fill="#666666">[BASE TABLE]</text>
<polygon fill="none" stroke="#000000" points="189,-222.5 189,-252.5 543,-252.5 543,-222.5 189,-222.5"/>
<text text-anchor="start" x="196" y="-233.9" font-family="Arial" font-size="14.00" fill="#000000">id    </text>
<text text-anchor="start" x="241.094" y="-233.9" font-family="Arial" font-size="14.00" fill="#666666">[bigint]</text>
<polygon fill="none" stroke="#000000" points="189,-192.5 189,-222.5 543,-222.5 543,-192.5 189,-192.5"/>
<text text-anchor="start" x="196" y="-203.9" font-family="Arial" font-size="14.00" fill="#000000">label    </text>
<text text-anchor="start" x="259.7658" y="-203.9" font-family="Arial" font-size="14.00" fill="#666666">[varchar(255)]</text>
<polygon fill="none" stroke="#000000" points="189,-162.5 189,-192.5 543,-192.5 543,-162.5 189,-162.5"/>
<text text-anchor="start" x="196" y="-173.9" font-family="Arial" font-size="14.00" fill="#000000">sort_order    </text>
<text text-anchor="start" x="293.9902" y="-173.9" font-family="Arial" font-size="14.00" fill="#666666">[int]</text>
<polygon fill="none" stroke="#000000" points="189,-132.5 189,-162.5 543,-162.5 543,-132.5 189,-132.5"/>
<text text-anchor="start" x="196" y="-143.9" font-family="Arial" font-size="14.00" fill="#000000">score    </text>
<text text-anchor="start" x="264.4306" y="-143.9" font-family="Arial" font-size="14.00" fill="#666666">[int]</text>
<polygon fill="none" stroke="#000000" points="189,-102.5 189,-132.5 543,-132.5 543,-102.5 189,-102.5"/>
<text text-anchor="start" x="196" y="-113.9" font-family="Arial" font-size="14.00" fill="#000000">enquete_delivery_detail_id    </text>
<text text-anchor="start" x="396.7012" y="-113.9" font-family="Arial" font-size="14.00" fill="#666666">[bigint]</text>
<polygon fill="none" stroke="#000000" points="189,-72.5 189,-102.5 543,-102.5 543,-72.5 189,-72.5"/>
<text text-anchor="start" x="196" y="-83.9" font-family="Arial" font-size="14.00" fill="#000000">created_at    </text>
<text text-anchor="start" x="296.3422" y="-83.9" font-family="Arial" font-size="14.00" fill="#666666">[datetime(6)]</text>
<polygon fill="none" stroke="#000000" points="189,-42.5 189,-72.5 543,-72.5 543,-42.5 189,-42.5"/>
<text text-anchor="start" x="196" y="-53.9" font-family="Arial" font-size="14.00" fill="#000000">updated_at    </text>
<text text-anchor="start" x="300.2468" y="-53.9" font-family="Arial" font-size="14.00" fill="#666666">[datetime(6)]</text>
</g>
<!-- enquete_choice_results&#45;&gt;enquete_choice_deliveries -->
<g id="edge1" class="edge">
<title>enquete_choice_results:enquete_choice_delivery_id&#45;&gt;enquete_choice_deliveries:id</title>
<path fill="none" stroke="#000000" d="M414.8559,-516.6549C361.1117,-507.0473 387.3738,-417.8175 425,-367 457.6276,-322.9335 510.3724,-375.0665 543,-331 567.7281,-297.6026 584.5556,-237.5 543,-237.5"/>
<polygon fill="#000000" stroke="#000000" points="415.0345,-516.6697 424.6263,-521.9845 420.0173,-517.0848 425,-517.5 425,-517.5 425,-517.5 420.0173,-517.0848 425.3737,-513.0155 415.0345,-516.6697 415.0345,-516.6697"/>
<text text-anchor="start" x="7.412" y="-527.5" font-family="Arial" font-size="10.00" fill="#000000">FOREIGN KEY (enquete_choice_delivery_id) REFERENCES enquete_choice_deliveries (id)</text>
</g>
<!-- enquete_delivery_details -->
<g id="node3" class="node">
<title>enquete_delivery_details</title>
<polygon fill="#efefef" stroke="transparent" points="647,-252.5 647,-287.5 987,-287.5 987,-252.5 647,-252.5"/>
<polygon fill="none" stroke="#000000" points="647,-252.5 647,-287.5 987,-287.5 987,-252.5 647,-252.5"/>
<text text-anchor="start" x="653.6859" y="-265.3" font-family="Arial Bold" font-size="18.00" fill="#000000">enquete_delivery_details</text>
<text text-anchor="start" x="852.7461" y="-265.3" font-family="Arial" font-size="14.00" fill="#000000">    </text>
<text text-anchor="start" x="886.9509" y="-265.3" font-family="Arial" font-size="14.00" fill="#666666">[BASE TABLE]</text>
<polygon fill="none" stroke="#000000" points="647,-222.5 647,-252.5 987,-252.5 987,-222.5 647,-222.5"/>
<text text-anchor="start" x="654" y="-233.9" font-family="Arial" font-size="14.00" fill="#000000">id    </text>
<text text-anchor="start" x="699.094" y="-233.9" font-family="Arial" font-size="14.00" fill="#666666">[bigint]</text>
<polygon fill="none" stroke="#000000" points="647,-192.5 647,-222.5 987,-222.5 987,-192.5 647,-192.5"/>
<text text-anchor="start" x="654" y="-203.9" font-family="Arial" font-size="14.00" fill="#000000">enquete_delivery_id    </text>
<text text-anchor="start" x="813.467" y="-203.9" font-family="Arial" font-size="14.00" fill="#666666">[bigint]</text>
<polygon fill="none" stroke="#000000" points="647,-162.5 647,-192.5 987,-192.5 987,-162.5 647,-162.5"/>
<text text-anchor="start" x="654" y="-173.9" font-family="Arial" font-size="14.00" fill="#000000">enquete_id    </text>
<text text-anchor="start" x="757.4628" y="-173.9" font-family="Arial" font-size="14.00" fill="#666666">[bigint]</text>
<polygon fill="none" stroke="#000000" points="647,-132.5 647,-162.5 987,-162.5 987,-132.5 647,-132.5"/>
<text text-anchor="start" x="654" y="-143.9" font-family="Arial" font-size="14.00" fill="#000000">created_at    </text>
<text text-anchor="start" x="754.3422" y="-143.9" font-family="Arial" font-size="14.00" fill="#666666">[datetime(6)]</text>
<polygon fill="none" stroke="#000000" points="647,-102.5 647,-132.5 987,-132.5 987,-102.5 647,-102.5"/>
<text text-anchor="start" x="654" y="-113.9" font-family="Arial" font-size="14.00" fill="#000000">updated_at    </text>
<text text-anchor="start" x="758.2468" y="-113.9" font-family="Arial" font-size="14.00" fill="#666666">[datetime(6)]</text>
<polygon fill="none" stroke="#000000" points="647,-72.5 647,-102.5 987,-102.5 987,-72.5 647,-72.5"/>
<text text-anchor="start" x="654" y="-83.9" font-family="Arial" font-size="14.00" fill="#000000">question    </text>
<text text-anchor="start" x="741.115" y="-83.9" font-family="Arial" font-size="14.00" fill="#666666">[varchar(255)]</text>
<polygon fill="none" stroke="#000000" points="647,-42.5 647,-72.5 987,-72.5 987,-42.5 647,-42.5"/>
<text text-anchor="start" x="654" y="-53.9" font-family="Arial" font-size="14.00" fill="#000000">sort_order    </text>
<text text-anchor="start" x="751.9902" y="-53.9" font-family="Arial" font-size="14.00" fill="#666666">[int]</text>
</g>
<!-- enquete_choice_results&#45;&gt;enquete_delivery_details -->
<g id="edge2" class="edge">
<title>enquete_choice_results:enquete_delivery_detail_id&#45;&gt;enquete_delivery_details:id</title>
<path fill="none" stroke="#000000" d="M766.1967,-486.395C806.3909,-476.8249 785.1683,-407.3516 756,-367 726.1121,-325.653 676.8879,-372.347 647,-331 622.6556,-297.3219 605.4444,-237.5 647,-237.5"/>
<polygon fill="#000000" stroke="#000000" points="765.9418,-486.4226 755.5152,-483.0262 760.9709,-486.9613 756,-487.5 756,-487.5 756,-487.5 760.9709,-486.9613 756.4848,-491.9738 765.9418,-486.4226 765.9418,-486.4226"/>
<text text-anchor="start" x="762.803" y="-497.5" font-family="Arial" font-size="10.00" fill="#000000">FOREIGN KEY (enquete_delivery_detail_id) REFERENCES enquete_delivery_details (id)</text>
</g>
</g>
</svg>
