<?xml version="1.0" encoding="UTF-8" standalone="no"?>
<!DOCTYPE svg PUBLIC "-//W3C//DTD SVG 1.1//EN"
 "http://www.w3.org/Graphics/SVG/1.1/DTD/svg11.dtd">
<!-- Generated by graphviz version 2.40.1 (20161225.0304)
 -->
<!-- Title: enquete_text_results Pages: 1 -->
<svg width="787pt" height="652pt"
 viewBox="0.00 0.00 787.00 652.00" xmlns="http://www.w3.org/2000/svg" xmlns:xlink="http://www.w3.org/1999/xlink">
<g id="graph0" class="graph" transform="scale(1 1) rotate(0) translate(4 648)">
<title>enquete_text_results</title>
<polygon fill="#ffffff" stroke="transparent" points="-4,4 -4,-648 783,-648 783,4 -4,4"/>
<!-- enquete_text_results -->
<g id="node1" class="node">
<title>enquete_text_results</title>
<polygon fill="#efefef" stroke="transparent" points="59,-562.5 59,-597.5 367,-597.5 367,-562.5 59,-562.5"/>
<polygon fill="none" stroke="#000000" points="59,-562.5 59,-597.5 367,-597.5 367,-562.5 59,-562.5"/>
<text text-anchor="start" x="65.6843" y="-575.3" font-family="Arial Bold" font-size="18.00" fill="#000000">enquete_text_results</text>
<text text-anchor="start" x="232.7477" y="-575.3" font-family="Arial" font-size="14.00" fill="#000000">    </text>
<text text-anchor="start" x="266.9525" y="-575.3" font-family="Arial" font-size="14.00" fill="#666666">[BASE TABLE]</text>
<polygon fill="none" stroke="#000000" points="59,-532.5 59,-562.5 367,-562.5 367,-532.5 59,-532.5"/>
<text text-anchor="start" x="66" y="-543.9" font-family="Arial" font-size="14.00" fill="#000000">id </text>
<text text-anchor="start" x="80.7798" y="-543.9" font-family="Arial" font-size="14.00" fill="#666666">[bigint]</text>
<polygon fill="none" stroke="#000000" points="59,-502.5 59,-532.5 367,-532.5 367,-502.5 59,-502.5"/>
<text text-anchor="start" x="66" y="-513.9" font-family="Arial" font-size="14.00" fill="#000000">enquete_delivery_detail_id </text>
<text text-anchor="start" x="236.387" y="-513.9" font-family="Arial" font-size="14.00" fill="#666666">[bigint]</text>
<polygon fill="none" stroke="#000000" points="59,-472.5 59,-502.5 367,-502.5 367,-472.5 59,-472.5"/>
<text text-anchor="start" x="66" y="-483.9" font-family="Arial" font-size="14.00" fill="#000000">answer </text>
<text text-anchor="start" x="115.0056" y="-483.9" font-family="Arial" font-size="14.00" fill="#666666">[varchar(255)]</text>
<polygon fill="none" stroke="#000000" points="59,-442.5 59,-472.5 367,-472.5 367,-442.5 59,-442.5"/>
<text text-anchor="start" x="66" y="-453.9" font-family="Arial" font-size="14.00" fill="#000000">created_at </text>
<text text-anchor="start" x="136.028" y="-453.9" font-family="Arial" font-size="14.00" fill="#666666">[datetime(6)]</text>
<polygon fill="none" stroke="#000000" points="59,-412.5 59,-442.5 367,-442.5 367,-412.5 59,-412.5"/>
<text text-anchor="start" x="66" y="-423.9" font-family="Arial" font-size="14.00" fill="#000000">updated_at </text>
<text text-anchor="start" x="139.9326" y="-423.9" font-family="Arial" font-size="14.00" fill="#666666">[datetime(6)]</text>
<polygon fill="none" stroke="#000000" stroke-width="3" points="57.5,-411.5 57.5,-599.5 368.5,-599.5 368.5,-411.5 57.5,-411.5"/>
</g>
<!-- enquete_delivery_details -->
<g id="node2" class="node">
<title>enquete_delivery_details</title>
<polygon fill="#efefef" stroke="transparent" points="43,-252.5 43,-287.5 383,-287.5 383,-252.5 43,-252.5"/>
<polygon fill="none" stroke="#000000" points="43,-252.5 43,-287.5 383,-287.5 383,-252.5 43,-252.5"/>
<text text-anchor="start" x="49.6859" y="-265.3" font-family="Arial Bold" font-size="18.00" fill="#000000">enquete_delivery_details</text>
<text text-anchor="start" x="248.7461" y="-265.3" font-family="Arial" font-size="14.00" fill="#000000">    </text>
<text text-anchor="start" x="282.9509" y="-265.3" font-family="Arial" font-size="14.00" fill="#666666">[BASE TABLE]</text>
<polygon fill="none" stroke="#000000" points="43,-222.5 43,-252.5 383,-252.5 383,-222.5 43,-222.5"/>
<text text-anchor="start" x="50" y="-233.9" font-family="Arial" font-size="14.00" fill="#000000">id    </text>
<text text-anchor="start" x="95.094" y="-233.9" font-family="Arial" font-size="14.00" fill="#666666">[bigint]</text>
<polygon fill="none" stroke="#000000" points="43,-192.5 43,-222.5 383,-222.5 383,-192.5 43,-192.5"/>
<text text-anchor="start" x="50" y="-203.9" font-family="Arial" font-size="14.00" fill="#000000">enquete_delivery_id    </text>
<text text-anchor="start" x="209.467" y="-203.9" font-family="Arial" font-size="14.00" fill="#666666">[bigint]</text>
<polygon fill="none" stroke="#000000" points="43,-162.5 43,-192.5 383,-192.5 383,-162.5 43,-162.5"/>
<text text-anchor="start" x="50" y="-173.9" font-family="Arial" font-size="14.00" fill="#000000">enquete_id    </text>
<text text-anchor="start" x="153.4628" y="-173.9" font-family="Arial" font-size="14.00" fill="#666666">[bigint]</text>
<polygon fill="none" stroke="#000000" points="43,-132.5 43,-162.5 383,-162.5 383,-132.5 43,-132.5"/>
<text text-anchor="start" x="50" y="-143.9" font-family="Arial" font-size="14.00" fill="#000000">created_at    </text>
<text text-anchor="start" x="150.3422" y="-143.9" font-family="Arial" font-size="14.00" fill="#666666">[datetime(6)]</text>
<polygon fill="none" stroke="#000000" points="43,-102.5 43,-132.5 383,-132.5 383,-102.5 43,-102.5"/>
<text text-anchor="start" x="50" y="-113.9" font-family="Arial" font-size="14.00" fill="#000000">updated_at    </text>
<text text-anchor="start" x="154.2468" y="-113.9" font-family="Arial" font-size="14.00" fill="#666666">[datetime(6)]</text>
<polygon fill="none" stroke="#000000" points="43,-72.5 43,-102.5 383,-102.5 383,-72.5 43,-72.5"/>
<text text-anchor="start" x="50" y="-83.9" font-family="Arial" font-size="14.00" fill="#000000">question    </text>
<text text-anchor="start" x="137.115" y="-83.9" font-family="Arial" font-size="14.00" fill="#666666">[varchar(255)]</text>
<polygon fill="none" stroke="#000000" points="43,-42.5 43,-72.5 383,-72.5 383,-42.5 43,-42.5"/>
<text text-anchor="start" x="50" y="-53.9" font-family="Arial" font-size="14.00" fill="#000000">sort_order    </text>
<text text-anchor="start" x="147.9902" y="-53.9" font-family="Arial" font-size="14.00" fill="#666666">[int]</text>
</g>
<!-- enquete_text_results&#45;&gt;enquete_delivery_details -->
<g id="edge1" class="edge">
<title>enquete_text_results:enquete_delivery_detail_id&#45;&gt;enquete_delivery_details:id</title>
<path fill="none" stroke="#000000" d="M376.8041,-515.0794C430.8395,-487.7124 441.9154,-237.5 383,-237.5"/>
<polygon fill="#000000" stroke="#000000" points="376.7085,-515.1029 365.9213,-513.1312 371.8542,-516.3015 367,-517.5 367,-517.5 367,-517.5 371.8542,-516.3015 368.0787,-521.8688 376.7085,-515.1029 376.7085,-515.1029"/>
<text text-anchor="start" x="373.803" y="-527.5" font-family="Arial" font-size="10.00" fill="#000000">FOREIGN KEY (enquete_delivery_detail_id) REFERENCES enquete_delivery_details (id)</text>
</g>
</g>
</svg>
