<?xml version="1.0" encoding="UTF-8" standalone="no"?>
<!DOCTYPE svg PUBLIC "-//W3C//DTD SVG 1.1//EN"
 "http://www.w3.org/Graphics/SVG/1.1/DTD/svg11.dtd">
<!-- Generated by graphviz version 2.40.1 (20161225.0304)
 -->
<!-- Title: enquete_choices Pages: 1 -->
<svg width="604pt" height="682pt"
 viewBox="0.00 0.00 603.50 682.00" xmlns="http://www.w3.org/2000/svg" xmlns:xlink="http://www.w3.org/1999/xlink">
<g id="graph0" class="graph" transform="scale(1 1) rotate(0) translate(4 678)">
<title>enquete_choices</title>
<polygon fill="#ffffff" stroke="transparent" points="-4,4 -4,-678 599.5,-678 599.5,4 -4,4"/>
<!-- enquete_choices -->
<g id="node1" class="node">
<title>enquete_choices</title>
<polygon fill="#efefef" stroke="transparent" points="273,-592.5 273,-627.5 550,-627.5 550,-592.5 273,-592.5"/>
<polygon fill="none" stroke="#000000" points="273,-592.5 273,-627.5 550,-627.5 550,-592.5 273,-592.5"/>
<text text-anchor="start" x="279.6868" y="-605.3" font-family="Arial Bold" font-size="18.00" fill="#000000">enquete_choices</text>
<text text-anchor="start" x="415.7452" y="-605.3" font-family="Arial" font-size="14.00" fill="#000000">    </text>
<text text-anchor="start" x="449.95" y="-605.3" font-family="Arial" font-size="14.00" fill="#666666">[BASE TABLE]</text>
<polygon fill="none" stroke="#000000" points="273,-562.5 273,-592.5 550,-592.5 550,-562.5 273,-562.5"/>
<text text-anchor="start" x="280" y="-573.9" font-family="Arial" font-size="14.00" fill="#000000">id </text>
<text text-anchor="start" x="294.7798" y="-573.9" font-family="Arial" font-size="14.00" fill="#666666">[bigint]</text>
<polygon fill="none" stroke="#000000" points="273,-532.5 273,-562.5 550,-562.5 550,-532.5 273,-532.5"/>
<text text-anchor="start" x="280" y="-543.9" font-family="Arial" font-size="14.00" fill="#000000">enquete_id </text>
<text text-anchor="start" x="353.1486" y="-543.9" font-family="Arial" font-size="14.00" fill="#666666">[bigint]</text>
<polygon fill="none" stroke="#000000" points="273,-502.5 273,-532.5 550,-532.5 550,-502.5 273,-502.5"/>
<text text-anchor="start" x="280" y="-513.9" font-family="Arial" font-size="14.00" fill="#000000">label </text>
<text text-anchor="start" x="313.4516" y="-513.9" font-family="Arial" font-size="14.00" fill="#666666">[varchar(255)]</text>
<polygon fill="none" stroke="#000000" points="273,-472.5 273,-502.5 550,-502.5 550,-472.5 273,-472.5"/>
<text text-anchor="start" x="280" y="-483.9" font-family="Arial" font-size="14.00" fill="#000000">sort_order </text>
<text text-anchor="start" x="347.676" y="-483.9" font-family="Arial" font-size="14.00" fill="#666666">[int]</text>
<polygon fill="none" stroke="#000000" points="273,-442.5 273,-472.5 550,-472.5 550,-442.5 273,-442.5"/>
<text text-anchor="start" x="280" y="-453.9" font-family="Arial" font-size="14.00" fill="#000000">score </text>
<text text-anchor="start" x="318.1164" y="-453.9" font-family="Arial" font-size="14.00" fill="#666666">[int]</text>
<polygon fill="none" stroke="#000000" points="273,-412.5 273,-442.5 550,-442.5 550,-412.5 273,-412.5"/>
<text text-anchor="start" x="280" y="-423.9" font-family="Arial" font-size="14.00" fill="#000000">created_at </text>
<text text-anchor="start" x="350.028" y="-423.9" font-family="Arial" font-size="14.00" fill="#666666">[datetime(6)]</text>
<polygon fill="none" stroke="#000000" points="273,-382.5 273,-412.5 550,-412.5 550,-382.5 273,-382.5"/>
<text text-anchor="start" x="280" y="-393.9" font-family="Arial" font-size="14.00" fill="#000000">updated_at </text>
<text text-anchor="start" x="353.9326" y="-393.9" font-family="Arial" font-size="14.00" fill="#666666">[datetime(6)]</text>
<polygon fill="none" stroke="#000000" stroke-width="3" points="271,-381.5 271,-629.5 551,-629.5 551,-381.5 271,-381.5"/>
</g>
<!-- enquetes -->
<g id="node2" class="node">
<title>enquetes</title>
<polygon fill="#efefef" stroke="transparent" points="304,-222.5 304,-257.5 519,-257.5 519,-222.5 304,-222.5"/>
<polygon fill="none" stroke="#000000" points="304,-222.5 304,-257.5 519,-257.5 519,-222.5 304,-222.5"/>
<text text-anchor="start" x="310.6963" y="-235.3" font-family="Arial Bold" font-size="18.00" fill="#000000">enquetes</text>
<text text-anchor="start" x="384.7357" y="-235.3" font-family="Arial" font-size="14.00" fill="#000000">    </text>
<text text-anchor="start" x="418.9405" y="-235.3" font-family="Arial" font-size="14.00" fill="#666666">[BASE TABLE]</text>
<polygon fill="none" stroke="#000000" points="304,-192.5 304,-222.5 519,-222.5 519,-192.5 304,-192.5"/>
<text text-anchor="start" x="311" y="-203.9" font-family="Arial" font-size="14.00" fill="#000000">id    </text>
<text text-anchor="start" x="356.094" y="-203.9" font-family="Arial" font-size="14.00" fill="#666666">[bigint]</text>
<polygon fill="none" stroke="#000000" points="304,-162.5 304,-192.5 519,-192.5 519,-162.5 304,-162.5"/>
<text text-anchor="start" x="311" y="-173.9" font-family="Arial" font-size="14.00" fill="#000000">question    </text>
<text text-anchor="start" x="398.115" y="-173.9" font-family="Arial" font-size="14.00" fill="#666666">[varchar(255)]</text>
<polygon fill="none" stroke="#000000" points="304,-132.5 304,-162.5 519,-162.5 519,-132.5 304,-132.5"/>
<text text-anchor="start" x="311" y="-143.9" font-family="Arial" font-size="14.00" fill="#000000">sort_order    </text>
<text text-anchor="start" x="408.9902" y="-143.9" font-family="Arial" font-size="14.00" fill="#666666">[varchar(255)]</text>
<polygon fill="none" stroke="#000000" points="304,-102.5 304,-132.5 519,-132.5 519,-102.5 304,-102.5"/>
<text text-anchor="start" x="311" y="-113.9" font-family="Arial" font-size="14.00" fill="#000000">rms_use_flg    </text>
<text text-anchor="start" x="421.4362" y="-113.9" font-family="Arial" font-size="14.00" fill="#666666">[tinyint(1)]</text>
<polygon fill="none" stroke="#000000" points="304,-72.5 304,-102.5 519,-102.5 519,-72.5 304,-72.5"/>
<text text-anchor="start" x="311" y="-83.9" font-family="Arial" font-size="14.00" fill="#000000">created_at    </text>
<text text-anchor="start" x="411.3422" y="-83.9" font-family="Arial" font-size="14.00" fill="#666666">[datetime(6)]</text>
<polygon fill="none" stroke="#000000" points="304,-42.5 304,-72.5 519,-72.5 519,-42.5 304,-42.5"/>
<text text-anchor="start" x="311" y="-53.9" font-family="Arial" font-size="14.00" fill="#000000">updated_at    </text>
<text text-anchor="start" x="415.2468" y="-53.9" font-family="Arial" font-size="14.00" fill="#666666">[datetime(6)]</text>
</g>
<!-- enquete_choices&#45;&gt;enquetes -->
<g id="edge1" class="edge">
<title>enquete_choices:enquete_id&#45;&gt;enquetes:id</title>
<path fill="none" stroke="#000000" d="M263.029,-545.3288C200.1359,-516.3721 231.6874,-207.5 304,-207.5"/>
<polygon fill="#000000" stroke="#000000" points="263.229,-545.3723 272.0425,-551.897 268.1145,-546.4361 273,-547.5 273,-547.5 273,-547.5 268.1145,-546.4361 273.9575,-543.103 263.229,-545.3723 263.229,-545.3723"/>
<text text-anchor="start" x="7.259" y="-557.5" font-family="Arial" font-size="10.00" fill="#000000">FOREIGN KEY (enquete_id) REFERENCES enquetes (id)</text>
</g>
</g>
</svg>
