<?xml version="1.0" encoding="UTF-8" standalone="no"?>
<!DOCTYPE svg PUBLIC "-//W3C//DTD SVG 1.1//EN"
 "http://www.w3.org/Graphics/SVG/1.1/DTD/svg11.dtd">
<!-- Generated by graphviz version 2.40.1 (20161225.0304)
 -->
<!-- Title: enquetes Pages: 1 -->
<svg width="816pt" height="682pt"
 viewBox="0.00 0.00 815.50 682.00" xmlns="http://www.w3.org/2000/svg" xmlns:xlink="http://www.w3.org/1999/xlink">
<g id="graph0" class="graph" transform="scale(1 1) rotate(0) translate(4 678)">
<title>enquetes</title>
<polygon fill="#ffffff" stroke="transparent" points="-4,4 -4,-678 811.5,-678 811.5,4 -4,4"/>
<!-- enquetes -->
<g id="node1" class="node">
<title>enquetes</title>
<polygon fill="#efefef" stroke="transparent" points="280.5,-225.5 280.5,-260.5 495.5,-260.5 495.5,-225.5 280.5,-225.5"/>
<polygon fill="none" stroke="#000000" points="280.5,-225.5 280.5,-260.5 495.5,-260.5 495.5,-225.5 280.5,-225.5"/>
<text text-anchor="start" x="287.1963" y="-238.3" font-family="Arial Bold" font-size="18.00" fill="#000000">enquetes</text>
<text text-anchor="start" x="361.2357" y="-238.3" font-family="Arial" font-size="14.00" fill="#000000">    </text>
<text text-anchor="start" x="395.4405" y="-238.3" font-family="Arial" font-size="14.00" fill="#666666">[BASE TABLE]</text>
<polygon fill="none" stroke="#000000" points="280.5,-195.5 280.5,-225.5 495.5,-225.5 495.5,-195.5 280.5,-195.5"/>
<text text-anchor="start" x="287.5" y="-206.9" font-family="Arial" font-size="14.00" fill="#000000">id </text>
<text text-anchor="start" x="302.2798" y="-206.9" font-family="Arial" font-size="14.00" fill="#666666">[bigint]</text>
<polygon fill="none" stroke="#000000" points="280.5,-165.5 280.5,-195.5 495.5,-195.5 495.5,-165.5 280.5,-165.5"/>
<text text-anchor="start" x="287.5" y="-176.9" font-family="Arial" font-size="14.00" fill="#000000">question </text>
<text text-anchor="start" x="344.3008" y="-176.9" font-family="Arial" font-size="14.00" fill="#666666">[varchar(255)]</text>
<polygon fill="none" stroke="#000000" points="280.5,-135.5 280.5,-165.5 495.5,-165.5 495.5,-135.5 280.5,-135.5"/>
<text text-anchor="start" x="287.5" y="-146.9" font-family="Arial" font-size="14.00" fill="#000000">sort_order </text>
<text text-anchor="start" x="355.176" y="-146.9" font-family="Arial" font-size="14.00" fill="#666666">[varchar(255)]</text>
<polygon fill="none" stroke="#000000" points="280.5,-105.5 280.5,-135.5 495.5,-135.5 495.5,-105.5 280.5,-105.5"/>
<text text-anchor="start" x="287.5" y="-116.9" font-family="Arial" font-size="14.00" fill="#000000">rms_use_flg </text>
<text text-anchor="start" x="367.622" y="-116.9" font-family="Arial" font-size="14.00" fill="#666666">[tinyint(1)]</text>
<polygon fill="none" stroke="#000000" points="280.5,-75.5 280.5,-105.5 495.5,-105.5 495.5,-75.5 280.5,-75.5"/>
<text text-anchor="start" x="287.5" y="-86.9" font-family="Arial" font-size="14.00" fill="#000000">created_at </text>
<text text-anchor="start" x="357.528" y="-86.9" font-family="Arial" font-size="14.00" fill="#666666">[datetime(6)]</text>
<polygon fill="none" stroke="#000000" points="280.5,-45.5 280.5,-75.5 495.5,-75.5 495.5,-45.5 280.5,-45.5"/>
<text text-anchor="start" x="287.5" y="-56.9" font-family="Arial" font-size="14.00" fill="#000000">updated_at </text>
<text text-anchor="start" x="361.4326" y="-56.9" font-family="Arial" font-size="14.00" fill="#666666">[datetime(6)]</text>
<polygon fill="none" stroke="#000000" stroke-width="3" points="278.5,-44.5 278.5,-262.5 496.5,-262.5 496.5,-44.5 278.5,-44.5"/>
</g>
<!-- enquete_choices -->
<g id="node2" class="node">
<title>enquete_choices</title>
<polygon fill="#efefef" stroke="transparent" points="43.5,-595.5 43.5,-630.5 320.5,-630.5 320.5,-595.5 43.5,-595.5"/>
<polygon fill="none" stroke="#000000" points="43.5,-595.5 43.5,-630.5 320.5,-630.5 320.5,-595.5 43.5,-595.5"/>
<text text-anchor="start" x="50.1868" y="-608.3" font-family="Arial Bold" font-size="18.00" fill="#000000">enquete_choices</text>
<text text-anchor="start" x="186.2452" y="-608.3" font-family="Arial" font-size="14.00" fill="#000000">    </text>
<text text-anchor="start" x="220.45" y="-608.3" font-family="Arial" font-size="14.00" fill="#666666">[BASE TABLE]</text>
<polygon fill="none" stroke="#000000" points="43.5,-565.5 43.5,-595.5 320.5,-595.5 320.5,-565.5 43.5,-565.5"/>
<text text-anchor="start" x="50.5" y="-576.9" font-family="Arial" font-size="14.00" fill="#000000">id    </text>
<text text-anchor="start" x="95.594" y="-576.9" font-family="Arial" font-size="14.00" fill="#666666">[bigint]</text>
<polygon fill="none" stroke="#000000" points="43.5,-535.5 43.5,-565.5 320.5,-565.5 320.5,-535.5 43.5,-535.5"/>
<text text-anchor="start" x="50.5" y="-546.9" font-family="Arial" font-size="14.00" fill="#000000">enquete_id    </text>
<text text-anchor="start" x="153.9628" y="-546.9" font-family="Arial" font-size="14.00" fill="#666666">[bigint]</text>
<polygon fill="none" stroke="#000000" points="43.5,-505.5 43.5,-535.5 320.5,-535.5 320.5,-505.5 43.5,-505.5"/>
<text text-anchor="start" x="50.5" y="-516.9" font-family="Arial" font-size="14.00" fill="#000000">label    </text>
<text text-anchor="start" x="114.2658" y="-516.9" font-family="Arial" font-size="14.00" fill="#666666">[varchar(255)]</text>
<polygon fill="none" stroke="#000000" points="43.5,-475.5 43.5,-505.5 320.5,-505.5 320.5,-475.5 43.5,-475.5"/>
<text text-anchor="start" x="50.5" y="-486.9" font-family="Arial" font-size="14.00" fill="#000000">sort_order    </text>
<text text-anchor="start" x="148.4902" y="-486.9" font-family="Arial" font-size="14.00" fill="#666666">[int]</text>
<polygon fill="none" stroke="#000000" points="43.5,-445.5 43.5,-475.5 320.5,-475.5 320.5,-445.5 43.5,-445.5"/>
<text text-anchor="start" x="50.5" y="-456.9" font-family="Arial" font-size="14.00" fill="#000000">score    </text>
<text text-anchor="start" x="118.9306" y="-456.9" font-family="Arial" font-size="14.00" fill="#666666">[int]</text>
<polygon fill="none" stroke="#000000" points="43.5,-415.5 43.5,-445.5 320.5,-445.5 320.5,-415.5 43.5,-415.5"/>
<text text-anchor="start" x="50.5" y="-426.9" font-family="Arial" font-size="14.00" fill="#000000">created_at    </text>
<text text-anchor="start" x="150.8422" y="-426.9" font-family="Arial" font-size="14.00" fill="#666666">[datetime(6)]</text>
<polygon fill="none" stroke="#000000" points="43.5,-385.5 43.5,-415.5 320.5,-415.5 320.5,-385.5 43.5,-385.5"/>
<text text-anchor="start" x="50.5" y="-396.9" font-family="Arial" font-size="14.00" fill="#000000">updated_at    </text>
<text text-anchor="start" x="154.7468" y="-396.9" font-family="Arial" font-size="14.00" fill="#666666">[datetime(6)]</text>
</g>
<!-- enquete_choices&#45;&gt;enquetes -->
<g id="edge1" class="edge">
<title>enquete_choices:enquete_id&#45;&gt;enquetes:id</title>
<path fill="none" stroke="#000000" d="M330.6445,-549.9455C408.4748,-540.9302 356.554,-423.9542 320.5,-343 310.7694,-321.1513 290.2306,-328.8487 280.5,-307 263.0511,-267.821 237.6111,-210.5 280.5,-210.5"/>
<polygon fill="#000000" stroke="#000000" points="330.4851,-549.9541 320.2543,-546.0067 325.4925,-550.227 320.5,-550.5 320.5,-550.5 320.5,-550.5 325.4925,-550.227 320.7457,-554.9933 330.4851,-549.9541 330.4851,-549.9541"/>
<text text-anchor="start" x="327.759" y="-560.5" font-family="Arial" font-size="10.00" fill="#000000">FOREIGN KEY (enquete_id) REFERENCES enquetes (id)</text>
</g>
<!-- enquete_delivery_details -->
<g id="node3" class="node">
<title>enquete_delivery_details</title>
<polygon fill="#efefef" stroke="transparent" points="424.5,-595.5 424.5,-630.5 764.5,-630.5 764.5,-595.5 424.5,-595.5"/>
<polygon fill="none" stroke="#000000" points="424.5,-595.5 424.5,-630.5 764.5,-630.5 764.5,-595.5 424.5,-595.5"/>
<text text-anchor="start" x="431.1859" y="-608.3" font-family="Arial Bold" font-size="18.00" fill="#000000">enquete_delivery_details</text>
<text text-anchor="start" x="630.2461" y="-608.3" font-family="Arial" font-size="14.00" fill="#000000">    </text>
<text text-anchor="start" x="664.4509" y="-608.3" font-family="Arial" font-size="14.00" fill="#666666">[BASE TABLE]</text>
<polygon fill="none" stroke="#000000" points="424.5,-565.5 424.5,-595.5 764.5,-595.5 764.5,-565.5 424.5,-565.5"/>
<text text-anchor="start" x="431.5" y="-576.9" font-family="Arial" font-size="14.00" fill="#000000">id    </text>
<text text-anchor="start" x="476.594" y="-576.9" font-family="Arial" font-size="14.00" fill="#666666">[bigint]</text>
<polygon fill="none" stroke="#000000" points="424.5,-535.5 424.5,-565.5 764.5,-565.5 764.5,-535.5 424.5,-535.5"/>
<text text-anchor="start" x="431.5" y="-546.9" font-family="Arial" font-size="14.00" fill="#000000">enquete_delivery_id    </text>
<text text-anchor="start" x="590.967" y="-546.9" font-family="Arial" font-size="14.00" fill="#666666">[bigint]</text>
<polygon fill="none" stroke="#000000" points="424.5,-505.5 424.5,-535.5 764.5,-535.5 764.5,-505.5 424.5,-505.5"/>
<text text-anchor="start" x="431.5" y="-516.9" font-family="Arial" font-size="14.00" fill="#000000">enquete_id    </text>
<text text-anchor="start" x="534.9628" y="-516.9" font-family="Arial" font-size="14.00" fill="#666666">[bigint]</text>
<polygon fill="none" stroke="#000000" points="424.5,-475.5 424.5,-505.5 764.5,-505.5 764.5,-475.5 424.5,-475.5"/>
<text text-anchor="start" x="431.5" y="-486.9" font-family="Arial" font-size="14.00" fill="#000000">created_at    </text>
<text text-anchor="start" x="531.8422" y="-486.9" font-family="Arial" font-size="14.00" fill="#666666">[datetime(6)]</text>
<polygon fill="none" stroke="#000000" points="424.5,-445.5 424.5,-475.5 764.5,-475.5 764.5,-445.5 424.5,-445.5"/>
<text text-anchor="start" x="431.5" y="-456.9" font-family="Arial" font-size="14.00" fill="#000000">updated_at    </text>
<text text-anchor="start" x="535.7468" y="-456.9" font-family="Arial" font-size="14.00" fill="#666666">[datetime(6)]</text>
<polygon fill="none" stroke="#000000" points="424.5,-415.5 424.5,-445.5 764.5,-445.5 764.5,-415.5 424.5,-415.5"/>
<text text-anchor="start" x="431.5" y="-426.9" font-family="Arial" font-size="14.00" fill="#000000">question    </text>
<text text-anchor="start" x="518.615" y="-426.9" font-family="Arial" font-size="14.00" fill="#666666">[varchar(255)]</text>
<polygon fill="none" stroke="#000000" points="424.5,-385.5 424.5,-415.5 764.5,-415.5 764.5,-385.5 424.5,-385.5"/>
<text text-anchor="start" x="431.5" y="-396.9" font-family="Arial" font-size="14.00" fill="#000000">sort_order    </text>
<text text-anchor="start" x="529.4902" y="-396.9" font-family="Arial" font-size="14.00" fill="#666666">[int]</text>
</g>
<!-- enquete_delivery_details&#45;&gt;enquetes -->
<g id="edge2" class="edge">
<title>enquete_delivery_details:enquete_id&#45;&gt;enquetes:id</title>
<path fill="none" stroke="#000000" d="M414.1625,-519.7889C349.1445,-510.2561 385.1496,-407.072 424.5,-343 443.0158,-312.8517 476.9842,-337.1483 495.5,-307 517.9455,-270.4533 538.3889,-210.5 495.5,-210.5"/>
<polygon fill="#000000" stroke="#000000" points="414.5236,-519.8136 424.1911,-524.9894 419.5118,-520.1568 424.5,-520.5 424.5,-520.5 424.5,-520.5 419.5118,-520.1568 424.8089,-516.0106 414.5236,-519.8136 414.5236,-519.8136"/>
<text text-anchor="start" x="431.759" y="-530.5" font-family="Arial" font-size="10.00" fill="#000000">FOREIGN KEY (enquete_id) REFERENCES enquetes (id)</text>
</g>
</g>
</svg>
