<?xml version="1.0" encoding="UTF-8" standalone="no"?>
<!DOCTYPE svg PUBLIC "-//W3C//DTD SVG 1.1//EN"
 "http://www.w3.org/Graphics/SVG/1.1/DTD/svg11.dtd">
<!-- Generated by graphviz version 2.40.1 (20161225.0304)
 -->
<!-- Title: enquete_achieve_action_results Pages: 1 -->
<svg width="1073pt" height="742pt"
 viewBox="0.00 0.00 1073.00 742.00" xmlns="http://www.w3.org/2000/svg" xmlns:xlink="http://www.w3.org/1999/xlink">
<g id="graph0" class="graph" transform="scale(1 1) rotate(0) translate(4 738)">
<title>enquete_achieve_action_results</title>
<polygon fill="#ffffff" stroke="transparent" points="-4,4 -4,-738 1069,-738 1069,4 -4,4"/>
<!-- enquete_achieve_action_results -->
<g id="node1" class="node">
<title>enquete_achieve_action_results</title>
<polygon fill="#efefef" stroke="transparent" points="412,-652.5 412,-687.5 811,-687.5 811,-652.5 412,-652.5"/>
<polygon fill="none" stroke="#000000" points="412,-652.5 412,-687.5 811,-687.5 811,-652.5 412,-652.5"/>
<text text-anchor="start" x="418.6695" y="-665.3" font-family="Arial Bold" font-size="18.00" fill="#000000">enquete_achieve_action_results</text>
<text text-anchor="start" x="676.7625" y="-665.3" font-family="Arial" font-size="14.00" fill="#000000">    </text>
<text text-anchor="start" x="710.9673" y="-665.3" font-family="Arial" font-size="14.00" fill="#666666">[BASE TABLE]</text>
<polygon fill="none" stroke="#000000" points="412,-622.5 412,-652.5 811,-652.5 811,-622.5 412,-622.5"/>
<text text-anchor="start" x="419" y="-633.9" font-family="Arial" font-size="14.00" fill="#000000">id </text>
<text text-anchor="start" x="433.7798" y="-633.9" font-family="Arial" font-size="14.00" fill="#666666">[bigint]</text>
<polygon fill="none" stroke="#000000" points="412,-592.5 412,-622.5 811,-622.5 811,-592.5 412,-592.5"/>
<text text-anchor="start" x="419" y="-603.9" font-family="Arial" font-size="14.00" fill="#000000">enquete_delivery_detail_id </text>
<text text-anchor="start" x="589.387" y="-603.9" font-family="Arial" font-size="14.00" fill="#666666">[bigint]</text>
<polygon fill="none" stroke="#000000" points="412,-562.5 412,-592.5 811,-592.5 811,-562.5 412,-562.5"/>
<text text-anchor="start" x="419" y="-573.9" font-family="Arial" font-size="14.00" fill="#000000">action_id </text>
<text text-anchor="start" x="478.9074" y="-573.9" font-family="Arial" font-size="14.00" fill="#666666">[bigint]</text>
<polygon fill="none" stroke="#000000" points="412,-532.5 412,-562.5 811,-562.5 811,-532.5 412,-532.5"/>
<text text-anchor="start" x="419" y="-543.9" font-family="Arial" font-size="14.00" fill="#000000">created_at </text>
<text text-anchor="start" x="489.028" y="-543.9" font-family="Arial" font-size="14.00" fill="#666666">[datetime(6)]</text>
<polygon fill="none" stroke="#000000" points="412,-502.5 412,-532.5 811,-532.5 811,-502.5 412,-502.5"/>
<text text-anchor="start" x="419" y="-513.9" font-family="Arial" font-size="14.00" fill="#000000">updated_at </text>
<text text-anchor="start" x="492.9326" y="-513.9" font-family="Arial" font-size="14.00" fill="#666666">[datetime(6)]</text>
<polygon fill="none" stroke="#000000" stroke-width="3" points="410,-501.5 410,-689.5 812,-689.5 812,-501.5 410,-501.5"/>
</g>
<!-- enquete_delivery_details -->
<g id="node2" class="node">
<title>enquete_delivery_details</title>
<polygon fill="#efefef" stroke="transparent" points="247,-297.5 247,-332.5 587,-332.5 587,-297.5 247,-297.5"/>
<polygon fill="none" stroke="#000000" points="247,-297.5 247,-332.5 587,-332.5 587,-297.5 247,-297.5"/>
<text text-anchor="start" x="253.6859" y="-310.3" font-family="Arial Bold" font-size="18.00" fill="#000000">enquete_delivery_details</text>
<text text-anchor="start" x="452.7461" y="-310.3" font-family="Arial" font-size="14.00" fill="#000000">    </text>
<text text-anchor="start" x="486.9509" y="-310.3" font-family="Arial" font-size="14.00" fill="#666666">[BASE TABLE]</text>
<polygon fill="none" stroke="#000000" points="247,-267.5 247,-297.5 587,-297.5 587,-267.5 247,-267.5"/>
<text text-anchor="start" x="254" y="-278.9" font-family="Arial" font-size="14.00" fill="#000000">id    </text>
<text text-anchor="start" x="299.094" y="-278.9" font-family="Arial" font-size="14.00" fill="#666666">[bigint]</text>
<polygon fill="none" stroke="#000000" points="247,-237.5 247,-267.5 587,-267.5 587,-237.5 247,-237.5"/>
<text text-anchor="start" x="254" y="-248.9" font-family="Arial" font-size="14.00" fill="#000000">enquete_delivery_id    </text>
<text text-anchor="start" x="413.467" y="-248.9" font-family="Arial" font-size="14.00" fill="#666666">[bigint]</text>
<polygon fill="none" stroke="#000000" points="247,-207.5 247,-237.5 587,-237.5 587,-207.5 247,-207.5"/>
<text text-anchor="start" x="254" y="-218.9" font-family="Arial" font-size="14.00" fill="#000000">enquete_id    </text>
<text text-anchor="start" x="357.4628" y="-218.9" font-family="Arial" font-size="14.00" fill="#666666">[bigint]</text>
<polygon fill="none" stroke="#000000" points="247,-177.5 247,-207.5 587,-207.5 587,-177.5 247,-177.5"/>
<text text-anchor="start" x="254" y="-188.9" font-family="Arial" font-size="14.00" fill="#000000">created_at    </text>
<text text-anchor="start" x="354.3422" y="-188.9" font-family="Arial" font-size="14.00" fill="#666666">[datetime(6)]</text>
<polygon fill="none" stroke="#000000" points="247,-147.5 247,-177.5 587,-177.5 587,-147.5 247,-147.5"/>
<text text-anchor="start" x="254" y="-158.9" font-family="Arial" font-size="14.00" fill="#000000">updated_at    </text>
<text text-anchor="start" x="358.2468" y="-158.9" font-family="Arial" font-size="14.00" fill="#666666">[datetime(6)]</text>
<polygon fill="none" stroke="#000000" points="247,-117.5 247,-147.5 587,-147.5 587,-117.5 247,-117.5"/>
<text text-anchor="start" x="254" y="-128.9" font-family="Arial" font-size="14.00" fill="#000000">question    </text>
<text text-anchor="start" x="341.115" y="-128.9" font-family="Arial" font-size="14.00" fill="#666666">[varchar(255)]</text>
<polygon fill="none" stroke="#000000" points="247,-87.5 247,-117.5 587,-117.5 587,-87.5 247,-87.5"/>
<text text-anchor="start" x="254" y="-98.9" font-family="Arial" font-size="14.00" fill="#000000">sort_order    </text>
<text text-anchor="start" x="351.9902" y="-98.9" font-family="Arial" font-size="14.00" fill="#666666">[int]</text>
</g>
<!-- enquete_achieve_action_results&#45;&gt;enquete_delivery_details -->
<g id="edge1" class="edge">
<title>enquete_achieve_action_results:enquete_delivery_detail_id&#45;&gt;enquete_delivery_details:id</title>
<path fill="none" stroke="#000000" d="M401.888,-606.677C348.5029,-597.3167 377.9504,-510.2801 412,-457 458.1519,-384.7824 540.8481,-448.2176 587,-376 609.3775,-340.9841 628.5556,-282.5 587,-282.5"/>
<polygon fill="#000000" stroke="#000000" points="402.033,-606.6887 411.6349,-611.9852 407.0165,-607.0943 412,-607.5 412,-607.5 412,-607.5 407.0165,-607.0943 412.3651,-603.0148 402.033,-606.6887 402.033,-606.6887"/>
<text text-anchor="start" x="6.803" y="-617.5" font-family="Arial" font-size="10.00" fill="#000000">FOREIGN KEY (enquete_delivery_detail_id) REFERENCES enquete_delivery_details (id)</text>
</g>
<!-- actions -->
<g id="node3" class="node">
<title>actions</title>
<polygon fill="#efefef" stroke="transparent" points="692,-342.5 692,-377.5 921,-377.5 921,-342.5 692,-342.5"/>
<polygon fill="none" stroke="#000000" points="692,-342.5 692,-377.5 921,-377.5 921,-342.5 692,-342.5"/>
<text text-anchor="start" x="714.2085" y="-355.3" font-family="Arial Bold" font-size="18.00" fill="#000000">actions</text>
<text text-anchor="start" x="771.2235" y="-355.3" font-family="Arial" font-size="14.00" fill="#000000">    </text>
<text text-anchor="start" x="805.4283" y="-355.3" font-family="Arial" font-size="14.00" fill="#666666">[BASE TABLE]</text>
<polygon fill="none" stroke="#000000" points="692,-312.5 692,-342.5 921,-342.5 921,-312.5 692,-312.5"/>
<text text-anchor="start" x="699" y="-323.9" font-family="Arial" font-size="14.00" fill="#000000">id    </text>
<text text-anchor="start" x="744.094" y="-323.9" font-family="Arial" font-size="14.00" fill="#666666">[bigint]</text>
<polygon fill="none" stroke="#000000" points="692,-282.5 692,-312.5 921,-312.5 921,-282.5 692,-282.5"/>
<text text-anchor="start" x="699" y="-293.9" font-family="Arial" font-size="14.00" fill="#000000">action_phase_id    </text>
<text text-anchor="start" x="835.1346" y="-293.9" font-family="Arial" font-size="14.00" fill="#666666">[bigint]</text>
<polygon fill="none" stroke="#000000" points="692,-252.5 692,-282.5 921,-282.5 921,-252.5 692,-252.5"/>
<text text-anchor="start" x="699" y="-263.9" font-family="Arial" font-size="14.00" fill="#000000">title    </text>
<text text-anchor="start" x="754.9818" y="-263.9" font-family="Arial" font-size="14.00" fill="#666666">[varchar(255)]</text>
<polygon fill="none" stroke="#000000" points="692,-222.5 692,-252.5 921,-252.5 921,-222.5 692,-222.5"/>
<text text-anchor="start" x="699" y="-233.9" font-family="Arial" font-size="14.00" fill="#000000">sort_order    </text>
<text text-anchor="start" x="796.9902" y="-233.9" font-family="Arial" font-size="14.00" fill="#666666">[int]</text>
<polygon fill="none" stroke="#000000" points="692,-192.5 692,-222.5 921,-222.5 921,-192.5 692,-192.5"/>
<text text-anchor="start" x="699" y="-203.9" font-family="Arial" font-size="14.00" fill="#000000">valid_date_from    </text>
<text text-anchor="start" x="832.7812" y="-203.9" font-family="Arial" font-size="14.00" fill="#666666">[datetime(6)]</text>
<polygon fill="none" stroke="#000000" points="692,-162.5 692,-192.5 921,-192.5 921,-162.5 692,-162.5"/>
<text text-anchor="start" x="699" y="-173.9" font-family="Arial" font-size="14.00" fill="#000000">valid_date_to    </text>
<text text-anchor="start" x="816.46" y="-173.9" font-family="Arial" font-size="14.00" fill="#666666">[datetime(6)]</text>
<polygon fill="none" stroke="#000000" points="692,-132.5 692,-162.5 921,-162.5 921,-132.5 692,-132.5"/>
<text text-anchor="start" x="699" y="-143.9" font-family="Arial" font-size="14.00" fill="#000000">recommended_month    </text>
<text text-anchor="start" x="869.3464" y="-143.9" font-family="Arial" font-size="14.00" fill="#666666">[int]</text>
<polygon fill="none" stroke="#000000" points="692,-102.5 692,-132.5 921,-132.5 921,-102.5 692,-102.5"/>
<text text-anchor="start" x="699" y="-113.9" font-family="Arial" font-size="14.00" fill="#000000">created_at    </text>
<text text-anchor="start" x="799.3422" y="-113.9" font-family="Arial" font-size="14.00" fill="#666666">[datetime(6)]</text>
<polygon fill="none" stroke="#000000" points="692,-72.5 692,-102.5 921,-102.5 921,-72.5 692,-72.5"/>
<text text-anchor="start" x="699" y="-83.9" font-family="Arial" font-size="14.00" fill="#000000">updated_at    </text>
<text text-anchor="start" x="803.2468" y="-83.9" font-family="Arial" font-size="14.00" fill="#666666">[datetime(6)]</text>
<polygon fill="none" stroke="#000000" points="692,-42.5 692,-72.5 921,-72.5 921,-42.5 692,-42.5"/>
<text text-anchor="start" x="698.7735" y="-53.9" font-family="Arial" font-size="14.00" fill="#000000">line_break_title    </text>
<text text-anchor="start" x="827.1073" y="-53.9" font-family="Arial" font-size="14.00" fill="#666666">[varchar(255)]</text>
</g>
<!-- enquete_achieve_action_results&#45;&gt;actions -->
<g id="edge2" class="edge">
<title>enquete_achieve_action_results:action_id&#45;&gt;actions:id</title>
<path fill="none" stroke="#000000" d="M820.9497,-576.4494C861.5494,-567.066 840.7373,-497.0644 811,-457 778.0672,-412.6303 724.9328,-465.3697 692,-421 667.2328,-387.6316 650.4444,-327.5 692,-327.5"/>
<polygon fill="#000000" stroke="#000000" points="820.9447,-576.4498 810.5274,-573.0249 815.9724,-576.9749 811,-577.5 811,-577.5 811,-577.5 815.9724,-576.9749 811.4726,-581.9751 820.9447,-576.4498 820.9447,-576.4498"/>
<text text-anchor="start" x="817.717" y="-587.5" font-family="Arial" font-size="10.00" fill="#000000">FOREIGN KEY (action_id) REFERENCES actions (id)</text>
</g>
</g>
</svg>
