<?xml version="1.0" encoding="UTF-8" standalone="no"?>
<!DOCTYPE svg PUBLIC "-//W3C//DTD SVG 1.1//EN"
 "http://www.w3.org/Graphics/SVG/1.1/DTD/svg11.dtd">
<!-- Generated by graphviz version 2.40.1 (20161225.0304)
 -->
<!-- Title: enquete_total_score_results Pages: 1 -->
<svg width="778pt" height="682pt"
 viewBox="0.00 0.00 777.50 682.00" xmlns="http://www.w3.org/2000/svg" xmlns:xlink="http://www.w3.org/1999/xlink">
<g id="graph0" class="graph" transform="scale(1 1) rotate(0) translate(4 678)">
<title>enquete_total_score_results</title>
<polygon fill="#ffffff" stroke="transparent" points="-4,4 -4,-678 773.5,-678 773.5,4 -4,4"/>
<!-- enquete_total_score_results -->
<g id="node1" class="node">
<title>enquete_total_score_results</title>
<polygon fill="#efefef" stroke="transparent" points="46.5,-592.5 46.5,-627.5 413.5,-627.5 413.5,-592.5 46.5,-592.5"/>
<polygon fill="none" stroke="#000000" points="46.5,-592.5 46.5,-627.5 413.5,-627.5 413.5,-592.5 46.5,-592.5"/>
<text text-anchor="start" x="53.1787" y="-605.3" font-family="Arial Bold" font-size="18.00" fill="#000000">enquete_total_score_results</text>
<text text-anchor="start" x="279.2533" y="-605.3" font-family="Arial" font-size="14.00" fill="#000000">    </text>
<text text-anchor="start" x="313.4581" y="-605.3" font-family="Arial" font-size="14.00" fill="#666666">[BASE TABLE]</text>
<polygon fill="none" stroke="#000000" points="46.5,-562.5 46.5,-592.5 413.5,-592.5 413.5,-562.5 46.5,-562.5"/>
<text text-anchor="start" x="53.5" y="-573.9" font-family="Arial" font-size="14.00" fill="#000000">id </text>
<text text-anchor="start" x="68.2798" y="-573.9" font-family="Arial" font-size="14.00" fill="#666666">[bigint]</text>
<polygon fill="none" stroke="#000000" points="46.5,-532.5 46.5,-562.5 413.5,-562.5 413.5,-532.5 46.5,-532.5"/>
<text text-anchor="start" x="53.5" y="-543.9" font-family="Arial" font-size="14.00" fill="#000000">enquete_delivery_id </text>
<text text-anchor="start" x="182.6528" y="-543.9" font-family="Arial" font-size="14.00" fill="#666666">[bigint]</text>
<polygon fill="none" stroke="#000000" points="46.5,-502.5 46.5,-532.5 413.5,-532.5 413.5,-502.5 46.5,-502.5"/>
<text text-anchor="start" x="53.5" y="-513.9" font-family="Arial" font-size="14.00" fill="#000000">score </text>
<text text-anchor="start" x="91.6164" y="-513.9" font-family="Arial" font-size="14.00" fill="#666666">[float]</text>
<polygon fill="none" stroke="#000000" points="46.5,-472.5 46.5,-502.5 413.5,-502.5 413.5,-472.5 46.5,-472.5"/>
<text text-anchor="start" x="53.5" y="-483.9" font-family="Arial" font-size="14.00" fill="#000000">alert_flg </text>
<text text-anchor="start" x="107.176" y="-483.9" font-family="Arial" font-size="14.00" fill="#666666">[tinyint(1)]</text>
<polygon fill="none" stroke="#000000" points="46.5,-442.5 46.5,-472.5 413.5,-472.5 413.5,-442.5 46.5,-442.5"/>
<text text-anchor="start" x="53.5" y="-453.9" font-family="Arial" font-size="14.00" fill="#000000">created_at </text>
<text text-anchor="start" x="123.528" y="-453.9" font-family="Arial" font-size="14.00" fill="#666666">[datetime(6)]</text>
<polygon fill="none" stroke="#000000" points="46.5,-412.5 46.5,-442.5 413.5,-442.5 413.5,-412.5 46.5,-412.5"/>
<text text-anchor="start" x="53.5" y="-423.9" font-family="Arial" font-size="14.00" fill="#000000">updated_at </text>
<text text-anchor="start" x="127.4326" y="-423.9" font-family="Arial" font-size="14.00" fill="#666666">[datetime(6)]</text>
<polygon fill="none" stroke="#000000" stroke-width="3" points="44.5,-411.5 44.5,-629.5 414.5,-629.5 414.5,-411.5 44.5,-411.5"/>
</g>
<!-- enquete_deliveries -->
<g id="node2" class="node">
<title>enquete_deliveries</title>
<polygon fill="#efefef" stroke="transparent" points="84.5,-252.5 84.5,-287.5 376.5,-287.5 376.5,-252.5 84.5,-252.5"/>
<polygon fill="none" stroke="#000000" points="84.5,-252.5 84.5,-287.5 376.5,-287.5 376.5,-252.5 84.5,-252.5"/>
<text text-anchor="start" x="91.1934" y="-265.3" font-family="Arial Bold" font-size="18.00" fill="#000000">enquete_deliveries</text>
<text text-anchor="start" x="242.2386" y="-265.3" font-family="Arial" font-size="14.00" fill="#000000">    </text>
<text text-anchor="start" x="276.4434" y="-265.3" font-family="Arial" font-size="14.00" fill="#666666">[BASE TABLE]</text>
<polygon fill="none" stroke="#000000" points="84.5,-222.5 84.5,-252.5 376.5,-252.5 376.5,-222.5 84.5,-222.5"/>
<text text-anchor="start" x="91.5" y="-233.9" font-family="Arial" font-size="14.00" fill="#000000">id    </text>
<text text-anchor="start" x="136.594" y="-233.9" font-family="Arial" font-size="14.00" fill="#666666">[bigint]</text>
<polygon fill="none" stroke="#000000" points="84.5,-192.5 84.5,-222.5 376.5,-222.5 376.5,-192.5 84.5,-192.5"/>
<text text-anchor="start" x="91.5" y="-203.9" font-family="Arial" font-size="14.00" fill="#000000">send_date    </text>
<text text-anchor="start" x="191.0736" y="-203.9" font-family="Arial" font-size="14.00" fill="#666666">[date]</text>
<polygon fill="none" stroke="#000000" points="84.5,-162.5 84.5,-192.5 376.5,-192.5 376.5,-162.5 84.5,-162.5"/>
<text text-anchor="start" x="91.5" y="-173.9" font-family="Arial" font-size="14.00" fill="#000000">created_at    </text>
<text text-anchor="start" x="191.8422" y="-173.9" font-family="Arial" font-size="14.00" fill="#666666">[datetime(6)]</text>
<polygon fill="none" stroke="#000000" points="84.5,-132.5 84.5,-162.5 376.5,-162.5 376.5,-132.5 84.5,-132.5"/>
<text text-anchor="start" x="91.5" y="-143.9" font-family="Arial" font-size="14.00" fill="#000000">updated_at    </text>
<text text-anchor="start" x="195.7468" y="-143.9" font-family="Arial" font-size="14.00" fill="#666666">[datetime(6)]</text>
<polygon fill="none" stroke="#000000" points="84.5,-102.5 84.5,-132.5 376.5,-132.5 376.5,-102.5 84.5,-102.5"/>
<text text-anchor="start" x="91.5" y="-113.9" font-family="Arial" font-size="14.00" fill="#000000">send_flg    </text>
<text text-anchor="start" x="178.615" y="-113.9" font-family="Arial" font-size="14.00" fill="#666666">[tinyint(1)]</text>
<polygon fill="none" stroke="#000000" points="84.5,-72.5 84.5,-102.5 376.5,-102.5 376.5,-72.5 84.5,-72.5"/>
<text text-anchor="start" x="91.5" y="-83.9" font-family="Arial" font-size="14.00" fill="#000000">close_flg    </text>
<text text-anchor="start" x="180.939" y="-83.9" font-family="Arial" font-size="14.00" fill="#666666">[tinyint(1)]</text>
<polygon fill="none" stroke="#000000" points="84.5,-42.5 84.5,-72.5 376.5,-72.5 376.5,-42.5 84.5,-42.5"/>
<text text-anchor="start" x="91.5" y="-53.9" font-family="Arial" font-size="14.00" fill="#000000">freshman_id    </text>
<text text-anchor="start" x="202.7188" y="-53.9" font-family="Arial" font-size="14.00" fill="#666666">[bigint]</text>
</g>
<!-- enquete_total_score_results&#45;&gt;enquete_deliveries -->
<g id="edge1" class="edge">
<title>enquete_total_score_results:enquete_delivery_id&#45;&gt;enquete_deliveries:id</title>
<path fill="none" stroke="#000000" d="M423.6713,-546.7854C491.2718,-536.7728 464.6461,-424.0479 413.5,-367 364.4039,-312.2386 133.5961,-385.7614 84.5,-331 56.7599,-300.0589 42.9444,-237.5 84.5,-237.5"/>
<polygon fill="#000000" stroke="#000000" points="423.4754,-546.799 413.1846,-543.0111 418.4877,-547.1495 413.5,-547.5 413.5,-547.5 413.5,-547.5 418.4877,-547.1495 413.8154,-551.9889 423.4754,-546.799 423.4754,-546.799"/>
<text text-anchor="start" x="420.367" y="-557.5" font-family="Arial" font-size="10.00" fill="#000000">FOREIGN KEY (enquete_delivery_id) REFERENCES enquete_deliveries (id)</text>
</g>
</g>
</svg>
