<?xml version="1.0" encoding="UTF-8" standalone="no"?>
<!DOCTYPE svg PUBLIC "-//W3C//DTD SVG 1.1//EN"
 "http://www.w3.org/Graphics/SVG/1.1/DTD/svg11.dtd">
<!-- Generated by graphviz version 2.40.1 (20161225.0304)
 -->
<!-- Title: enquete_choice_deliveries Pages: 1 -->
<svg width="821pt" height="1019pt"
 viewBox="0.00 0.00 821.00 1019.00" xmlns="http://www.w3.org/2000/svg" xmlns:xlink="http://www.w3.org/1999/xlink">
<g id="graph0" class="graph" transform="scale(1 1) rotate(0) translate(4 1015)">
<title>enquete_choice_deliveries</title>
<polygon fill="#ffffff" stroke="transparent" points="-4,4 -4,-1015 817,-1015 817,4 -4,4"/>
<!-- enquete_choice_deliveries -->
<g id="node1" class="node">
<title>enquete_choice_deliveries</title>
<polygon fill="#efefef" stroke="transparent" points="46,-622.5 46,-657.5 400,-657.5 400,-622.5 46,-622.5"/>
<polygon fill="none" stroke="#000000" points="46,-622.5 46,-657.5 400,-657.5 400,-622.5 46,-622.5"/>
<text text-anchor="start" x="52.6839" y="-635.3" font-family="Arial Bold" font-size="18.00" fill="#000000">enquete_choice_deliveries</text>
<text text-anchor="start" x="265.7481" y="-635.3" font-family="Arial" font-size="14.00" fill="#000000">    </text>
<text text-anchor="start" x="299.9529" y="-635.3" font-family="Arial" font-size="14.00" fill="#666666">[BASE TABLE]</text>
<polygon fill="none" stroke="#000000" points="46,-592.5 46,-622.5 400,-622.5 400,-592.5 46,-592.5"/>
<text text-anchor="start" x="53" y="-603.9" font-family="Arial" font-size="14.00" fill="#000000">id </text>
<text text-anchor="start" x="67.7798" y="-603.9" font-family="Arial" font-size="14.00" fill="#666666">[bigint]</text>
<polygon fill="none" stroke="#000000" points="46,-562.5 46,-592.5 400,-592.5 400,-562.5 46,-562.5"/>
<text text-anchor="start" x="53" y="-573.9" font-family="Arial" font-size="14.00" fill="#000000">label </text>
<text text-anchor="start" x="86.4516" y="-573.9" font-family="Arial" font-size="14.00" fill="#666666">[varchar(255)]</text>
<polygon fill="none" stroke="#000000" points="46,-532.5 46,-562.5 400,-562.5 400,-532.5 46,-532.5"/>
<text text-anchor="start" x="53" y="-543.9" font-family="Arial" font-size="14.00" fill="#000000">sort_order </text>
<text text-anchor="start" x="120.676" y="-543.9" font-family="Arial" font-size="14.00" fill="#666666">[int]</text>
<polygon fill="none" stroke="#000000" points="46,-502.5 46,-532.5 400,-532.5 400,-502.5 46,-502.5"/>
<text text-anchor="start" x="53" y="-513.9" font-family="Arial" font-size="14.00" fill="#000000">score </text>
<text text-anchor="start" x="91.1164" y="-513.9" font-family="Arial" font-size="14.00" fill="#666666">[int]</text>
<polygon fill="none" stroke="#000000" points="46,-472.5 46,-502.5 400,-502.5 400,-472.5 46,-472.5"/>
<text text-anchor="start" x="53" y="-483.9" font-family="Arial" font-size="14.00" fill="#000000">enquete_delivery_detail_id </text>
<text text-anchor="start" x="223.387" y="-483.9" font-family="Arial" font-size="14.00" fill="#666666">[bigint]</text>
<polygon fill="none" stroke="#000000" points="46,-442.5 46,-472.5 400,-472.5 400,-442.5 46,-442.5"/>
<text text-anchor="start" x="53" y="-453.9" font-family="Arial" font-size="14.00" fill="#000000">created_at </text>
<text text-anchor="start" x="123.028" y="-453.9" font-family="Arial" font-size="14.00" fill="#666666">[datetime(6)]</text>
<polygon fill="none" stroke="#000000" points="46,-412.5 46,-442.5 400,-442.5 400,-412.5 46,-412.5"/>
<text text-anchor="start" x="53" y="-423.9" font-family="Arial" font-size="14.00" fill="#000000">updated_at </text>
<text text-anchor="start" x="126.9326" y="-423.9" font-family="Arial" font-size="14.00" fill="#666666">[datetime(6)]</text>
<polygon fill="none" stroke="#000000" stroke-width="3" points="44.5,-411.5 44.5,-659.5 401.5,-659.5 401.5,-411.5 44.5,-411.5"/>
</g>
<!-- enquete_delivery_details -->
<g id="node3" class="node">
<title>enquete_delivery_details</title>
<polygon fill="#efefef" stroke="transparent" points="53,-252.5 53,-287.5 393,-287.5 393,-252.5 53,-252.5"/>
<polygon fill="none" stroke="#000000" points="53,-252.5 53,-287.5 393,-287.5 393,-252.5 53,-252.5"/>
<text text-anchor="start" x="59.6859" y="-265.3" font-family="Arial Bold" font-size="18.00" fill="#000000">enquete_delivery_details</text>
<text text-anchor="start" x="258.7461" y="-265.3" font-family="Arial" font-size="14.00" fill="#000000">    </text>
<text text-anchor="start" x="292.9509" y="-265.3" font-family="Arial" font-size="14.00" fill="#666666">[BASE TABLE]</text>
<polygon fill="none" stroke="#000000" points="53,-222.5 53,-252.5 393,-252.5 393,-222.5 53,-222.5"/>
<text text-anchor="start" x="60" y="-233.9" font-family="Arial" font-size="14.00" fill="#000000">id    </text>
<text text-anchor="start" x="105.094" y="-233.9" font-family="Arial" font-size="14.00" fill="#666666">[bigint]</text>
<polygon fill="none" stroke="#000000" points="53,-192.5 53,-222.5 393,-222.5 393,-192.5 53,-192.5"/>
<text text-anchor="start" x="60" y="-203.9" font-family="Arial" font-size="14.00" fill="#000000">enquete_delivery_id    </text>
<text text-anchor="start" x="219.467" y="-203.9" font-family="Arial" font-size="14.00" fill="#666666">[bigint]</text>
<polygon fill="none" stroke="#000000" points="53,-162.5 53,-192.5 393,-192.5 393,-162.5 53,-162.5"/>
<text text-anchor="start" x="60" y="-173.9" font-family="Arial" font-size="14.00" fill="#000000">enquete_id    </text>
<text text-anchor="start" x="163.4628" y="-173.9" font-family="Arial" font-size="14.00" fill="#666666">[bigint]</text>
<polygon fill="none" stroke="#000000" points="53,-132.5 53,-162.5 393,-162.5 393,-132.5 53,-132.5"/>
<text text-anchor="start" x="60" y="-143.9" font-family="Arial" font-size="14.00" fill="#000000">created_at    </text>
<text text-anchor="start" x="160.3422" y="-143.9" font-family="Arial" font-size="14.00" fill="#666666">[datetime(6)]</text>
<polygon fill="none" stroke="#000000" points="53,-102.5 53,-132.5 393,-132.5 393,-102.5 53,-102.5"/>
<text text-anchor="start" x="60" y="-113.9" font-family="Arial" font-size="14.00" fill="#000000">updated_at    </text>
<text text-anchor="start" x="164.2468" y="-113.9" font-family="Arial" font-size="14.00" fill="#666666">[datetime(6)]</text>
<polygon fill="none" stroke="#000000" points="53,-72.5 53,-102.5 393,-102.5 393,-72.5 53,-72.5"/>
<text text-anchor="start" x="60" y="-83.9" font-family="Arial" font-size="14.00" fill="#000000">question    </text>
<text text-anchor="start" x="147.115" y="-83.9" font-family="Arial" font-size="14.00" fill="#666666">[varchar(255)]</text>
<polygon fill="none" stroke="#000000" points="53,-42.5 53,-72.5 393,-72.5 393,-42.5 53,-42.5"/>
<text text-anchor="start" x="60" y="-53.9" font-family="Arial" font-size="14.00" fill="#000000">sort_order    </text>
<text text-anchor="start" x="157.9902" y="-53.9" font-family="Arial" font-size="14.00" fill="#666666">[int]</text>
</g>
<!-- enquete_choice_deliveries&#45;&gt;enquete_delivery_details -->
<g id="edge2" class="edge">
<title>enquete_choice_deliveries:enquete_delivery_detail_id&#45;&gt;enquete_delivery_details:id</title>
<path fill="none" stroke="#000000" d="M409.6908,-484.6924C454.5126,-457.2266 445.1037,-237.5 393,-237.5"/>
<polygon fill="#000000" stroke="#000000" points="409.605,-484.7172 398.7477,-483.1777 404.8025,-486.1086 400,-487.5 400,-487.5 400,-487.5 404.8025,-486.1086 401.2523,-491.8223 409.605,-484.7172 409.605,-484.7172"/>
<text text-anchor="start" x="406.803" y="-497.5" font-family="Arial" font-size="10.00" fill="#000000">FOREIGN KEY (enquete_delivery_detail_id) REFERENCES enquete_delivery_details (id)</text>
</g>
<!-- enquete_choice_results -->
<g id="node2" class="node">
<title>enquete_choice_results</title>
<polygon fill="#efefef" stroke="transparent" points="57,-932.5 57,-967.5 388,-967.5 388,-932.5 57,-932.5"/>
<polygon fill="none" stroke="#000000" points="57,-932.5 57,-967.5 388,-967.5 388,-932.5 57,-932.5"/>
<text text-anchor="start" x="63.6832" y="-945.3" font-family="Arial Bold" font-size="18.00" fill="#000000">enquete_choice_results</text>
<text text-anchor="start" x="253.7488" y="-945.3" font-family="Arial" font-size="14.00" fill="#000000">    </text>
<text text-anchor="start" x="287.9536" y="-945.3" font-family="Arial" font-size="14.00" fill="#666666">[BASE TABLE]</text>
<polygon fill="none" stroke="#000000" points="57,-902.5 57,-932.5 388,-932.5 388,-902.5 57,-902.5"/>
<text text-anchor="start" x="64" y="-913.9" font-family="Arial" font-size="14.00" fill="#000000">id    </text>
<text text-anchor="start" x="109.094" y="-913.9" font-family="Arial" font-size="14.00" fill="#666666">[bigint]</text>
<polygon fill="none" stroke="#000000" points="57,-872.5 57,-902.5 388,-902.5 388,-872.5 57,-872.5"/>
<text text-anchor="start" x="64" y="-883.9" font-family="Arial" font-size="14.00" fill="#000000">enquete_choice_delivery_id    </text>
<text text-anchor="start" x="271.704" y="-883.9" font-family="Arial" font-size="14.00" fill="#666666">[bigint]</text>
<polygon fill="none" stroke="#000000" points="57,-842.5 57,-872.5 388,-872.5 388,-842.5 57,-842.5"/>
<text text-anchor="start" x="64" y="-853.9" font-family="Arial" font-size="14.00" fill="#000000">enquete_delivery_detail_id    </text>
<text text-anchor="start" x="264.7012" y="-853.9" font-family="Arial" font-size="14.00" fill="#666666">[bigint]</text>
<polygon fill="none" stroke="#000000" points="57,-812.5 57,-842.5 388,-842.5 388,-812.5 57,-812.5"/>
<text text-anchor="start" x="64" y="-823.9" font-family="Arial" font-size="14.00" fill="#000000">created_at    </text>
<text text-anchor="start" x="164.3422" y="-823.9" font-family="Arial" font-size="14.00" fill="#666666">[datetime(6)]</text>
<polygon fill="none" stroke="#000000" points="57,-782.5 57,-812.5 388,-812.5 388,-782.5 57,-782.5"/>
<text text-anchor="start" x="64" y="-793.9" font-family="Arial" font-size="14.00" fill="#000000">updated_at    </text>
<text text-anchor="start" x="168.2468" y="-793.9" font-family="Arial" font-size="14.00" fill="#666666">[datetime(6)]</text>
</g>
<!-- enquete_choice_results&#45;&gt;enquete_choice_deliveries -->
<g id="edge1" class="edge">
<title>enquete_choice_results:enquete_choice_delivery_id&#45;&gt;enquete_choice_deliveries:id</title>
<path fill="none" stroke="#000000" d="M397.983,-886.6381C451.1165,-876.8457 429.4627,-786.0563 388,-740 336.8696,-683.2049 97.1304,-760.7951 46,-704 17.3042,-672.1251 3.1111,-607.5 46,-607.5"/>
<polygon fill="#000000" stroke="#000000" points="397.9629,-886.6397 387.6129,-883.0167 392.9815,-887.0699 388,-887.5 388,-887.5 388,-887.5 392.9815,-887.0699 388.3871,-891.9833 397.9629,-886.6397 397.9629,-886.6397"/>
<text text-anchor="start" x="395.412" y="-897.5" font-family="Arial" font-size="10.00" fill="#000000">FOREIGN KEY (enquete_choice_delivery_id) REFERENCES enquete_choice_deliveries (id)</text>
</g>
</g>
</svg>
