<?xml version="1.0" encoding="UTF-8" standalone="no"?>
<!DOCTYPE svg PUBLIC "-//W3C//DTD SVG 1.1//EN"
 "http://www.w3.org/Graphics/SVG/1.1/DTD/svg11.dtd">
<!-- Generated by graphviz version 2.40.1 (20161225.0304)
 -->
<!-- Title: enquete_goal_action_results Pages: 1 -->
<svg width="1045pt" height="742pt"
 viewBox="0.00 0.00 1045.00 742.00" xmlns="http://www.w3.org/2000/svg" xmlns:xlink="http://www.w3.org/1999/xlink">
<g id="graph0" class="graph" transform="scale(1 1) rotate(0) translate(4 738)">
<title>enquete_goal_action_results</title>
<polygon fill="#ffffff" stroke="transparent" points="-4,4 -4,-738 1041,-738 1041,4 -4,4"/>
<!-- enquete_goal_action_results -->
<g id="node1" class="node">
<title>enquete_goal_action_results</title>
<polygon fill="#efefef" stroke="transparent" points="412,-652.5 412,-687.5 783,-687.5 783,-652.5 412,-652.5"/>
<polygon fill="none" stroke="#000000" points="412,-652.5 412,-687.5 783,-687.5 783,-652.5 412,-652.5"/>
<text text-anchor="start" x="418.6726" y="-665.3" font-family="Arial Bold" font-size="18.00" fill="#000000">enquete_goal_action_results</text>
<text text-anchor="start" x="648.7594" y="-665.3" font-family="Arial" font-size="14.00" fill="#000000">    </text>
<text text-anchor="start" x="682.9642" y="-665.3" font-family="Arial" font-size="14.00" fill="#666666">[BASE TABLE]</text>
<polygon fill="none" stroke="#000000" points="412,-622.5 412,-652.5 783,-652.5 783,-622.5 412,-622.5"/>
<text text-anchor="start" x="419" y="-633.9" font-family="Arial" font-size="14.00" fill="#000000">id </text>
<text text-anchor="start" x="433.7798" y="-633.9" font-family="Arial" font-size="14.00" fill="#666666">[bigint]</text>
<polygon fill="none" stroke="#000000" points="412,-592.5 412,-622.5 783,-622.5 783,-592.5 412,-592.5"/>
<text text-anchor="start" x="419" y="-603.9" font-family="Arial" font-size="14.00" fill="#000000">enquete_delivery_detail_id </text>
<text text-anchor="start" x="589.387" y="-603.9" font-family="Arial" font-size="14.00" fill="#666666">[bigint]</text>
<polygon fill="none" stroke="#000000" points="412,-562.5 412,-592.5 783,-592.5 783,-562.5 412,-562.5"/>
<text text-anchor="start" x="419" y="-573.9" font-family="Arial" font-size="14.00" fill="#000000">action_id </text>
<text text-anchor="start" x="478.9074" y="-573.9" font-family="Arial" font-size="14.00" fill="#666666">[bigint]</text>
<polygon fill="none" stroke="#000000" points="412,-532.5 412,-562.5 783,-562.5 783,-532.5 412,-532.5"/>
<text text-anchor="start" x="419" y="-543.9" font-family="Arial" font-size="14.00" fill="#000000">created_at </text>
<text text-anchor="start" x="489.028" y="-543.9" font-family="Arial" font-size="14.00" fill="#666666">[datetime(6)]</text>
<polygon fill="none" stroke="#000000" points="412,-502.5 412,-532.5 783,-532.5 783,-502.5 412,-502.5"/>
<text text-anchor="start" x="419" y="-513.9" font-family="Arial" font-size="14.00" fill="#000000">updated_at </text>
<text text-anchor="start" x="492.9326" y="-513.9" font-family="Arial" font-size="14.00" fill="#666666">[datetime(6)]</text>
<polygon fill="none" stroke="#000000" stroke-width="3" points="410,-501.5 410,-689.5 784,-689.5 784,-501.5 410,-501.5"/>
</g>
<!-- enquete_delivery_details -->
<g id="node2" class="node">
<title>enquete_delivery_details</title>
<polygon fill="#efefef" stroke="transparent" points="233,-297.5 233,-332.5 573,-332.5 573,-297.5 233,-297.5"/>
<polygon fill="none" stroke="#000000" points="233,-297.5 233,-332.5 573,-332.5 573,-297.5 233,-297.5"/>
<text text-anchor="start" x="239.6859" y="-310.3" font-family="Arial Bold" font-size="18.00" fill="#000000">enquete_delivery_details</text>
<text text-anchor="start" x="438.7461" y="-310.3" font-family="Arial" font-size="14.00" fill="#000000">    </text>
<text text-anchor="start" x="472.9509" y="-310.3" font-family="Arial" font-size="14.00" fill="#666666">[BASE TABLE]</text>
<polygon fill="none" stroke="#000000" points="233,-267.5 233,-297.5 573,-297.5 573,-267.5 233,-267.5"/>
<text text-anchor="start" x="240" y="-278.9" font-family="Arial" font-size="14.00" fill="#000000">id    </text>
<text text-anchor="start" x="285.094" y="-278.9" font-family="Arial" font-size="14.00" fill="#666666">[bigint]</text>
<polygon fill="none" stroke="#000000" points="233,-237.5 233,-267.5 573,-267.5 573,-237.5 233,-237.5"/>
<text text-anchor="start" x="240" y="-248.9" font-family="Arial" font-size="14.00" fill="#000000">enquete_delivery_id    </text>
<text text-anchor="start" x="399.467" y="-248.9" font-family="Arial" font-size="14.00" fill="#666666">[bigint]</text>
<polygon fill="none" stroke="#000000" points="233,-207.5 233,-237.5 573,-237.5 573,-207.5 233,-207.5"/>
<text text-anchor="start" x="240" y="-218.9" font-family="Arial" font-size="14.00" fill="#000000">enquete_id    </text>
<text text-anchor="start" x="343.4628" y="-218.9" font-family="Arial" font-size="14.00" fill="#666666">[bigint]</text>
<polygon fill="none" stroke="#000000" points="233,-177.5 233,-207.5 573,-207.5 573,-177.5 233,-177.5"/>
<text text-anchor="start" x="240" y="-188.9" font-family="Arial" font-size="14.00" fill="#000000">created_at    </text>
<text text-anchor="start" x="340.3422" y="-188.9" font-family="Arial" font-size="14.00" fill="#666666">[datetime(6)]</text>
<polygon fill="none" stroke="#000000" points="233,-147.5 233,-177.5 573,-177.5 573,-147.5 233,-147.5"/>
<text text-anchor="start" x="240" y="-158.9" font-family="Arial" font-size="14.00" fill="#000000">updated_at    </text>
<text text-anchor="start" x="344.2468" y="-158.9" font-family="Arial" font-size="14.00" fill="#666666">[datetime(6)]</text>
<polygon fill="none" stroke="#000000" points="233,-117.5 233,-147.5 573,-147.5 573,-117.5 233,-117.5"/>
<text text-anchor="start" x="240" y="-128.9" font-family="Arial" font-size="14.00" fill="#000000">question    </text>
<text text-anchor="start" x="327.115" y="-128.9" font-family="Arial" font-size="14.00" fill="#666666">[varchar(255)]</text>
<polygon fill="none" stroke="#000000" points="233,-87.5 233,-117.5 573,-117.5 573,-87.5 233,-87.5"/>
<text text-anchor="start" x="240" y="-98.9" font-family="Arial" font-size="14.00" fill="#000000">sort_order    </text>
<text text-anchor="start" x="337.9902" y="-98.9" font-family="Arial" font-size="14.00" fill="#666666">[int]</text>
</g>
<!-- enquete_goal_action_results&#45;&gt;enquete_delivery_details -->
<g id="edge1" class="edge">
<title>enquete_goal_action_results:enquete_delivery_detail_id&#45;&gt;enquete_delivery_details:id</title>
<path fill="none" stroke="#000000" d="M401.8958,-606.6819C348.5984,-597.3767 378.8243,-510.8286 412,-457 454.0271,-388.8097 530.9729,-444.1903 573,-376 594.8032,-340.6237 614.5556,-282.5 573,-282.5"/>
<polygon fill="#000000" stroke="#000000" points="402.0326,-606.6929 411.6368,-611.9853 407.0163,-607.0964 412,-607.5 412,-607.5 412,-607.5 407.0163,-607.0964 412.3632,-603.0147 402.0326,-606.6929 402.0326,-606.6929"/>
<text text-anchor="start" x="6.803" y="-617.5" font-family="Arial" font-size="10.00" fill="#000000">FOREIGN KEY (enquete_delivery_detail_id) REFERENCES enquete_delivery_details (id)</text>
</g>
<!-- actions -->
<g id="node3" class="node">
<title>actions</title>
<polygon fill="#efefef" stroke="transparent" points="678,-342.5 678,-377.5 907,-377.5 907,-342.5 678,-342.5"/>
<polygon fill="none" stroke="#000000" points="678,-342.5 678,-377.5 907,-377.5 907,-342.5 678,-342.5"/>
<text text-anchor="start" x="700.2085" y="-355.3" font-family="Arial Bold" font-size="18.00" fill="#000000">actions</text>
<text text-anchor="start" x="757.2235" y="-355.3" font-family="Arial" font-size="14.00" fill="#000000">    </text>
<text text-anchor="start" x="791.4283" y="-355.3" font-family="Arial" font-size="14.00" fill="#666666">[BASE TABLE]</text>
<polygon fill="none" stroke="#000000" points="678,-312.5 678,-342.5 907,-342.5 907,-312.5 678,-312.5"/>
<text text-anchor="start" x="685" y="-323.9" font-family="Arial" font-size="14.00" fill="#000000">id    </text>
<text text-anchor="start" x="730.094" y="-323.9" font-family="Arial" font-size="14.00" fill="#666666">[bigint]</text>
<polygon fill="none" stroke="#000000" points="678,-282.5 678,-312.5 907,-312.5 907,-282.5 678,-282.5"/>
<text text-anchor="start" x="685" y="-293.9" font-family="Arial" font-size="14.00" fill="#000000">action_phase_id    </text>
<text text-anchor="start" x="821.1346" y="-293.9" font-family="Arial" font-size="14.00" fill="#666666">[bigint]</text>
<polygon fill="none" stroke="#000000" points="678,-252.5 678,-282.5 907,-282.5 907,-252.5 678,-252.5"/>
<text text-anchor="start" x="685" y="-263.9" font-family="Arial" font-size="14.00" fill="#000000">title    </text>
<text text-anchor="start" x="740.9818" y="-263.9" font-family="Arial" font-size="14.00" fill="#666666">[varchar(255)]</text>
<polygon fill="none" stroke="#000000" points="678,-222.5 678,-252.5 907,-252.5 907,-222.5 678,-222.5"/>
<text text-anchor="start" x="685" y="-233.9" font-family="Arial" font-size="14.00" fill="#000000">sort_order    </text>
<text text-anchor="start" x="782.9902" y="-233.9" font-family="Arial" font-size="14.00" fill="#666666">[int]</text>
<polygon fill="none" stroke="#000000" points="678,-192.5 678,-222.5 907,-222.5 907,-192.5 678,-192.5"/>
<text text-anchor="start" x="685" y="-203.9" font-family="Arial" font-size="14.00" fill="#000000">valid_date_from    </text>
<text text-anchor="start" x="818.7812" y="-203.9" font-family="Arial" font-size="14.00" fill="#666666">[datetime(6)]</text>
<polygon fill="none" stroke="#000000" points="678,-162.5 678,-192.5 907,-192.5 907,-162.5 678,-162.5"/>
<text text-anchor="start" x="685" y="-173.9" font-family="Arial" font-size="14.00" fill="#000000">valid_date_to    </text>
<text text-anchor="start" x="802.46" y="-173.9" font-family="Arial" font-size="14.00" fill="#666666">[datetime(6)]</text>
<polygon fill="none" stroke="#000000" points="678,-132.5 678,-162.5 907,-162.5 907,-132.5 678,-132.5"/>
<text text-anchor="start" x="685" y="-143.9" font-family="Arial" font-size="14.00" fill="#000000">recommended_month    </text>
<text text-anchor="start" x="855.3464" y="-143.9" font-family="Arial" font-size="14.00" fill="#666666">[int]</text>
<polygon fill="none" stroke="#000000" points="678,-102.5 678,-132.5 907,-132.5 907,-102.5 678,-102.5"/>
<text text-anchor="start" x="685" y="-113.9" font-family="Arial" font-size="14.00" fill="#000000">created_at    </text>
<text text-anchor="start" x="785.3422" y="-113.9" font-family="Arial" font-size="14.00" fill="#666666">[datetime(6)]</text>
<polygon fill="none" stroke="#000000" points="678,-72.5 678,-102.5 907,-102.5 907,-72.5 678,-72.5"/>
<text text-anchor="start" x="685" y="-83.9" font-family="Arial" font-size="14.00" fill="#000000">updated_at    </text>
<text text-anchor="start" x="789.2468" y="-83.9" font-family="Arial" font-size="14.00" fill="#666666">[datetime(6)]</text>
<polygon fill="none" stroke="#000000" points="678,-42.5 678,-72.5 907,-72.5 907,-42.5 678,-42.5"/>
<text text-anchor="start" x="684.7735" y="-53.9" font-family="Arial" font-size="14.00" fill="#000000">line_break_title    </text>
<text text-anchor="start" x="813.1073" y="-53.9" font-family="Arial" font-size="14.00" fill="#666666">[varchar(255)]</text>
</g>
<!-- enquete_goal_action_results&#45;&gt;actions -->
<g id="edge2" class="edge">
<title>enquete_goal_action_results:action_id&#45;&gt;actions:id</title>
<path fill="none" stroke="#000000" d="M793.1933,-576.3975C833.3587,-566.8479 811.9398,-497.5157 783,-457 754.3256,-416.8558 706.6744,-461.1442 678,-421 653.8463,-387.1849 636.4444,-327.5 678,-327.5"/>
<polygon fill="#000000" stroke="#000000" points="792.942,-576.4246 782.5161,-573.0261 787.971,-576.9623 783,-577.5 783,-577.5 783,-577.5 787.971,-576.9623 783.4839,-581.9739 792.942,-576.4246 792.942,-576.4246"/>
<text text-anchor="start" x="789.717" y="-587.5" font-family="Arial" font-size="10.00" fill="#000000">FOREIGN KEY (action_id) REFERENCES actions (id)</text>
</g>
</g>
</svg>
