<?xml version="1.0" encoding="UTF-8" standalone="no"?>
<!DOCTYPE svg PUBLIC "-//W3C//DTD SVG 1.1//EN"
 "http://www.w3.org/Graphics/SVG/1.1/DTD/svg11.dtd">
<!-- Generated by graphviz version 2.40.1 (20161225.0304)
 -->
<!-- Title: enquete_deliveries Pages: 1 -->
<svg width="906pt" height="1109pt"
 viewBox="0.00 0.00 905.50 1109.00" xmlns="http://www.w3.org/2000/svg" xmlns:xlink="http://www.w3.org/1999/xlink">
<g id="graph0" class="graph" transform="scale(1 1) rotate(0) translate(4 1105)">
<title>enquete_deliveries</title>
<polygon fill="#ffffff" stroke="transparent" points="-4,4 -4,-1105 901.5,-1105 901.5,4 -4,4"/>
<!-- enquete_deliveries -->
<g id="node1" class="node">
<title>enquete_deliveries</title>
<polygon fill="#efefef" stroke="transparent" points="296,-652.5 296,-687.5 588,-687.5 588,-652.5 296,-652.5"/>
<polygon fill="none" stroke="#000000" points="296,-652.5 296,-687.5 588,-687.5 588,-652.5 296,-652.5"/>
<text text-anchor="start" x="302.6934" y="-665.3" font-family="Arial Bold" font-size="18.00" fill="#000000">enquete_deliveries</text>
<text text-anchor="start" x="453.7386" y="-665.3" font-family="Arial" font-size="14.00" fill="#000000">    </text>
<text text-anchor="start" x="487.9434" y="-665.3" font-family="Arial" font-size="14.00" fill="#666666">[BASE TABLE]</text>
<polygon fill="none" stroke="#000000" points="296,-622.5 296,-652.5 588,-652.5 588,-622.5 296,-622.5"/>
<text text-anchor="start" x="303" y="-633.9" font-family="Arial" font-size="14.00" fill="#000000">id </text>
<text text-anchor="start" x="317.7798" y="-633.9" font-family="Arial" font-size="14.00" fill="#666666">[bigint]</text>
<polygon fill="none" stroke="#000000" points="296,-592.5 296,-622.5 588,-622.5 588,-592.5 296,-592.5"/>
<text text-anchor="start" x="303" y="-603.9" font-family="Arial" font-size="14.00" fill="#000000">send_date </text>
<text text-anchor="start" x="372.2594" y="-603.9" font-family="Arial" font-size="14.00" fill="#666666">[date]</text>
<polygon fill="none" stroke="#000000" points="296,-562.5 296,-592.5 588,-592.5 588,-562.5 296,-562.5"/>
<text text-anchor="start" x="303" y="-573.9" font-family="Arial" font-size="14.00" fill="#000000">created_at </text>
<text text-anchor="start" x="373.028" y="-573.9" font-family="Arial" font-size="14.00" fill="#666666">[datetime(6)]</text>
<polygon fill="none" stroke="#000000" points="296,-532.5 296,-562.5 588,-562.5 588,-532.5 296,-532.5"/>
<text text-anchor="start" x="303" y="-543.9" font-family="Arial" font-size="14.00" fill="#000000">updated_at </text>
<text text-anchor="start" x="376.9326" y="-543.9" font-family="Arial" font-size="14.00" fill="#666666">[datetime(6)]</text>
<polygon fill="none" stroke="#000000" points="296,-502.5 296,-532.5 588,-532.5 588,-502.5 296,-502.5"/>
<text text-anchor="start" x="303" y="-513.9" font-family="Arial" font-size="14.00" fill="#000000">send_flg </text>
<text text-anchor="start" x="359.8008" y="-513.9" font-family="Arial" font-size="14.00" fill="#666666">[tinyint(1)]</text>
<polygon fill="none" stroke="#000000" points="296,-472.5 296,-502.5 588,-502.5 588,-472.5 296,-472.5"/>
<text text-anchor="start" x="303" y="-483.9" font-family="Arial" font-size="14.00" fill="#000000">close_flg </text>
<text text-anchor="start" x="362.1248" y="-483.9" font-family="Arial" font-size="14.00" fill="#666666">[tinyint(1)]</text>
<polygon fill="none" stroke="#000000" points="296,-442.5 296,-472.5 588,-472.5 588,-442.5 296,-442.5"/>
<text text-anchor="start" x="303" y="-453.9" font-family="Arial" font-size="14.00" fill="#000000">freshman_id </text>
<text text-anchor="start" x="383.9046" y="-453.9" font-family="Arial" font-size="14.00" fill="#666666">[bigint]</text>
<polygon fill="none" stroke="#000000" stroke-width="3" points="294.5,-441.5 294.5,-689.5 589.5,-689.5 589.5,-441.5 294.5,-441.5"/>
</g>
<!-- freshmen -->
<g id="node4" class="node">
<title>freshmen</title>
<polygon fill="#efefef" stroke="transparent" points="334,-282.5 334,-317.5 550,-317.5 550,-282.5 334,-282.5"/>
<polygon fill="none" stroke="#000000" points="334,-282.5 334,-317.5 550,-317.5 550,-282.5 334,-282.5"/>
<text text-anchor="start" x="340.7103" y="-295.3" font-family="Arial Bold" font-size="18.00" fill="#000000">freshmen</text>
<text text-anchor="start" x="415.7217" y="-295.3" font-family="Arial" font-size="14.00" fill="#000000">    </text>
<text text-anchor="start" x="449.9265" y="-295.3" font-family="Arial" font-size="14.00" fill="#666666">[BASE TABLE]</text>
<polygon fill="none" stroke="#000000" points="334,-252.5 334,-282.5 550,-282.5 550,-252.5 334,-252.5"/>
<text text-anchor="start" x="341" y="-263.9" font-family="Arial" font-size="14.00" fill="#000000">id    </text>
<text text-anchor="start" x="386.094" y="-263.9" font-family="Arial" font-size="14.00" fill="#666666">[bigint]</text>
<polygon fill="none" stroke="#000000" points="334,-222.5 334,-252.5 550,-252.5 550,-222.5 334,-222.5"/>
<text text-anchor="start" x="341" y="-233.9" font-family="Arial" font-size="14.00" fill="#000000">customer_id    </text>
<text text-anchor="start" x="451.4362" y="-233.9" font-family="Arial" font-size="14.00" fill="#666666">[bigint]</text>
<polygon fill="none" stroke="#000000" points="334,-192.5 334,-222.5 550,-222.5 550,-192.5 334,-192.5"/>
<text text-anchor="start" x="341" y="-203.9" font-family="Arial" font-size="14.00" fill="#000000">name_kanji    </text>
<text text-anchor="start" x="446.7742" y="-203.9" font-family="Arial" font-size="14.00" fill="#666666">[varchar(255)]</text>
<polygon fill="none" stroke="#000000" points="334,-162.5 334,-192.5 550,-192.5 550,-162.5 334,-162.5"/>
<text text-anchor="start" x="341" y="-173.9" font-family="Arial" font-size="14.00" fill="#000000">name_kana    </text>
<text text-anchor="start" x="448.3436" y="-173.9" font-family="Arial" font-size="14.00" fill="#666666">[varchar(255)]</text>
<polygon fill="none" stroke="#000000" points="334,-132.5 334,-162.5 550,-162.5 550,-132.5 334,-132.5"/>
<text text-anchor="start" x="341" y="-143.9" font-family="Arial" font-size="14.00" fill="#000000">entrance_year    </text>
<text text-anchor="start" x="464.6774" y="-143.9" font-family="Arial" font-size="14.00" fill="#666666">[int]</text>
<polygon fill="none" stroke="#000000" points="334,-102.5 334,-132.5 550,-132.5 550,-102.5 334,-102.5"/>
<text text-anchor="start" x="341" y="-113.9" font-family="Arial" font-size="14.00" fill="#000000">disabled_flg    </text>
<text text-anchor="start" x="449.8934" y="-113.9" font-family="Arial" font-size="14.00" fill="#666666">[tinyint(1)]</text>
<polygon fill="none" stroke="#000000" points="334,-72.5 334,-102.5 550,-102.5 550,-72.5 334,-72.5"/>
<text text-anchor="start" x="341" y="-83.9" font-family="Arial" font-size="14.00" fill="#000000">created_at    </text>
<text text-anchor="start" x="441.3422" y="-83.9" font-family="Arial" font-size="14.00" fill="#666666">[datetime(6)]</text>
<polygon fill="none" stroke="#000000" points="334,-42.5 334,-72.5 550,-72.5 550,-42.5 334,-42.5"/>
<text text-anchor="start" x="341" y="-53.9" font-family="Arial" font-size="14.00" fill="#000000">updated_at    </text>
<text text-anchor="start" x="445.2468" y="-53.9" font-family="Arial" font-size="14.00" fill="#666666">[datetime(6)]</text>
</g>
<!-- enquete_deliveries&#45;&gt;freshmen -->
<g id="edge3" class="edge">
<title>enquete_deliveries:freshman_id&#45;&gt;freshmen:id</title>
<path fill="none" stroke="#000000" d="M442.9183,-432.2663C451.936,-386.0867 524.8628,-411.4608 550,-361 568.5292,-323.8042 591.5556,-267.5 550,-267.5"/>
<polygon fill="#000000" stroke="#000000" points="442.8938,-432.54 437.518,-442.0978 442.4469,-437.52 442,-442.5 442,-442.5 442,-442.5 442.4469,-437.52 446.482,-442.9022 442.8938,-432.54 442.8938,-432.54"/>
<text text-anchor="start" x="170.219" y="-452.5" font-family="Arial" font-size="10.00" fill="#000000">FOREIGN KEY (freshman_id) REFERENCES freshmen (id)</text>
</g>
<!-- enquete_delivery_details -->
<g id="node2" class="node">
<title>enquete_delivery_details</title>
<polygon fill="#efefef" stroke="transparent" points="43,-1022.5 43,-1057.5 383,-1057.5 383,-1022.5 43,-1022.5"/>
<polygon fill="none" stroke="#000000" points="43,-1022.5 43,-1057.5 383,-1057.5 383,-1022.5 43,-1022.5"/>
<text text-anchor="start" x="49.6859" y="-1035.3" font-family="Arial Bold" font-size="18.00" fill="#000000">enquete_delivery_details</text>
<text text-anchor="start" x="248.7461" y="-1035.3" font-family="Arial" font-size="14.00" fill="#000000">    </text>
<text text-anchor="start" x="282.9509" y="-1035.3" font-family="Arial" font-size="14.00" fill="#666666">[BASE TABLE]</text>
<polygon fill="none" stroke="#000000" points="43,-992.5 43,-1022.5 383,-1022.5 383,-992.5 43,-992.5"/>
<text text-anchor="start" x="50" y="-1003.9" font-family="Arial" font-size="14.00" fill="#000000">id    </text>
<text text-anchor="start" x="95.094" y="-1003.9" font-family="Arial" font-size="14.00" fill="#666666">[bigint]</text>
<polygon fill="none" stroke="#000000" points="43,-962.5 43,-992.5 383,-992.5 383,-962.5 43,-962.5"/>
<text text-anchor="start" x="50" y="-973.9" font-family="Arial" font-size="14.00" fill="#000000">enquete_delivery_id    </text>
<text text-anchor="start" x="209.467" y="-973.9" font-family="Arial" font-size="14.00" fill="#666666">[bigint]</text>
<polygon fill="none" stroke="#000000" points="43,-932.5 43,-962.5 383,-962.5 383,-932.5 43,-932.5"/>
<text text-anchor="start" x="50" y="-943.9" font-family="Arial" font-size="14.00" fill="#000000">enquete_id    </text>
<text text-anchor="start" x="153.4628" y="-943.9" font-family="Arial" font-size="14.00" fill="#666666">[bigint]</text>
<polygon fill="none" stroke="#000000" points="43,-902.5 43,-932.5 383,-932.5 383,-902.5 43,-902.5"/>
<text text-anchor="start" x="50" y="-913.9" font-family="Arial" font-size="14.00" fill="#000000">created_at    </text>
<text text-anchor="start" x="150.3422" y="-913.9" font-family="Arial" font-size="14.00" fill="#666666">[datetime(6)]</text>
<polygon fill="none" stroke="#000000" points="43,-872.5 43,-902.5 383,-902.5 383,-872.5 43,-872.5"/>
<text text-anchor="start" x="50" y="-883.9" font-family="Arial" font-size="14.00" fill="#000000">updated_at    </text>
<text text-anchor="start" x="154.2468" y="-883.9" font-family="Arial" font-size="14.00" fill="#666666">[datetime(6)]</text>
<polygon fill="none" stroke="#000000" points="43,-842.5 43,-872.5 383,-872.5 383,-842.5 43,-842.5"/>
<text text-anchor="start" x="50" y="-853.9" font-family="Arial" font-size="14.00" fill="#000000">question    </text>
<text text-anchor="start" x="137.115" y="-853.9" font-family="Arial" font-size="14.00" fill="#666666">[varchar(255)]</text>
<polygon fill="none" stroke="#000000" points="43,-812.5 43,-842.5 383,-842.5 383,-812.5 43,-812.5"/>
<text text-anchor="start" x="50" y="-823.9" font-family="Arial" font-size="14.00" fill="#000000">sort_order    </text>
<text text-anchor="start" x="147.9902" y="-823.9" font-family="Arial" font-size="14.00" fill="#666666">[int]</text>
</g>
<!-- enquete_delivery_details&#45;&gt;enquete_deliveries -->
<g id="edge1" class="edge">
<title>enquete_delivery_details:enquete_delivery_id&#45;&gt;enquete_deliveries:id</title>
<path fill="none" stroke="#000000" d="M392.6172,-974.5456C425.8788,-951.8665 406.6229,-805.3404 383,-770 359.7452,-735.2103 319.2548,-768.7897 296,-734 272.1658,-698.3435 253.1111,-637.5 296,-637.5"/>
<polygon fill="#000000" stroke="#000000" points="392.5591,-974.5633 381.6785,-973.1984 387.7796,-976.0317 383,-977.5 383,-977.5 383,-977.5 387.7796,-976.0317 384.3215,-981.8016 392.5591,-974.5633 392.5591,-974.5633"/>
<text text-anchor="start" x="389.867" y="-987.5" font-family="Arial" font-size="10.00" fill="#000000">FOREIGN KEY (enquete_delivery_id) REFERENCES enquete_deliveries (id)</text>
</g>
<!-- enquete_total_score_results -->
<g id="node3" class="node">
<title>enquete_total_score_results</title>
<polygon fill="#efefef" stroke="transparent" points="488,-1007.5 488,-1042.5 855,-1042.5 855,-1007.5 488,-1007.5"/>
<polygon fill="none" stroke="#000000" points="488,-1007.5 488,-1042.5 855,-1042.5 855,-1007.5 488,-1007.5"/>
<text text-anchor="start" x="494.6787" y="-1020.3" font-family="Arial Bold" font-size="18.00" fill="#000000">enquete_total_score_results</text>
<text text-anchor="start" x="720.7533" y="-1020.3" font-family="Arial" font-size="14.00" fill="#000000">    </text>
<text text-anchor="start" x="754.9581" y="-1020.3" font-family="Arial" font-size="14.00" fill="#666666">[BASE TABLE]</text>
<polygon fill="none" stroke="#000000" points="488,-977.5 488,-1007.5 855,-1007.5 855,-977.5 488,-977.5"/>
<text text-anchor="start" x="495" y="-988.9" font-family="Arial" font-size="14.00" fill="#000000">id    </text>
<text text-anchor="start" x="540.094" y="-988.9" font-family="Arial" font-size="14.00" fill="#666666">[bigint]</text>
<polygon fill="none" stroke="#000000" points="488,-947.5 488,-977.5 855,-977.5 855,-947.5 488,-947.5"/>
<text text-anchor="start" x="495" y="-958.9" font-family="Arial" font-size="14.00" fill="#000000">enquete_delivery_id    </text>
<text text-anchor="start" x="654.467" y="-958.9" font-family="Arial" font-size="14.00" fill="#666666">[bigint]</text>
<polygon fill="none" stroke="#000000" points="488,-917.5 488,-947.5 855,-947.5 855,-917.5 488,-917.5"/>
<text text-anchor="start" x="495" y="-928.9" font-family="Arial" font-size="14.00" fill="#000000">score    </text>
<text text-anchor="start" x="563.4306" y="-928.9" font-family="Arial" font-size="14.00" fill="#666666">[float]</text>
<polygon fill="none" stroke="#000000" points="488,-887.5 488,-917.5 855,-917.5 855,-887.5 488,-887.5"/>
<text text-anchor="start" x="495" y="-898.9" font-family="Arial" font-size="14.00" fill="#000000">alert_flg    </text>
<text text-anchor="start" x="578.9902" y="-898.9" font-family="Arial" font-size="14.00" fill="#666666">[tinyint(1)]</text>
<polygon fill="none" stroke="#000000" points="488,-857.5 488,-887.5 855,-887.5 855,-857.5 488,-857.5"/>
<text text-anchor="start" x="495" y="-868.9" font-family="Arial" font-size="14.00" fill="#000000">created_at    </text>
<text text-anchor="start" x="595.3422" y="-868.9" font-family="Arial" font-size="14.00" fill="#666666">[datetime(6)]</text>
<polygon fill="none" stroke="#000000" points="488,-827.5 488,-857.5 855,-857.5 855,-827.5 488,-827.5"/>
<text text-anchor="start" x="495" y="-838.9" font-family="Arial" font-size="14.00" fill="#000000">updated_at    </text>
<text text-anchor="start" x="599.2468" y="-838.9" font-family="Arial" font-size="14.00" fill="#666666">[datetime(6)]</text>
</g>
<!-- enquete_total_score_results&#45;&gt;enquete_deliveries -->
<g id="edge2" class="edge">
<title>enquete_total_score_results:enquete_delivery_id&#45;&gt;enquete_deliveries:id</title>
<path fill="none" stroke="#000000" d="M477.663,-961.7892C412.6516,-952.2605 448.7249,-849.1182 488,-785 514.0598,-742.4562 561.9402,-776.5438 588,-734 610.4025,-697.427 630.8889,-637.5 588,-637.5"/>
<polygon fill="#000000" stroke="#000000" points="478.0236,-961.8139 487.6912,-966.9894 483.0118,-962.1569 488,-962.5 488,-962.5 488,-962.5 483.0118,-962.1569 488.3088,-958.0106 478.0236,-961.8139 478.0236,-961.8139"/>
<text text-anchor="start" x="494.867" y="-946.5" font-family="Arial" font-size="10.00" fill="#000000">FOREIGN KEY (enquete_delivery_id) REFERENCES enquete_deliveries (id)</text>
</g>
</g>
</svg>
