<?xml version="1.0" encoding="UTF-8" standalone="no"?>
<!DOCTYPE svg PUBLIC "-//W3C//DTD SVG 1.1//EN"
 "http://www.w3.org/Graphics/SVG/1.1/DTD/svg11.dtd">
<!-- Generated by graphviz version 2.40.1 (20161225.0304)
 -->
<!-- Title: enquete_delivery_details Pages: 1 -->
<svg width="2336pt" height="1079pt"
 viewBox="0.00 0.00 2335.50 1079.00" xmlns="http://www.w3.org/2000/svg" xmlns:xlink="http://www.w3.org/1999/xlink">
<g id="graph0" class="graph" transform="scale(1 1) rotate(0) translate(4 1075)">
<title>enquete_delivery_details</title>
<polygon fill="#ffffff" stroke="transparent" points="-4,4 -4,-1075 2331.5,-1075 2331.5,4 -4,4"/>
<!-- enquete_delivery_details -->
<g id="node1" class="node">
<title>enquete_delivery_details</title>
<polygon fill="#efefef" stroke="transparent" points="1001.5,-622.5 1001.5,-657.5 1341.5,-657.5 1341.5,-622.5 1001.5,-622.5"/>
<polygon fill="none" stroke="#000000" points="1001.5,-622.5 1001.5,-657.5 1341.5,-657.5 1341.5,-622.5 1001.5,-622.5"/>
<text text-anchor="start" x="1008.1859" y="-635.3" font-family="Arial Bold" font-size="18.00" fill="#000000">enquete_delivery_details</text>
<text text-anchor="start" x="1207.2461" y="-635.3" font-family="Arial" font-size="14.00" fill="#000000">    </text>
<text text-anchor="start" x="1241.4509" y="-635.3" font-family="Arial" font-size="14.00" fill="#666666">[BASE TABLE]</text>
<polygon fill="none" stroke="#000000" points="1001.5,-592.5 1001.5,-622.5 1341.5,-622.5 1341.5,-592.5 1001.5,-592.5"/>
<text text-anchor="start" x="1008.5" y="-603.9" font-family="Arial" font-size="14.00" fill="#000000">id </text>
<text text-anchor="start" x="1023.2798" y="-603.9" font-family="Arial" font-size="14.00" fill="#666666">[bigint]</text>
<polygon fill="none" stroke="#000000" points="1001.5,-562.5 1001.5,-592.5 1341.5,-592.5 1341.5,-562.5 1001.5,-562.5"/>
<text text-anchor="start" x="1008.5" y="-573.9" font-family="Arial" font-size="14.00" fill="#000000">enquete_delivery_id </text>
<text text-anchor="start" x="1137.6528" y="-573.9" font-family="Arial" font-size="14.00" fill="#666666">[bigint]</text>
<polygon fill="none" stroke="#000000" points="1001.5,-532.5 1001.5,-562.5 1341.5,-562.5 1341.5,-532.5 1001.5,-532.5"/>
<text text-anchor="start" x="1008.5" y="-543.9" font-family="Arial" font-size="14.00" fill="#000000">enquete_id </text>
<text text-anchor="start" x="1081.6486" y="-543.9" font-family="Arial" font-size="14.00" fill="#666666">[bigint]</text>
<polygon fill="none" stroke="#000000" points="1001.5,-502.5 1001.5,-532.5 1341.5,-532.5 1341.5,-502.5 1001.5,-502.5"/>
<text text-anchor="start" x="1008.5" y="-513.9" font-family="Arial" font-size="14.00" fill="#000000">created_at </text>
<text text-anchor="start" x="1078.528" y="-513.9" font-family="Arial" font-size="14.00" fill="#666666">[datetime(6)]</text>
<polygon fill="none" stroke="#000000" points="1001.5,-472.5 1001.5,-502.5 1341.5,-502.5 1341.5,-472.5 1001.5,-472.5"/>
<text text-anchor="start" x="1008.5" y="-483.9" font-family="Arial" font-size="14.00" fill="#000000">updated_at </text>
<text text-anchor="start" x="1082.4326" y="-483.9" font-family="Arial" font-size="14.00" fill="#666666">[datetime(6)]</text>
<polygon fill="none" stroke="#000000" points="1001.5,-442.5 1001.5,-472.5 1341.5,-472.5 1341.5,-442.5 1001.5,-442.5"/>
<text text-anchor="start" x="1008.5" y="-453.9" font-family="Arial" font-size="14.00" fill="#000000">question </text>
<text text-anchor="start" x="1065.3008" y="-453.9" font-family="Arial" font-size="14.00" fill="#666666">[varchar(255)]</text>
<polygon fill="none" stroke="#000000" points="1001.5,-412.5 1001.5,-442.5 1341.5,-442.5 1341.5,-412.5 1001.5,-412.5"/>
<text text-anchor="start" x="1008.5" y="-423.9" font-family="Arial" font-size="14.00" fill="#000000">sort_order </text>
<text text-anchor="start" x="1076.176" y="-423.9" font-family="Arial" font-size="14.00" fill="#666666">[int]</text>
<polygon fill="none" stroke="#000000" stroke-width="3" points="1000,-411.5 1000,-659.5 1343,-659.5 1343,-411.5 1000,-411.5"/>
</g>
<!-- enquete_deliveries -->
<g id="node7" class="node">
<title>enquete_deliveries</title>
<polygon fill="#efefef" stroke="transparent" points="846.5,-252.5 846.5,-287.5 1138.5,-287.5 1138.5,-252.5 846.5,-252.5"/>
<polygon fill="none" stroke="#000000" points="846.5,-252.5 846.5,-287.5 1138.5,-287.5 1138.5,-252.5 846.5,-252.5"/>
<text text-anchor="start" x="853.1934" y="-265.3" font-family="Arial Bold" font-size="18.00" fill="#000000">enquete_deliveries</text>
<text text-anchor="start" x="1004.2386" y="-265.3" font-family="Arial" font-size="14.00" fill="#000000">    </text>
<text text-anchor="start" x="1038.4434" y="-265.3" font-family="Arial" font-size="14.00" fill="#666666">[BASE TABLE]</text>
<polygon fill="none" stroke="#000000" points="846.5,-222.5 846.5,-252.5 1138.5,-252.5 1138.5,-222.5 846.5,-222.5"/>
<text text-anchor="start" x="853.5" y="-233.9" font-family="Arial" font-size="14.00" fill="#000000">id    </text>
<text text-anchor="start" x="898.594" y="-233.9" font-family="Arial" font-size="14.00" fill="#666666">[bigint]</text>
<polygon fill="none" stroke="#000000" points="846.5,-192.5 846.5,-222.5 1138.5,-222.5 1138.5,-192.5 846.5,-192.5"/>
<text text-anchor="start" x="853.5" y="-203.9" font-family="Arial" font-size="14.00" fill="#000000">send_date    </text>
<text text-anchor="start" x="953.0736" y="-203.9" font-family="Arial" font-size="14.00" fill="#666666">[date]</text>
<polygon fill="none" stroke="#000000" points="846.5,-162.5 846.5,-192.5 1138.5,-192.5 1138.5,-162.5 846.5,-162.5"/>
<text text-anchor="start" x="853.5" y="-173.9" font-family="Arial" font-size="14.00" fill="#000000">created_at    </text>
<text text-anchor="start" x="953.8422" y="-173.9" font-family="Arial" font-size="14.00" fill="#666666">[datetime(6)]</text>
<polygon fill="none" stroke="#000000" points="846.5,-132.5 846.5,-162.5 1138.5,-162.5 1138.5,-132.5 846.5,-132.5"/>
<text text-anchor="start" x="853.5" y="-143.9" font-family="Arial" font-size="14.00" fill="#000000">updated_at    </text>
<text text-anchor="start" x="957.7468" y="-143.9" font-family="Arial" font-size="14.00" fill="#666666">[datetime(6)]</text>
<polygon fill="none" stroke="#000000" points="846.5,-102.5 846.5,-132.5 1138.5,-132.5 1138.5,-102.5 846.5,-102.5"/>
<text text-anchor="start" x="853.5" y="-113.9" font-family="Arial" font-size="14.00" fill="#000000">send_flg    </text>
<text text-anchor="start" x="940.615" y="-113.9" font-family="Arial" font-size="14.00" fill="#666666">[tinyint(1)]</text>
<polygon fill="none" stroke="#000000" points="846.5,-72.5 846.5,-102.5 1138.5,-102.5 1138.5,-72.5 846.5,-72.5"/>
<text text-anchor="start" x="853.5" y="-83.9" font-family="Arial" font-size="14.00" fill="#000000">close_flg    </text>
<text text-anchor="start" x="942.939" y="-83.9" font-family="Arial" font-size="14.00" fill="#666666">[tinyint(1)]</text>
<polygon fill="none" stroke="#000000" points="846.5,-42.5 846.5,-72.5 1138.5,-72.5 1138.5,-42.5 846.5,-42.5"/>
<text text-anchor="start" x="853.5" y="-53.9" font-family="Arial" font-size="14.00" fill="#000000">freshman_id    </text>
<text text-anchor="start" x="964.7188" y="-53.9" font-family="Arial" font-size="14.00" fill="#666666">[bigint]</text>
</g>
<!-- enquete_delivery_details&#45;&gt;enquete_deliveries -->
<g id="edge6" class="edge">
<title>enquete_delivery_details:enquete_delivery_id&#45;&gt;enquete_deliveries:id</title>
<path fill="none" stroke="#000000" d="M991.1249,-576.8874C910.8216,-566.9377 946.5994,-438.1908 1001.5,-367 1039.9458,-317.1465 1100.0542,-380.8535 1138.5,-331 1163.877,-298.093 1180.0556,-237.5 1138.5,-237.5"/>
<polygon fill="#000000" stroke="#000000" points="991.5174,-576.9105 1001.2347,-581.9922 996.5087,-577.2052 1001.5,-577.5 1001.5,-577.5 1001.5,-577.5 996.5087,-577.2052 1001.7653,-573.0078 991.5174,-576.9105 991.5174,-576.9105"/>
<text text-anchor="start" x="652.367" y="-587.5" font-family="Arial" font-size="10.00" fill="#000000">FOREIGN KEY (enquete_delivery_id) REFERENCES enquete_deliveries (id)</text>
</g>
<!-- enquetes -->
<g id="node8" class="node">
<title>enquetes</title>
<polygon fill="#efefef" stroke="transparent" points="1243.5,-237.5 1243.5,-272.5 1458.5,-272.5 1458.5,-237.5 1243.5,-237.5"/>
<polygon fill="none" stroke="#000000" points="1243.5,-237.5 1243.5,-272.5 1458.5,-272.5 1458.5,-237.5 1243.5,-237.5"/>
<text text-anchor="start" x="1250.1963" y="-250.3" font-family="Arial Bold" font-size="18.00" fill="#000000">enquetes</text>
<text text-anchor="start" x="1324.2357" y="-250.3" font-family="Arial" font-size="14.00" fill="#000000">    </text>
<text text-anchor="start" x="1358.4405" y="-250.3" font-family="Arial" font-size="14.00" fill="#666666">[BASE TABLE]</text>
<polygon fill="none" stroke="#000000" points="1243.5,-207.5 1243.5,-237.5 1458.5,-237.5 1458.5,-207.5 1243.5,-207.5"/>
<text text-anchor="start" x="1250.5" y="-218.9" font-family="Arial" font-size="14.00" fill="#000000">id    </text>
<text text-anchor="start" x="1295.594" y="-218.9" font-family="Arial" font-size="14.00" fill="#666666">[bigint]</text>
<polygon fill="none" stroke="#000000" points="1243.5,-177.5 1243.5,-207.5 1458.5,-207.5 1458.5,-177.5 1243.5,-177.5"/>
<text text-anchor="start" x="1250.5" y="-188.9" font-family="Arial" font-size="14.00" fill="#000000">question    </text>
<text text-anchor="start" x="1337.615" y="-188.9" font-family="Arial" font-size="14.00" fill="#666666">[varchar(255)]</text>
<polygon fill="none" stroke="#000000" points="1243.5,-147.5 1243.5,-177.5 1458.5,-177.5 1458.5,-147.5 1243.5,-147.5"/>
<text text-anchor="start" x="1250.5" y="-158.9" font-family="Arial" font-size="14.00" fill="#000000">sort_order    </text>
<text text-anchor="start" x="1348.4902" y="-158.9" font-family="Arial" font-size="14.00" fill="#666666">[varchar(255)]</text>
<polygon fill="none" stroke="#000000" points="1243.5,-117.5 1243.5,-147.5 1458.5,-147.5 1458.5,-117.5 1243.5,-117.5"/>
<text text-anchor="start" x="1250.5" y="-128.9" font-family="Arial" font-size="14.00" fill="#000000">rms_use_flg    </text>
<text text-anchor="start" x="1360.9362" y="-128.9" font-family="Arial" font-size="14.00" fill="#666666">[tinyint(1)]</text>
<polygon fill="none" stroke="#000000" points="1243.5,-87.5 1243.5,-117.5 1458.5,-117.5 1458.5,-87.5 1243.5,-87.5"/>
<text text-anchor="start" x="1250.5" y="-98.9" font-family="Arial" font-size="14.00" fill="#000000">created_at    </text>
<text text-anchor="start" x="1350.8422" y="-98.9" font-family="Arial" font-size="14.00" fill="#666666">[datetime(6)]</text>
<polygon fill="none" stroke="#000000" points="1243.5,-57.5 1243.5,-87.5 1458.5,-87.5 1458.5,-57.5 1243.5,-57.5"/>
<text text-anchor="start" x="1250.5" y="-68.9" font-family="Arial" font-size="14.00" fill="#000000">updated_at    </text>
<text text-anchor="start" x="1354.7468" y="-68.9" font-family="Arial" font-size="14.00" fill="#666666">[datetime(6)]</text>
</g>
<!-- enquete_delivery_details&#45;&gt;enquetes -->
<g id="edge7" class="edge">
<title>enquete_delivery_details:enquete_id&#45;&gt;enquetes:id</title>
<path fill="none" stroke="#000000" d="M1351.6023,-546.8365C1418.2481,-537.5322 1381.2517,-432.4996 1341.5,-367 1316.0253,-325.0249 1268.9747,-357.9751 1243.5,-316 1221.9399,-280.475 1201.9444,-222.5 1243.5,-222.5"/>
<polygon fill="#000000" stroke="#000000" points="1351.4785,-546.8446 1341.2051,-543.0097 1346.4893,-547.1723 1341.5,-547.5 1341.5,-547.5 1341.5,-547.5 1346.4893,-547.1723 1341.7949,-551.9903 1351.4785,-546.8446 1351.4785,-546.8446"/>
<text text-anchor="start" x="1348.759" y="-557.5" font-family="Arial" font-size="10.00" fill="#000000">FOREIGN KEY (enquete_id) REFERENCES enquetes (id)</text>
</g>
<!-- enquete_achieve_action_results -->
<g id="node2" class="node">
<title>enquete_achieve_action_results</title>
<polygon fill="#efefef" stroke="transparent" points="43.5,-962.5 43.5,-997.5 442.5,-997.5 442.5,-962.5 43.5,-962.5"/>
<polygon fill="none" stroke="#000000" points="43.5,-962.5 43.5,-997.5 442.5,-997.5 442.5,-962.5 43.5,-962.5"/>
<text text-anchor="start" x="50.1695" y="-975.3" font-family="Arial Bold" font-size="18.00" fill="#000000">enquete_achieve_action_results</text>
<text text-anchor="start" x="308.2625" y="-975.3" font-family="Arial" font-size="14.00" fill="#000000">    </text>
<text text-anchor="start" x="342.4673" y="-975.3" font-family="Arial" font-size="14.00" fill="#666666">[BASE TABLE]</text>
<polygon fill="none" stroke="#000000" points="43.5,-932.5 43.5,-962.5 442.5,-962.5 442.5,-932.5 43.5,-932.5"/>
<text text-anchor="start" x="50.5" y="-943.9" font-family="Arial" font-size="14.00" fill="#000000">id    </text>
<text text-anchor="start" x="95.594" y="-943.9" font-family="Arial" font-size="14.00" fill="#666666">[bigint]</text>
<polygon fill="none" stroke="#000000" points="43.5,-902.5 43.5,-932.5 442.5,-932.5 442.5,-902.5 43.5,-902.5"/>
<text text-anchor="start" x="50.5" y="-913.9" font-family="Arial" font-size="14.00" fill="#000000">enquete_delivery_detail_id    </text>
<text text-anchor="start" x="251.2012" y="-913.9" font-family="Arial" font-size="14.00" fill="#666666">[bigint]</text>
<polygon fill="none" stroke="#000000" points="43.5,-872.5 43.5,-902.5 442.5,-902.5 442.5,-872.5 43.5,-872.5"/>
<text text-anchor="start" x="50.5" y="-883.9" font-family="Arial" font-size="14.00" fill="#000000">action_id    </text>
<text text-anchor="start" x="140.7216" y="-883.9" font-family="Arial" font-size="14.00" fill="#666666">[bigint]</text>
<polygon fill="none" stroke="#000000" points="43.5,-842.5 43.5,-872.5 442.5,-872.5 442.5,-842.5 43.5,-842.5"/>
<text text-anchor="start" x="50.5" y="-853.9" font-family="Arial" font-size="14.00" fill="#000000">created_at    </text>
<text text-anchor="start" x="150.8422" y="-853.9" font-family="Arial" font-size="14.00" fill="#666666">[datetime(6)]</text>
<polygon fill="none" stroke="#000000" points="43.5,-812.5 43.5,-842.5 442.5,-842.5 442.5,-812.5 43.5,-812.5"/>
<text text-anchor="start" x="50.5" y="-823.9" font-family="Arial" font-size="14.00" fill="#000000">updated_at    </text>
<text text-anchor="start" x="154.7468" y="-823.9" font-family="Arial" font-size="14.00" fill="#666666">[datetime(6)]</text>
</g>
<!-- enquete_achieve_action_results&#45;&gt;enquete_delivery_details -->
<g id="edge1" class="edge">
<title>enquete_achieve_action_results:enquete_delivery_detail_id&#45;&gt;enquete_delivery_details:id</title>
<path fill="none" stroke="#000000" d="M452.5698,-916.7887C516.9913,-906.825 438.1749,-794.6953 494.5,-740 578.0429,-658.8746 885.0494,-607.5 1001.5,-607.5"/>
<polygon fill="#000000" stroke="#000000" points="452.4751,-916.7953 442.1829,-913.0112 447.4876,-917.1477 442.5,-917.5 442.5,-917.5 442.5,-917.5 447.4876,-917.1477 442.8171,-921.9888 452.4751,-916.7953 452.4751,-916.7953"/>
<text text-anchor="start" x="449.303" y="-927.5" font-family="Arial" font-size="10.00" fill="#000000">FOREIGN KEY (enquete_delivery_detail_id) REFERENCES enquete_delivery_details (id)</text>
</g>
<!-- enquete_choice_deliveries -->
<g id="node3" class="node">
<title>enquete_choice_deliveries</title>
<polygon fill="#efefef" stroke="transparent" points="546.5,-992.5 546.5,-1027.5 900.5,-1027.5 900.5,-992.5 546.5,-992.5"/>
<polygon fill="none" stroke="#000000" points="546.5,-992.5 546.5,-1027.5 900.5,-1027.5 900.5,-992.5 546.5,-992.5"/>
<text text-anchor="start" x="553.1839" y="-1005.3" font-family="Arial Bold" font-size="18.00" fill="#000000">enquete_choice_deliveries</text>
<text text-anchor="start" x="766.2481" y="-1005.3" font-family="Arial" font-size="14.00" fill="#000000">    </text>
<text text-anchor="start" x="800.4529" y="-1005.3" font-family="Arial" font-size="14.00" fill="#666666">[BASE TABLE]</text>
<polygon fill="none" stroke="#000000" points="546.5,-962.5 546.5,-992.5 900.5,-992.5 900.5,-962.5 546.5,-962.5"/>
<text text-anchor="start" x="553.5" y="-973.9" font-family="Arial" font-size="14.00" fill="#000000">id    </text>
<text text-anchor="start" x="598.594" y="-973.9" font-family="Arial" font-size="14.00" fill="#666666">[bigint]</text>
<polygon fill="none" stroke="#000000" points="546.5,-932.5 546.5,-962.5 900.5,-962.5 900.5,-932.5 546.5,-932.5"/>
<text text-anchor="start" x="553.5" y="-943.9" font-family="Arial" font-size="14.00" fill="#000000">label    </text>
<text text-anchor="start" x="617.2658" y="-943.9" font-family="Arial" font-size="14.00" fill="#666666">[varchar(255)]</text>
<polygon fill="none" stroke="#000000" points="546.5,-902.5 546.5,-932.5 900.5,-932.5 900.5,-902.5 546.5,-902.5"/>
<text text-anchor="start" x="553.5" y="-913.9" font-family="Arial" font-size="14.00" fill="#000000">sort_order    </text>
<text text-anchor="start" x="651.4902" y="-913.9" font-family="Arial" font-size="14.00" fill="#666666">[int]</text>
<polygon fill="none" stroke="#000000" points="546.5,-872.5 546.5,-902.5 900.5,-902.5 900.5,-872.5 546.5,-872.5"/>
<text text-anchor="start" x="553.5" y="-883.9" font-family="Arial" font-size="14.00" fill="#000000">score    </text>
<text text-anchor="start" x="621.9306" y="-883.9" font-family="Arial" font-size="14.00" fill="#666666">[int]</text>
<polygon fill="none" stroke="#000000" points="546.5,-842.5 546.5,-872.5 900.5,-872.5 900.5,-842.5 546.5,-842.5"/>
<text text-anchor="start" x="553.5" y="-853.9" font-family="Arial" font-size="14.00" fill="#000000">enquete_delivery_detail_id    </text>
<text text-anchor="start" x="754.2012" y="-853.9" font-family="Arial" font-size="14.00" fill="#666666">[bigint]</text>
<polygon fill="none" stroke="#000000" points="546.5,-812.5 546.5,-842.5 900.5,-842.5 900.5,-812.5 546.5,-812.5"/>
<text text-anchor="start" x="553.5" y="-823.9" font-family="Arial" font-size="14.00" fill="#000000">created_at    </text>
<text text-anchor="start" x="653.8422" y="-823.9" font-family="Arial" font-size="14.00" fill="#666666">[datetime(6)]</text>
<polygon fill="none" stroke="#000000" points="546.5,-782.5 546.5,-812.5 900.5,-812.5 900.5,-782.5 546.5,-782.5"/>
<text text-anchor="start" x="553.5" y="-793.9" font-family="Arial" font-size="14.00" fill="#000000">updated_at    </text>
<text text-anchor="start" x="657.7468" y="-793.9" font-family="Arial" font-size="14.00" fill="#666666">[datetime(6)]</text>
</g>
<!-- enquete_choice_deliveries&#45;&gt;enquete_delivery_details -->
<g id="edge2" class="edge">
<title>enquete_choice_deliveries:enquete_delivery_detail_id&#45;&gt;enquete_delivery_details:id</title>
<path fill="none" stroke="#000000" d="M910.253,-855.0257C958.4811,-829.0614 945.0928,-607.5 1001.5,-607.5"/>
<polygon fill="#000000" stroke="#000000" points="910.1929,-855.0408 899.3934,-853.1382 905.3465,-856.2704 900.5,-857.5 900.5,-857.5 900.5,-857.5 905.3465,-856.2704 901.6066,-861.8618 910.1929,-855.0408 910.1929,-855.0408"/>
<text text-anchor="start" x="907.303" y="-867.5" font-family="Arial" font-size="10.00" fill="#000000">FOREIGN KEY (enquete_delivery_detail_id) REFERENCES enquete_delivery_details (id)</text>
</g>
<!-- enquete_choice_results -->
<g id="node4" class="node">
<title>enquete_choice_results</title>
<polygon fill="#efefef" stroke="transparent" points="1005.5,-962.5 1005.5,-997.5 1336.5,-997.5 1336.5,-962.5 1005.5,-962.5"/>
<polygon fill="none" stroke="#000000" points="1005.5,-962.5 1005.5,-997.5 1336.5,-997.5 1336.5,-962.5 1005.5,-962.5"/>
<text text-anchor="start" x="1012.1832" y="-975.3" font-family="Arial Bold" font-size="18.00" fill="#000000">enquete_choice_results</text>
<text text-anchor="start" x="1202.2488" y="-975.3" font-family="Arial" font-size="14.00" fill="#000000">    </text>
<text text-anchor="start" x="1236.4536" y="-975.3" font-family="Arial" font-size="14.00" fill="#666666">[BASE TABLE]</text>
<polygon fill="none" stroke="#000000" points="1005.5,-932.5 1005.5,-962.5 1336.5,-962.5 1336.5,-932.5 1005.5,-932.5"/>
<text text-anchor="start" x="1012.5" y="-943.9" font-family="Arial" font-size="14.00" fill="#000000">id    </text>
<text text-anchor="start" x="1057.594" y="-943.9" font-family="Arial" font-size="14.00" fill="#666666">[bigint]</text>
<polygon fill="none" stroke="#000000" points="1005.5,-902.5 1005.5,-932.5 1336.5,-932.5 1336.5,-902.5 1005.5,-902.5"/>
<text text-anchor="start" x="1012.5" y="-913.9" font-family="Arial" font-size="14.00" fill="#000000">enquete_choice_delivery_id    </text>
<text text-anchor="start" x="1220.204" y="-913.9" font-family="Arial" font-size="14.00" fill="#666666">[bigint]</text>
<polygon fill="none" stroke="#000000" points="1005.5,-872.5 1005.5,-902.5 1336.5,-902.5 1336.5,-872.5 1005.5,-872.5"/>
<text text-anchor="start" x="1012.5" y="-883.9" font-family="Arial" font-size="14.00" fill="#000000">enquete_delivery_detail_id    </text>
<text text-anchor="start" x="1213.2012" y="-883.9" font-family="Arial" font-size="14.00" fill="#666666">[bigint]</text>
<polygon fill="none" stroke="#000000" points="1005.5,-842.5 1005.5,-872.5 1336.5,-872.5 1336.5,-842.5 1005.5,-842.5"/>
<text text-anchor="start" x="1012.5" y="-853.9" font-family="Arial" font-size="14.00" fill="#000000">created_at    </text>
<text text-anchor="start" x="1112.8422" y="-853.9" font-family="Arial" font-size="14.00" fill="#666666">[datetime(6)]</text>
<polygon fill="none" stroke="#000000" points="1005.5,-812.5 1005.5,-842.5 1336.5,-842.5 1336.5,-812.5 1005.5,-812.5"/>
<text text-anchor="start" x="1012.5" y="-823.9" font-family="Arial" font-size="14.00" fill="#000000">updated_at    </text>
<text text-anchor="start" x="1116.7468" y="-823.9" font-family="Arial" font-size="14.00" fill="#666666">[datetime(6)]</text>
</g>
<!-- enquete_choice_results&#45;&gt;enquete_delivery_details -->
<g id="edge3" class="edge">
<title>enquete_choice_results:enquete_delivery_detail_id&#45;&gt;enquete_delivery_details:id</title>
<path fill="none" stroke="#000000" d="M1346.4783,-886.3952C1385.9727,-876.8312 1367.3343,-807.5018 1336.5,-770 1240.1232,-652.7829 1097.8768,-821.2171 1001.5,-704 974.2613,-670.8713 958.6111,-607.5 1001.5,-607.5"/>
<polygon fill="#000000" stroke="#000000" points="1346.4393,-886.3994 1336.0047,-883.0273 1341.4696,-886.9497 1336.5,-887.5 1336.5,-887.5 1336.5,-887.5 1341.4696,-886.9497 1336.9953,-891.9727 1346.4393,-886.3994 1346.4393,-886.3994"/>
<text text-anchor="start" x="931.303" y="-897.5" font-family="Arial" font-size="10.00" fill="#000000">FOREIGN KEY (enquete_delivery_detail_id) REFERENCES enquete_delivery_details (id)</text>
</g>
<!-- enquete_goal_action_results -->
<g id="node5" class="node">
<title>enquete_goal_action_results</title>
<polygon fill="#efefef" stroke="transparent" points="1440.5,-962.5 1440.5,-997.5 1811.5,-997.5 1811.5,-962.5 1440.5,-962.5"/>
<polygon fill="none" stroke="#000000" points="1440.5,-962.5 1440.5,-997.5 1811.5,-997.5 1811.5,-962.5 1440.5,-962.5"/>
<text text-anchor="start" x="1447.1726" y="-975.3" font-family="Arial Bold" font-size="18.00" fill="#000000">enquete_goal_action_results</text>
<text text-anchor="start" x="1677.2594" y="-975.3" font-family="Arial" font-size="14.00" fill="#000000">    </text>
<text text-anchor="start" x="1711.4642" y="-975.3" font-family="Arial" font-size="14.00" fill="#666666">[BASE TABLE]</text>
<polygon fill="none" stroke="#000000" points="1440.5,-932.5 1440.5,-962.5 1811.5,-962.5 1811.5,-932.5 1440.5,-932.5"/>
<text text-anchor="start" x="1447.5" y="-943.9" font-family="Arial" font-size="14.00" fill="#000000">id    </text>
<text text-anchor="start" x="1492.594" y="-943.9" font-family="Arial" font-size="14.00" fill="#666666">[bigint]</text>
<polygon fill="none" stroke="#000000" points="1440.5,-902.5 1440.5,-932.5 1811.5,-932.5 1811.5,-902.5 1440.5,-902.5"/>
<text text-anchor="start" x="1447.5" y="-913.9" font-family="Arial" font-size="14.00" fill="#000000">enquete_delivery_detail_id    </text>
<text text-anchor="start" x="1648.2012" y="-913.9" font-family="Arial" font-size="14.00" fill="#666666">[bigint]</text>
<polygon fill="none" stroke="#000000" points="1440.5,-872.5 1440.5,-902.5 1811.5,-902.5 1811.5,-872.5 1440.5,-872.5"/>
<text text-anchor="start" x="1447.5" y="-883.9" font-family="Arial" font-size="14.00" fill="#000000">action_id    </text>
<text text-anchor="start" x="1537.7216" y="-883.9" font-family="Arial" font-size="14.00" fill="#666666">[bigint]</text>
<polygon fill="none" stroke="#000000" points="1440.5,-842.5 1440.5,-872.5 1811.5,-872.5 1811.5,-842.5 1440.5,-842.5"/>
<text text-anchor="start" x="1447.5" y="-853.9" font-family="Arial" font-size="14.00" fill="#000000">created_at    </text>
<text text-anchor="start" x="1547.8422" y="-853.9" font-family="Arial" font-size="14.00" fill="#666666">[datetime(6)]</text>
<polygon fill="none" stroke="#000000" points="1440.5,-812.5 1440.5,-842.5 1811.5,-842.5 1811.5,-812.5 1440.5,-812.5"/>
<text text-anchor="start" x="1447.5" y="-823.9" font-family="Arial" font-size="14.00" fill="#000000">updated_at    </text>
<text text-anchor="start" x="1551.7468" y="-823.9" font-family="Arial" font-size="14.00" fill="#666666">[datetime(6)]</text>
</g>
<!-- enquete_goal_action_results&#45;&gt;enquete_delivery_details -->
<g id="edge4" class="edge">
<title>enquete_goal_action_results:enquete_delivery_detail_id&#45;&gt;enquete_delivery_details:id</title>
<path fill="none" stroke="#000000" d="M1430.7229,-915.3549C1372.3586,-887.9657 1410.2854,-607.5 1341.5,-607.5"/>
<polygon fill="#000000" stroke="#000000" points="1430.7323,-915.3569 1439.5356,-921.8955 1435.6162,-916.4284 1440.5,-917.5 1440.5,-917.5 1440.5,-917.5 1435.6162,-916.4284 1441.4644,-913.1045 1430.7323,-915.3569 1430.7323,-915.3569"/>
<text text-anchor="start" x="1447.303" y="-927.5" font-family="Arial" font-size="10.00" fill="#000000">FOREIGN KEY (enquete_delivery_detail_id) REFERENCES enquete_delivery_details (id)</text>
</g>
<!-- enquete_text_results -->
<g id="node6" class="node">
<title>enquete_text_results</title>
<polygon fill="#efefef" stroke="transparent" points="1915.5,-962.5 1915.5,-997.5 2223.5,-997.5 2223.5,-962.5 1915.5,-962.5"/>
<polygon fill="none" stroke="#000000" points="1915.5,-962.5 1915.5,-997.5 2223.5,-997.5 2223.5,-962.5 1915.5,-962.5"/>
<text text-anchor="start" x="1922.1843" y="-975.3" font-family="Arial Bold" font-size="18.00" fill="#000000">enquete_text_results</text>
<text text-anchor="start" x="2089.2477" y="-975.3" font-family="Arial" font-size="14.00" fill="#000000">    </text>
<text text-anchor="start" x="2123.4525" y="-975.3" font-family="Arial" font-size="14.00" fill="#666666">[BASE TABLE]</text>
<polygon fill="none" stroke="#000000" points="1915.5,-932.5 1915.5,-962.5 2223.5,-962.5 2223.5,-932.5 1915.5,-932.5"/>
<text text-anchor="start" x="1922.5" y="-943.9" font-family="Arial" font-size="14.00" fill="#000000">id    </text>
<text text-anchor="start" x="1967.594" y="-943.9" font-family="Arial" font-size="14.00" fill="#666666">[bigint]</text>
<polygon fill="none" stroke="#000000" points="1915.5,-902.5 1915.5,-932.5 2223.5,-932.5 2223.5,-902.5 1915.5,-902.5"/>
<text text-anchor="start" x="1922.5" y="-913.9" font-family="Arial" font-size="14.00" fill="#000000">enquete_delivery_detail_id    </text>
<text text-anchor="start" x="2123.2012" y="-913.9" font-family="Arial" font-size="14.00" fill="#666666">[bigint]</text>
<polygon fill="none" stroke="#000000" points="1915.5,-872.5 1915.5,-902.5 2223.5,-902.5 2223.5,-872.5 1915.5,-872.5"/>
<text text-anchor="start" x="1922.5" y="-883.9" font-family="Arial" font-size="14.00" fill="#000000">answer    </text>
<text text-anchor="start" x="2001.8198" y="-883.9" font-family="Arial" font-size="14.00" fill="#666666">[varchar(255)]</text>
<polygon fill="none" stroke="#000000" points="1915.5,-842.5 1915.5,-872.5 2223.5,-872.5 2223.5,-842.5 1915.5,-842.5"/>
<text text-anchor="start" x="1922.5" y="-853.9" font-family="Arial" font-size="14.00" fill="#000000">created_at    </text>
<text text-anchor="start" x="2022.8422" y="-853.9" font-family="Arial" font-size="14.00" fill="#666666">[datetime(6)]</text>
<polygon fill="none" stroke="#000000" points="1915.5,-812.5 1915.5,-842.5 2223.5,-842.5 2223.5,-812.5 1915.5,-812.5"/>
<text text-anchor="start" x="1922.5" y="-823.9" font-family="Arial" font-size="14.00" fill="#000000">updated_at    </text>
<text text-anchor="start" x="2026.7468" y="-823.9" font-family="Arial" font-size="14.00" fill="#666666">[datetime(6)]</text>
</g>
<!-- enquete_text_results&#45;&gt;enquete_delivery_details -->
<g id="edge5" class="edge">
<title>enquete_text_results:enquete_delivery_detail_id&#45;&gt;enquete_delivery_details:id</title>
<path fill="none" stroke="#000000" d="M1905.4314,-916.7875C1841.026,-906.8071 1920.0174,-794.4966 1863.5,-740 1777.3483,-656.9286 1461.1786,-607.5 1341.5,-607.5"/>
<polygon fill="#000000" stroke="#000000" points="1905.5249,-916.7941 1915.1823,-921.9888 1910.5125,-917.147 1915.5,-917.5 1915.5,-917.5 1915.5,-917.5 1910.5125,-917.147 1915.8177,-913.0112 1905.5249,-916.7941 1905.5249,-916.7941"/>
<text text-anchor="start" x="1922.303" y="-927.5" font-family="Arial" font-size="10.00" fill="#000000">FOREIGN KEY (enquete_delivery_detail_id) REFERENCES enquete_delivery_details (id)</text>
</g>
</g>
</svg>
