<?xml version="1.0" encoding="UTF-8" standalone="no"?>
<!DOCTYPE svg PUBLIC "-//W3C//DTD SVG 1.1//EN"
 "http://www.w3.org/Graphics/SVG/1.1/DTD/svg11.dtd">
<!-- Generated by graphviz version 2.40.1 (20161225.0304)
 -->
<!-- Title: episode_deliveries Pages: 1 -->
<svg width="831pt" height="772pt"
 viewBox="0.00 0.00 831.00 772.00" xmlns="http://www.w3.org/2000/svg" xmlns:xlink="http://www.w3.org/1999/xlink">
<g id="graph0" class="graph" transform="scale(1 1) rotate(0) translate(4 768)">
<title>episode_deliveries</title>
<polygon fill="#ffffff" stroke="transparent" points="-4,4 -4,-768 827,-768 827,4 -4,4"/>
<!-- episode_deliveries -->
<g id="node1" class="node">
<title>episode_deliveries</title>
<polygon fill="#efefef" stroke="transparent" points="279,-682.5 279,-717.5 569,-717.5 569,-682.5 279,-682.5"/>
<polygon fill="none" stroke="#000000" points="279,-682.5 279,-717.5 569,-717.5 569,-682.5 279,-682.5"/>
<text text-anchor="start" x="285.7005" y="-695.3" font-family="Arial Bold" font-size="18.00" fill="#000000">episode_deliveries</text>
<text text-anchor="start" x="434.7315" y="-695.3" font-family="Arial" font-size="14.00" fill="#000000">    </text>
<text text-anchor="start" x="468.9363" y="-695.3" font-family="Arial" font-size="14.00" fill="#666666">[BASE TABLE]</text>
<polygon fill="none" stroke="#000000" points="279,-652.5 279,-682.5 569,-682.5 569,-652.5 279,-652.5"/>
<text text-anchor="start" x="286" y="-663.9" font-family="Arial" font-size="14.00" fill="#000000">id </text>
<text text-anchor="start" x="300.7798" y="-663.9" font-family="Arial" font-size="14.00" fill="#666666">[bigint]</text>
<polygon fill="none" stroke="#000000" points="279,-622.5 279,-652.5 569,-652.5 569,-622.5 279,-622.5"/>
<text text-anchor="start" x="286" y="-633.9" font-family="Arial" font-size="14.00" fill="#000000">freshman_id </text>
<text text-anchor="start" x="366.9046" y="-633.9" font-family="Arial" font-size="14.00" fill="#666666">[bigint]</text>
<polygon fill="none" stroke="#000000" points="279,-592.5 279,-622.5 569,-622.5 569,-592.5 279,-592.5"/>
<text text-anchor="start" x="286" y="-603.9" font-family="Arial" font-size="14.00" fill="#000000">action_id </text>
<text text-anchor="start" x="345.9074" y="-603.9" font-family="Arial" font-size="14.00" fill="#666666">[bigint]</text>
<polygon fill="none" stroke="#000000" points="279,-562.5 279,-592.5 569,-592.5 569,-562.5 279,-562.5"/>
<text text-anchor="start" x="286" y="-573.9" font-family="Arial" font-size="14.00" fill="#000000">send_date </text>
<text text-anchor="start" x="355.2594" y="-573.9" font-family="Arial" font-size="14.00" fill="#666666">[date]</text>
<polygon fill="none" stroke="#000000" points="279,-532.5 279,-562.5 569,-562.5 569,-532.5 279,-532.5"/>
<text text-anchor="start" x="286" y="-543.9" font-family="Arial" font-size="14.00" fill="#000000">created_at </text>
<text text-anchor="start" x="356.028" y="-543.9" font-family="Arial" font-size="14.00" fill="#666666">[datetime(6)]</text>
<polygon fill="none" stroke="#000000" points="279,-502.5 279,-532.5 569,-532.5 569,-502.5 279,-502.5"/>
<text text-anchor="start" x="286" y="-513.9" font-family="Arial" font-size="14.00" fill="#000000">updated_at </text>
<text text-anchor="start" x="359.9326" y="-513.9" font-family="Arial" font-size="14.00" fill="#666666">[datetime(6)]</text>
<polygon fill="none" stroke="#000000" stroke-width="3" points="277.5,-501.5 277.5,-719.5 570.5,-719.5 570.5,-501.5 277.5,-501.5"/>
</g>
<!-- freshmen -->
<g id="node2" class="node">
<title>freshmen</title>
<polygon fill="#efefef" stroke="transparent" points="152,-312.5 152,-347.5 368,-347.5 368,-312.5 152,-312.5"/>
<polygon fill="none" stroke="#000000" points="152,-312.5 152,-347.5 368,-347.5 368,-312.5 152,-312.5"/>
<text text-anchor="start" x="158.7103" y="-325.3" font-family="Arial Bold" font-size="18.00" fill="#000000">freshmen</text>
<text text-anchor="start" x="233.7217" y="-325.3" font-family="Arial" font-size="14.00" fill="#000000">    </text>
<text text-anchor="start" x="267.9265" y="-325.3" font-family="Arial" font-size="14.00" fill="#666666">[BASE TABLE]</text>
<polygon fill="none" stroke="#000000" points="152,-282.5 152,-312.5 368,-312.5 368,-282.5 152,-282.5"/>
<text text-anchor="start" x="159" y="-293.9" font-family="Arial" font-size="14.00" fill="#000000">id    </text>
<text text-anchor="start" x="204.094" y="-293.9" font-family="Arial" font-size="14.00" fill="#666666">[bigint]</text>
<polygon fill="none" stroke="#000000" points="152,-252.5 152,-282.5 368,-282.5 368,-252.5 152,-252.5"/>
<text text-anchor="start" x="159" y="-263.9" font-family="Arial" font-size="14.00" fill="#000000">customer_id    </text>
<text text-anchor="start" x="269.4362" y="-263.9" font-family="Arial" font-size="14.00" fill="#666666">[bigint]</text>
<polygon fill="none" stroke="#000000" points="152,-222.5 152,-252.5 368,-252.5 368,-222.5 152,-222.5"/>
<text text-anchor="start" x="159" y="-233.9" font-family="Arial" font-size="14.00" fill="#000000">name_kanji    </text>
<text text-anchor="start" x="264.7742" y="-233.9" font-family="Arial" font-size="14.00" fill="#666666">[varchar(255)]</text>
<polygon fill="none" stroke="#000000" points="152,-192.5 152,-222.5 368,-222.5 368,-192.5 152,-192.5"/>
<text text-anchor="start" x="159" y="-203.9" font-family="Arial" font-size="14.00" fill="#000000">name_kana    </text>
<text text-anchor="start" x="266.3436" y="-203.9" font-family="Arial" font-size="14.00" fill="#666666">[varchar(255)]</text>
<polygon fill="none" stroke="#000000" points="152,-162.5 152,-192.5 368,-192.5 368,-162.5 152,-162.5"/>
<text text-anchor="start" x="159" y="-173.9" font-family="Arial" font-size="14.00" fill="#000000">entrance_year    </text>
<text text-anchor="start" x="282.6774" y="-173.9" font-family="Arial" font-size="14.00" fill="#666666">[int]</text>
<polygon fill="none" stroke="#000000" points="152,-132.5 152,-162.5 368,-162.5 368,-132.5 152,-132.5"/>
<text text-anchor="start" x="159" y="-143.9" font-family="Arial" font-size="14.00" fill="#000000">disabled_flg    </text>
<text text-anchor="start" x="267.8934" y="-143.9" font-family="Arial" font-size="14.00" fill="#666666">[tinyint(1)]</text>
<polygon fill="none" stroke="#000000" points="152,-102.5 152,-132.5 368,-132.5 368,-102.5 152,-102.5"/>
<text text-anchor="start" x="159" y="-113.9" font-family="Arial" font-size="14.00" fill="#000000">created_at    </text>
<text text-anchor="start" x="259.3422" y="-113.9" font-family="Arial" font-size="14.00" fill="#666666">[datetime(6)]</text>
<polygon fill="none" stroke="#000000" points="152,-72.5 152,-102.5 368,-102.5 368,-72.5 152,-72.5"/>
<text text-anchor="start" x="159" y="-83.9" font-family="Arial" font-size="14.00" fill="#000000">updated_at    </text>
<text text-anchor="start" x="263.2468" y="-83.9" font-family="Arial" font-size="14.00" fill="#666666">[datetime(6)]</text>
</g>
<!-- episode_deliveries&#45;&gt;freshmen -->
<g id="edge1" class="edge">
<title>episode_deliveries:freshman_id&#45;&gt;freshmen:id</title>
<path fill="none" stroke="#000000" d="M268.9297,-636.8543C202.7282,-627.7961 244.5497,-525.4366 279,-457 301.1423,-413.0136 345.8577,-434.9864 368,-391 386.6848,-353.882 409.5556,-297.5 368,-297.5"/>
<polygon fill="#000000" stroke="#000000" points="269.0205,-636.86 278.712,-641.9908 274.0102,-637.18 279,-637.5 279,-637.5 279,-637.5 274.0102,-637.18 279.288,-633.0092 269.0205,-636.86 269.0205,-636.86"/>
<text text-anchor="start" x="7.219" y="-647.5" font-family="Arial" font-size="10.00" fill="#000000">FOREIGN KEY (freshman_id) REFERENCES freshmen (id)</text>
</g>
<!-- actions -->
<g id="node3" class="node">
<title>actions</title>
<polygon fill="#efefef" stroke="transparent" points="473,-342.5 473,-377.5 702,-377.5 702,-342.5 473,-342.5"/>
<polygon fill="none" stroke="#000000" points="473,-342.5 473,-377.5 702,-377.5 702,-342.5 473,-342.5"/>
<text text-anchor="start" x="495.2085" y="-355.3" font-family="Arial Bold" font-size="18.00" fill="#000000">actions</text>
<text text-anchor="start" x="552.2235" y="-355.3" font-family="Arial" font-size="14.00" fill="#000000">    </text>
<text text-anchor="start" x="586.4283" y="-355.3" font-family="Arial" font-size="14.00" fill="#666666">[BASE TABLE]</text>
<polygon fill="none" stroke="#000000" points="473,-312.5 473,-342.5 702,-342.5 702,-312.5 473,-312.5"/>
<text text-anchor="start" x="480" y="-323.9" font-family="Arial" font-size="14.00" fill="#000000">id    </text>
<text text-anchor="start" x="525.094" y="-323.9" font-family="Arial" font-size="14.00" fill="#666666">[bigint]</text>
<polygon fill="none" stroke="#000000" points="473,-282.5 473,-312.5 702,-312.5 702,-282.5 473,-282.5"/>
<text text-anchor="start" x="480" y="-293.9" font-family="Arial" font-size="14.00" fill="#000000">action_phase_id    </text>
<text text-anchor="start" x="616.1346" y="-293.9" font-family="Arial" font-size="14.00" fill="#666666">[bigint]</text>
<polygon fill="none" stroke="#000000" points="473,-252.5 473,-282.5 702,-282.5 702,-252.5 473,-252.5"/>
<text text-anchor="start" x="480" y="-263.9" font-family="Arial" font-size="14.00" fill="#000000">title    </text>
<text text-anchor="start" x="535.9818" y="-263.9" font-family="Arial" font-size="14.00" fill="#666666">[varchar(255)]</text>
<polygon fill="none" stroke="#000000" points="473,-222.5 473,-252.5 702,-252.5 702,-222.5 473,-222.5"/>
<text text-anchor="start" x="480" y="-233.9" font-family="Arial" font-size="14.00" fill="#000000">sort_order    </text>
<text text-anchor="start" x="577.9902" y="-233.9" font-family="Arial" font-size="14.00" fill="#666666">[int]</text>
<polygon fill="none" stroke="#000000" points="473,-192.5 473,-222.5 702,-222.5 702,-192.5 473,-192.5"/>
<text text-anchor="start" x="480" y="-203.9" font-family="Arial" font-size="14.00" fill="#000000">valid_date_from    </text>
<text text-anchor="start" x="613.7812" y="-203.9" font-family="Arial" font-size="14.00" fill="#666666">[datetime(6)]</text>
<polygon fill="none" stroke="#000000" points="473,-162.5 473,-192.5 702,-192.5 702,-162.5 473,-162.5"/>
<text text-anchor="start" x="480" y="-173.9" font-family="Arial" font-size="14.00" fill="#000000">valid_date_to    </text>
<text text-anchor="start" x="597.46" y="-173.9" font-family="Arial" font-size="14.00" fill="#666666">[datetime(6)]</text>
<polygon fill="none" stroke="#000000" points="473,-132.5 473,-162.5 702,-162.5 702,-132.5 473,-132.5"/>
<text text-anchor="start" x="480" y="-143.9" font-family="Arial" font-size="14.00" fill="#000000">recommended_month    </text>
<text text-anchor="start" x="650.3464" y="-143.9" font-family="Arial" font-size="14.00" fill="#666666">[int]</text>
<polygon fill="none" stroke="#000000" points="473,-102.5 473,-132.5 702,-132.5 702,-102.5 473,-102.5"/>
<text text-anchor="start" x="480" y="-113.9" font-family="Arial" font-size="14.00" fill="#000000">created_at    </text>
<text text-anchor="start" x="580.3422" y="-113.9" font-family="Arial" font-size="14.00" fill="#666666">[datetime(6)]</text>
<polygon fill="none" stroke="#000000" points="473,-72.5 473,-102.5 702,-102.5 702,-72.5 473,-72.5"/>
<text text-anchor="start" x="480" y="-83.9" font-family="Arial" font-size="14.00" fill="#000000">updated_at    </text>
<text text-anchor="start" x="584.2468" y="-83.9" font-family="Arial" font-size="14.00" fill="#666666">[datetime(6)]</text>
<polygon fill="none" stroke="#000000" points="473,-42.5 473,-72.5 702,-72.5 702,-42.5 473,-42.5"/>
<text text-anchor="start" x="479.7735" y="-53.9" font-family="Arial" font-size="14.00" fill="#000000">line_break_title    </text>
<text text-anchor="start" x="608.1073" y="-53.9" font-family="Arial" font-size="14.00" fill="#666666">[varchar(255)]</text>
</g>
<!-- episode_deliveries&#45;&gt;actions -->
<g id="edge2" class="edge">
<title>episode_deliveries:action_id&#45;&gt;actions:id</title>
<path fill="none" stroke="#000000" d="M579.1296,-606.6652C632.7122,-597.1735 605.016,-508.9711 569,-457 543.0447,-419.5465 498.9553,-458.4535 473,-421 449.3302,-386.8444 431.4444,-327.5 473,-327.5"/>
<polygon fill="#000000" stroke="#000000" points="578.9662,-606.6786 568.6304,-603.0152 573.9831,-607.0893 569,-607.5 569,-607.5 569,-607.5 573.9831,-607.0893 569.3696,-611.9848 578.9662,-606.6786 578.9662,-606.6786"/>
<text text-anchor="start" x="575.717" y="-617.5" font-family="Arial" font-size="10.00" fill="#000000">FOREIGN KEY (action_id) REFERENCES actions (id)</text>
</g>
</g>
</svg>
