<?xml version="1.0" encoding="UTF-8" standalone="no"?>
<!DOCTYPE svg PUBLIC "-//W3C//DTD SVG 1.1//EN"
 "http://www.w3.org/Graphics/SVG/1.1/DTD/svg11.dtd">
<!-- Generated by graphviz version 2.40.1 (20161225.0304)
 -->
<!-- Title: file_upload_requests Pages: 1 -->
<svg width="801pt" height="989pt"
 viewBox="0.00 0.00 800.50 989.00" xmlns="http://www.w3.org/2000/svg" xmlns:xlink="http://www.w3.org/1999/xlink">
<g id="graph0" class="graph" transform="scale(1 1) rotate(0) translate(4 985)">
<title>file_upload_requests</title>
<polygon fill="#ffffff" stroke="transparent" points="-4,4 -4,-985 796.5,-985 796.5,4 -4,4"/>
<!-- file_upload_requests -->
<g id="node1" class="node">
<title>file_upload_requests</title>
<polygon fill="#efefef" stroke="transparent" points="409,-592.5 409,-627.5 716,-627.5 716,-592.5 409,-592.5"/>
<polygon fill="none" stroke="#000000" points="409,-592.5 409,-627.5 716,-627.5 716,-592.5 409,-592.5"/>
<text text-anchor="start" x="415.6892" y="-605.3" font-family="Arial Bold" font-size="18.00" fill="#000000">file_upload_requests</text>
<text text-anchor="start" x="581.7428" y="-605.3" font-family="Arial" font-size="14.00" fill="#000000">    </text>
<text text-anchor="start" x="615.9476" y="-605.3" font-family="Arial" font-size="14.00" fill="#666666">[BASE TABLE]</text>
<polygon fill="none" stroke="#000000" points="409,-562.5 409,-592.5 716,-592.5 716,-562.5 409,-562.5"/>
<text text-anchor="start" x="416" y="-573.9" font-family="Arial" font-size="14.00" fill="#000000">id </text>
<text text-anchor="start" x="430.7798" y="-573.9" font-family="Arial" font-size="14.00" fill="#666666">[bigint]</text>
<polygon fill="none" stroke="#000000" points="409,-532.5 409,-562.5 716,-562.5 716,-532.5 409,-532.5"/>
<text text-anchor="start" x="416" y="-543.9" font-family="Arial" font-size="14.00" fill="#000000">customer_id </text>
<text text-anchor="start" x="496.122" y="-543.9" font-family="Arial" font-size="14.00" fill="#666666">[bigint]</text>
<polygon fill="none" stroke="#000000" points="409,-502.5 409,-532.5 716,-532.5 716,-502.5 409,-502.5"/>
<text text-anchor="start" x="416" y="-513.9" font-family="Arial" font-size="14.00" fill="#000000">file_type </text>
<text text-anchor="start" x="472.0154" y="-513.9" font-family="Arial" font-size="14.00" fill="#666666">[varchar(255)]</text>
<polygon fill="none" stroke="#000000" points="409,-472.5 409,-502.5 716,-502.5 716,-472.5 409,-472.5"/>
<text text-anchor="start" x="416" y="-483.9" font-family="Arial" font-size="14.00" fill="#000000">logs </text>
<text text-anchor="start" x="445.5624" y="-483.9" font-family="Arial" font-size="14.00" fill="#666666">[json]</text>
<polygon fill="none" stroke="#000000" points="409,-442.5 409,-472.5 716,-472.5 716,-442.5 409,-442.5"/>
<text text-anchor="start" x="416" y="-453.9" font-family="Arial" font-size="14.00" fill="#000000">finished_at </text>
<text text-anchor="start" x="487.5806" y="-453.9" font-family="Arial" font-size="14.00" fill="#666666">[timestamp]</text>
<polygon fill="none" stroke="#000000" points="409,-412.5 409,-442.5 716,-442.5 716,-412.5 409,-412.5"/>
<text text-anchor="start" x="416" y="-423.9" font-family="Arial" font-size="14.00" fill="#000000">created_at </text>
<text text-anchor="start" x="486.028" y="-423.9" font-family="Arial" font-size="14.00" fill="#666666">[datetime(6)]</text>
<polygon fill="none" stroke="#000000" points="409,-382.5 409,-412.5 716,-412.5 716,-382.5 409,-382.5"/>
<text text-anchor="start" x="416" y="-393.9" font-family="Arial" font-size="14.00" fill="#000000">updated_at </text>
<text text-anchor="start" x="489.9326" y="-393.9" font-family="Arial" font-size="14.00" fill="#666666">[datetime(6)]</text>
<polygon fill="none" stroke="#000000" stroke-width="3" points="407,-381.5 407,-629.5 717,-629.5 717,-381.5 407,-381.5"/>
</g>
<!-- customers -->
<g id="node3" class="node">
<title>customers</title>
<polygon fill="#efefef" stroke="transparent" points="418,-222.5 418,-257.5 707,-257.5 707,-222.5 418,-222.5"/>
<polygon fill="none" stroke="#000000" points="418,-222.5 418,-257.5 707,-257.5 707,-222.5 418,-222.5"/>
<text text-anchor="start" x="457.2134" y="-235.3" font-family="Arial Bold" font-size="18.00" fill="#000000">customers</text>
<text text-anchor="start" x="540.2186" y="-235.3" font-family="Arial" font-size="14.00" fill="#000000">    </text>
<text text-anchor="start" x="574.4234" y="-235.3" font-family="Arial" font-size="14.00" fill="#666666">[BASE TABLE]</text>
<polygon fill="none" stroke="#000000" points="418,-192.5 418,-222.5 707,-222.5 707,-192.5 418,-192.5"/>
<text text-anchor="start" x="425" y="-203.9" font-family="Arial" font-size="14.00" fill="#000000">id    </text>
<text text-anchor="start" x="470.094" y="-203.9" font-family="Arial" font-size="14.00" fill="#666666">[bigint]</text>
<polygon fill="none" stroke="#000000" points="418,-162.5 418,-192.5 707,-192.5 707,-162.5 418,-162.5"/>
<text text-anchor="start" x="425" y="-173.9" font-family="Arial" font-size="14.00" fill="#000000">name    </text>
<text text-anchor="start" x="494.2132" y="-173.9" font-family="Arial" font-size="14.00" fill="#666666">[varchar(255)]</text>
<polygon fill="none" stroke="#000000" points="418,-132.5 418,-162.5 707,-162.5 707,-132.5 418,-132.5"/>
<text text-anchor="start" x="425" y="-143.9" font-family="Arial" font-size="14.00" fill="#000000">enterprise_system_id    </text>
<text text-anchor="start" x="592.2244" y="-143.9" font-family="Arial" font-size="14.00" fill="#666666">[varchar(255)]</text>
<polygon fill="none" stroke="#000000" points="418,-102.5 418,-132.5 707,-132.5 707,-102.5 418,-102.5"/>
<text text-anchor="start" x="425" y="-113.9" font-family="Arial" font-size="14.00" fill="#000000">created_at    </text>
<text text-anchor="start" x="525.3422" y="-113.9" font-family="Arial" font-size="14.00" fill="#666666">[datetime(6)]</text>
<polygon fill="none" stroke="#000000" points="418,-72.5 418,-102.5 707,-102.5 707,-72.5 418,-72.5"/>
<text text-anchor="start" x="425" y="-83.9" font-family="Arial" font-size="14.00" fill="#000000">updated_at    </text>
<text text-anchor="start" x="529.2468" y="-83.9" font-family="Arial" font-size="14.00" fill="#666666">[datetime(6)]</text>
<polygon fill="none" stroke="#000000" points="418,-42.5 418,-72.5 707,-72.5 707,-42.5 418,-42.5"/>
<text text-anchor="start" x="424.8317" y="-53.9" font-family="Arial" font-size="14.00" fill="#000000">reserve_welcome_mail_at    </text>
<text text-anchor="start" x="621.6045" y="-53.9" font-family="Arial" font-size="14.00" fill="#666666">[datetime(6)]</text>
</g>
<!-- file_upload_requests&#45;&gt;customers -->
<g id="edge2" class="edge">
<title>file_upload_requests:customer_id&#45;&gt;customers:id</title>
<path fill="none" stroke="#000000" d="M398.635,-546.9485C258.3359,-531.7493 270.3789,-207.5 418,-207.5"/>
<polygon fill="#000000" stroke="#000000" points="399.0141,-546.9685 408.7608,-551.9936 404.0071,-547.2343 409,-547.5 409,-547.5 409,-547.5 404.0071,-547.2343 409.2392,-543.0064 399.0141,-546.9685 399.0141,-546.9685"/>
<text text-anchor="start" x="133.278" y="-557.5" font-family="Arial" font-size="10.00" fill="#000000">FOREIGN KEY (customer_id) REFERENCES customers (id)</text>
</g>
<!-- file_upload_request_histories -->
<g id="node2" class="node">
<title>file_upload_request_histories</title>
<polygon fill="#efefef" stroke="transparent" points="375,-902.5 375,-937.5 750,-937.5 750,-902.5 375,-902.5"/>
<polygon fill="none" stroke="#000000" points="375,-902.5 375,-937.5 750,-937.5 750,-902.5 375,-902.5"/>
<text text-anchor="start" x="381.6854" y="-915.3" font-family="Arial Bold" font-size="18.00" fill="#000000">file_upload_request_histories</text>
<text text-anchor="start" x="615.7466" y="-915.3" font-family="Arial" font-size="14.00" fill="#000000">    </text>
<text text-anchor="start" x="649.9514" y="-915.3" font-family="Arial" font-size="14.00" fill="#666666">[BASE TABLE]</text>
<polygon fill="none" stroke="#000000" points="375,-872.5 375,-902.5 750,-902.5 750,-872.5 375,-872.5"/>
<text text-anchor="start" x="382" y="-883.9" font-family="Arial" font-size="14.00" fill="#000000">id    </text>
<text text-anchor="start" x="427.094" y="-883.9" font-family="Arial" font-size="14.00" fill="#666666">[bigint]</text>
<polygon fill="none" stroke="#000000" points="375,-842.5 375,-872.5 750,-872.5 750,-842.5 375,-842.5"/>
<text text-anchor="start" x="382" y="-853.9" font-family="Arial" font-size="14.00" fill="#000000">file_upload_request_id    </text>
<text text-anchor="start" x="557.0294" y="-853.9" font-family="Arial" font-size="14.00" fill="#666666">[bigint]</text>
<polygon fill="none" stroke="#000000" points="375,-812.5 375,-842.5 750,-842.5 750,-812.5 375,-812.5"/>
<text text-anchor="start" x="382" y="-823.9" font-family="Arial" font-size="14.00" fill="#000000">created_at    </text>
<text text-anchor="start" x="482.3422" y="-823.9" font-family="Arial" font-size="14.00" fill="#666666">[datetime(6)]</text>
<polygon fill="none" stroke="#000000" points="375,-782.5 375,-812.5 750,-812.5 750,-782.5 375,-782.5"/>
<text text-anchor="start" x="382" y="-793.9" font-family="Arial" font-size="14.00" fill="#000000">updated_at    </text>
<text text-anchor="start" x="486.2468" y="-793.9" font-family="Arial" font-size="14.00" fill="#666666">[datetime(6)]</text>
<polygon fill="none" stroke="#000000" points="375,-752.5 375,-782.5 750,-782.5 750,-752.5 375,-752.5"/>
<text text-anchor="start" x="382" y="-763.9" font-family="Arial" font-size="14.00" fill="#000000">freshman_id    </text>
<text text-anchor="start" x="493.2188" y="-763.9" font-family="Arial" font-size="14.00" fill="#666666">[bigint]</text>
</g>
<!-- file_upload_request_histories&#45;&gt;file_upload_requests -->
<g id="edge1" class="edge">
<title>file_upload_request_histories:file_upload_request_id&#45;&gt;file_upload_requests:id</title>
<path fill="none" stroke="#000000" d="M364.7313,-856.839C251.6405,-841.8652 287.1916,-577.5 409,-577.5"/>
<polygon fill="#000000" stroke="#000000" points="365.0207,-856.8575 374.7109,-861.9907 370.0103,-857.1788 375,-857.5 375,-857.5 375,-857.5 370.0103,-857.1788 375.2891,-853.0093 365.0207,-856.8575 365.0207,-856.8575"/>
<text text-anchor="start" x="7.14" y="-867.5" font-family="Arial" font-size="10.00" fill="#000000">FOREIGN KEY (file_upload_request_id) REFERENCES file_upload_requests (id)</text>
</g>
</g>
</svg>
