<?xml version="1.0" encoding="UTF-8" standalone="no"?>
<!DOCTYPE svg PUBLIC "-//W3C//DTD SVG 1.1//EN"
 "http://www.w3.org/Graphics/SVG/1.1/DTD/svg11.dtd">
<!-- Generated by graphviz version 2.40.1 (20161225.0304)
 -->
<!-- Title: file_upload_request_histories Pages: 1 -->
<svg width="1037pt" height="682pt"
 viewBox="0.00 0.00 1037.00 682.00" xmlns="http://www.w3.org/2000/svg" xmlns:xlink="http://www.w3.org/1999/xlink">
<g id="graph0" class="graph" transform="scale(1 1) rotate(0) translate(4 678)">
<title>file_upload_request_histories</title>
<polygon fill="#ffffff" stroke="transparent" points="-4,4 -4,-678 1033,-678 1033,4 -4,4"/>
<!-- file_upload_request_histories -->
<g id="node1" class="node">
<title>file_upload_request_histories</title>
<polygon fill="#efefef" stroke="transparent" points="375,-592.5 375,-627.5 750,-627.5 750,-592.5 375,-592.5"/>
<polygon fill="none" stroke="#000000" points="375,-592.5 375,-627.5 750,-627.5 750,-592.5 375,-592.5"/>
<text text-anchor="start" x="381.6854" y="-605.3" font-family="Arial Bold" font-size="18.00" fill="#000000">file_upload_request_histories</text>
<text text-anchor="start" x="615.7466" y="-605.3" font-family="Arial" font-size="14.00" fill="#000000">    </text>
<text text-anchor="start" x="649.9514" y="-605.3" font-family="Arial" font-size="14.00" fill="#666666">[BASE TABLE]</text>
<polygon fill="none" stroke="#000000" points="375,-562.5 375,-592.5 750,-592.5 750,-562.5 375,-562.5"/>
<text text-anchor="start" x="382" y="-573.9" font-family="Arial" font-size="14.00" fill="#000000">id </text>
<text text-anchor="start" x="396.7798" y="-573.9" font-family="Arial" font-size="14.00" fill="#666666">[bigint]</text>
<polygon fill="none" stroke="#000000" points="375,-532.5 375,-562.5 750,-562.5 750,-532.5 375,-532.5"/>
<text text-anchor="start" x="382" y="-543.9" font-family="Arial" font-size="14.00" fill="#000000">file_upload_request_id </text>
<text text-anchor="start" x="526.7152" y="-543.9" font-family="Arial" font-size="14.00" fill="#666666">[bigint]</text>
<polygon fill="none" stroke="#000000" points="375,-502.5 375,-532.5 750,-532.5 750,-502.5 375,-502.5"/>
<text text-anchor="start" x="382" y="-513.9" font-family="Arial" font-size="14.00" fill="#000000">created_at </text>
<text text-anchor="start" x="452.028" y="-513.9" font-family="Arial" font-size="14.00" fill="#666666">[datetime(6)]</text>
<polygon fill="none" stroke="#000000" points="375,-472.5 375,-502.5 750,-502.5 750,-472.5 375,-472.5"/>
<text text-anchor="start" x="382" y="-483.9" font-family="Arial" font-size="14.00" fill="#000000">updated_at </text>
<text text-anchor="start" x="455.9326" y="-483.9" font-family="Arial" font-size="14.00" fill="#666666">[datetime(6)]</text>
<polygon fill="none" stroke="#000000" points="375,-442.5 375,-472.5 750,-472.5 750,-442.5 375,-442.5"/>
<text text-anchor="start" x="382" y="-453.9" font-family="Arial" font-size="14.00" fill="#000000">freshman_id </text>
<text text-anchor="start" x="462.9046" y="-453.9" font-family="Arial" font-size="14.00" fill="#666666">[bigint]</text>
<polygon fill="none" stroke="#000000" stroke-width="3" points="373,-441.5 373,-629.5 751,-629.5 751,-441.5 373,-441.5"/>
</g>
<!-- file_upload_requests -->
<g id="node2" class="node">
<title>file_upload_requests</title>
<polygon fill="#efefef" stroke="transparent" points="227,-267.5 227,-302.5 534,-302.5 534,-267.5 227,-267.5"/>
<polygon fill="none" stroke="#000000" points="227,-267.5 227,-302.5 534,-302.5 534,-267.5 227,-267.5"/>
<text text-anchor="start" x="233.6892" y="-280.3" font-family="Arial Bold" font-size="18.00" fill="#000000">file_upload_requests</text>
<text text-anchor="start" x="399.7428" y="-280.3" font-family="Arial" font-size="14.00" fill="#000000">    </text>
<text text-anchor="start" x="433.9476" y="-280.3" font-family="Arial" font-size="14.00" fill="#666666">[BASE TABLE]</text>
<polygon fill="none" stroke="#000000" points="227,-237.5 227,-267.5 534,-267.5 534,-237.5 227,-237.5"/>
<text text-anchor="start" x="234" y="-248.9" font-family="Arial" font-size="14.00" fill="#000000">id    </text>
<text text-anchor="start" x="279.094" y="-248.9" font-family="Arial" font-size="14.00" fill="#666666">[bigint]</text>
<polygon fill="none" stroke="#000000" points="227,-207.5 227,-237.5 534,-237.5 534,-207.5 227,-207.5"/>
<text text-anchor="start" x="234" y="-218.9" font-family="Arial" font-size="14.00" fill="#000000">customer_id    </text>
<text text-anchor="start" x="344.4362" y="-218.9" font-family="Arial" font-size="14.00" fill="#666666">[bigint]</text>
<polygon fill="none" stroke="#000000" points="227,-177.5 227,-207.5 534,-207.5 534,-177.5 227,-177.5"/>
<text text-anchor="start" x="234" y="-188.9" font-family="Arial" font-size="14.00" fill="#000000">file_type    </text>
<text text-anchor="start" x="320.3296" y="-188.9" font-family="Arial" font-size="14.00" fill="#666666">[varchar(255)]</text>
<polygon fill="none" stroke="#000000" points="227,-147.5 227,-177.5 534,-177.5 534,-147.5 227,-147.5"/>
<text text-anchor="start" x="234" y="-158.9" font-family="Arial" font-size="14.00" fill="#000000">logs    </text>
<text text-anchor="start" x="293.8766" y="-158.9" font-family="Arial" font-size="14.00" fill="#666666">[json]</text>
<polygon fill="none" stroke="#000000" points="227,-117.5 227,-147.5 534,-147.5 534,-117.5 227,-117.5"/>
<text text-anchor="start" x="234" y="-128.9" font-family="Arial" font-size="14.00" fill="#000000">finished_at    </text>
<text text-anchor="start" x="335.8948" y="-128.9" font-family="Arial" font-size="14.00" fill="#666666">[timestamp]</text>
<polygon fill="none" stroke="#000000" points="227,-87.5 227,-117.5 534,-117.5 534,-87.5 227,-87.5"/>
<text text-anchor="start" x="234" y="-98.9" font-family="Arial" font-size="14.00" fill="#000000">created_at    </text>
<text text-anchor="start" x="334.3422" y="-98.9" font-family="Arial" font-size="14.00" fill="#666666">[datetime(6)]</text>
<polygon fill="none" stroke="#000000" points="227,-57.5 227,-87.5 534,-87.5 534,-57.5 227,-57.5"/>
<text text-anchor="start" x="234" y="-68.9" font-family="Arial" font-size="14.00" fill="#000000">updated_at    </text>
<text text-anchor="start" x="338.2468" y="-68.9" font-family="Arial" font-size="14.00" fill="#666666">[datetime(6)]</text>
</g>
<!-- file_upload_request_histories&#45;&gt;file_upload_requests -->
<g id="edge1" class="edge">
<title>file_upload_request_histories:file_upload_request_id&#45;&gt;file_upload_requests:id</title>
<path fill="none" stroke="#000000" d="M364.8592,-546.6573C311.1514,-537.0766 337.7374,-448.0847 375,-397 418.7344,-337.0429 490.2656,-405.9571 534,-346 558.4891,-312.427 575.5556,-252.5 534,-252.5"/>
<polygon fill="#000000" stroke="#000000" points="365.0344,-546.6717 374.6273,-551.9845 370.0172,-547.0859 375,-547.5 375,-547.5 375,-547.5 370.0172,-547.0859 375.3727,-543.0155 365.0344,-546.6717 365.0344,-546.6717"/>
<text text-anchor="start" x="7.14" y="-557.5" font-family="Arial" font-size="10.00" fill="#000000">FOREIGN KEY (file_upload_request_id) REFERENCES file_upload_requests (id)</text>
</g>
<!-- freshmen -->
<g id="node3" class="node">
<title>freshmen</title>
<polygon fill="#efefef" stroke="transparent" points="638,-282.5 638,-317.5 854,-317.5 854,-282.5 638,-282.5"/>
<polygon fill="none" stroke="#000000" points="638,-282.5 638,-317.5 854,-317.5 854,-282.5 638,-282.5"/>
<text text-anchor="start" x="644.7103" y="-295.3" font-family="Arial Bold" font-size="18.00" fill="#000000">freshmen</text>
<text text-anchor="start" x="719.7217" y="-295.3" font-family="Arial" font-size="14.00" fill="#000000">    </text>
<text text-anchor="start" x="753.9265" y="-295.3" font-family="Arial" font-size="14.00" fill="#666666">[BASE TABLE]</text>
<polygon fill="none" stroke="#000000" points="638,-252.5 638,-282.5 854,-282.5 854,-252.5 638,-252.5"/>
<text text-anchor="start" x="645" y="-263.9" font-family="Arial" font-size="14.00" fill="#000000">id    </text>
<text text-anchor="start" x="690.094" y="-263.9" font-family="Arial" font-size="14.00" fill="#666666">[bigint]</text>
<polygon fill="none" stroke="#000000" points="638,-222.5 638,-252.5 854,-252.5 854,-222.5 638,-222.5"/>
<text text-anchor="start" x="645" y="-233.9" font-family="Arial" font-size="14.00" fill="#000000">customer_id    </text>
<text text-anchor="start" x="755.4362" y="-233.9" font-family="Arial" font-size="14.00" fill="#666666">[bigint]</text>
<polygon fill="none" stroke="#000000" points="638,-192.5 638,-222.5 854,-222.5 854,-192.5 638,-192.5"/>
<text text-anchor="start" x="645" y="-203.9" font-family="Arial" font-size="14.00" fill="#000000">name_kanji    </text>
<text text-anchor="start" x="750.7742" y="-203.9" font-family="Arial" font-size="14.00" fill="#666666">[varchar(255)]</text>
<polygon fill="none" stroke="#000000" points="638,-162.5 638,-192.5 854,-192.5 854,-162.5 638,-162.5"/>
<text text-anchor="start" x="645" y="-173.9" font-family="Arial" font-size="14.00" fill="#000000">name_kana    </text>
<text text-anchor="start" x="752.3436" y="-173.9" font-family="Arial" font-size="14.00" fill="#666666">[varchar(255)]</text>
<polygon fill="none" stroke="#000000" points="638,-132.5 638,-162.5 854,-162.5 854,-132.5 638,-132.5"/>
<text text-anchor="start" x="645" y="-143.9" font-family="Arial" font-size="14.00" fill="#000000">entrance_year    </text>
<text text-anchor="start" x="768.6774" y="-143.9" font-family="Arial" font-size="14.00" fill="#666666">[int]</text>
<polygon fill="none" stroke="#000000" points="638,-102.5 638,-132.5 854,-132.5 854,-102.5 638,-102.5"/>
<text text-anchor="start" x="645" y="-113.9" font-family="Arial" font-size="14.00" fill="#000000">disabled_flg    </text>
<text text-anchor="start" x="753.8934" y="-113.9" font-family="Arial" font-size="14.00" fill="#666666">[tinyint(1)]</text>
<polygon fill="none" stroke="#000000" points="638,-72.5 638,-102.5 854,-102.5 854,-72.5 638,-72.5"/>
<text text-anchor="start" x="645" y="-83.9" font-family="Arial" font-size="14.00" fill="#000000">created_at    </text>
<text text-anchor="start" x="745.3422" y="-83.9" font-family="Arial" font-size="14.00" fill="#666666">[datetime(6)]</text>
<polygon fill="none" stroke="#000000" points="638,-42.5 638,-72.5 854,-72.5 854,-42.5 638,-42.5"/>
<text text-anchor="start" x="645" y="-53.9" font-family="Arial" font-size="14.00" fill="#000000">updated_at    </text>
<text text-anchor="start" x="749.2468" y="-53.9" font-family="Arial" font-size="14.00" fill="#666666">[datetime(6)]</text>
</g>
<!-- file_upload_request_histories&#45;&gt;freshmen -->
<g id="edge2" class="edge">
<title>file_upload_request_histories:freshman_id&#45;&gt;freshmen:id</title>
<path fill="none" stroke="#000000" d="M759.9519,-454.8732C773.3189,-445.8 763.3644,-415.3335 750,-397 719.2002,-354.7484 668.7998,-403.2516 638,-361 613.5212,-327.4195 596.4444,-267.5 638,-267.5"/>
<polygon fill="#000000" stroke="#000000" points="759.6689,-454.9478 748.8515,-453.149 754.8344,-456.2239 750,-457.5 750,-457.5 750,-457.5 754.8344,-456.2239 751.1485,-461.851 759.6689,-454.9478 759.6689,-454.9478"/>
<text text-anchor="start" x="757.219" y="-467.5" font-family="Arial" font-size="10.00" fill="#000000">FOREIGN KEY (freshman_id) REFERENCES freshmen (id)</text>
</g>
</g>
</svg>
