<?xml version="1.0" encoding="UTF-8" standalone="no"?>
<!DOCTYPE svg PUBLIC "-//W3C//DTD SVG 1.1//EN"
 "http://www.w3.org/Graphics/SVG/1.1/DTD/svg11.dtd">
<!-- Generated by graphviz version 2.40.1 (20161225.0304)
 -->
<!-- Title: freshman_deletes Pages: 1 -->
<svg width="617pt" height="652pt"
 viewBox="0.00 0.00 617.00 652.00" xmlns="http://www.w3.org/2000/svg" xmlns:xlink="http://www.w3.org/1999/xlink">
<g id="graph0" class="graph" transform="scale(1 1) rotate(0) translate(4 648)">
<title>freshman_deletes</title>
<polygon fill="#ffffff" stroke="transparent" points="-4,4 -4,-648 613,-648 613,4 -4,4"/>
<!-- freshman_deletes -->
<g id="node1" class="node">
<title>freshman_deletes</title>
<polygon fill="#efefef" stroke="transparent" points="46,-562.5 46,-597.5 330,-597.5 330,-562.5 46,-562.5"/>
<polygon fill="none" stroke="#000000" points="46,-562.5 46,-597.5 330,-597.5 330,-562.5 46,-562.5"/>
<text text-anchor="start" x="52.6966" y="-575.3" font-family="Arial Bold" font-size="18.00" fill="#000000">freshman_deletes</text>
<text text-anchor="start" x="195.7354" y="-575.3" font-family="Arial" font-size="14.00" fill="#000000">    </text>
<text text-anchor="start" x="229.9402" y="-575.3" font-family="Arial" font-size="14.00" fill="#666666">[BASE TABLE]</text>
<polygon fill="none" stroke="#000000" points="46,-532.5 46,-562.5 330,-562.5 330,-532.5 46,-532.5"/>
<text text-anchor="start" x="53" y="-543.9" font-family="Arial" font-size="14.00" fill="#000000">id </text>
<text text-anchor="start" x="67.7798" y="-543.9" font-family="Arial" font-size="14.00" fill="#666666">[bigint]</text>
<polygon fill="none" stroke="#000000" points="46,-502.5 46,-532.5 330,-532.5 330,-502.5 46,-502.5"/>
<text text-anchor="start" x="53" y="-513.9" font-family="Arial" font-size="14.00" fill="#000000">freshman_id </text>
<text text-anchor="start" x="133.9046" y="-513.9" font-family="Arial" font-size="14.00" fill="#666666">[bigint]</text>
<polygon fill="none" stroke="#000000" points="46,-472.5 46,-502.5 330,-502.5 330,-472.5 46,-472.5"/>
<text text-anchor="start" x="53" y="-483.9" font-family="Arial" font-size="14.00" fill="#000000">created_at </text>
<text text-anchor="start" x="123.028" y="-483.9" font-family="Arial" font-size="14.00" fill="#666666">[datetime(6)]</text>
<polygon fill="none" stroke="#000000" points="46,-442.5 46,-472.5 330,-472.5 330,-442.5 46,-442.5"/>
<text text-anchor="start" x="53" y="-453.9" font-family="Arial" font-size="14.00" fill="#000000">updated_at </text>
<text text-anchor="start" x="126.9326" y="-453.9" font-family="Arial" font-size="14.00" fill="#666666">[datetime(6)]</text>
<polygon fill="none" stroke="#000000" stroke-width="3" points="44.5,-441.5 44.5,-599.5 331.5,-599.5 331.5,-441.5 44.5,-441.5"/>
</g>
<!-- freshmen -->
<g id="node2" class="node">
<title>freshmen</title>
<polygon fill="#efefef" stroke="transparent" points="80,-282.5 80,-317.5 296,-317.5 296,-282.5 80,-282.5"/>
<polygon fill="none" stroke="#000000" points="80,-282.5 80,-317.5 296,-317.5 296,-282.5 80,-282.5"/>
<text text-anchor="start" x="86.7103" y="-295.3" font-family="Arial Bold" font-size="18.00" fill="#000000">freshmen</text>
<text text-anchor="start" x="161.7217" y="-295.3" font-family="Arial" font-size="14.00" fill="#000000">    </text>
<text text-anchor="start" x="195.9265" y="-295.3" font-family="Arial" font-size="14.00" fill="#666666">[BASE TABLE]</text>
<polygon fill="none" stroke="#000000" points="80,-252.5 80,-282.5 296,-282.5 296,-252.5 80,-252.5"/>
<text text-anchor="start" x="87" y="-263.9" font-family="Arial" font-size="14.00" fill="#000000">id    </text>
<text text-anchor="start" x="132.094" y="-263.9" font-family="Arial" font-size="14.00" fill="#666666">[bigint]</text>
<polygon fill="none" stroke="#000000" points="80,-222.5 80,-252.5 296,-252.5 296,-222.5 80,-222.5"/>
<text text-anchor="start" x="87" y="-233.9" font-family="Arial" font-size="14.00" fill="#000000">customer_id    </text>
<text text-anchor="start" x="197.4362" y="-233.9" font-family="Arial" font-size="14.00" fill="#666666">[bigint]</text>
<polygon fill="none" stroke="#000000" points="80,-192.5 80,-222.5 296,-222.5 296,-192.5 80,-192.5"/>
<text text-anchor="start" x="87" y="-203.9" font-family="Arial" font-size="14.00" fill="#000000">name_kanji    </text>
<text text-anchor="start" x="192.7742" y="-203.9" font-family="Arial" font-size="14.00" fill="#666666">[varchar(255)]</text>
<polygon fill="none" stroke="#000000" points="80,-162.5 80,-192.5 296,-192.5 296,-162.5 80,-162.5"/>
<text text-anchor="start" x="87" y="-173.9" font-family="Arial" font-size="14.00" fill="#000000">name_kana    </text>
<text text-anchor="start" x="194.3436" y="-173.9" font-family="Arial" font-size="14.00" fill="#666666">[varchar(255)]</text>
<polygon fill="none" stroke="#000000" points="80,-132.5 80,-162.5 296,-162.5 296,-132.5 80,-132.5"/>
<text text-anchor="start" x="87" y="-143.9" font-family="Arial" font-size="14.00" fill="#000000">entrance_year    </text>
<text text-anchor="start" x="210.6774" y="-143.9" font-family="Arial" font-size="14.00" fill="#666666">[int]</text>
<polygon fill="none" stroke="#000000" points="80,-102.5 80,-132.5 296,-132.5 296,-102.5 80,-102.5"/>
<text text-anchor="start" x="87" y="-113.9" font-family="Arial" font-size="14.00" fill="#000000">disabled_flg    </text>
<text text-anchor="start" x="195.8934" y="-113.9" font-family="Arial" font-size="14.00" fill="#666666">[tinyint(1)]</text>
<polygon fill="none" stroke="#000000" points="80,-72.5 80,-102.5 296,-102.5 296,-72.5 80,-72.5"/>
<text text-anchor="start" x="87" y="-83.9" font-family="Arial" font-size="14.00" fill="#000000">created_at    </text>
<text text-anchor="start" x="187.3422" y="-83.9" font-family="Arial" font-size="14.00" fill="#666666">[datetime(6)]</text>
<polygon fill="none" stroke="#000000" points="80,-42.5 80,-72.5 296,-72.5 296,-42.5 80,-42.5"/>
<text text-anchor="start" x="87" y="-53.9" font-family="Arial" font-size="14.00" fill="#000000">updated_at    </text>
<text text-anchor="start" x="191.2468" y="-53.9" font-family="Arial" font-size="14.00" fill="#666666">[datetime(6)]</text>
</g>
<!-- freshman_deletes&#45;&gt;freshmen -->
<g id="edge1" class="edge">
<title>freshman_deletes:freshman_id&#45;&gt;freshmen:id</title>
<path fill="none" stroke="#000000" d="M340.0865,-516.7828C439.9327,-502.1191 404.6298,-267.5 296,-267.5"/>
<polygon fill="#000000" stroke="#000000" points="339.9748,-516.7907 329.6808,-513.0113 334.9874,-517.1453 330,-517.5 330,-517.5 330,-517.5 334.9874,-517.1453 330.3192,-521.9887 339.9748,-516.7907 339.9748,-516.7907"/>
<text text-anchor="start" x="337.219" y="-527.5" font-family="Arial" font-size="10.00" fill="#000000">FOREIGN KEY (freshman_id) REFERENCES freshmen (id)</text>
</g>
</g>
</svg>
