<?xml version="1.0" encoding="UTF-8" standalone="no"?>
<!DOCTYPE svg PUBLIC "-//W3C//DTD SVG 1.1//EN"
 "http://www.w3.org/Graphics/SVG/1.1/DTD/svg11.dtd">
<!-- Generated by graphviz version 2.40.1 (20161225.0304)
 -->
<!-- Title: freshmen Pages: 1 -->
<svg width="2484pt" height="1139pt"
 viewBox="0.00 0.00 2483.50 1139.00" xmlns="http://www.w3.org/2000/svg" xmlns:xlink="http://www.w3.org/1999/xlink">
<g id="graph0" class="graph" transform="scale(1 1) rotate(0) translate(4 1135)">
<title>freshmen</title>
<polygon fill="#ffffff" stroke="transparent" points="-4,4 -4,-1135 2479.5,-1135 2479.5,4 -4,4"/>
<!-- freshmen -->
<g id="node1" class="node">
<title>freshmen</title>
<polygon fill="#efefef" stroke="transparent" points="1130,-622.5 1130,-657.5 1346,-657.5 1346,-622.5 1130,-622.5"/>
<polygon fill="none" stroke="#000000" points="1130,-622.5 1130,-657.5 1346,-657.5 1346,-622.5 1130,-622.5"/>
<text text-anchor="start" x="1136.7103" y="-635.3" font-family="Arial Bold" font-size="18.00" fill="#000000">freshmen</text>
<text text-anchor="start" x="1211.7217" y="-635.3" font-family="Arial" font-size="14.00" fill="#000000">    </text>
<text text-anchor="start" x="1245.9265" y="-635.3" font-family="Arial" font-size="14.00" fill="#666666">[BASE TABLE]</text>
<polygon fill="none" stroke="#000000" points="1130,-592.5 1130,-622.5 1346,-622.5 1346,-592.5 1130,-592.5"/>
<text text-anchor="start" x="1137" y="-603.9" font-family="Arial" font-size="14.00" fill="#000000">id </text>
<text text-anchor="start" x="1151.7798" y="-603.9" font-family="Arial" font-size="14.00" fill="#666666">[bigint]</text>
<polygon fill="none" stroke="#000000" points="1130,-562.5 1130,-592.5 1346,-592.5 1346,-562.5 1130,-562.5"/>
<text text-anchor="start" x="1137" y="-573.9" font-family="Arial" font-size="14.00" fill="#000000">customer_id </text>
<text text-anchor="start" x="1217.122" y="-573.9" font-family="Arial" font-size="14.00" fill="#666666">[bigint]</text>
<polygon fill="none" stroke="#000000" points="1130,-532.5 1130,-562.5 1346,-562.5 1346,-532.5 1130,-532.5"/>
<text text-anchor="start" x="1137" y="-543.9" font-family="Arial" font-size="14.00" fill="#000000">name_kanji </text>
<text text-anchor="start" x="1212.46" y="-543.9" font-family="Arial" font-size="14.00" fill="#666666">[varchar(255)]</text>
<polygon fill="none" stroke="#000000" points="1130,-502.5 1130,-532.5 1346,-532.5 1346,-502.5 1130,-502.5"/>
<text text-anchor="start" x="1137" y="-513.9" font-family="Arial" font-size="14.00" fill="#000000">name_kana </text>
<text text-anchor="start" x="1214.0294" y="-513.9" font-family="Arial" font-size="14.00" fill="#666666">[varchar(255)]</text>
<polygon fill="none" stroke="#000000" points="1130,-472.5 1130,-502.5 1346,-502.5 1346,-472.5 1130,-472.5"/>
<text text-anchor="start" x="1137" y="-483.9" font-family="Arial" font-size="14.00" fill="#000000">entrance_year </text>
<text text-anchor="start" x="1230.3632" y="-483.9" font-family="Arial" font-size="14.00" fill="#666666">[int]</text>
<polygon fill="none" stroke="#000000" points="1130,-442.5 1130,-472.5 1346,-472.5 1346,-442.5 1130,-442.5"/>
<text text-anchor="start" x="1137" y="-453.9" font-family="Arial" font-size="14.00" fill="#000000">disabled_flg </text>
<text text-anchor="start" x="1215.5792" y="-453.9" font-family="Arial" font-size="14.00" fill="#666666">[tinyint(1)]</text>
<polygon fill="none" stroke="#000000" points="1130,-412.5 1130,-442.5 1346,-442.5 1346,-412.5 1130,-412.5"/>
<text text-anchor="start" x="1137" y="-423.9" font-family="Arial" font-size="14.00" fill="#000000">created_at </text>
<text text-anchor="start" x="1207.028" y="-423.9" font-family="Arial" font-size="14.00" fill="#666666">[datetime(6)]</text>
<polygon fill="none" stroke="#000000" points="1130,-382.5 1130,-412.5 1346,-412.5 1346,-382.5 1130,-382.5"/>
<text text-anchor="start" x="1137" y="-393.9" font-family="Arial" font-size="14.00" fill="#000000">updated_at </text>
<text text-anchor="start" x="1210.9326" y="-393.9" font-family="Arial" font-size="14.00" fill="#666666">[datetime(6)]</text>
<polygon fill="none" stroke="#000000" stroke-width="3" points="1128.5,-381.5 1128.5,-659.5 1347.5,-659.5 1347.5,-381.5 1128.5,-381.5"/>
</g>
<!-- customers -->
<g id="node8" class="node">
<title>customers</title>
<polygon fill="#efefef" stroke="transparent" points="1093,-222.5 1093,-257.5 1382,-257.5 1382,-222.5 1093,-222.5"/>
<polygon fill="none" stroke="#000000" points="1093,-222.5 1093,-257.5 1382,-257.5 1382,-222.5 1093,-222.5"/>
<text text-anchor="start" x="1132.2134" y="-235.3" font-family="Arial Bold" font-size="18.00" fill="#000000">customers</text>
<text text-anchor="start" x="1215.2186" y="-235.3" font-family="Arial" font-size="14.00" fill="#000000">    </text>
<text text-anchor="start" x="1249.4234" y="-235.3" font-family="Arial" font-size="14.00" fill="#666666">[BASE TABLE]</text>
<polygon fill="none" stroke="#000000" points="1093,-192.5 1093,-222.5 1382,-222.5 1382,-192.5 1093,-192.5"/>
<text text-anchor="start" x="1100" y="-203.9" font-family="Arial" font-size="14.00" fill="#000000">id    </text>
<text text-anchor="start" x="1145.094" y="-203.9" font-family="Arial" font-size="14.00" fill="#666666">[bigint]</text>
<polygon fill="none" stroke="#000000" points="1093,-162.5 1093,-192.5 1382,-192.5 1382,-162.5 1093,-162.5"/>
<text text-anchor="start" x="1100" y="-173.9" font-family="Arial" font-size="14.00" fill="#000000">name    </text>
<text text-anchor="start" x="1169.2132" y="-173.9" font-family="Arial" font-size="14.00" fill="#666666">[varchar(255)]</text>
<polygon fill="none" stroke="#000000" points="1093,-132.5 1093,-162.5 1382,-162.5 1382,-132.5 1093,-132.5"/>
<text text-anchor="start" x="1100" y="-143.9" font-family="Arial" font-size="14.00" fill="#000000">enterprise_system_id    </text>
<text text-anchor="start" x="1267.2244" y="-143.9" font-family="Arial" font-size="14.00" fill="#666666">[varchar(255)]</text>
<polygon fill="none" stroke="#000000" points="1093,-102.5 1093,-132.5 1382,-132.5 1382,-102.5 1093,-102.5"/>
<text text-anchor="start" x="1100" y="-113.9" font-family="Arial" font-size="14.00" fill="#000000">created_at    </text>
<text text-anchor="start" x="1200.3422" y="-113.9" font-family="Arial" font-size="14.00" fill="#666666">[datetime(6)]</text>
<polygon fill="none" stroke="#000000" points="1093,-72.5 1093,-102.5 1382,-102.5 1382,-72.5 1093,-72.5"/>
<text text-anchor="start" x="1100" y="-83.9" font-family="Arial" font-size="14.00" fill="#000000">updated_at    </text>
<text text-anchor="start" x="1204.2468" y="-83.9" font-family="Arial" font-size="14.00" fill="#666666">[datetime(6)]</text>
<polygon fill="none" stroke="#000000" points="1093,-42.5 1093,-72.5 1382,-72.5 1382,-42.5 1093,-42.5"/>
<text text-anchor="start" x="1099.8317" y="-53.9" font-family="Arial" font-size="14.00" fill="#000000">reserve_welcome_mail_at    </text>
<text text-anchor="start" x="1296.6045" y="-53.9" font-family="Arial" font-size="14.00" fill="#666666">[datetime(6)]</text>
</g>
<!-- freshmen&#45;&gt;customers -->
<g id="edge7" class="edge">
<title>freshmen:customer_id&#45;&gt;customers:id</title>
<path fill="none" stroke="#000000" d="M1119.8242,-576.9804C1025.5951,-566.9787 1062.2916,-415.0685 1130,-337 1204.1276,-251.5301 1307.8724,-386.4699 1382,-301 1409.2273,-269.6067 1423.5556,-207.5 1382,-207.5"/>
<polygon fill="#000000" stroke="#000000" points="1120.013,-576.9899 1129.7705,-581.9941 1125.0065,-577.245 1130,-577.5 1130,-577.5 1130,-577.5 1125.0065,-577.245 1130.2295,-573.0059 1120.013,-576.9899 1120.013,-576.9899"/>
<text text-anchor="start" x="854.278" y="-587.5" font-family="Arial" font-size="10.00" fill="#000000">FOREIGN KEY (customer_id) REFERENCES customers (id)</text>
</g>
<!-- enquete_deliveries -->
<g id="node2" class="node">
<title>enquete_deliveries</title>
<polygon fill="#efefef" stroke="transparent" points="43,-1022.5 43,-1057.5 335,-1057.5 335,-1022.5 43,-1022.5"/>
<polygon fill="none" stroke="#000000" points="43,-1022.5 43,-1057.5 335,-1057.5 335,-1022.5 43,-1022.5"/>
<text text-anchor="start" x="49.6934" y="-1035.3" font-family="Arial Bold" font-size="18.00" fill="#000000">enquete_deliveries</text>
<text text-anchor="start" x="200.7386" y="-1035.3" font-family="Arial" font-size="14.00" fill="#000000">    </text>
<text text-anchor="start" x="234.9434" y="-1035.3" font-family="Arial" font-size="14.00" fill="#666666">[BASE TABLE]</text>
<polygon fill="none" stroke="#000000" points="43,-992.5 43,-1022.5 335,-1022.5 335,-992.5 43,-992.5"/>
<text text-anchor="start" x="50" y="-1003.9" font-family="Arial" font-size="14.00" fill="#000000">id    </text>
<text text-anchor="start" x="95.094" y="-1003.9" font-family="Arial" font-size="14.00" fill="#666666">[bigint]</text>
<polygon fill="none" stroke="#000000" points="43,-962.5 43,-992.5 335,-992.5 335,-962.5 43,-962.5"/>
<text text-anchor="start" x="50" y="-973.9" font-family="Arial" font-size="14.00" fill="#000000">send_date    </text>
<text text-anchor="start" x="149.5736" y="-973.9" font-family="Arial" font-size="14.00" fill="#666666">[date]</text>
<polygon fill="none" stroke="#000000" points="43,-932.5 43,-962.5 335,-962.5 335,-932.5 43,-932.5"/>
<text text-anchor="start" x="50" y="-943.9" font-family="Arial" font-size="14.00" fill="#000000">created_at    </text>
<text text-anchor="start" x="150.3422" y="-943.9" font-family="Arial" font-size="14.00" fill="#666666">[datetime(6)]</text>
<polygon fill="none" stroke="#000000" points="43,-902.5 43,-932.5 335,-932.5 335,-902.5 43,-902.5"/>
<text text-anchor="start" x="50" y="-913.9" font-family="Arial" font-size="14.00" fill="#000000">updated_at    </text>
<text text-anchor="start" x="154.2468" y="-913.9" font-family="Arial" font-size="14.00" fill="#666666">[datetime(6)]</text>
<polygon fill="none" stroke="#000000" points="43,-872.5 43,-902.5 335,-902.5 335,-872.5 43,-872.5"/>
<text text-anchor="start" x="50" y="-883.9" font-family="Arial" font-size="14.00" fill="#000000">send_flg    </text>
<text text-anchor="start" x="137.115" y="-883.9" font-family="Arial" font-size="14.00" fill="#666666">[tinyint(1)]</text>
<polygon fill="none" stroke="#000000" points="43,-842.5 43,-872.5 335,-872.5 335,-842.5 43,-842.5"/>
<text text-anchor="start" x="50" y="-853.9" font-family="Arial" font-size="14.00" fill="#000000">close_flg    </text>
<text text-anchor="start" x="139.439" y="-853.9" font-family="Arial" font-size="14.00" fill="#666666">[tinyint(1)]</text>
<polygon fill="none" stroke="#000000" points="43,-812.5 43,-842.5 335,-842.5 335,-812.5 43,-812.5"/>
<text text-anchor="start" x="50" y="-823.9" font-family="Arial" font-size="14.00" fill="#000000">freshman_id    </text>
<text text-anchor="start" x="161.2188" y="-823.9" font-family="Arial" font-size="14.00" fill="#666666">[bigint]</text>
</g>
<!-- enquete_deliveries&#45;&gt;freshmen -->
<g id="edge1" class="edge">
<title>enquete_deliveries:freshman_id&#45;&gt;freshmen:id</title>
<path fill="none" stroke="#000000" d="M345.0773,-826.1939C375.5068,-817.1525 353.0018,-763.5366 387,-740 524.8959,-644.5361 962.284,-607.5 1130,-607.5"/>
<polygon fill="#000000" stroke="#000000" points="344.9171,-826.2146 334.4216,-823.0373 339.9585,-826.8573 335,-827.5 335,-827.5 335,-827.5 339.9585,-826.8573 335.5784,-831.9627 344.9171,-826.2146 344.9171,-826.2146"/>
<text text-anchor="start" x="202.719" y="-811.5" font-family="Arial" font-size="10.00" fill="#000000">FOREIGN KEY (freshman_id) REFERENCES freshmen (id)</text>
</g>
<!-- episode_deliveries -->
<g id="node3" class="node">
<title>episode_deliveries</title>
<polygon fill="#efefef" stroke="transparent" points="439,-1007.5 439,-1042.5 729,-1042.5 729,-1007.5 439,-1007.5"/>
<polygon fill="none" stroke="#000000" points="439,-1007.5 439,-1042.5 729,-1042.5 729,-1007.5 439,-1007.5"/>
<text text-anchor="start" x="445.7005" y="-1020.3" font-family="Arial Bold" font-size="18.00" fill="#000000">episode_deliveries</text>
<text text-anchor="start" x="594.7315" y="-1020.3" font-family="Arial" font-size="14.00" fill="#000000">    </text>
<text text-anchor="start" x="628.9363" y="-1020.3" font-family="Arial" font-size="14.00" fill="#666666">[BASE TABLE]</text>
<polygon fill="none" stroke="#000000" points="439,-977.5 439,-1007.5 729,-1007.5 729,-977.5 439,-977.5"/>
<text text-anchor="start" x="446" y="-988.9" font-family="Arial" font-size="14.00" fill="#000000">id    </text>
<text text-anchor="start" x="491.094" y="-988.9" font-family="Arial" font-size="14.00" fill="#666666">[bigint]</text>
<polygon fill="none" stroke="#000000" points="439,-947.5 439,-977.5 729,-977.5 729,-947.5 439,-947.5"/>
<text text-anchor="start" x="446" y="-958.9" font-family="Arial" font-size="14.00" fill="#000000">freshman_id    </text>
<text text-anchor="start" x="557.2188" y="-958.9" font-family="Arial" font-size="14.00" fill="#666666">[bigint]</text>
<polygon fill="none" stroke="#000000" points="439,-917.5 439,-947.5 729,-947.5 729,-917.5 439,-917.5"/>
<text text-anchor="start" x="446" y="-928.9" font-family="Arial" font-size="14.00" fill="#000000">action_id    </text>
<text text-anchor="start" x="536.2216" y="-928.9" font-family="Arial" font-size="14.00" fill="#666666">[bigint]</text>
<polygon fill="none" stroke="#000000" points="439,-887.5 439,-917.5 729,-917.5 729,-887.5 439,-887.5"/>
<text text-anchor="start" x="446" y="-898.9" font-family="Arial" font-size="14.00" fill="#000000">send_date    </text>
<text text-anchor="start" x="545.5736" y="-898.9" font-family="Arial" font-size="14.00" fill="#666666">[date]</text>
<polygon fill="none" stroke="#000000" points="439,-857.5 439,-887.5 729,-887.5 729,-857.5 439,-857.5"/>
<text text-anchor="start" x="446" y="-868.9" font-family="Arial" font-size="14.00" fill="#000000">created_at    </text>
<text text-anchor="start" x="546.3422" y="-868.9" font-family="Arial" font-size="14.00" fill="#666666">[datetime(6)]</text>
<polygon fill="none" stroke="#000000" points="439,-827.5 439,-857.5 729,-857.5 729,-827.5 439,-827.5"/>
<text text-anchor="start" x="446" y="-838.9" font-family="Arial" font-size="14.00" fill="#000000">updated_at    </text>
<text text-anchor="start" x="550.2468" y="-838.9" font-family="Arial" font-size="14.00" fill="#666666">[datetime(6)]</text>
</g>
<!-- episode_deliveries&#45;&gt;freshmen -->
<g id="edge2" class="edge">
<title>episode_deliveries:freshman_id&#45;&gt;freshmen:id</title>
<path fill="none" stroke="#000000" d="M739.1734,-961.9381C822.3796,-952.0352 716.5473,-813.6693 781,-740 890.2473,-615.1305 964.0863,-607.5 1130,-607.5"/>
<polygon fill="#000000" stroke="#000000" points="738.9848,-961.9484 728.7518,-958.0068 733.9924,-962.2242 729,-962.5 729,-962.5 729,-962.5 733.9924,-962.2242 729.2482,-966.9932 738.9848,-961.9484 738.9848,-961.9484"/>
<text text-anchor="start" x="736.219" y="-972.5" font-family="Arial" font-size="10.00" fill="#000000">FOREIGN KEY (freshman_id) REFERENCES freshmen (id)</text>
</g>
<!-- file_upload_request_histories -->
<g id="node4" class="node">
<title>file_upload_request_histories</title>
<polygon fill="#efefef" stroke="transparent" points="834,-992.5 834,-1027.5 1209,-1027.5 1209,-992.5 834,-992.5"/>
<polygon fill="none" stroke="#000000" points="834,-992.5 834,-1027.5 1209,-1027.5 1209,-992.5 834,-992.5"/>
<text text-anchor="start" x="840.6854" y="-1005.3" font-family="Arial Bold" font-size="18.00" fill="#000000">file_upload_request_histories</text>
<text text-anchor="start" x="1074.7466" y="-1005.3" font-family="Arial" font-size="14.00" fill="#000000">    </text>
<text text-anchor="start" x="1108.9514" y="-1005.3" font-family="Arial" font-size="14.00" fill="#666666">[BASE TABLE]</text>
<polygon fill="none" stroke="#000000" points="834,-962.5 834,-992.5 1209,-992.5 1209,-962.5 834,-962.5"/>
<text text-anchor="start" x="841" y="-973.9" font-family="Arial" font-size="14.00" fill="#000000">id    </text>
<text text-anchor="start" x="886.094" y="-973.9" font-family="Arial" font-size="14.00" fill="#666666">[bigint]</text>
<polygon fill="none" stroke="#000000" points="834,-932.5 834,-962.5 1209,-962.5 1209,-932.5 834,-932.5"/>
<text text-anchor="start" x="841" y="-943.9" font-family="Arial" font-size="14.00" fill="#000000">file_upload_request_id    </text>
<text text-anchor="start" x="1016.0294" y="-943.9" font-family="Arial" font-size="14.00" fill="#666666">[bigint]</text>
<polygon fill="none" stroke="#000000" points="834,-902.5 834,-932.5 1209,-932.5 1209,-902.5 834,-902.5"/>
<text text-anchor="start" x="841" y="-913.9" font-family="Arial" font-size="14.00" fill="#000000">created_at    </text>
<text text-anchor="start" x="941.3422" y="-913.9" font-family="Arial" font-size="14.00" fill="#666666">[datetime(6)]</text>
<polygon fill="none" stroke="#000000" points="834,-872.5 834,-902.5 1209,-902.5 1209,-872.5 834,-872.5"/>
<text text-anchor="start" x="841" y="-883.9" font-family="Arial" font-size="14.00" fill="#000000">updated_at    </text>
<text text-anchor="start" x="945.2468" y="-883.9" font-family="Arial" font-size="14.00" fill="#666666">[datetime(6)]</text>
<polygon fill="none" stroke="#000000" points="834,-842.5 834,-872.5 1209,-872.5 1209,-842.5 834,-842.5"/>
<text text-anchor="start" x="841" y="-853.9" font-family="Arial" font-size="14.00" fill="#000000">freshman_id    </text>
<text text-anchor="start" x="952.2188" y="-853.9" font-family="Arial" font-size="14.00" fill="#666666">[bigint]</text>
</g>
<!-- file_upload_request_histories&#45;&gt;freshmen -->
<g id="edge3" class="edge">
<title>file_upload_request_histories:freshman_id&#45;&gt;freshmen:id</title>
<path fill="none" stroke="#000000" d="M1218.6698,-854.7536C1228.9812,-846.2809 1216.143,-819.9213 1209,-800 1190.35,-747.9864 1148.65,-756.0136 1130,-704 1115.5242,-663.6279 1087.1111,-607.5 1130,-607.5"/>
<polygon fill="#000000" stroke="#000000" points="1218.6195,-854.7678 1207.7705,-853.1712 1213.8098,-856.1339 1209,-857.5 1209,-857.5 1209,-857.5 1213.8098,-856.1339 1210.2295,-861.8288 1218.6195,-854.7678 1218.6195,-854.7678"/>
<text text-anchor="start" x="1216.219" y="-867.5" font-family="Arial" font-size="10.00" fill="#000000">FOREIGN KEY (freshman_id) REFERENCES freshmen (id)</text>
</g>
<!-- freshman_deletes -->
<g id="node5" class="node">
<title>freshman_deletes</title>
<polygon fill="#efefef" stroke="transparent" points="1313,-977.5 1313,-1012.5 1597,-1012.5 1597,-977.5 1313,-977.5"/>
<polygon fill="none" stroke="#000000" points="1313,-977.5 1313,-1012.5 1597,-1012.5 1597,-977.5 1313,-977.5"/>
<text text-anchor="start" x="1319.6966" y="-990.3" font-family="Arial Bold" font-size="18.00" fill="#000000">freshman_deletes</text>
<text text-anchor="start" x="1462.7354" y="-990.3" font-family="Arial" font-size="14.00" fill="#000000">    </text>
<text text-anchor="start" x="1496.9402" y="-990.3" font-family="Arial" font-size="14.00" fill="#666666">[BASE TABLE]</text>
<polygon fill="none" stroke="#000000" points="1313,-947.5 1313,-977.5 1597,-977.5 1597,-947.5 1313,-947.5"/>
<text text-anchor="start" x="1320" y="-958.9" font-family="Arial" font-size="14.00" fill="#000000">id    </text>
<text text-anchor="start" x="1365.094" y="-958.9" font-family="Arial" font-size="14.00" fill="#666666">[bigint]</text>
<polygon fill="none" stroke="#000000" points="1313,-917.5 1313,-947.5 1597,-947.5 1597,-917.5 1313,-917.5"/>
<text text-anchor="start" x="1320" y="-928.9" font-family="Arial" font-size="14.00" fill="#000000">freshman_id    </text>
<text text-anchor="start" x="1431.2188" y="-928.9" font-family="Arial" font-size="14.00" fill="#666666">[bigint]</text>
<polygon fill="none" stroke="#000000" points="1313,-887.5 1313,-917.5 1597,-917.5 1597,-887.5 1313,-887.5"/>
<text text-anchor="start" x="1320" y="-898.9" font-family="Arial" font-size="14.00" fill="#000000">created_at    </text>
<text text-anchor="start" x="1420.3422" y="-898.9" font-family="Arial" font-size="14.00" fill="#666666">[datetime(6)]</text>
<polygon fill="none" stroke="#000000" points="1313,-857.5 1313,-887.5 1597,-887.5 1597,-857.5 1313,-857.5"/>
<text text-anchor="start" x="1320" y="-868.9" font-family="Arial" font-size="14.00" fill="#000000">updated_at    </text>
<text text-anchor="start" x="1424.2468" y="-868.9" font-family="Arial" font-size="14.00" fill="#666666">[datetime(6)]</text>
</g>
<!-- freshman_deletes&#45;&gt;freshmen -->
<g id="edge4" class="edge">
<title>freshman_deletes:freshman_id&#45;&gt;freshmen:id</title>
<path fill="none" stroke="#000000" d="M1302.8317,-931.8821C1183.9321,-916.2056 1487.5008,-607.5 1346,-607.5"/>
<polygon fill="#000000" stroke="#000000" points="1303.0184,-931.8933 1312.727,-936.9917 1308.0092,-932.1967 1313,-932.5 1313,-932.5 1313,-932.5 1308.0092,-932.1967 1313.273,-928.0083 1303.0184,-931.8933 1303.0184,-931.8933"/>
<text text-anchor="start" x="1320.219" y="-942.5" font-family="Arial" font-size="10.00" fill="#000000">FOREIGN KEY (freshman_id) REFERENCES freshmen (id)</text>
</g>
<!-- learning_video_watch_logs -->
<g id="node6" class="node">
<title>learning_video_watch_logs</title>
<polygon fill="#efefef" stroke="transparent" points="1701,-1052.5 1701,-1087.5 2059,-1087.5 2059,-1052.5 1701,-1052.5"/>
<polygon fill="none" stroke="#000000" points="1701,-1052.5 1701,-1087.5 2059,-1087.5 2059,-1052.5 1701,-1052.5"/>
<text text-anchor="start" x="1707.6868" y="-1065.3" font-family="Arial Bold" font-size="18.00" fill="#000000">learning_video_watch_logs</text>
<text text-anchor="start" x="1924.7452" y="-1065.3" font-family="Arial" font-size="14.00" fill="#000000">    </text>
<text text-anchor="start" x="1958.95" y="-1065.3" font-family="Arial" font-size="14.00" fill="#666666">[BASE TABLE]</text>
<polygon fill="none" stroke="#000000" points="1701,-1022.5 1701,-1052.5 2059,-1052.5 2059,-1022.5 1701,-1022.5"/>
<text text-anchor="start" x="1708" y="-1033.9" font-family="Arial" font-size="14.00" fill="#000000">id    </text>
<text text-anchor="start" x="1753.094" y="-1033.9" font-family="Arial" font-size="14.00" fill="#666666">[bigint]</text>
<polygon fill="none" stroke="#000000" points="1701,-992.5 1701,-1022.5 2059,-1022.5 2059,-992.5 1701,-992.5"/>
<text text-anchor="start" x="1708" y="-1003.9" font-family="Arial" font-size="14.00" fill="#000000">freshman_id    </text>
<text text-anchor="start" x="1819.2188" y="-1003.9" font-family="Arial" font-size="14.00" fill="#666666">[bigint]</text>
<polygon fill="none" stroke="#000000" points="1701,-962.5 1701,-992.5 2059,-992.5 2059,-962.5 1701,-962.5"/>
<text text-anchor="start" x="1708" y="-973.9" font-family="Arial" font-size="14.00" fill="#000000">learning_video_id    </text>
<text text-anchor="start" x="1851.9004" y="-973.9" font-family="Arial" font-size="14.00" fill="#666666">[bigint]</text>
<polygon fill="none" stroke="#000000" points="1701,-932.5 1701,-962.5 2059,-962.5 2059,-932.5 1701,-932.5"/>
<text text-anchor="start" x="1708" y="-943.9" font-family="Arial" font-size="14.00" fill="#000000">start_at    </text>
<text text-anchor="start" x="1788.885" y="-943.9" font-family="Arial" font-size="14.00" fill="#666666">[datetime(6)]</text>
<polygon fill="none" stroke="#000000" points="1701,-902.5 1701,-932.5 2059,-932.5 2059,-902.5 1701,-902.5"/>
<text text-anchor="start" x="1708" y="-913.9" font-family="Arial" font-size="14.00" fill="#000000">end_at    </text>
<text text-anchor="start" x="1785.0084" y="-913.9" font-family="Arial" font-size="14.00" fill="#666666">[datetime(6)]</text>
<polygon fill="none" stroke="#000000" points="1701,-872.5 1701,-902.5 2059,-902.5 2059,-872.5 1701,-872.5"/>
<text text-anchor="start" x="1708" y="-883.9" font-family="Arial" font-size="14.00" fill="#000000">end_point_arrival_at    </text>
<text text-anchor="start" x="1869.0182" y="-883.9" font-family="Arial" font-size="14.00" fill="#666666">[datetime(6)]</text>
<polygon fill="none" stroke="#000000" points="1701,-842.5 1701,-872.5 2059,-872.5 2059,-842.5 1701,-842.5"/>
<text text-anchor="start" x="1708" y="-853.9" font-family="Arial" font-size="14.00" fill="#000000">total_duration    </text>
<text text-anchor="start" x="1827.0112" y="-853.9" font-family="Arial" font-size="14.00" fill="#666666">[int]</text>
<polygon fill="none" stroke="#000000" points="1701,-812.5 1701,-842.5 2059,-842.5 2059,-812.5 1701,-812.5"/>
<text text-anchor="start" x="1708" y="-823.9" font-family="Arial" font-size="14.00" fill="#000000">created_at    </text>
<text text-anchor="start" x="1808.3422" y="-823.9" font-family="Arial" font-size="14.00" fill="#666666">[datetime(6)]</text>
<polygon fill="none" stroke="#000000" points="1701,-782.5 1701,-812.5 2059,-812.5 2059,-782.5 1701,-782.5"/>
<text text-anchor="start" x="1708" y="-793.9" font-family="Arial" font-size="14.00" fill="#000000">updated_at    </text>
<text text-anchor="start" x="1812.2468" y="-793.9" font-family="Arial" font-size="14.00" fill="#666666">[datetime(6)]</text>
</g>
<!-- learning_video_watch_logs&#45;&gt;freshmen -->
<g id="edge5" class="edge">
<title>learning_video_watch_logs:freshman_id&#45;&gt;freshmen:id</title>
<path fill="none" stroke="#000000" d="M1690.718,-1007.0314C1588.4522,-997.0993 1722.4184,-831.6719 1649,-740 1557.1209,-625.2776 1492.9796,-607.5 1346,-607.5"/>
<polygon fill="#000000" stroke="#000000" points="1691.0104,-1007.0446 1700.7951,-1011.9953 1696.0052,-1007.2723 1701,-1007.5 1701,-1007.5 1701,-1007.5 1696.0052,-1007.2723 1701.2049,-1003.0047 1691.0104,-1007.0446 1691.0104,-1007.0446"/>
<text text-anchor="start" x="1708.219" y="-1017.5" font-family="Arial" font-size="10.00" fill="#000000">FOREIGN KEY (freshman_id) REFERENCES freshmen (id)</text>
</g>
<!-- spi_results -->
<g id="node7" class="node">
<title>spi_results</title>
<polygon fill="#efefef" stroke="transparent" points="2164,-1007.5 2164,-1042.5 2433,-1042.5 2433,-1007.5 2164,-1007.5"/>
<polygon fill="none" stroke="#000000" points="2164,-1007.5 2164,-1042.5 2433,-1042.5 2433,-1007.5 2164,-1007.5"/>
<text text-anchor="start" x="2191.7122" y="-1020.3" font-family="Arial Bold" font-size="18.00" fill="#000000">spi_results</text>
<text text-anchor="start" x="2277.7198" y="-1020.3" font-family="Arial" font-size="14.00" fill="#000000">    </text>
<text text-anchor="start" x="2311.9246" y="-1020.3" font-family="Arial" font-size="14.00" fill="#666666">[BASE TABLE]</text>
<polygon fill="none" stroke="#000000" points="2164,-977.5 2164,-1007.5 2433,-1007.5 2433,-977.5 2164,-977.5"/>
<text text-anchor="start" x="2171" y="-988.9" font-family="Arial" font-size="14.00" fill="#000000">id    </text>
<text text-anchor="start" x="2216.094" y="-988.9" font-family="Arial" font-size="14.00" fill="#666666">[bigint]</text>
<polygon fill="none" stroke="#000000" points="2164,-947.5 2164,-977.5 2433,-977.5 2433,-947.5 2164,-947.5"/>
<text text-anchor="start" x="2171" y="-958.9" font-family="Arial" font-size="14.00" fill="#000000">personality_type_group_id    </text>
<text text-anchor="start" x="2369.366" y="-958.9" font-family="Arial" font-size="14.00" fill="#666666">[bigint]</text>
<polygon fill="none" stroke="#000000" points="2164,-917.5 2164,-947.5 2433,-947.5 2433,-917.5 2164,-917.5"/>
<text text-anchor="start" x="2170.9229" y="-928.9" font-family="Arial" font-size="14.00" fill="#000000">management_style_coordinates    </text>
<text text-anchor="start" x="2403.5161" y="-928.9" font-family="Arial" font-size="14.00" fill="#666666">[int]</text>
<polygon fill="none" stroke="#000000" points="2164,-887.5 2164,-917.5 2433,-917.5 2433,-887.5 2164,-887.5"/>
<text text-anchor="start" x="2171" y="-898.9" font-family="Arial" font-size="14.00" fill="#000000">created_at    </text>
<text text-anchor="start" x="2271.3422" y="-898.9" font-family="Arial" font-size="14.00" fill="#666666">[datetime(6)]</text>
<polygon fill="none" stroke="#000000" points="2164,-857.5 2164,-887.5 2433,-887.5 2433,-857.5 2164,-857.5"/>
<text text-anchor="start" x="2171" y="-868.9" font-family="Arial" font-size="14.00" fill="#000000">updated_at    </text>
<text text-anchor="start" x="2275.2468" y="-868.9" font-family="Arial" font-size="14.00" fill="#666666">[datetime(6)]</text>
<polygon fill="none" stroke="#000000" points="2164,-827.5 2164,-857.5 2433,-857.5 2433,-827.5 2164,-827.5"/>
<text text-anchor="start" x="2171" y="-838.9" font-family="Arial" font-size="14.00" fill="#000000">freshman_id    </text>
<text text-anchor="start" x="2282.2188" y="-838.9" font-family="Arial" font-size="14.00" fill="#666666">[bigint]</text>
</g>
<!-- spi_results&#45;&gt;freshmen -->
<g id="edge6" class="edge">
<title>spi_results:freshman_id&#45;&gt;freshmen:id</title>
<path fill="none" stroke="#000000" d="M2154.0134,-841.3538C2118.1538,-832.0163 2149.293,-768.0694 2111,-740 1971.849,-638.0001 1518.5311,-607.5 1346,-607.5"/>
<polygon fill="#000000" stroke="#000000" points="2154.0652,-841.3597 2163.4869,-846.9707 2159.0326,-841.9298 2164,-842.5 2164,-842.5 2164,-842.5 2159.0326,-841.9298 2164.5131,-838.0293 2154.0652,-841.3597 2154.0652,-841.3597"/>
<text text-anchor="start" x="1892.219" y="-852.5" font-family="Arial" font-size="10.00" fill="#000000">FOREIGN KEY (freshman_id) REFERENCES freshmen (id)</text>
</g>
</g>
</svg>
