<?xml version="1.0" encoding="UTF-8" standalone="no"?>
<!DOCTYPE svg PUBLIC "-//W3C//DTD SVG 1.1//EN"
 "http://www.w3.org/Graphics/SVG/1.1/DTD/svg11.dtd">
<!-- Generated by graphviz version 2.40.1 (20161225.0304)
 -->
<!-- Title: hr_admins Pages: 1 -->
<svg width="591pt" height="622pt"
 viewBox="0.00 0.00 590.50 622.00" xmlns="http://www.w3.org/2000/svg" xmlns:xlink="http://www.w3.org/1999/xlink">
<g id="graph0" class="graph" transform="scale(1 1) rotate(0) translate(4 618)">
<title>hr_admins</title>
<polygon fill="#ffffff" stroke="transparent" points="-4,4 -4,-618 586.5,-618 586.5,4 -4,4"/>
<!-- hr_admins -->
<g id="node1" class="node">
<title>hr_admins</title>
<polygon fill="#efefef" stroke="transparent" points="283,-532.5 283,-567.5 508,-567.5 508,-532.5 283,-532.5"/>
<polygon fill="none" stroke="#000000" points="283,-532.5 283,-567.5 508,-567.5 508,-532.5 283,-532.5"/>
<text text-anchor="start" x="289.7112" y="-545.3" font-family="Arial Bold" font-size="18.00" fill="#000000">hr_admins</text>
<text text-anchor="start" x="373.7208" y="-545.3" font-family="Arial" font-size="14.00" fill="#000000">    </text>
<text text-anchor="start" x="407.9256" y="-545.3" font-family="Arial" font-size="14.00" fill="#666666">[BASE TABLE]</text>
<polygon fill="none" stroke="#000000" points="283,-502.5 283,-532.5 508,-532.5 508,-502.5 283,-502.5"/>
<text text-anchor="start" x="290" y="-513.9" font-family="Arial" font-size="14.00" fill="#000000">id </text>
<text text-anchor="start" x="304.7798" y="-513.9" font-family="Arial" font-size="14.00" fill="#666666">[bigint]</text>
<polygon fill="none" stroke="#000000" points="283,-472.5 283,-502.5 508,-502.5 508,-472.5 283,-472.5"/>
<text text-anchor="start" x="290" y="-483.9" font-family="Arial" font-size="14.00" fill="#000000">customer_id </text>
<text text-anchor="start" x="370.122" y="-483.9" font-family="Arial" font-size="14.00" fill="#666666">[bigint]</text>
<polygon fill="none" stroke="#000000" points="283,-442.5 283,-472.5 508,-472.5 508,-442.5 283,-442.5"/>
<text text-anchor="start" x="290" y="-453.9" font-family="Arial" font-size="14.00" fill="#000000">name_kanji </text>
<text text-anchor="start" x="365.46" y="-453.9" font-family="Arial" font-size="14.00" fill="#666666">[varchar(255)]</text>
<polygon fill="none" stroke="#000000" points="283,-412.5 283,-442.5 508,-442.5 508,-412.5 283,-412.5"/>
<text text-anchor="start" x="290" y="-423.9" font-family="Arial" font-size="14.00" fill="#000000">created_at </text>
<text text-anchor="start" x="360.028" y="-423.9" font-family="Arial" font-size="14.00" fill="#666666">[datetime(6)]</text>
<polygon fill="none" stroke="#000000" points="283,-382.5 283,-412.5 508,-412.5 508,-382.5 283,-382.5"/>
<text text-anchor="start" x="290" y="-393.9" font-family="Arial" font-size="14.00" fill="#000000">updated_at </text>
<text text-anchor="start" x="363.9326" y="-393.9" font-family="Arial" font-size="14.00" fill="#666666">[datetime(6)]</text>
<polygon fill="none" stroke="#000000" stroke-width="3" points="281,-381.5 281,-569.5 509,-569.5 509,-381.5 281,-381.5"/>
</g>
<!-- customers -->
<g id="node2" class="node">
<title>customers</title>
<polygon fill="#efefef" stroke="transparent" points="251,-222.5 251,-257.5 540,-257.5 540,-222.5 251,-222.5"/>
<polygon fill="none" stroke="#000000" points="251,-222.5 251,-257.5 540,-257.5 540,-222.5 251,-222.5"/>
<text text-anchor="start" x="290.2134" y="-235.3" font-family="Arial Bold" font-size="18.00" fill="#000000">customers</text>
<text text-anchor="start" x="373.2186" y="-235.3" font-family="Arial" font-size="14.00" fill="#000000">    </text>
<text text-anchor="start" x="407.4234" y="-235.3" font-family="Arial" font-size="14.00" fill="#666666">[BASE TABLE]</text>
<polygon fill="none" stroke="#000000" points="251,-192.5 251,-222.5 540,-222.5 540,-192.5 251,-192.5"/>
<text text-anchor="start" x="258" y="-203.9" font-family="Arial" font-size="14.00" fill="#000000">id    </text>
<text text-anchor="start" x="303.094" y="-203.9" font-family="Arial" font-size="14.00" fill="#666666">[bigint]</text>
<polygon fill="none" stroke="#000000" points="251,-162.5 251,-192.5 540,-192.5 540,-162.5 251,-162.5"/>
<text text-anchor="start" x="258" y="-173.9" font-family="Arial" font-size="14.00" fill="#000000">name    </text>
<text text-anchor="start" x="327.2132" y="-173.9" font-family="Arial" font-size="14.00" fill="#666666">[varchar(255)]</text>
<polygon fill="none" stroke="#000000" points="251,-132.5 251,-162.5 540,-162.5 540,-132.5 251,-132.5"/>
<text text-anchor="start" x="258" y="-143.9" font-family="Arial" font-size="14.00" fill="#000000">enterprise_system_id    </text>
<text text-anchor="start" x="425.2244" y="-143.9" font-family="Arial" font-size="14.00" fill="#666666">[varchar(255)]</text>
<polygon fill="none" stroke="#000000" points="251,-102.5 251,-132.5 540,-132.5 540,-102.5 251,-102.5"/>
<text text-anchor="start" x="258" y="-113.9" font-family="Arial" font-size="14.00" fill="#000000">created_at    </text>
<text text-anchor="start" x="358.3422" y="-113.9" font-family="Arial" font-size="14.00" fill="#666666">[datetime(6)]</text>
<polygon fill="none" stroke="#000000" points="251,-72.5 251,-102.5 540,-102.5 540,-72.5 251,-72.5"/>
<text text-anchor="start" x="258" y="-83.9" font-family="Arial" font-size="14.00" fill="#000000">updated_at    </text>
<text text-anchor="start" x="362.2468" y="-83.9" font-family="Arial" font-size="14.00" fill="#666666">[datetime(6)]</text>
<polygon fill="none" stroke="#000000" points="251,-42.5 251,-72.5 540,-72.5 540,-42.5 251,-42.5"/>
<text text-anchor="start" x="257.8317" y="-53.9" font-family="Arial" font-size="14.00" fill="#000000">reserve_welcome_mail_at    </text>
<text text-anchor="start" x="454.6045" y="-53.9" font-family="Arial" font-size="14.00" fill="#666666">[datetime(6)]</text>
</g>
<!-- hr_admins&#45;&gt;customers -->
<g id="edge1" class="edge">
<title>hr_admins:customer_id&#45;&gt;customers:id</title>
<path fill="none" stroke="#000000" d="M273.0105,-485.0794C217.1558,-457.7124 191.7977,-207.5 251,-207.5"/>
<polygon fill="#000000" stroke="#000000" points="273.2813,-485.1449 281.9402,-491.8734 278.1406,-486.3225 283,-487.5 283,-487.5 283,-487.5 278.1406,-486.3225 284.0598,-483.1266 273.2813,-485.1449 273.2813,-485.1449"/>
<text text-anchor="start" x="7.278" y="-497.5" font-family="Arial" font-size="10.00" fill="#000000">FOREIGN KEY (customer_id) REFERENCES customers (id)</text>
</g>
</g>
</svg>
