<?xml version="1.0" encoding="UTF-8" standalone="no"?>
<!DOCTYPE svg PUBLIC "-//W3C//DTD SVG 1.1//EN"
 "http://www.w3.org/Graphics/SVG/1.1/DTD/svg11.dtd">
<!-- Generated by graphviz version 2.40.1 (20161225.0304)
 -->
<!-- Title: learning_video_tags Pages: 1 -->
<svg width="793pt" height="562pt"
 viewBox="0.00 0.00 792.50 562.00" xmlns="http://www.w3.org/2000/svg" xmlns:xlink="http://www.w3.org/1999/xlink">
<g id="graph0" class="graph" transform="scale(1 1) rotate(0) translate(4 558)">
<title>learning_video_tags</title>
<polygon fill="#ffffff" stroke="transparent" points="-4,4 -4,-558 788.5,-558 788.5,4 -4,4"/>
<!-- learning_video_tags -->
<g id="node1" class="node">
<title>learning_video_tags</title>
<polygon fill="#efefef" stroke="transparent" points="78.5,-165.5 78.5,-200.5 380.5,-200.5 380.5,-165.5 78.5,-165.5"/>
<polygon fill="none" stroke="#000000" points="78.5,-165.5 78.5,-200.5 380.5,-200.5 380.5,-165.5 78.5,-165.5"/>
<text text-anchor="start" x="85.1903" y="-178.3" font-family="Arial Bold" font-size="18.00" fill="#000000">learning_video_tags</text>
<text text-anchor="start" x="246.2417" y="-178.3" font-family="Arial" font-size="14.00" fill="#000000">    </text>
<text text-anchor="start" x="280.4465" y="-178.3" font-family="Arial" font-size="14.00" fill="#666666">[BASE TABLE]</text>
<polygon fill="none" stroke="#000000" points="78.5,-135.5 78.5,-165.5 380.5,-165.5 380.5,-135.5 78.5,-135.5"/>
<text text-anchor="start" x="85.5" y="-146.9" font-family="Arial" font-size="14.00" fill="#000000">id </text>
<text text-anchor="start" x="100.2798" y="-146.9" font-family="Arial" font-size="14.00" fill="#666666">[bigint]</text>
<polygon fill="none" stroke="#000000" points="78.5,-105.5 78.5,-135.5 380.5,-135.5 380.5,-105.5 78.5,-105.5"/>
<text text-anchor="start" x="85.5" y="-116.9" font-family="Arial" font-size="14.00" fill="#000000">name </text>
<text text-anchor="start" x="124.399" y="-116.9" font-family="Arial" font-size="14.00" fill="#666666">[varchar(255)]</text>
<polygon fill="none" stroke="#000000" points="78.5,-75.5 78.5,-105.5 380.5,-105.5 380.5,-75.5 78.5,-75.5"/>
<text text-anchor="start" x="85.5" y="-86.9" font-family="Arial" font-size="14.00" fill="#000000">created_at </text>
<text text-anchor="start" x="155.528" y="-86.9" font-family="Arial" font-size="14.00" fill="#666666">[datetime(6)]</text>
<polygon fill="none" stroke="#000000" points="78.5,-45.5 78.5,-75.5 380.5,-75.5 380.5,-45.5 78.5,-45.5"/>
<text text-anchor="start" x="85.5" y="-56.9" font-family="Arial" font-size="14.00" fill="#000000">updated_at </text>
<text text-anchor="start" x="159.4326" y="-56.9" font-family="Arial" font-size="14.00" fill="#666666">[datetime(6)]</text>
<polygon fill="none" stroke="#000000" stroke-width="3" points="77,-44.5 77,-202.5 382,-202.5 382,-44.5 77,-44.5"/>
</g>
<!-- learning_video_tag_relations -->
<g id="node2" class="node">
<title>learning_video_tag_relations</title>
<polygon fill="#efefef" stroke="transparent" points="43.5,-475.5 43.5,-510.5 414.5,-510.5 414.5,-475.5 43.5,-475.5"/>
<polygon fill="none" stroke="#000000" points="43.5,-475.5 43.5,-510.5 414.5,-510.5 414.5,-475.5 43.5,-475.5"/>
<text text-anchor="start" x="50.1834" y="-488.3" font-family="Arial Bold" font-size="18.00" fill="#000000">learning_video_tag_relations</text>
<text text-anchor="start" x="280.2486" y="-488.3" font-family="Arial" font-size="14.00" fill="#000000">    </text>
<text text-anchor="start" x="314.4534" y="-488.3" font-family="Arial" font-size="14.00" fill="#666666">[BASE TABLE]</text>
<polygon fill="none" stroke="#000000" points="43.5,-445.5 43.5,-475.5 414.5,-475.5 414.5,-445.5 43.5,-445.5"/>
<text text-anchor="start" x="50.5" y="-456.9" font-family="Arial" font-size="14.00" fill="#000000">id    </text>
<text text-anchor="start" x="95.594" y="-456.9" font-family="Arial" font-size="14.00" fill="#666666">[bigint]</text>
<polygon fill="none" stroke="#000000" points="43.5,-415.5 43.5,-445.5 414.5,-445.5 414.5,-415.5 43.5,-415.5"/>
<text text-anchor="start" x="50.5" y="-426.9" font-family="Arial" font-size="14.00" fill="#000000">learning_video_id    </text>
<text text-anchor="start" x="194.4004" y="-426.9" font-family="Arial" font-size="14.00" fill="#666666">[bigint]</text>
<polygon fill="none" stroke="#000000" points="43.5,-385.5 43.5,-415.5 414.5,-415.5 414.5,-385.5 43.5,-385.5"/>
<text text-anchor="start" x="50.5" y="-396.9" font-family="Arial" font-size="14.00" fill="#000000">learning_video_tag_id    </text>
<text text-anchor="start" x="221.6388" y="-396.9" font-family="Arial" font-size="14.00" fill="#666666">[bigint]</text>
<polygon fill="none" stroke="#000000" points="43.5,-355.5 43.5,-385.5 414.5,-385.5 414.5,-355.5 43.5,-355.5"/>
<text text-anchor="start" x="50.5" y="-366.9" font-family="Arial" font-size="14.00" fill="#000000">created_at    </text>
<text text-anchor="start" x="150.8422" y="-366.9" font-family="Arial" font-size="14.00" fill="#666666">[datetime(6)]</text>
<polygon fill="none" stroke="#000000" points="43.5,-325.5 43.5,-355.5 414.5,-355.5 414.5,-325.5 43.5,-325.5"/>
<text text-anchor="start" x="50.5" y="-336.9" font-family="Arial" font-size="14.00" fill="#000000">updated_at    </text>
<text text-anchor="start" x="154.7468" y="-336.9" font-family="Arial" font-size="14.00" fill="#666666">[datetime(6)]</text>
</g>
<!-- learning_video_tag_relations&#45;&gt;learning_video_tags -->
<g id="edge1" class="edge">
<title>learning_video_tag_relations:learning_video_tag_id&#45;&gt;learning_video_tags:id</title>
<path fill="none" stroke="#000000" d="M424.5023,-399.3746C464.2,-389.6358 446.9501,-319.1127 414.5,-283 364.3086,-227.1437 128.6914,-302.8563 78.5,-247 49.8339,-215.0984 35.6111,-150.5 78.5,-150.5"/>
<polygon fill="#000000" stroke="#000000" points="424.4373,-399.3818 413.9968,-396.0282 419.4686,-399.9409 414.5,-400.5 414.5,-400.5 414.5,-400.5 419.4686,-399.9409 415.0032,-404.9718 424.4373,-399.3818 424.4373,-399.3818"/>
<text text-anchor="start" x="421.419" y="-410.5" font-family="Arial" font-size="10.00" fill="#000000">FOREIGN KEY (learning_video_tag_id) REFERENCES learning_video_tags (id)</text>
</g>
</g>
</svg>
