<?xml version="1.0" encoding="UTF-8" standalone="no"?>
<!DOCTYPE svg PUBLIC "-//W3C//DTD SVG 1.1//EN"
 "http://www.w3.org/Graphics/SVG/1.1/DTD/svg11.dtd">
<!-- Generated by graphviz version 2.40.1 (20161225.0304)
 -->
<!-- Title: learning_videos Pages: 1 -->
<svg width="1319pt" height="802pt"
 viewBox="0.00 0.00 1319.00 802.00" xmlns="http://www.w3.org/2000/svg" xmlns:xlink="http://www.w3.org/1999/xlink">
<g id="graph0" class="graph" transform="scale(1 1) rotate(0) translate(4 798)">
<title>learning_videos</title>
<polygon fill="#ffffff" stroke="transparent" points="-4,4 -4,-798 1315,-798 1315,4 -4,4"/>
<!-- learning_videos -->
<g id="node1" class="node">
<title>learning_videos</title>
<polygon fill="#efefef" stroke="transparent" points="487,-285.5 487,-320.5 754,-320.5 754,-285.5 487,-285.5"/>
<polygon fill="none" stroke="#000000" points="487,-285.5 487,-320.5 754,-320.5 754,-285.5 487,-285.5"/>
<text text-anchor="start" x="493.7007" y="-298.3" font-family="Arial Bold" font-size="18.00" fill="#000000">learning_videos</text>
<text text-anchor="start" x="619.7313" y="-298.3" font-family="Arial" font-size="14.00" fill="#000000">    </text>
<text text-anchor="start" x="653.9361" y="-298.3" font-family="Arial" font-size="14.00" fill="#666666">[BASE TABLE]</text>
<polygon fill="none" stroke="#000000" points="487,-255.5 487,-285.5 754,-285.5 754,-255.5 487,-255.5"/>
<text text-anchor="start" x="494" y="-266.9" font-family="Arial" font-size="14.00" fill="#000000">id </text>
<text text-anchor="start" x="508.7798" y="-266.9" font-family="Arial" font-size="14.00" fill="#666666">[bigint]</text>
<polygon fill="none" stroke="#000000" points="487,-225.5 487,-255.5 754,-255.5 754,-225.5 487,-225.5"/>
<text text-anchor="start" x="494" y="-236.9" font-family="Arial" font-size="14.00" fill="#000000">title </text>
<text text-anchor="start" x="519.6676" y="-236.9" font-family="Arial" font-size="14.00" fill="#666666">[varchar(255)]</text>
<polygon fill="none" stroke="#000000" points="487,-195.5 487,-225.5 754,-225.5 754,-195.5 487,-195.5"/>
<text text-anchor="start" x="494" y="-206.9" font-family="Arial" font-size="14.00" fill="#000000">file_name </text>
<text text-anchor="start" x="558.568" y="-206.9" font-family="Arial" font-size="14.00" fill="#666666">[varchar(255)]</text>
<polygon fill="none" stroke="#000000" points="487,-165.5 487,-195.5 754,-195.5 754,-165.5 487,-165.5"/>
<text text-anchor="start" x="494" y="-176.9" font-family="Arial" font-size="14.00" fill="#000000">file_path </text>
<text text-anchor="start" x="550.798" y="-176.9" font-family="Arial" font-size="14.00" fill="#666666">[varchar(255)]</text>
<polygon fill="none" stroke="#000000" points="487,-135.5 487,-165.5 754,-165.5 754,-135.5 487,-135.5"/>
<text text-anchor="start" x="494" y="-146.9" font-family="Arial" font-size="14.00" fill="#000000">thumbnail_path </text>
<text text-anchor="start" x="593.589" y="-146.9" font-family="Arial" font-size="14.00" fill="#666666">[varchar(255)]</text>
<polygon fill="none" stroke="#000000" points="487,-105.5 487,-135.5 754,-135.5 754,-105.5 487,-105.5"/>
<text text-anchor="start" x="494" y="-116.9" font-family="Arial" font-size="14.00" fill="#000000">duration </text>
<text text-anchor="start" x="548.4614" y="-116.9" font-family="Arial" font-size="14.00" fill="#666666">[int]</text>
<polygon fill="none" stroke="#000000" points="487,-75.5 487,-105.5 754,-105.5 754,-75.5 487,-75.5"/>
<text text-anchor="start" x="494" y="-86.9" font-family="Arial" font-size="14.00" fill="#000000">created_at </text>
<text text-anchor="start" x="564.028" y="-86.9" font-family="Arial" font-size="14.00" fill="#666666">[datetime(6)]</text>
<polygon fill="none" stroke="#000000" points="487,-45.5 487,-75.5 754,-75.5 754,-45.5 487,-45.5"/>
<text text-anchor="start" x="494" y="-56.9" font-family="Arial" font-size="14.00" fill="#000000">updated_at </text>
<text text-anchor="start" x="567.9326" y="-56.9" font-family="Arial" font-size="14.00" fill="#666666">[datetime(6)]</text>
<polygon fill="none" stroke="#000000" stroke-width="3" points="485,-44.5 485,-322.5 755,-322.5 755,-44.5 485,-44.5"/>
</g>
<!-- action_videos -->
<g id="node2" class="node">
<title>action_videos</title>
<polygon fill="#efefef" stroke="transparent" points="80,-655.5 80,-690.5 331,-690.5 331,-655.5 80,-655.5"/>
<polygon fill="none" stroke="#000000" points="80,-655.5 80,-690.5 331,-690.5 331,-655.5 80,-655.5"/>
<text text-anchor="start" x="86.699" y="-668.3" font-family="Arial Bold" font-size="18.00" fill="#000000">action_videos</text>
<text text-anchor="start" x="196.733" y="-668.3" font-family="Arial" font-size="14.00" fill="#000000">    </text>
<text text-anchor="start" x="230.9378" y="-668.3" font-family="Arial" font-size="14.00" fill="#666666">[BASE TABLE]</text>
<polygon fill="none" stroke="#000000" points="80,-625.5 80,-655.5 331,-655.5 331,-625.5 80,-625.5"/>
<text text-anchor="start" x="87" y="-636.9" font-family="Arial" font-size="14.00" fill="#000000">id    </text>
<text text-anchor="start" x="132.094" y="-636.9" font-family="Arial" font-size="14.00" fill="#666666">[bigint]</text>
<polygon fill="none" stroke="#000000" points="80,-595.5 80,-625.5 331,-625.5 331,-595.5 80,-595.5"/>
<text text-anchor="start" x="87" y="-606.9" font-family="Arial" font-size="14.00" fill="#000000">action_id    </text>
<text text-anchor="start" x="177.2216" y="-606.9" font-family="Arial" font-size="14.00" fill="#666666">[bigint]</text>
<polygon fill="none" stroke="#000000" points="80,-565.5 80,-595.5 331,-595.5 331,-565.5 80,-565.5"/>
<text text-anchor="start" x="87" y="-576.9" font-family="Arial" font-size="14.00" fill="#000000">learning_video_id    </text>
<text text-anchor="start" x="230.9004" y="-576.9" font-family="Arial" font-size="14.00" fill="#666666">[bigint]</text>
<polygon fill="none" stroke="#000000" points="80,-535.5 80,-565.5 331,-565.5 331,-535.5 80,-535.5"/>
<text text-anchor="start" x="87" y="-546.9" font-family="Arial" font-size="14.00" fill="#000000">created_at    </text>
<text text-anchor="start" x="187.3422" y="-546.9" font-family="Arial" font-size="14.00" fill="#666666">[datetime(6)]</text>
<polygon fill="none" stroke="#000000" points="80,-505.5 80,-535.5 331,-535.5 331,-505.5 80,-505.5"/>
<text text-anchor="start" x="87" y="-516.9" font-family="Arial" font-size="14.00" fill="#000000">updated_at    </text>
<text text-anchor="start" x="191.2468" y="-516.9" font-family="Arial" font-size="14.00" fill="#666666">[datetime(6)]</text>
</g>
<!-- action_videos&#45;&gt;learning_videos -->
<g id="edge1" class="edge">
<title>action_videos:learning_video_id&#45;&gt;learning_videos:id</title>
<path fill="none" stroke="#000000" d="M341.1726,-579.8797C407.1302,-571.1745 346.1508,-472.7163 382,-403 416.3603,-336.179 411.8623,-270.5 487,-270.5"/>
<polygon fill="#000000" stroke="#000000" points="340.9815,-579.8912 330.7261,-576.0083 335.9907,-580.1956 331,-580.5 331,-580.5 331,-580.5 335.9907,-580.1956 331.2739,-584.9917 340.9815,-579.8912 340.9815,-579.8912"/>
<text text-anchor="start" x="7.375" y="-590.5" font-family="Arial" font-size="10.00" fill="#000000">FOREIGN KEY (learning_video_id) REFERENCES learning_videos (id)</text>
</g>
<!-- learning_video_tag_relations -->
<g id="node3" class="node">
<title>learning_video_tag_relations</title>
<polygon fill="#efefef" stroke="transparent" points="435,-655.5 435,-690.5 806,-690.5 806,-655.5 435,-655.5"/>
<polygon fill="none" stroke="#000000" points="435,-655.5 435,-690.5 806,-690.5 806,-655.5 435,-655.5"/>
<text text-anchor="start" x="441.6834" y="-668.3" font-family="Arial Bold" font-size="18.00" fill="#000000">learning_video_tag_relations</text>
<text text-anchor="start" x="671.7486" y="-668.3" font-family="Arial" font-size="14.00" fill="#000000">    </text>
<text text-anchor="start" x="705.9534" y="-668.3" font-family="Arial" font-size="14.00" fill="#666666">[BASE TABLE]</text>
<polygon fill="none" stroke="#000000" points="435,-625.5 435,-655.5 806,-655.5 806,-625.5 435,-625.5"/>
<text text-anchor="start" x="442" y="-636.9" font-family="Arial" font-size="14.00" fill="#000000">id    </text>
<text text-anchor="start" x="487.094" y="-636.9" font-family="Arial" font-size="14.00" fill="#666666">[bigint]</text>
<polygon fill="none" stroke="#000000" points="435,-595.5 435,-625.5 806,-625.5 806,-595.5 435,-595.5"/>
<text text-anchor="start" x="442" y="-606.9" font-family="Arial" font-size="14.00" fill="#000000">learning_video_id    </text>
<text text-anchor="start" x="585.9004" y="-606.9" font-family="Arial" font-size="14.00" fill="#666666">[bigint]</text>
<polygon fill="none" stroke="#000000" points="435,-565.5 435,-595.5 806,-595.5 806,-565.5 435,-565.5"/>
<text text-anchor="start" x="442" y="-576.9" font-family="Arial" font-size="14.00" fill="#000000">learning_video_tag_id    </text>
<text text-anchor="start" x="613.1388" y="-576.9" font-family="Arial" font-size="14.00" fill="#666666">[bigint]</text>
<polygon fill="none" stroke="#000000" points="435,-535.5 435,-565.5 806,-565.5 806,-535.5 435,-535.5"/>
<text text-anchor="start" x="442" y="-546.9" font-family="Arial" font-size="14.00" fill="#000000">created_at    </text>
<text text-anchor="start" x="542.3422" y="-546.9" font-family="Arial" font-size="14.00" fill="#666666">[datetime(6)]</text>
<polygon fill="none" stroke="#000000" points="435,-505.5 435,-535.5 806,-535.5 806,-505.5 435,-505.5"/>
<text text-anchor="start" x="442" y="-516.9" font-family="Arial" font-size="14.00" fill="#000000">updated_at    </text>
<text text-anchor="start" x="546.2468" y="-516.9" font-family="Arial" font-size="14.00" fill="#666666">[datetime(6)]</text>
</g>
<!-- learning_video_tag_relations&#45;&gt;learning_videos -->
<g id="edge2" class="edge">
<title>learning_video_tag_relations:learning_video_id&#45;&gt;learning_videos:id</title>
<path fill="none" stroke="#000000" d="M425.0874,-608.3288C363.4946,-579.3721 414.1487,-270.5 487,-270.5"/>
<polygon fill="#000000" stroke="#000000" points="425.2316,-608.3603 434.0372,-614.8958 430.1158,-609.4302 435,-610.5 435,-610.5 435,-610.5 430.1158,-609.4302 435.9628,-606.1042 425.2316,-608.3603 425.2316,-608.3603"/>
<text text-anchor="start" x="442.375" y="-620.5" font-family="Arial" font-size="10.00" fill="#000000">FOREIGN KEY (learning_video_id) REFERENCES learning_videos (id)</text>
</g>
<!-- learning_video_watch_logs -->
<g id="node4" class="node">
<title>learning_video_watch_logs</title>
<polygon fill="#efefef" stroke="transparent" points="910,-715.5 910,-750.5 1268,-750.5 1268,-715.5 910,-715.5"/>
<polygon fill="none" stroke="#000000" points="910,-715.5 910,-750.5 1268,-750.5 1268,-715.5 910,-715.5"/>
<text text-anchor="start" x="916.6868" y="-728.3" font-family="Arial Bold" font-size="18.00" fill="#000000">learning_video_watch_logs</text>
<text text-anchor="start" x="1133.7452" y="-728.3" font-family="Arial" font-size="14.00" fill="#000000">    </text>
<text text-anchor="start" x="1167.95" y="-728.3" font-family="Arial" font-size="14.00" fill="#666666">[BASE TABLE]</text>
<polygon fill="none" stroke="#000000" points="910,-685.5 910,-715.5 1268,-715.5 1268,-685.5 910,-685.5"/>
<text text-anchor="start" x="917" y="-696.9" font-family="Arial" font-size="14.00" fill="#000000">id    </text>
<text text-anchor="start" x="962.094" y="-696.9" font-family="Arial" font-size="14.00" fill="#666666">[bigint]</text>
<polygon fill="none" stroke="#000000" points="910,-655.5 910,-685.5 1268,-685.5 1268,-655.5 910,-655.5"/>
<text text-anchor="start" x="917" y="-666.9" font-family="Arial" font-size="14.00" fill="#000000">freshman_id    </text>
<text text-anchor="start" x="1028.2188" y="-666.9" font-family="Arial" font-size="14.00" fill="#666666">[bigint]</text>
<polygon fill="none" stroke="#000000" points="910,-625.5 910,-655.5 1268,-655.5 1268,-625.5 910,-625.5"/>
<text text-anchor="start" x="917" y="-636.9" font-family="Arial" font-size="14.00" fill="#000000">learning_video_id    </text>
<text text-anchor="start" x="1060.9004" y="-636.9" font-family="Arial" font-size="14.00" fill="#666666">[bigint]</text>
<polygon fill="none" stroke="#000000" points="910,-595.5 910,-625.5 1268,-625.5 1268,-595.5 910,-595.5"/>
<text text-anchor="start" x="917" y="-606.9" font-family="Arial" font-size="14.00" fill="#000000">start_at    </text>
<text text-anchor="start" x="997.885" y="-606.9" font-family="Arial" font-size="14.00" fill="#666666">[datetime(6)]</text>
<polygon fill="none" stroke="#000000" points="910,-565.5 910,-595.5 1268,-595.5 1268,-565.5 910,-565.5"/>
<text text-anchor="start" x="917" y="-576.9" font-family="Arial" font-size="14.00" fill="#000000">end_at    </text>
<text text-anchor="start" x="994.0084" y="-576.9" font-family="Arial" font-size="14.00" fill="#666666">[datetime(6)]</text>
<polygon fill="none" stroke="#000000" points="910,-535.5 910,-565.5 1268,-565.5 1268,-535.5 910,-535.5"/>
<text text-anchor="start" x="917" y="-546.9" font-family="Arial" font-size="14.00" fill="#000000">end_point_arrival_at    </text>
<text text-anchor="start" x="1078.0182" y="-546.9" font-family="Arial" font-size="14.00" fill="#666666">[datetime(6)]</text>
<polygon fill="none" stroke="#000000" points="910,-505.5 910,-535.5 1268,-535.5 1268,-505.5 910,-505.5"/>
<text text-anchor="start" x="917" y="-516.9" font-family="Arial" font-size="14.00" fill="#000000">total_duration    </text>
<text text-anchor="start" x="1036.0112" y="-516.9" font-family="Arial" font-size="14.00" fill="#666666">[int]</text>
<polygon fill="none" stroke="#000000" points="910,-475.5 910,-505.5 1268,-505.5 1268,-475.5 910,-475.5"/>
<text text-anchor="start" x="917" y="-486.9" font-family="Arial" font-size="14.00" fill="#000000">created_at    </text>
<text text-anchor="start" x="1017.3422" y="-486.9" font-family="Arial" font-size="14.00" fill="#666666">[datetime(6)]</text>
<polygon fill="none" stroke="#000000" points="910,-445.5 910,-475.5 1268,-475.5 1268,-445.5 910,-445.5"/>
<text text-anchor="start" x="917" y="-456.9" font-family="Arial" font-size="14.00" fill="#000000">updated_at    </text>
<text text-anchor="start" x="1021.2468" y="-456.9" font-family="Arial" font-size="14.00" fill="#666666">[datetime(6)]</text>
</g>
<!-- learning_video_watch_logs&#45;&gt;learning_videos -->
<g id="edge3" class="edge">
<title>learning_video_watch_logs:learning_video_id&#45;&gt;learning_videos:id</title>
<path fill="none" stroke="#000000" d="M899.9187,-640.0444C808.5627,-631.2654 902.5451,-497.4952 858,-403 826.0787,-335.2842 828.8625,-270.5 754,-270.5"/>
<polygon fill="#000000" stroke="#000000" points="900.0102,-640.0485 909.7968,-644.9954 905.0051,-640.2742 910,-640.5 910,-640.5 910,-640.5 905.0051,-640.2742 910.2032,-636.0046 900.0102,-640.0485 900.0102,-640.0485"/>
<text text-anchor="start" x="586.375" y="-650.5" font-family="Arial" font-size="10.00" fill="#000000">FOREIGN KEY (learning_video_id) REFERENCES learning_videos (id)</text>
</g>
</g>
</svg>
