<?xml version="1.0" encoding="UTF-8" standalone="no"?>
<!DOCTYPE svg PUBLIC "-//W3C//DTD SVG 1.1//EN"
 "http://www.w3.org/Graphics/SVG/1.1/DTD/svg11.dtd">
<!-- Generated by graphviz version 2.40.1 (20161225.0304)
 -->
<!-- Title: learning_video_watch_logs Pages: 1 -->
<svg width="976pt" height="802pt"
 viewBox="0.00 0.00 976.00 802.00" xmlns="http://www.w3.org/2000/svg" xmlns:xlink="http://www.w3.org/1999/xlink">
<g id="graph0" class="graph" transform="scale(1 1) rotate(0) translate(4 798)">
<title>learning_video_watch_logs</title>
<polygon fill="#ffffff" stroke="transparent" points="-4,4 -4,-798 972,-798 972,4 -4,4"/>
<!-- learning_video_watch_logs -->
<g id="node1" class="node">
<title>learning_video_watch_logs</title>
<polygon fill="#efefef" stroke="transparent" points="279,-712.5 279,-747.5 637,-747.5 637,-712.5 279,-712.5"/>
<polygon fill="none" stroke="#000000" points="279,-712.5 279,-747.5 637,-747.5 637,-712.5 279,-712.5"/>
<text text-anchor="start" x="285.6868" y="-725.3" font-family="Arial Bold" font-size="18.00" fill="#000000">learning_video_watch_logs</text>
<text text-anchor="start" x="502.7452" y="-725.3" font-family="Arial" font-size="14.00" fill="#000000">    </text>
<text text-anchor="start" x="536.95" y="-725.3" font-family="Arial" font-size="14.00" fill="#666666">[BASE TABLE]</text>
<polygon fill="none" stroke="#000000" points="279,-682.5 279,-712.5 637,-712.5 637,-682.5 279,-682.5"/>
<text text-anchor="start" x="286" y="-693.9" font-family="Arial" font-size="14.00" fill="#000000">id </text>
<text text-anchor="start" x="300.7798" y="-693.9" font-family="Arial" font-size="14.00" fill="#666666">[bigint]</text>
<polygon fill="none" stroke="#000000" points="279,-652.5 279,-682.5 637,-682.5 637,-652.5 279,-652.5"/>
<text text-anchor="start" x="286" y="-663.9" font-family="Arial" font-size="14.00" fill="#000000">freshman_id </text>
<text text-anchor="start" x="366.9046" y="-663.9" font-family="Arial" font-size="14.00" fill="#666666">[bigint]</text>
<polygon fill="none" stroke="#000000" points="279,-622.5 279,-652.5 637,-652.5 637,-622.5 279,-622.5"/>
<text text-anchor="start" x="286" y="-633.9" font-family="Arial" font-size="14.00" fill="#000000">learning_video_id </text>
<text text-anchor="start" x="399.5862" y="-633.9" font-family="Arial" font-size="14.00" fill="#666666">[bigint]</text>
<polygon fill="none" stroke="#000000" points="279,-592.5 279,-622.5 637,-622.5 637,-592.5 279,-592.5"/>
<text text-anchor="start" x="286" y="-603.9" font-family="Arial" font-size="14.00" fill="#000000">start_at </text>
<text text-anchor="start" x="336.5708" y="-603.9" font-family="Arial" font-size="14.00" fill="#666666">[datetime(6)]</text>
<polygon fill="none" stroke="#000000" points="279,-562.5 279,-592.5 637,-592.5 637,-562.5 279,-562.5"/>
<text text-anchor="start" x="286" y="-573.9" font-family="Arial" font-size="14.00" fill="#000000">end_at </text>
<text text-anchor="start" x="332.6942" y="-573.9" font-family="Arial" font-size="14.00" fill="#666666">[datetime(6)]</text>
<polygon fill="none" stroke="#000000" points="279,-532.5 279,-562.5 637,-562.5 637,-532.5 279,-532.5"/>
<text text-anchor="start" x="286" y="-543.9" font-family="Arial" font-size="14.00" fill="#000000">end_point_arrival_at </text>
<text text-anchor="start" x="416.704" y="-543.9" font-family="Arial" font-size="14.00" fill="#666666">[datetime(6)]</text>
<polygon fill="none" stroke="#000000" points="279,-502.5 279,-532.5 637,-532.5 637,-502.5 279,-502.5"/>
<text text-anchor="start" x="286" y="-513.9" font-family="Arial" font-size="14.00" fill="#000000">total_duration </text>
<text text-anchor="start" x="374.697" y="-513.9" font-family="Arial" font-size="14.00" fill="#666666">[int]</text>
<polygon fill="none" stroke="#000000" points="279,-472.5 279,-502.5 637,-502.5 637,-472.5 279,-472.5"/>
<text text-anchor="start" x="286" y="-483.9" font-family="Arial" font-size="14.00" fill="#000000">created_at </text>
<text text-anchor="start" x="356.028" y="-483.9" font-family="Arial" font-size="14.00" fill="#666666">[datetime(6)]</text>
<polygon fill="none" stroke="#000000" points="279,-442.5 279,-472.5 637,-472.5 637,-442.5 279,-442.5"/>
<text text-anchor="start" x="286" y="-453.9" font-family="Arial" font-size="14.00" fill="#000000">updated_at </text>
<text text-anchor="start" x="359.9326" y="-453.9" font-family="Arial" font-size="14.00" fill="#666666">[datetime(6)]</text>
<polygon fill="none" stroke="#000000" stroke-width="3" points="277.5,-441.5 277.5,-749.5 638.5,-749.5 638.5,-441.5 277.5,-441.5"/>
</g>
<!-- freshmen -->
<g id="node2" class="node">
<title>freshmen</title>
<polygon fill="#efefef" stroke="transparent" points="177,-282.5 177,-317.5 393,-317.5 393,-282.5 177,-282.5"/>
<polygon fill="none" stroke="#000000" points="177,-282.5 177,-317.5 393,-317.5 393,-282.5 177,-282.5"/>
<text text-anchor="start" x="183.7103" y="-295.3" font-family="Arial Bold" font-size="18.00" fill="#000000">freshmen</text>
<text text-anchor="start" x="258.7217" y="-295.3" font-family="Arial" font-size="14.00" fill="#000000">    </text>
<text text-anchor="start" x="292.9265" y="-295.3" font-family="Arial" font-size="14.00" fill="#666666">[BASE TABLE]</text>
<polygon fill="none" stroke="#000000" points="177,-252.5 177,-282.5 393,-282.5 393,-252.5 177,-252.5"/>
<text text-anchor="start" x="184" y="-263.9" font-family="Arial" font-size="14.00" fill="#000000">id    </text>
<text text-anchor="start" x="229.094" y="-263.9" font-family="Arial" font-size="14.00" fill="#666666">[bigint]</text>
<polygon fill="none" stroke="#000000" points="177,-222.5 177,-252.5 393,-252.5 393,-222.5 177,-222.5"/>
<text text-anchor="start" x="184" y="-233.9" font-family="Arial" font-size="14.00" fill="#000000">customer_id    </text>
<text text-anchor="start" x="294.4362" y="-233.9" font-family="Arial" font-size="14.00" fill="#666666">[bigint]</text>
<polygon fill="none" stroke="#000000" points="177,-192.5 177,-222.5 393,-222.5 393,-192.5 177,-192.5"/>
<text text-anchor="start" x="184" y="-203.9" font-family="Arial" font-size="14.00" fill="#000000">name_kanji    </text>
<text text-anchor="start" x="289.7742" y="-203.9" font-family="Arial" font-size="14.00" fill="#666666">[varchar(255)]</text>
<polygon fill="none" stroke="#000000" points="177,-162.5 177,-192.5 393,-192.5 393,-162.5 177,-162.5"/>
<text text-anchor="start" x="184" y="-173.9" font-family="Arial" font-size="14.00" fill="#000000">name_kana    </text>
<text text-anchor="start" x="291.3436" y="-173.9" font-family="Arial" font-size="14.00" fill="#666666">[varchar(255)]</text>
<polygon fill="none" stroke="#000000" points="177,-132.5 177,-162.5 393,-162.5 393,-132.5 177,-132.5"/>
<text text-anchor="start" x="184" y="-143.9" font-family="Arial" font-size="14.00" fill="#000000">entrance_year    </text>
<text text-anchor="start" x="307.6774" y="-143.9" font-family="Arial" font-size="14.00" fill="#666666">[int]</text>
<polygon fill="none" stroke="#000000" points="177,-102.5 177,-132.5 393,-132.5 393,-102.5 177,-102.5"/>
<text text-anchor="start" x="184" y="-113.9" font-family="Arial" font-size="14.00" fill="#000000">disabled_flg    </text>
<text text-anchor="start" x="292.8934" y="-113.9" font-family="Arial" font-size="14.00" fill="#666666">[tinyint(1)]</text>
<polygon fill="none" stroke="#000000" points="177,-72.5 177,-102.5 393,-102.5 393,-72.5 177,-72.5"/>
<text text-anchor="start" x="184" y="-83.9" font-family="Arial" font-size="14.00" fill="#000000">created_at    </text>
<text text-anchor="start" x="284.3422" y="-83.9" font-family="Arial" font-size="14.00" fill="#666666">[datetime(6)]</text>
<polygon fill="none" stroke="#000000" points="177,-42.5 177,-72.5 393,-72.5 393,-42.5 177,-42.5"/>
<text text-anchor="start" x="184" y="-53.9" font-family="Arial" font-size="14.00" fill="#000000">updated_at    </text>
<text text-anchor="start" x="288.2468" y="-53.9" font-family="Arial" font-size="14.00" fill="#666666">[datetime(6)]</text>
</g>
<!-- learning_video_watch_logs&#45;&gt;freshmen -->
<g id="edge1" class="edge">
<title>learning_video_watch_logs:freshman_id&#45;&gt;freshmen:id</title>
<path fill="none" stroke="#000000" d="M268.866,-667.0595C161.6768,-657.3978 210.0151,-491.1275 279,-397 310.4085,-354.1442 361.5915,-403.8558 393,-361 417.5647,-327.4823 434.5556,-267.5 393,-267.5"/>
<polygon fill="#000000" stroke="#000000" points="269.0094,-667.0656 278.8045,-671.9958 274.0047,-667.2828 279,-667.5 279,-667.5 279,-667.5 274.0047,-667.2828 279.1955,-663.0042 269.0094,-667.0656 269.0094,-667.0656"/>
<text text-anchor="start" x="7.219" y="-677.5" font-family="Arial" font-size="10.00" fill="#000000">FOREIGN KEY (freshman_id) REFERENCES freshmen (id)</text>
</g>
<!-- learning_videos -->
<g id="node3" class="node">
<title>learning_videos</title>
<polygon fill="#efefef" stroke="transparent" points="498,-282.5 498,-317.5 765,-317.5 765,-282.5 498,-282.5"/>
<polygon fill="none" stroke="#000000" points="498,-282.5 498,-317.5 765,-317.5 765,-282.5 498,-282.5"/>
<text text-anchor="start" x="504.7007" y="-295.3" font-family="Arial Bold" font-size="18.00" fill="#000000">learning_videos</text>
<text text-anchor="start" x="630.7313" y="-295.3" font-family="Arial" font-size="14.00" fill="#000000">    </text>
<text text-anchor="start" x="664.9361" y="-295.3" font-family="Arial" font-size="14.00" fill="#666666">[BASE TABLE]</text>
<polygon fill="none" stroke="#000000" points="498,-252.5 498,-282.5 765,-282.5 765,-252.5 498,-252.5"/>
<text text-anchor="start" x="505" y="-263.9" font-family="Arial" font-size="14.00" fill="#000000">id    </text>
<text text-anchor="start" x="550.094" y="-263.9" font-family="Arial" font-size="14.00" fill="#666666">[bigint]</text>
<polygon fill="none" stroke="#000000" points="498,-222.5 498,-252.5 765,-252.5 765,-222.5 498,-222.5"/>
<text text-anchor="start" x="505" y="-233.9" font-family="Arial" font-size="14.00" fill="#000000">title    </text>
<text text-anchor="start" x="560.9818" y="-233.9" font-family="Arial" font-size="14.00" fill="#666666">[varchar(255)]</text>
<polygon fill="none" stroke="#000000" points="498,-192.5 498,-222.5 765,-222.5 765,-192.5 498,-192.5"/>
<text text-anchor="start" x="505" y="-203.9" font-family="Arial" font-size="14.00" fill="#000000">file_name    </text>
<text text-anchor="start" x="599.8822" y="-203.9" font-family="Arial" font-size="14.00" fill="#666666">[varchar(255)]</text>
<polygon fill="none" stroke="#000000" points="498,-162.5 498,-192.5 765,-192.5 765,-162.5 498,-162.5"/>
<text text-anchor="start" x="505" y="-173.9" font-family="Arial" font-size="14.00" fill="#000000">file_path    </text>
<text text-anchor="start" x="592.1122" y="-173.9" font-family="Arial" font-size="14.00" fill="#666666">[varchar(255)]</text>
<polygon fill="none" stroke="#000000" points="498,-132.5 498,-162.5 765,-162.5 765,-132.5 498,-132.5"/>
<text text-anchor="start" x="505" y="-143.9" font-family="Arial" font-size="14.00" fill="#000000">thumbnail_path    </text>
<text text-anchor="start" x="634.9032" y="-143.9" font-family="Arial" font-size="14.00" fill="#666666">[varchar(255)]</text>
<polygon fill="none" stroke="#000000" points="498,-102.5 498,-132.5 765,-132.5 765,-102.5 498,-102.5"/>
<text text-anchor="start" x="505" y="-113.9" font-family="Arial" font-size="14.00" fill="#000000">duration    </text>
<text text-anchor="start" x="589.7756" y="-113.9" font-family="Arial" font-size="14.00" fill="#666666">[int]</text>
<polygon fill="none" stroke="#000000" points="498,-72.5 498,-102.5 765,-102.5 765,-72.5 498,-72.5"/>
<text text-anchor="start" x="505" y="-83.9" font-family="Arial" font-size="14.00" fill="#000000">created_at    </text>
<text text-anchor="start" x="605.3422" y="-83.9" font-family="Arial" font-size="14.00" fill="#666666">[datetime(6)]</text>
<polygon fill="none" stroke="#000000" points="498,-42.5 498,-72.5 765,-72.5 765,-42.5 498,-42.5"/>
<text text-anchor="start" x="505" y="-53.9" font-family="Arial" font-size="14.00" fill="#000000">updated_at    </text>
<text text-anchor="start" x="609.2468" y="-53.9" font-family="Arial" font-size="14.00" fill="#666666">[datetime(6)]</text>
</g>
<!-- learning_video_watch_logs&#45;&gt;learning_videos -->
<g id="edge2" class="edge">
<title>learning_video_watch_logs:learning_video_id&#45;&gt;learning_videos:id</title>
<path fill="none" stroke="#000000" d="M647.161,-636.9925C741.109,-627.2212 700.2521,-478.7209 637,-397 597.9396,-346.5344 537.0604,-411.4656 498,-361 472.5647,-328.138 456.4444,-267.5 498,-267.5"/>
<polygon fill="#000000" stroke="#000000" points="646.9875,-637.001 636.7755,-633.0056 641.9938,-637.2505 637,-637.5 637,-637.5 637,-637.5 641.9938,-637.2505 637.2245,-641.9944 646.9875,-637.001 646.9875,-637.001"/>
<text text-anchor="start" x="644.375" y="-647.5" font-family="Arial" font-size="10.00" fill="#000000">FOREIGN KEY (learning_video_id) REFERENCES learning_videos (id)</text>
</g>
</g>
</svg>
