<?xml version="1.0" encoding="UTF-8" standalone="no"?>
<!DOCTYPE svg PUBLIC "-//W3C//DTD SVG 1.1//EN"
 "http://www.w3.org/Graphics/SVG/1.1/DTD/svg11.dtd">
<!-- Generated by graphviz version 2.40.1 (20161225.0304)
 -->
<!-- Title: learning_video_tag_relations Pages: 1 -->
<svg width="1080pt" height="682pt"
 viewBox="0.00 0.00 1080.00 682.00" xmlns="http://www.w3.org/2000/svg" xmlns:xlink="http://www.w3.org/1999/xlink">
<g id="graph0" class="graph" transform="scale(1 1) rotate(0) translate(4 678)">
<title>learning_video_tag_relations</title>
<polygon fill="#ffffff" stroke="transparent" points="-4,4 -4,-678 1076,-678 1076,4 -4,4"/>
<!-- learning_video_tag_relations -->
<g id="node1" class="node">
<title>learning_video_tag_relations</title>
<polygon fill="#efefef" stroke="transparent" points="331,-592.5 331,-627.5 702,-627.5 702,-592.5 331,-592.5"/>
<polygon fill="none" stroke="#000000" points="331,-592.5 331,-627.5 702,-627.5 702,-592.5 331,-592.5"/>
<text text-anchor="start" x="337.6834" y="-605.3" font-family="Arial Bold" font-size="18.00" fill="#000000">learning_video_tag_relations</text>
<text text-anchor="start" x="567.7486" y="-605.3" font-family="Arial" font-size="14.00" fill="#000000">    </text>
<text text-anchor="start" x="601.9534" y="-605.3" font-family="Arial" font-size="14.00" fill="#666666">[BASE TABLE]</text>
<polygon fill="none" stroke="#000000" points="331,-562.5 331,-592.5 702,-592.5 702,-562.5 331,-562.5"/>
<text text-anchor="start" x="338" y="-573.9" font-family="Arial" font-size="14.00" fill="#000000">id </text>
<text text-anchor="start" x="352.7798" y="-573.9" font-family="Arial" font-size="14.00" fill="#666666">[bigint]</text>
<polygon fill="none" stroke="#000000" points="331,-532.5 331,-562.5 702,-562.5 702,-532.5 331,-532.5"/>
<text text-anchor="start" x="338" y="-543.9" font-family="Arial" font-size="14.00" fill="#000000">learning_video_id </text>
<text text-anchor="start" x="451.5862" y="-543.9" font-family="Arial" font-size="14.00" fill="#666666">[bigint]</text>
<polygon fill="none" stroke="#000000" points="331,-502.5 331,-532.5 702,-532.5 702,-502.5 331,-502.5"/>
<text text-anchor="start" x="338" y="-513.9" font-family="Arial" font-size="14.00" fill="#000000">learning_video_tag_id </text>
<text text-anchor="start" x="478.8246" y="-513.9" font-family="Arial" font-size="14.00" fill="#666666">[bigint]</text>
<polygon fill="none" stroke="#000000" points="331,-472.5 331,-502.5 702,-502.5 702,-472.5 331,-472.5"/>
<text text-anchor="start" x="338" y="-483.9" font-family="Arial" font-size="14.00" fill="#000000">created_at </text>
<text text-anchor="start" x="408.028" y="-483.9" font-family="Arial" font-size="14.00" fill="#666666">[datetime(6)]</text>
<polygon fill="none" stroke="#000000" points="331,-442.5 331,-472.5 702,-472.5 702,-442.5 331,-442.5"/>
<text text-anchor="start" x="338" y="-453.9" font-family="Arial" font-size="14.00" fill="#000000">updated_at </text>
<text text-anchor="start" x="411.9326" y="-453.9" font-family="Arial" font-size="14.00" fill="#666666">[datetime(6)]</text>
<polygon fill="none" stroke="#000000" stroke-width="3" points="329,-441.5 329,-629.5 703,-629.5 703,-441.5 329,-441.5"/>
</g>
<!-- learning_videos -->
<g id="node2" class="node">
<title>learning_videos</title>
<polygon fill="#efefef" stroke="transparent" points="189,-282.5 189,-317.5 456,-317.5 456,-282.5 189,-282.5"/>
<polygon fill="none" stroke="#000000" points="189,-282.5 189,-317.5 456,-317.5 456,-282.5 189,-282.5"/>
<text text-anchor="start" x="195.7007" y="-295.3" font-family="Arial Bold" font-size="18.00" fill="#000000">learning_videos</text>
<text text-anchor="start" x="321.7313" y="-295.3" font-family="Arial" font-size="14.00" fill="#000000">    </text>
<text text-anchor="start" x="355.9361" y="-295.3" font-family="Arial" font-size="14.00" fill="#666666">[BASE TABLE]</text>
<polygon fill="none" stroke="#000000" points="189,-252.5 189,-282.5 456,-282.5 456,-252.5 189,-252.5"/>
<text text-anchor="start" x="196" y="-263.9" font-family="Arial" font-size="14.00" fill="#000000">id    </text>
<text text-anchor="start" x="241.094" y="-263.9" font-family="Arial" font-size="14.00" fill="#666666">[bigint]</text>
<polygon fill="none" stroke="#000000" points="189,-222.5 189,-252.5 456,-252.5 456,-222.5 189,-222.5"/>
<text text-anchor="start" x="196" y="-233.9" font-family="Arial" font-size="14.00" fill="#000000">title    </text>
<text text-anchor="start" x="251.9818" y="-233.9" font-family="Arial" font-size="14.00" fill="#666666">[varchar(255)]</text>
<polygon fill="none" stroke="#000000" points="189,-192.5 189,-222.5 456,-222.5 456,-192.5 189,-192.5"/>
<text text-anchor="start" x="196" y="-203.9" font-family="Arial" font-size="14.00" fill="#000000">file_name    </text>
<text text-anchor="start" x="290.8822" y="-203.9" font-family="Arial" font-size="14.00" fill="#666666">[varchar(255)]</text>
<polygon fill="none" stroke="#000000" points="189,-162.5 189,-192.5 456,-192.5 456,-162.5 189,-162.5"/>
<text text-anchor="start" x="196" y="-173.9" font-family="Arial" font-size="14.00" fill="#000000">file_path    </text>
<text text-anchor="start" x="283.1122" y="-173.9" font-family="Arial" font-size="14.00" fill="#666666">[varchar(255)]</text>
<polygon fill="none" stroke="#000000" points="189,-132.5 189,-162.5 456,-162.5 456,-132.5 189,-132.5"/>
<text text-anchor="start" x="196" y="-143.9" font-family="Arial" font-size="14.00" fill="#000000">thumbnail_path    </text>
<text text-anchor="start" x="325.9032" y="-143.9" font-family="Arial" font-size="14.00" fill="#666666">[varchar(255)]</text>
<polygon fill="none" stroke="#000000" points="189,-102.5 189,-132.5 456,-132.5 456,-102.5 189,-102.5"/>
<text text-anchor="start" x="196" y="-113.9" font-family="Arial" font-size="14.00" fill="#000000">duration    </text>
<text text-anchor="start" x="280.7756" y="-113.9" font-family="Arial" font-size="14.00" fill="#666666">[int]</text>
<polygon fill="none" stroke="#000000" points="189,-72.5 189,-102.5 456,-102.5 456,-72.5 189,-72.5"/>
<text text-anchor="start" x="196" y="-83.9" font-family="Arial" font-size="14.00" fill="#000000">created_at    </text>
<text text-anchor="start" x="296.3422" y="-83.9" font-family="Arial" font-size="14.00" fill="#666666">[datetime(6)]</text>
<polygon fill="none" stroke="#000000" points="189,-42.5 189,-72.5 456,-72.5 456,-42.5 189,-42.5"/>
<text text-anchor="start" x="196" y="-53.9" font-family="Arial" font-size="14.00" fill="#000000">updated_at    </text>
<text text-anchor="start" x="300.2468" y="-53.9" font-family="Arial" font-size="14.00" fill="#666666">[datetime(6)]</text>
</g>
<!-- learning_video_tag_relations&#45;&gt;learning_videos -->
<g id="edge1" class="edge">
<title>learning_video_tag_relations:learning_video_id&#45;&gt;learning_videos:id</title>
<path fill="none" stroke="#000000" d="M320.8523,-546.6522C267.0682,-537.0148 292.976,-447.5205 331,-397 365.7664,-350.8078 421.2336,-407.1922 456,-361 480.9895,-327.7978 497.5556,-267.5 456,-267.5"/>
<polygon fill="#000000" stroke="#000000" points="321.0347,-546.6673 330.6253,-551.9844 326.0174,-547.0837 331,-547.5 331,-547.5 331,-547.5 326.0174,-547.0837 331.3747,-543.0156 321.0347,-546.6673 321.0347,-546.6673"/>
<text text-anchor="start" x="7.375" y="-557.5" font-family="Arial" font-size="10.00" fill="#000000">FOREIGN KEY (learning_video_id) REFERENCES learning_videos (id)</text>
</g>
<!-- learning_video_tags -->
<g id="node3" class="node">
<title>learning_video_tags</title>
<polygon fill="#efefef" stroke="transparent" points="560,-222.5 560,-257.5 862,-257.5 862,-222.5 560,-222.5"/>
<polygon fill="none" stroke="#000000" points="560,-222.5 560,-257.5 862,-257.5 862,-222.5 560,-222.5"/>
<text text-anchor="start" x="566.6903" y="-235.3" font-family="Arial Bold" font-size="18.00" fill="#000000">learning_video_tags</text>
<text text-anchor="start" x="727.7417" y="-235.3" font-family="Arial" font-size="14.00" fill="#000000">    </text>
<text text-anchor="start" x="761.9465" y="-235.3" font-family="Arial" font-size="14.00" fill="#666666">[BASE TABLE]</text>
<polygon fill="none" stroke="#000000" points="560,-192.5 560,-222.5 862,-222.5 862,-192.5 560,-192.5"/>
<text text-anchor="start" x="567" y="-203.9" font-family="Arial" font-size="14.00" fill="#000000">id    </text>
<text text-anchor="start" x="612.094" y="-203.9" font-family="Arial" font-size="14.00" fill="#666666">[bigint]</text>
<polygon fill="none" stroke="#000000" points="560,-162.5 560,-192.5 862,-192.5 862,-162.5 560,-162.5"/>
<text text-anchor="start" x="567" y="-173.9" font-family="Arial" font-size="14.00" fill="#000000">name    </text>
<text text-anchor="start" x="636.2132" y="-173.9" font-family="Arial" font-size="14.00" fill="#666666">[varchar(255)]</text>
<polygon fill="none" stroke="#000000" points="560,-132.5 560,-162.5 862,-162.5 862,-132.5 560,-132.5"/>
<text text-anchor="start" x="567" y="-143.9" font-family="Arial" font-size="14.00" fill="#000000">created_at    </text>
<text text-anchor="start" x="667.3422" y="-143.9" font-family="Arial" font-size="14.00" fill="#666666">[datetime(6)]</text>
<polygon fill="none" stroke="#000000" points="560,-102.5 560,-132.5 862,-132.5 862,-102.5 560,-102.5"/>
<text text-anchor="start" x="567" y="-113.9" font-family="Arial" font-size="14.00" fill="#000000">updated_at    </text>
<text text-anchor="start" x="671.2468" y="-113.9" font-family="Arial" font-size="14.00" fill="#666666">[datetime(6)]</text>
</g>
<!-- learning_video_tag_relations&#45;&gt;learning_video_tags -->
<g id="edge2" class="edge">
<title>learning_video_tag_relations:learning_video_tag_id&#45;&gt;learning_video_tags:id</title>
<path fill="none" stroke="#000000" d="M712.1104,-516.4488C751.5729,-507.3343 725.3516,-440.9743 702,-397 666.2712,-329.7177 595.7288,-368.2823 560,-301 540.5104,-264.2983 518.4444,-207.5 560,-207.5"/>
<polygon fill="#000000" stroke="#000000" points="711.9464,-516.4658 701.5346,-513.0241 706.9732,-516.9829 702,-517.5 702,-517.5 702,-517.5 706.9732,-516.9829 702.4654,-521.9759 711.9464,-516.4658 711.9464,-516.4658"/>
<text text-anchor="start" x="708.919" y="-527.5" font-family="Arial" font-size="10.00" fill="#000000">FOREIGN KEY (learning_video_tag_id) REFERENCES learning_video_tags (id)</text>
</g>
</g>
</svg>
