<?xml version="1.0" encoding="UTF-8" standalone="no"?>
<!DOCTYPE svg PUBLIC "-//W3C//DTD SVG 1.1//EN"
 "http://www.w3.org/Graphics/SVG/1.1/DTD/svg11.dtd">
<!-- Generated by graphviz version 2.40.1 (20161225.0304)
 -->
<!-- Title: login_histories Pages: 1 -->
<svg width="593pt" height="862pt"
 viewBox="0.00 0.00 592.50 862.00" xmlns="http://www.w3.org/2000/svg" xmlns:xlink="http://www.w3.org/1999/xlink">
<g id="graph0" class="graph" transform="scale(1 1) rotate(0) translate(4 858)">
<title>login_histories</title>
<polygon fill="#ffffff" stroke="transparent" points="-4,4 -4,-858 588.5,-858 588.5,4 -4,4"/>
<!-- login_histories -->
<g id="node1" class="node">
<title>login_histories</title>
<polygon fill="#efefef" stroke="transparent" points="271,-772.5 271,-807.5 527,-807.5 527,-772.5 271,-772.5"/>
<polygon fill="none" stroke="#000000" points="271,-772.5 271,-807.5 527,-807.5 527,-772.5 271,-772.5"/>
<text text-anchor="start" x="277.7087" y="-785.3" font-family="Arial Bold" font-size="18.00" fill="#000000">login_histories</text>
<text text-anchor="start" x="392.7233" y="-785.3" font-family="Arial" font-size="14.00" fill="#000000">    </text>
<text text-anchor="start" x="426.9281" y="-785.3" font-family="Arial" font-size="14.00" fill="#666666">[BASE TABLE]</text>
<polygon fill="none" stroke="#000000" points="271,-742.5 271,-772.5 527,-772.5 527,-742.5 271,-742.5"/>
<text text-anchor="start" x="278" y="-753.9" font-family="Arial" font-size="14.00" fill="#000000">id </text>
<text text-anchor="start" x="292.7798" y="-753.9" font-family="Arial" font-size="14.00" fill="#666666">[bigint]</text>
<polygon fill="none" stroke="#000000" points="271,-712.5 271,-742.5 527,-742.5 527,-712.5 271,-712.5"/>
<text text-anchor="start" x="278" y="-723.9" font-family="Arial" font-size="14.00" fill="#000000">account_id </text>
<text text-anchor="start" x="349.5834" y="-723.9" font-family="Arial" font-size="14.00" fill="#666666">[bigint]</text>
<polygon fill="none" stroke="#000000" points="271,-682.5 271,-712.5 527,-712.5 527,-682.5 271,-682.5"/>
<text text-anchor="start" x="278" y="-693.9" font-family="Arial" font-size="14.00" fill="#000000">login_at </text>
<text text-anchor="start" x="330.9074" y="-693.9" font-family="Arial" font-size="14.00" fill="#666666">[datetime(6)]</text>
<polygon fill="none" stroke="#000000" points="271,-652.5 271,-682.5 527,-682.5 527,-652.5 271,-652.5"/>
<text text-anchor="start" x="278" y="-663.9" font-family="Arial" font-size="14.00" fill="#000000">created_at </text>
<text text-anchor="start" x="348.028" y="-663.9" font-family="Arial" font-size="14.00" fill="#666666">[datetime(6)]</text>
<polygon fill="none" stroke="#000000" points="271,-622.5 271,-652.5 527,-652.5 527,-622.5 271,-622.5"/>
<text text-anchor="start" x="278" y="-633.9" font-family="Arial" font-size="14.00" fill="#000000">updated_at </text>
<text text-anchor="start" x="351.9326" y="-633.9" font-family="Arial" font-size="14.00" fill="#666666">[datetime(6)]</text>
<polygon fill="none" stroke="#000000" stroke-width="3" points="269.5,-621.5 269.5,-809.5 528.5,-809.5 528.5,-621.5 269.5,-621.5"/>
</g>
<!-- accounts -->
<g id="node2" class="node">
<title>accounts</title>
<polygon fill="#efefef" stroke="transparent" points="255,-462.5 255,-497.5 542,-497.5 542,-462.5 255,-462.5"/>
<polygon fill="none" stroke="#000000" points="255,-462.5 255,-497.5 542,-497.5 542,-462.5 255,-462.5"/>
<text text-anchor="start" x="298.7025" y="-475.3" font-family="Arial Bold" font-size="18.00" fill="#000000">accounts</text>
<text text-anchor="start" x="370.7295" y="-475.3" font-family="Arial" font-size="14.00" fill="#000000">    </text>
<text text-anchor="start" x="404.9343" y="-475.3" font-family="Arial" font-size="14.00" fill="#666666">[BASE TABLE]</text>
<polygon fill="none" stroke="#000000" points="255,-432.5 255,-462.5 542,-462.5 542,-432.5 255,-432.5"/>
<text text-anchor="start" x="262" y="-443.9" font-family="Arial" font-size="14.00" fill="#000000">id    </text>
<text text-anchor="start" x="307.094" y="-443.9" font-family="Arial" font-size="14.00" fill="#666666">[bigint]</text>
<polygon fill="none" stroke="#000000" points="255,-402.5 255,-432.5 542,-432.5 542,-402.5 255,-402.5"/>
<text text-anchor="start" x="262" y="-413.9" font-family="Arial" font-size="14.00" fill="#000000">email    </text>
<text text-anchor="start" x="329.6438" y="-413.9" font-family="Arial" font-size="14.00" fill="#666666">[varchar(255)]</text>
<polygon fill="none" stroke="#000000" points="255,-372.5 255,-402.5 542,-402.5 542,-372.5 255,-372.5"/>
<text text-anchor="start" x="262" y="-383.9" font-family="Arial" font-size="14.00" fill="#000000">password_digest    </text>
<text text-anchor="start" x="401.23" y="-383.9" font-family="Arial" font-size="14.00" fill="#666666">[varchar(255)]</text>
<polygon fill="none" stroke="#000000" points="255,-342.5 255,-372.5 542,-372.5 542,-342.5 255,-342.5"/>
<text text-anchor="start" x="262" y="-353.9" font-family="Arial" font-size="14.00" fill="#000000">accountable_type    </text>
<text text-anchor="start" x="405.9186" y="-353.9" font-family="Arial" font-size="14.00" fill="#666666">[varchar(255)]</text>
<polygon fill="none" stroke="#000000" points="255,-312.5 255,-342.5 542,-342.5 542,-312.5 255,-312.5"/>
<text text-anchor="start" x="262" y="-323.9" font-family="Arial" font-size="14.00" fill="#000000">accountable_id    </text>
<text text-anchor="start" x="390.352" y="-323.9" font-family="Arial" font-size="14.00" fill="#666666">[bigint]</text>
<polygon fill="none" stroke="#000000" points="255,-282.5 255,-312.5 542,-312.5 542,-282.5 255,-282.5"/>
<text text-anchor="start" x="262" y="-293.9" font-family="Arial" font-size="14.00" fill="#000000">created_at    </text>
<text text-anchor="start" x="362.3422" y="-293.9" font-family="Arial" font-size="14.00" fill="#666666">[datetime(6)]</text>
<polygon fill="none" stroke="#000000" points="255,-252.5 255,-282.5 542,-282.5 542,-252.5 255,-252.5"/>
<text text-anchor="start" x="262" y="-263.9" font-family="Arial" font-size="14.00" fill="#000000">updated_at    </text>
<text text-anchor="start" x="366.2468" y="-263.9" font-family="Arial" font-size="14.00" fill="#666666">[datetime(6)]</text>
<polygon fill="none" stroke="#000000" points="255,-222.5 255,-252.5 542,-252.5 542,-222.5 255,-222.5"/>
<text text-anchor="start" x="262" y="-233.9" font-family="Arial" font-size="14.00" fill="#000000">failed_attempts    </text>
<text text-anchor="start" x="391.1192" y="-233.9" font-family="Arial" font-size="14.00" fill="#666666">[int]</text>
<polygon fill="none" stroke="#000000" points="255,-192.5 255,-222.5 542,-222.5 542,-192.5 255,-192.5"/>
<text text-anchor="start" x="262" y="-203.9" font-family="Arial" font-size="14.00" fill="#000000">locked_at    </text>
<text text-anchor="start" x="356.115" y="-203.9" font-family="Arial" font-size="14.00" fill="#666666">[datetime(6)]</text>
<polygon fill="none" stroke="#000000" points="255,-162.5 255,-192.5 542,-192.5 542,-162.5 255,-162.5"/>
<text text-anchor="start" x="262" y="-173.9" font-family="Arial" font-size="14.00" fill="#000000">unlock_token    </text>
<text text-anchor="start" x="378.6802" y="-173.9" font-family="Arial" font-size="14.00" fill="#666666">[varchar(255)]</text>
<polygon fill="none" stroke="#000000" points="255,-132.5 255,-162.5 542,-162.5 542,-132.5 255,-132.5"/>
<text text-anchor="start" x="262" y="-143.9" font-family="Arial" font-size="14.00" fill="#000000">reset_password_sent_at    </text>
<text text-anchor="start" x="448.6956" y="-143.9" font-family="Arial" font-size="14.00" fill="#666666">[datetime(6)]</text>
<polygon fill="none" stroke="#000000" points="255,-102.5 255,-132.5 542,-132.5 542,-102.5 255,-102.5"/>
<text text-anchor="start" x="262" y="-113.9" font-family="Arial" font-size="14.00" fill="#000000">password_changed_at    </text>
<text text-anchor="start" x="437.0364" y="-113.9" font-family="Arial" font-size="14.00" fill="#666666">[datetime(6)]</text>
<polygon fill="none" stroke="#000000" points="255,-72.5 255,-102.5 542,-102.5 542,-72.5 255,-72.5"/>
<text text-anchor="start" x="262" y="-83.9" font-family="Arial" font-size="14.00" fill="#000000">reset_password_token    </text>
<text text-anchor="start" x="437.0224" y="-83.9" font-family="Arial" font-size="14.00" fill="#666666">[varchar(255)]</text>
<polygon fill="none" stroke="#000000" points="255,-42.5 255,-72.5 542,-72.5 542,-42.5 255,-42.5"/>
<text text-anchor="start" x="261.6087" y="-53.9" font-family="Arial" font-size="14.00" fill="#000000">receive_welcome_mail_at    </text>
<text text-anchor="start" x="456.8275" y="-53.9" font-family="Arial" font-size="14.00" fill="#666666">[datetime(6)]</text>
</g>
<!-- login_histories&#45;&gt;accounts -->
<g id="edge1" class="edge">
<title>login_histories:account_id&#45;&gt;accounts:id</title>
<path fill="none" stroke="#000000" d="M260.8197,-726.6257C206.6701,-716.6915 229.3367,-624.5639 271,-577 351.0588,-485.6028 461.9412,-632.3972 542,-541 569.3812,-509.7409 583.5556,-447.5 542,-447.5"/>
<polygon fill="#000000" stroke="#000000" points="261.0367,-726.6442 270.6149,-731.9835 266.0183,-727.0721 271,-727.5 271,-727.5 271,-727.5 266.0183,-727.0721 271.3851,-723.0165 261.0367,-726.6442 261.0367,-726.6442"/>
<text text-anchor="start" x="7.377" y="-737.5" font-family="Arial" font-size="10.00" fill="#000000">FOREIGN KEY (account_id) REFERENCES accounts (id)</text>
</g>
</g>
</svg>
