<?xml version="1.0" encoding="UTF-8" standalone="no"?>
<!DOCTYPE svg PUBLIC "-//W3C//DTD SVG 1.1//EN"
 "http://www.w3.org/Graphics/SVG/1.1/DTD/svg11.dtd">
<!-- Generated by graphviz version 2.40.1 (20161225.0304)
 -->
<!-- Title: personality_type_groups Pages: 1 -->
<svg width="931pt" height="682pt"
 viewBox="0.00 0.00 931.00 682.00" xmlns="http://www.w3.org/2000/svg" xmlns:xlink="http://www.w3.org/1999/xlink">
<g id="graph0" class="graph" transform="scale(1 1) rotate(0) translate(4 678)">
<title>personality_type_groups</title>
<polygon fill="#ffffff" stroke="transparent" points="-4,4 -4,-678 927,-678 927,4 -4,4"/>
<!-- personality_type_groups -->
<g id="node1" class="node">
<title>personality_type_groups</title>
<polygon fill="#efefef" stroke="transparent" points="289,-225.5 289,-260.5 626,-260.5 626,-225.5 289,-225.5"/>
<polygon fill="none" stroke="#000000" points="289,-225.5 289,-260.5 626,-260.5 626,-225.5 289,-225.5"/>
<text text-anchor="start" x="295.6871" y="-238.3" font-family="Arial Bold" font-size="18.00" fill="#000000">personality_type_groups</text>
<text text-anchor="start" x="491.7449" y="-238.3" font-family="Arial" font-size="14.00" fill="#000000">    </text>
<text text-anchor="start" x="525.9497" y="-238.3" font-family="Arial" font-size="14.00" fill="#666666">[BASE TABLE]</text>
<polygon fill="none" stroke="#000000" points="289,-195.5 289,-225.5 626,-225.5 626,-195.5 289,-195.5"/>
<text text-anchor="start" x="296" y="-206.9" font-family="Arial" font-size="14.00" fill="#000000">id </text>
<text text-anchor="start" x="310.7798" y="-206.9" font-family="Arial" font-size="14.00" fill="#666666">[bigint]</text>
<polygon fill="none" stroke="#000000" points="289,-165.5 289,-195.5 626,-195.5 626,-165.5 289,-165.5"/>
<text text-anchor="start" x="296" y="-176.9" font-family="Arial" font-size="14.00" fill="#000000">label </text>
<text text-anchor="start" x="329.4516" y="-176.9" font-family="Arial" font-size="14.00" fill="#666666">[varchar(255)]</text>
<polygon fill="none" stroke="#000000" points="289,-135.5 289,-165.5 626,-165.5 626,-135.5 289,-135.5"/>
<text text-anchor="start" x="296" y="-146.9" font-family="Arial" font-size="14.00" fill="#000000">value </text>
<text text-anchor="start" x="333.345" y="-146.9" font-family="Arial" font-size="14.00" fill="#666666">[varchar(255)]</text>
<polygon fill="none" stroke="#000000" points="289,-105.5 289,-135.5 626,-135.5 626,-105.5 289,-105.5"/>
<text text-anchor="start" x="296" y="-116.9" font-family="Arial" font-size="14.00" fill="#000000">created_at </text>
<text text-anchor="start" x="366.028" y="-116.9" font-family="Arial" font-size="14.00" fill="#666666">[datetime(6)]</text>
<polygon fill="none" stroke="#000000" points="289,-75.5 289,-105.5 626,-105.5 626,-75.5 289,-75.5"/>
<text text-anchor="start" x="296" y="-86.9" font-family="Arial" font-size="14.00" fill="#000000">updated_at </text>
<text text-anchor="start" x="369.9326" y="-86.9" font-family="Arial" font-size="14.00" fill="#666666">[datetime(6)]</text>
<polygon fill="none" stroke="#000000" points="289,-45.5 289,-75.5 626,-75.5 626,-45.5 289,-45.5"/>
<text text-anchor="start" x="296" y="-56.9" font-family="Arial" font-size="14.00" fill="#000000">comment </text>
<text text-anchor="start" x="357.4502" y="-56.9" font-family="Arial" font-size="14.00" fill="#666666">[json]</text>
<polygon fill="none" stroke="#000000" stroke-width="3" points="287,-44.5 287,-262.5 627,-262.5 627,-44.5 287,-44.5"/>
</g>
<!-- action_comments -->
<g id="node2" class="node">
<title>action_comments</title>
<polygon fill="#efefef" stroke="transparent" points="127,-595.5 127,-630.5 409,-630.5 409,-595.5 127,-595.5"/>
<polygon fill="none" stroke="#000000" points="127,-595.5 127,-630.5 409,-630.5 409,-595.5 127,-595.5"/>
<text text-anchor="start" x="133.7028" y="-608.3" font-family="Arial Bold" font-size="18.00" fill="#000000">action_comments</text>
<text text-anchor="start" x="274.7292" y="-608.3" font-family="Arial" font-size="14.00" fill="#000000">    </text>
<text text-anchor="start" x="308.934" y="-608.3" font-family="Arial" font-size="14.00" fill="#666666">[BASE TABLE]</text>
<polygon fill="none" stroke="#000000" points="127,-565.5 127,-595.5 409,-595.5 409,-565.5 127,-565.5"/>
<text text-anchor="start" x="134" y="-576.9" font-family="Arial" font-size="14.00" fill="#000000">id    </text>
<text text-anchor="start" x="179.094" y="-576.9" font-family="Arial" font-size="14.00" fill="#666666">[bigint]</text>
<polygon fill="none" stroke="#000000" points="127,-535.5 127,-565.5 409,-565.5 409,-535.5 127,-535.5"/>
<text text-anchor="start" x="134" y="-546.9" font-family="Arial" font-size="14.00" fill="#000000">action_id    </text>
<text text-anchor="start" x="224.2216" y="-546.9" font-family="Arial" font-size="14.00" fill="#666666">[bigint]</text>
<polygon fill="none" stroke="#000000" points="127,-505.5 127,-535.5 409,-535.5 409,-505.5 127,-505.5"/>
<text text-anchor="start" x="134" y="-516.9" font-family="Arial" font-size="14.00" fill="#000000">personality_type_group_id    </text>
<text text-anchor="start" x="332.366" y="-516.9" font-family="Arial" font-size="14.00" fill="#666666">[bigint]</text>
<polygon fill="none" stroke="#000000" points="127,-475.5 127,-505.5 409,-505.5 409,-475.5 127,-475.5"/>
<text text-anchor="start" x="134" y="-486.9" font-family="Arial" font-size="14.00" fill="#000000">created_at    </text>
<text text-anchor="start" x="234.3422" y="-486.9" font-family="Arial" font-size="14.00" fill="#666666">[datetime(6)]</text>
<polygon fill="none" stroke="#000000" points="127,-445.5 127,-475.5 409,-475.5 409,-445.5 127,-445.5"/>
<text text-anchor="start" x="134" y="-456.9" font-family="Arial" font-size="14.00" fill="#000000">updated_at    </text>
<text text-anchor="start" x="238.2468" y="-456.9" font-family="Arial" font-size="14.00" fill="#666666">[datetime(6)]</text>
<polygon fill="none" stroke="#000000" points="127,-415.5 127,-445.5 409,-445.5 409,-415.5 127,-415.5"/>
<text text-anchor="start" x="134" y="-426.9" font-family="Arial" font-size="14.00" fill="#000000">episode    </text>
<text text-anchor="start" x="217.2244" y="-426.9" font-family="Arial" font-size="14.00" fill="#666666">[json]</text>
<polygon fill="none" stroke="#000000" points="127,-385.5 127,-415.5 409,-415.5 409,-385.5 127,-385.5"/>
<text text-anchor="start" x="134" y="-396.9" font-family="Arial" font-size="14.00" fill="#000000">advice    </text>
<text text-anchor="start" x="208.6592" y="-396.9" font-family="Arial" font-size="14.00" fill="#666666">[json]</text>
</g>
<!-- action_comments&#45;&gt;personality_type_groups -->
<g id="edge1" class="edge">
<title>action_comments:personality_type_group_id&#45;&gt;personality_type_groups:id</title>
<path fill="none" stroke="#000000" d="M419.374,-519.7642C484.8743,-509.9049 453.8838,-403.3252 409,-343 375.7619,-298.327 322.2381,-351.673 289,-307 263.3983,-272.5905 246.1111,-210.5 289,-210.5"/>
<polygon fill="#000000" stroke="#000000" points="418.9749,-519.7924 408.6816,-516.0113 413.9875,-520.1462 409,-520.5 409,-520.5 409,-520.5 413.9875,-520.1462 409.3184,-524.9887 418.9749,-519.7924 418.9749,-519.7924"/>
<text text-anchor="start" x="7.471" y="-530.5" font-family="Arial" font-size="10.00" fill="#000000">FOREIGN KEY (personality_type_group_id) REFERENCES personality_type_groups (id)</text>
</g>
<!-- spi_results -->
<g id="node3" class="node">
<title>spi_results</title>
<polygon fill="#efefef" stroke="transparent" points="514,-580.5 514,-615.5 783,-615.5 783,-580.5 514,-580.5"/>
<polygon fill="none" stroke="#000000" points="514,-580.5 514,-615.5 783,-615.5 783,-580.5 514,-580.5"/>
<text text-anchor="start" x="541.7122" y="-593.3" font-family="Arial Bold" font-size="18.00" fill="#000000">spi_results</text>
<text text-anchor="start" x="627.7198" y="-593.3" font-family="Arial" font-size="14.00" fill="#000000">    </text>
<text text-anchor="start" x="661.9246" y="-593.3" font-family="Arial" font-size="14.00" fill="#666666">[BASE TABLE]</text>
<polygon fill="none" stroke="#000000" points="514,-550.5 514,-580.5 783,-580.5 783,-550.5 514,-550.5"/>
<text text-anchor="start" x="521" y="-561.9" font-family="Arial" font-size="14.00" fill="#000000">id    </text>
<text text-anchor="start" x="566.094" y="-561.9" font-family="Arial" font-size="14.00" fill="#666666">[bigint]</text>
<polygon fill="none" stroke="#000000" points="514,-520.5 514,-550.5 783,-550.5 783,-520.5 514,-520.5"/>
<text text-anchor="start" x="521" y="-531.9" font-family="Arial" font-size="14.00" fill="#000000">personality_type_group_id    </text>
<text text-anchor="start" x="719.366" y="-531.9" font-family="Arial" font-size="14.00" fill="#666666">[bigint]</text>
<polygon fill="none" stroke="#000000" points="514,-490.5 514,-520.5 783,-520.5 783,-490.5 514,-490.5"/>
<text text-anchor="start" x="520.9229" y="-501.9" font-family="Arial" font-size="14.00" fill="#000000">management_style_coordinates    </text>
<text text-anchor="start" x="753.5161" y="-501.9" font-family="Arial" font-size="14.00" fill="#666666">[int]</text>
<polygon fill="none" stroke="#000000" points="514,-460.5 514,-490.5 783,-490.5 783,-460.5 514,-460.5"/>
<text text-anchor="start" x="521" y="-471.9" font-family="Arial" font-size="14.00" fill="#000000">created_at    </text>
<text text-anchor="start" x="621.3422" y="-471.9" font-family="Arial" font-size="14.00" fill="#666666">[datetime(6)]</text>
<polygon fill="none" stroke="#000000" points="514,-430.5 514,-460.5 783,-460.5 783,-430.5 514,-430.5"/>
<text text-anchor="start" x="521" y="-441.9" font-family="Arial" font-size="14.00" fill="#000000">updated_at    </text>
<text text-anchor="start" x="625.2468" y="-441.9" font-family="Arial" font-size="14.00" fill="#666666">[datetime(6)]</text>
<polygon fill="none" stroke="#000000" points="514,-400.5 514,-430.5 783,-430.5 783,-400.5 514,-400.5"/>
<text text-anchor="start" x="521" y="-411.9" font-family="Arial" font-size="14.00" fill="#000000">freshman_id    </text>
<text text-anchor="start" x="632.2188" y="-411.9" font-family="Arial" font-size="14.00" fill="#666666">[bigint]</text>
</g>
<!-- spi_results&#45;&gt;personality_type_groups -->
<g id="edge2" class="edge">
<title>spi_results:personality_type_group_id&#45;&gt;personality_type_groups:id</title>
<path fill="none" stroke="#000000" d="M503.6537,-534.7833C438.5193,-525.1774 473.3139,-421.2323 514,-358 543.5959,-312.0034 596.4041,-352.9966 626,-307 649.2073,-270.9323 668.8889,-210.5 626,-210.5"/>
<polygon fill="#000000" stroke="#000000" points="504.0239,-534.8089 513.689,-539.9892 509.012,-535.1544 514,-535.5 514,-535.5 514,-535.5 509.012,-535.1544 514.311,-531.0108 504.0239,-534.8089 504.0239,-534.8089"/>
<text text-anchor="start" x="521.471" y="-545.5" font-family="Arial" font-size="10.00" fill="#000000">FOREIGN KEY (personality_type_group_id) REFERENCES personality_type_groups (id)</text>
</g>
</g>
</svg>
