<?xml version="1.0" encoding="UTF-8" standalone="no"?>
<!DOCTYPE svg PUBLIC "-//W3C//DTD SVG 1.1//EN"
 "http://www.w3.org/Graphics/SVG/1.1/DTD/svg11.dtd">
<!-- Generated by graphviz version 2.40.1 (20161225.0304)
 -->
<!-- Title: spi_results Pages: 1 -->
<svg width="934pt" height="712pt"
 viewBox="0.00 0.00 934.00 712.00" xmlns="http://www.w3.org/2000/svg" xmlns:xlink="http://www.w3.org/1999/xlink">
<g id="graph0" class="graph" transform="scale(1 1) rotate(0) translate(4 708)">
<title>spi_results</title>
<polygon fill="#ffffff" stroke="transparent" points="-4,4 -4,-708 930,-708 930,4 -4,4"/>
<!-- spi_results -->
<g id="node1" class="node">
<title>spi_results</title>
<polygon fill="#efefef" stroke="transparent" points="409,-622.5 409,-657.5 647,-657.5 647,-622.5 409,-622.5"/>
<polygon fill="none" stroke="#000000" points="409,-622.5 409,-657.5 647,-657.5 647,-622.5 409,-622.5"/>
<text text-anchor="start" x="421.2122" y="-635.3" font-family="Arial Bold" font-size="18.00" fill="#000000">spi_results</text>
<text text-anchor="start" x="507.2198" y="-635.3" font-family="Arial" font-size="14.00" fill="#000000">    </text>
<text text-anchor="start" x="541.4246" y="-635.3" font-family="Arial" font-size="14.00" fill="#666666">[BASE TABLE]</text>
<polygon fill="none" stroke="#000000" points="409,-592.5 409,-622.5 647,-622.5 647,-592.5 409,-592.5"/>
<text text-anchor="start" x="416" y="-603.9" font-family="Arial" font-size="14.00" fill="#000000">id </text>
<text text-anchor="start" x="430.7798" y="-603.9" font-family="Arial" font-size="14.00" fill="#666666">[bigint]</text>
<polygon fill="none" stroke="#000000" points="409,-562.5 409,-592.5 647,-592.5 647,-562.5 409,-562.5"/>
<text text-anchor="start" x="416" y="-573.9" font-family="Arial" font-size="14.00" fill="#000000">personality_type_group_id </text>
<text text-anchor="start" x="584.0518" y="-573.9" font-family="Arial" font-size="14.00" fill="#666666">[bigint]</text>
<polygon fill="none" stroke="#000000" points="409,-532.5 409,-562.5 647,-562.5 647,-532.5 409,-532.5"/>
<text text-anchor="start" x="415.58" y="-543.9" font-family="Arial" font-size="14.00" fill="#000000">management_style_coordinates </text>
<text text-anchor="start" x="617.859" y="-543.9" font-family="Arial" font-size="14.00" fill="#666666">[int]</text>
<polygon fill="none" stroke="#000000" points="409,-502.5 409,-532.5 647,-532.5 647,-502.5 409,-502.5"/>
<text text-anchor="start" x="416" y="-513.9" font-family="Arial" font-size="14.00" fill="#000000">created_at </text>
<text text-anchor="start" x="486.028" y="-513.9" font-family="Arial" font-size="14.00" fill="#666666">[datetime(6)]</text>
<polygon fill="none" stroke="#000000" points="409,-472.5 409,-502.5 647,-502.5 647,-472.5 409,-472.5"/>
<text text-anchor="start" x="416" y="-483.9" font-family="Arial" font-size="14.00" fill="#000000">updated_at </text>
<text text-anchor="start" x="489.9326" y="-483.9" font-family="Arial" font-size="14.00" fill="#666666">[datetime(6)]</text>
<polygon fill="none" stroke="#000000" points="409,-442.5 409,-472.5 647,-472.5 647,-442.5 409,-442.5"/>
<text text-anchor="start" x="416" y="-453.9" font-family="Arial" font-size="14.00" fill="#000000">freshman_id </text>
<text text-anchor="start" x="496.9046" y="-453.9" font-family="Arial" font-size="14.00" fill="#666666">[bigint]</text>
<polygon fill="none" stroke="#000000" stroke-width="3" points="407.5,-441.5 407.5,-659.5 648.5,-659.5 648.5,-441.5 407.5,-441.5"/>
</g>
<!-- personality_type_groups -->
<g id="node2" class="node">
<title>personality_type_groups</title>
<polygon fill="#efefef" stroke="transparent" points="169,-252.5 169,-287.5 506,-287.5 506,-252.5 169,-252.5"/>
<polygon fill="none" stroke="#000000" points="169,-252.5 169,-287.5 506,-287.5 506,-252.5 169,-252.5"/>
<text text-anchor="start" x="175.6871" y="-265.3" font-family="Arial Bold" font-size="18.00" fill="#000000">personality_type_groups</text>
<text text-anchor="start" x="371.7449" y="-265.3" font-family="Arial" font-size="14.00" fill="#000000">    </text>
<text text-anchor="start" x="405.9497" y="-265.3" font-family="Arial" font-size="14.00" fill="#666666">[BASE TABLE]</text>
<polygon fill="none" stroke="#000000" points="169,-222.5 169,-252.5 506,-252.5 506,-222.5 169,-222.5"/>
<text text-anchor="start" x="176" y="-233.9" font-family="Arial" font-size="14.00" fill="#000000">id    </text>
<text text-anchor="start" x="221.094" y="-233.9" font-family="Arial" font-size="14.00" fill="#666666">[bigint]</text>
<polygon fill="none" stroke="#000000" points="169,-192.5 169,-222.5 506,-222.5 506,-192.5 169,-192.5"/>
<text text-anchor="start" x="176" y="-203.9" font-family="Arial" font-size="14.00" fill="#000000">label    </text>
<text text-anchor="start" x="239.7658" y="-203.9" font-family="Arial" font-size="14.00" fill="#666666">[varchar(255)]</text>
<polygon fill="none" stroke="#000000" points="169,-162.5 169,-192.5 506,-192.5 506,-162.5 169,-162.5"/>
<text text-anchor="start" x="176" y="-173.9" font-family="Arial" font-size="14.00" fill="#000000">value    </text>
<text text-anchor="start" x="243.6592" y="-173.9" font-family="Arial" font-size="14.00" fill="#666666">[varchar(255)]</text>
<polygon fill="none" stroke="#000000" points="169,-132.5 169,-162.5 506,-162.5 506,-132.5 169,-132.5"/>
<text text-anchor="start" x="176" y="-143.9" font-family="Arial" font-size="14.00" fill="#000000">created_at    </text>
<text text-anchor="start" x="276.3422" y="-143.9" font-family="Arial" font-size="14.00" fill="#666666">[datetime(6)]</text>
<polygon fill="none" stroke="#000000" points="169,-102.5 169,-132.5 506,-132.5 506,-102.5 169,-102.5"/>
<text text-anchor="start" x="176" y="-113.9" font-family="Arial" font-size="14.00" fill="#000000">updated_at    </text>
<text text-anchor="start" x="280.2468" y="-113.9" font-family="Arial" font-size="14.00" fill="#666666">[datetime(6)]</text>
<polygon fill="none" stroke="#000000" points="169,-72.5 169,-102.5 506,-102.5 506,-72.5 169,-72.5"/>
<text text-anchor="start" x="176" y="-83.9" font-family="Arial" font-size="14.00" fill="#000000">comment    </text>
<text text-anchor="start" x="267.7644" y="-83.9" font-family="Arial" font-size="14.00" fill="#666666">[json]</text>
</g>
<!-- spi_results&#45;&gt;personality_type_groups -->
<g id="edge1" class="edge">
<title>spi_results:personality_type_group_id&#45;&gt;personality_type_groups:id</title>
<path fill="none" stroke="#000000" d="M398.9214,-576.85C332.604,-567.7319 373.1667,-464.7228 409,-397 433.387,-350.91 481.613,-377.09 506,-331 525.4349,-294.2692 547.5556,-237.5 506,-237.5"/>
<polygon fill="#000000" stroke="#000000" points="399.0207,-576.8563 408.7103,-581.9907 404.0104,-577.1781 409,-577.5 409,-577.5 409,-577.5 404.0104,-577.1781 409.2897,-573.0093 399.0207,-576.8563 399.0207,-576.8563"/>
<text text-anchor="start" x="7.471" y="-587.5" font-family="Arial" font-size="10.00" fill="#000000">FOREIGN KEY (personality_type_group_id) REFERENCES personality_type_groups (id)</text>
</g>
<!-- freshmen -->
<g id="node3" class="node">
<title>freshmen</title>
<polygon fill="#efefef" stroke="transparent" points="610,-282.5 610,-317.5 826,-317.5 826,-282.5 610,-282.5"/>
<polygon fill="none" stroke="#000000" points="610,-282.5 610,-317.5 826,-317.5 826,-282.5 610,-282.5"/>
<text text-anchor="start" x="616.7103" y="-295.3" font-family="Arial Bold" font-size="18.00" fill="#000000">freshmen</text>
<text text-anchor="start" x="691.7217" y="-295.3" font-family="Arial" font-size="14.00" fill="#000000">    </text>
<text text-anchor="start" x="725.9265" y="-295.3" font-family="Arial" font-size="14.00" fill="#666666">[BASE TABLE]</text>
<polygon fill="none" stroke="#000000" points="610,-252.5 610,-282.5 826,-282.5 826,-252.5 610,-252.5"/>
<text text-anchor="start" x="617" y="-263.9" font-family="Arial" font-size="14.00" fill="#000000">id    </text>
<text text-anchor="start" x="662.094" y="-263.9" font-family="Arial" font-size="14.00" fill="#666666">[bigint]</text>
<polygon fill="none" stroke="#000000" points="610,-222.5 610,-252.5 826,-252.5 826,-222.5 610,-222.5"/>
<text text-anchor="start" x="617" y="-233.9" font-family="Arial" font-size="14.00" fill="#000000">customer_id    </text>
<text text-anchor="start" x="727.4362" y="-233.9" font-family="Arial" font-size="14.00" fill="#666666">[bigint]</text>
<polygon fill="none" stroke="#000000" points="610,-192.5 610,-222.5 826,-222.5 826,-192.5 610,-192.5"/>
<text text-anchor="start" x="617" y="-203.9" font-family="Arial" font-size="14.00" fill="#000000">name_kanji    </text>
<text text-anchor="start" x="722.7742" y="-203.9" font-family="Arial" font-size="14.00" fill="#666666">[varchar(255)]</text>
<polygon fill="none" stroke="#000000" points="610,-162.5 610,-192.5 826,-192.5 826,-162.5 610,-162.5"/>
<text text-anchor="start" x="617" y="-173.9" font-family="Arial" font-size="14.00" fill="#000000">name_kana    </text>
<text text-anchor="start" x="724.3436" y="-173.9" font-family="Arial" font-size="14.00" fill="#666666">[varchar(255)]</text>
<polygon fill="none" stroke="#000000" points="610,-132.5 610,-162.5 826,-162.5 826,-132.5 610,-132.5"/>
<text text-anchor="start" x="617" y="-143.9" font-family="Arial" font-size="14.00" fill="#000000">entrance_year    </text>
<text text-anchor="start" x="740.6774" y="-143.9" font-family="Arial" font-size="14.00" fill="#666666">[int]</text>
<polygon fill="none" stroke="#000000" points="610,-102.5 610,-132.5 826,-132.5 826,-102.5 610,-102.5"/>
<text text-anchor="start" x="617" y="-113.9" font-family="Arial" font-size="14.00" fill="#000000">disabled_flg    </text>
<text text-anchor="start" x="725.8934" y="-113.9" font-family="Arial" font-size="14.00" fill="#666666">[tinyint(1)]</text>
<polygon fill="none" stroke="#000000" points="610,-72.5 610,-102.5 826,-102.5 826,-72.5 610,-72.5"/>
<text text-anchor="start" x="617" y="-83.9" font-family="Arial" font-size="14.00" fill="#000000">created_at    </text>
<text text-anchor="start" x="717.3422" y="-83.9" font-family="Arial" font-size="14.00" fill="#666666">[datetime(6)]</text>
<polygon fill="none" stroke="#000000" points="610,-42.5 610,-72.5 826,-72.5 826,-42.5 610,-42.5"/>
<text text-anchor="start" x="617" y="-53.9" font-family="Arial" font-size="14.00" fill="#000000">updated_at    </text>
<text text-anchor="start" x="721.2468" y="-53.9" font-family="Arial" font-size="14.00" fill="#666666">[datetime(6)]</text>
</g>
<!-- spi_results&#45;&gt;freshmen -->
<g id="edge2" class="edge">
<title>spi_results:freshman_id&#45;&gt;freshmen:id</title>
<path fill="none" stroke="#000000" d="M656.9541,-454.8211C668.6588,-446.0714 655.7438,-417.707 647,-397 638.0748,-375.8633 618.9252,-382.1367 610,-361 593.8348,-322.7175 568.4444,-267.5 610,-267.5"/>
<polygon fill="#000000" stroke="#000000" points="656.6564,-454.9011 645.8305,-453.1546 651.8282,-456.2006 647,-457.5 647,-457.5 647,-457.5 651.8282,-456.2006 648.1695,-461.8454 656.6564,-454.9011 656.6564,-454.9011"/>
<text text-anchor="start" x="654.219" y="-467.5" font-family="Arial" font-size="10.00" fill="#000000">FOREIGN KEY (freshman_id) REFERENCES freshmen (id)</text>
</g>
</g>
</svg>
